<?xml version="1.0" encoding="UTF-8" standalone="no"?>
<svg
   width="64"
   height="64"
   version="1.1"
   id="svg18"
   sodipodi:docname="qogir_ark.svg"
   inkscape:version="1.4.2 (ebf0e940d0, 2025-05-08)"
   xmlns:inkscape="http://www.inkscape.org/namespaces/inkscape"
   xmlns:sodipodi="http://sodipodi.sourceforge.net/DTD/sodipodi-0.dtd"
   xmlns:xlink="http://www.w3.org/1999/xlink"
   xmlns="http://www.w3.org/2000/svg"
   xmlns:svg="http://www.w3.org/2000/svg">
  <defs
     id="defs18">
    <linearGradient
       id="linearGradient30"
       inkscape:collect="always">
      <stop
         style="stop-color:#b59164;stop-opacity:1;"
         offset="0"
         id="stop29" />
      <stop
         style="stop-color:#916a46;stop-opacity:1;"
         offset="1"
         id="stop30" />
    </linearGradient>
    <linearGradient
       id="linearGradient28"
       inkscape:collect="always">
      <stop
         style="stop-color:#a98762;stop-opacity:1;"
         offset="0"
         id="stop27" />
      <stop
         style="stop-color:#926945;stop-opacity:1;"
         offset="1"
         id="stop28" />
    </linearGradient>
    <linearGradient
       id="linearGradient20"
       inkscape:collect="always">
      <stop
         style="stop-color:#c49a6c;stop-opacity:1;"
         offset="0"
         id="stop20" />
      <stop
         style="stop-color:#a97b50;stop-opacity:1;"
         offset="1"
         id="stop21" />
    </linearGradient>
    <linearGradient
       id="linearGradient18"
       inkscape:collect="always">
      <stop
         style="stop-color:#3ec884;stop-opacity:1;"
         offset="0"
         id="stop18" />
      <stop
         style="stop-color:#007755;stop-opacity:1;"
         offset="1"
         id="stop19" />
    </linearGradient>
    <linearGradient
       inkscape:collect="always"
       xlink:href="#linearGradient18"
       id="linearGradient19"
       x1="32"
       y1="14"
       x2="32"
       y2="68"
       gradientUnits="userSpaceOnUse" />
    <linearGradient
       inkscape:collect="always"
       xlink:href="#linearGradient20"
       id="linearGradient21"
       x1="33"
       y1="17"
       x2="33"
       y2="24"
       gradientUnits="userSpaceOnUse" />
    <linearGradient
       inkscape:collect="always"
       xlink:href="#linearGradient30"
       id="linearGradient25"
       x1="42"
       y1="13"
       x2="42"
       y2="30.559153"
       gradientUnits="userSpaceOnUse" />
    <linearGradient
       inkscape:collect="always"
       xlink:href="#linearGradient28"
       id="linearGradient27"
       x1="22"
       y1="11"
       x2="22"
       y2="39"
       gradientUnits="userSpaceOnUse" />
  </defs>
  <sodipodi:namedview
     id="namedview18"
     pagecolor="#ffffff"
     bordercolor="#000000"
     borderopacity="0.25"
     inkscape:showpageshadow="2"
     inkscape:pageopacity="0.0"
     inkscape:pagecheckerboard="0"
     inkscape:deskcolor="#d1d1d1"
     inkscape:zoom="6.2734375"
     inkscape:cx="27.895392"
     inkscape:cy="26.221669"
     inkscape:window-width="1920"
     inkscape:window-height="1012"
     inkscape:window-x="0"
     inkscape:window-y="0"
     inkscape:window-maximized="1"
     inkscape:current-layer="g18" />
  <g
     transform="translate(0 -3)"
     id="g18">
    <path
       id="rect1"
       style="fill:url(#linearGradient25)"
       d="M 30 11 C 28.892 11 28 11.892 28 13 L 28 41 C 28 42.108 28.892 43 30 43 L 54 43 C 55.108 43 56 42.108 56 41 L 56 13 C 56 11.892 55.108 11 54 11 L 30 11 z " />
    <path
       id="rect3"
       d="M 10 9 C 8.892 9 8 9.892 8 11 L 8 39 C 8 40.108 8.892 41 10 41 L 34 41 C 35.108 41 36 40.108 36 39 L 36 11 C 36 9.892 35.108 9 34 9 L 10 9 z "
       style="fill:url(#linearGradient27)" />
    <path
       id="rect5"
       d="M 21 15 C 19.892 15 19 15.892 19 17 L 19 45 C 19 46.108 19.892 47 21 47 L 45 47 C 46.108 47 47 46.108 47 45 L 47 17 C 47 15.892 46.108 15 45 15 L 21 15 z "
       style="fill:url(#linearGradient21);fill-opacity:1" />
    <path
       id="path6"
       d="M 7.1601562 23 C 5.9631562 23 5 23.916641 5 25.056641 L 5 55.914062 C 5 57.624063 6.4452344 59 8.2402344 59 L 55.759766 59 C 57.554766 59 59 57.624062 59 55.914062 L 59 25.056641 C 59 23.916641 58.036844 23 56.839844 23 L 7.1601562 23 z "
       style="fill:url(#linearGradient19)" />
    <rect
       width="13"
       height="6"
       x="41"
       y="50"
       fill="#eceff1"
       ry="1"
       id="rect16" />
    <rect
       width="2"
       height="4"
       x="42"
       y="50.999"
       fill="#37474f"
       ry="0"
       id="rect17"
       style="fill:#044937;fill-opacity:1" />
    <path
       fill="#37474f"
       d="M45 51h1v4h-1zm2 0h1v4h-1zm2 0h2v4h-2zm3 0h1v4h-1z"
       id="path17"
       style="fill:#044937;fill-opacity:1" />
    <path
       fill="#a97b50"
       d="m15 47-2 3h1v4h2v-4h1zm2 3h1v4h2v-4h1l-2-3zm-5 5v1h10v-1z"
       id="path18"
       style="fill:#044937;fill-opacity:1" />
    <path
       id="rect30"
       style="fill:#044937;fill-opacity:1"
       d="M -23 28.759766 L -24 28.759766 L -34.746094 28.759766 L -45.492188 28.759766 C -46.046188 28.759766 -46.492188 29.205766 -46.492188 29.759766 L -46.492188 34.240234 C -46.492188 34.794234 -46.046188 35.240234 -45.492188 35.240234 L -34.746094 35.240234 L -24 35.240234 L -23 35.240234 L -23 34.244141 L -23 29.755859 L -23 28.759766 z "
       transform="rotate(-90)" />
    <g
       id="g21"
       transform="translate(54.513821,16.201743)">
      <path
         d="m -24.514321,21.798257 v 6.500001 c 0,0.277002 0.223,0.499998 0.5,0.499998 h 3.001 c 0.277002,0 0.5,-0.222992 0.5,-0.499998 v -6.500001 z m 1,3.999999 h 2.001 v 2.000001 h -2.001 z"
         id="path4-5"
         style="fill:#ffffff;fill-opacity:1;stroke-width:0.999999"
         sodipodi:nodetypes="cssssccccccc" />
      <path
         d="m -22.513821,6.798257 v 2 h 2 v -2 z m 0,2 h -2 v 2 h 2 z m 0,2 v 2 h 2 v -2 z m 0,2 h -2 v 2 h 2 z m 0,2 v 2 h 2 v -2 z m 0,2 h -2 v 2 h 2 z m 0,2 v 2 h 2 v -2 z"
         id="path5-3"
         style="display:inline;fill:#ffffff;fill-opacity:1;stroke-width:0.999999"
         sodipodi:nodetypes="ccccccccccccccccccccccccccccccccccccc" />
    </g>
  </g>
</svg>
