<?xml version="1.0" encoding="UTF-8" standalone="no"?>
<!-- Uploaded to: SVG Repo, www.svgrepo.com, Generator: SVG Repo Mixer Tools -->

<svg
   width="800px"
   height="800px"
   viewBox="0 0 24 24"
   version="1.1"
   id="svg9"
   sodipodi:docname="calculator.svg"
   inkscape:version="1.4.2 (ebf0e940d0, 2025-05-08)"
   xmlns:inkscape="http://www.inkscape.org/namespaces/inkscape"
   xmlns:sodipodi="http://sodipodi.sourceforge.net/DTD/sodipodi-0.dtd"
   xmlns:xlink="http://www.w3.org/1999/xlink"
   xmlns="http://www.w3.org/2000/svg"
   xmlns:svg="http://www.w3.org/2000/svg">
  <defs
     id="defs9">
    <linearGradient
       id="linearGradient18"
       inkscape:collect="always">
      <stop
         style="stop-color:#fff6f4;stop-opacity:1;"
         offset="0"
         id="stop18" />
      <stop
         style="stop-color:#bcbcb1;stop-opacity:1;"
         offset="1"
         id="stop19" />
    </linearGradient>
    <linearGradient
       id="linearGradient16"
       inkscape:collect="always">
      <stop
         style="stop-color:#4c525f;stop-opacity:1;"
         offset="0"
         id="stop16" />
      <stop
         style="stop-color:#1f212a;stop-opacity:1;"
         offset="1"
         id="stop17" />
    </linearGradient>
    <linearGradient
       id="linearGradient11"
       inkscape:collect="always">
      <stop
         style="stop-color:#0040ba;stop-opacity:1;"
         offset="0"
         id="stop11" />
      <stop
         style="stop-color:#0086d4;stop-opacity:1;"
         offset="1"
         id="stop12" />
    </linearGradient>
    <linearGradient
       inkscape:collect="always"
       xlink:href="#linearGradient11"
       id="linearGradient12"
       x1="15.499998"
       y1="20.999998"
       x2="15.499998"
       y2="16.000002"
       gradientUnits="userSpaceOnUse" />
    <linearGradient
       inkscape:collect="always"
       xlink:href="#linearGradient16"
       id="linearGradient17"
       x1="11.999999"
       y1="1032.3999"
       x2="11.999999"
       y2="1059.3853"
       gradientUnits="userSpaceOnUse" />
    <linearGradient
       inkscape:collect="always"
       xlink:href="#linearGradient18"
       id="linearGradient19"
       x1="12"
       y1="1035.3683"
       x2="12"
       y2="1031.4"
       gradientUnits="userSpaceOnUse" />
  </defs>
  <sodipodi:namedview
     id="namedview9"
     pagecolor="#ffffff"
     bordercolor="#000000"
     borderopacity="0.25"
     inkscape:showpageshadow="2"
     inkscape:pageopacity="0.0"
     inkscape:pagecheckerboard="0"
     inkscape:deskcolor="#d1d1d1"
     inkscape:zoom="0.125625"
     inkscape:cx="-23.880597"
     inkscape:cy="549.25373"
     inkscape:window-width="1920"
     inkscape:window-height="1012"
     inkscape:window-x="0"
     inkscape:window-y="0"
     inkscape:window-maximized="1"
     inkscape:current-layer="g9" />
  <g
     transform="translate(0 -1028.4)"
     id="g9">
    <path
       d="m6 1029.4c-1.1046 0-2 0.9-2 2v18c0 1.1 0.8954 2 2 2h12c1.105 0 2-0.9 2-2v-18c0-1.1-0.895-2-2-2h-12z"
       fill="#95a5a6"
       id="path2"
       style="fill:url(#linearGradient17)" />
    <path
       d="m 14,16 c -0.552,0 -1,0.448 -1,1 v 3 c 0,0.552 0.448,1 1,1 h 3 c 0.552,0 1,-0.448 1,-1 v -3 c 0,-0.552 -0.448,-1 -1,-1 z"
       transform="translate(0,1028.4)"
       id="path11"
       style="fill:url(#linearGradient12)" />
    <path
       d="m 7,16 c -0.5523,0 -1,0.448 -1,1 v 3 c 0,0.552 0.4477,1 1,1 h 3 c 0.552,0 1,-0.448 1,-1 v -3 c 0,-0.552 -0.448,-1 -1,-1 z"
       transform="translate(0,1028.4)"
       id="path10"
       style="fill:#2c2c39;fill-opacity:1" />
    <path
       d="m 14,9 c -0.552,0 -1,0.4477 -1,1 v 3 c 0,0.552 0.448,1 1,1 h 3 c 0.552,0 1,-0.448 1,-1 V 10 C 18,9.4477 17.552,9 17,9 Z"
       transform="translate(0,1028.4)"
       id="path9"
       style="fill:#2c2c39;fill-opacity:1" />
    <path
       d="M 7,9 C 6.4477,9 6,9.4477 6,10 v 3 c 0,0.552 0.4477,1 1,1 h 3 c 0.552,0 1,-0.448 1,-1 V 10 C 11,9.4477 10.552,9 10,9 Z"
       transform="translate(0,1028.4)"
       id="path4"
       style="fill:#2c2c39;fill-opacity:1" />
    <path
       d="m8 1038.4v1h-1v1h1v1h1v-1h1v-1h-1v-1h-1z"
       fill="#2c3e50"
       id="path5"
       style="fill:#ffffff;fill-opacity:1" />
    <rect
       height="1"
       width="3"
       y="1039.4"
       x="14"
       fill="#2c3e50"
       id="rect5"
       style="fill:#ffffff;fill-opacity:1" />
    <rect
       height="1"
       width="3"
       y="1045.4"
       x="14"
       fill="#e74c3c"
       id="rect6"
       style="fill:#ffffff;fill-opacity:1" />
    <rect
       height="1"
       width="3"
       y="1047.4"
       x="14"
       fill="#e74c3c"
       id="rect7"
       style="fill:#ffffff;fill-opacity:1" />
    <path
       d="m7.0858 1046.2 0.7071 0.7-0.7071 0.7 0.7071 0.7 0.7071-0.7 0.7071 0.7 0.7071-0.7-0.7071-0.7 0.7071-0.7-0.7071-0.8-0.7071 0.8-0.7071-0.8-0.7071 0.8z"
       fill="#2c3e50"
       id="path7"
       style="fill:#ffffff;fill-opacity:1" />
    <path
       d="m7 1031.4c-0.5523 0-1 0.4-1 1v2c0 0.5 0.4477 1 1 1h10c0.552 0 1-0.5 1-1v-2c0-0.6-0.448-1-1-1h-10z"
       fill="#34495e"
       id="path8"
       style="fill:url(#linearGradient19);fill-opacity:1" />
  </g>
</svg>
