<?xml version="1.0" encoding="UTF-8" standalone="no"?>
<svg
   id="svg8"
   width="48"
   height="48"
   version="1.1"
   viewBox="0 0 12.7 12.7"
   sodipodi:docname="yosa-max_ark.svg"
   inkscape:version="1.4.2 (ebf0e940d0, 2025-05-08)"
   xmlns:inkscape="http://www.inkscape.org/namespaces/inkscape"
   xmlns:sodipodi="http://sodipodi.sourceforge.net/DTD/sodipodi-0.dtd"
   xmlns:xlink="http://www.w3.org/1999/xlink"
   xmlns="http://www.w3.org/2000/svg"
   xmlns:svg="http://www.w3.org/2000/svg">
  <sodipodi:namedview
     id="namedview1"
     pagecolor="#ffffff"
     bordercolor="#000000"
     borderopacity="0.25"
     inkscape:showpageshadow="2"
     inkscape:pageopacity="0.0"
     inkscape:pagecheckerboard="0"
     inkscape:deskcolor="#d1d1d1"
     inkscape:zoom="5.9146536"
     inkscape:cx="21.303023"
     inkscape:cy="20.711272"
     inkscape:window-width="1920"
     inkscape:window-height="1012"
     inkscape:window-x="0"
     inkscape:window-y="0"
     inkscape:window-maximized="1"
     inkscape:current-layer="svg8" />
  <defs
     id="defs2">
    <linearGradient
       id="linearGradient5"
       x1="23.355932"
       x2="23.355932"
       y1="44.883537"
       y2="2.5784509"
       gradientTransform="matrix(0.24732985,0,0,0.2504145,0.41408359,0.40737937)"
       gradientUnits="userSpaceOnUse">
      <stop
         id="stop4"
         style="stop-color:#088769;stop-opacity:1;"
         offset="0" />
      <stop
         id="stop5"
         style="stop-color:#0edb8e;stop-opacity:1;"
         offset="1" />
    </linearGradient>
    <linearGradient
       id="linearGradient988"
       x1="23.355932"
       x2="23.355932"
       y1="44.883537"
       y2="2.5784509"
       gradientTransform="matrix(0.24732985,0,0,0.2504145,0.41408359,0.40737937)"
       gradientUnits="userSpaceOnUse">
      <stop
         id="stop982"
         style="stop-color:#0ba788;stop-opacity:1;"
         offset="0" />
      <stop
         id="stop984"
         style="stop-color:#0edbb3"
         offset="1" />
    </linearGradient>
    <linearGradient
       id="b-2-7-7-2"
       x2="0"
       y1="543.79999"
       y2="503.79999"
       gradientTransform="matrix(0.26871149,0,0,0.28664958,-103.43746,-143.79705)"
       gradientUnits="userSpaceOnUse">
      <stop
         id="stop7-8-5-5-9"
         stop-color="#1d1e1e"
         offset="0" />
      <stop
         id="stop9-9-3-3-1"
         stop-color="#44484c"
         offset="1" />
    </linearGradient>
    <linearGradient
       id="a"
       x2="1.0000001"
       gradientTransform="matrix(0,-9.5822822,9.5822822,0,86.368416,7.5618643)"
       gradientUnits="userSpaceOnUse"
       x1="2.0112143e-08"
       y1="-8.3266727e-17"
       y2="5.5511151e-17">
      <stop
         stop-color="#313738"
         offset="0"
         id="stop1"
         style="stop-color:#241f31;stop-opacity:1;" />
      <stop
         stop-color="#535552"
         offset="1"
         id="stop2"
         style="stop-color:#312b44;stop-opacity:1;" />
    </linearGradient>
    <linearGradient
       inkscape:collect="always"
       xlink:href="#linearGradient5"
       id="linearGradient4"
       x1="19.769085"
       y1="8.5008678"
       x2="19.769085"
       y2="-2.9651139"
       gradientUnits="userSpaceOnUse"
       gradientTransform="translate(-13.419088,3.5821211)" />
  </defs>
  <path
     d="m 10.435167,0.6170084 c 0.909637,0 1.647825,0.7381875 1.647825,1.647825 v 8.1703336 c 0,0.909637 -0.738188,1.647825 -1.647825,1.647825 H 2.264833 c -0.909637,0 -1.647825,-0.738188 -1.647825,-1.647825 V 2.2648334 c 0,-0.9096375 0.738188,-1.647825 1.647825,-1.647825 z"
     fill="url(#a)"
     id="path4"
     style="fill:url(#linearGradient4);stroke-width:0.264583" />
  <path
     id="rect31-6"
     d="M 5.2751541,0.6170084 H 7.424846 V 12.082992 H 5.2751541 Z"
     style="fill:url(#b-2-7-7-2);stroke-width:0.710846;stroke-opacity:0.55" />
  <path
     id="rect13-7"
     d="m 6.0084722,1.2109556 c -0.133792,0 -0.2415331,0.1090848 -0.2415331,0.2445453 v 0.055267 c 0,0.1354606 0.1077411,0.2445454 0.2415331,0.2445454 h 0.7265315 c 0.1337918,0 0.2410499,-0.1090848 0.2410499,-0.2445454 v -0.055267 c 0,-0.1354605 -0.1072581,-0.2445453 -0.2410499,-0.2445453 z m -0.00242,0.7869471 c -0.1337921,0 -0.2415332,0.1090849 -0.2415332,0.2445454 v 0.055267 c 0,0.1354605 0.1077411,0.2445454 0.2415332,0.2445454 h 0.7260484 c 0.1337919,0 0.241533,-0.1090849 0.241533,-0.2445454 v -0.055267 c 0,-0.1354605 -0.1077411,-0.2445454 -0.241533,-0.2445454 z m -0.00773,0.7776543 c -0.1337921,0 -0.2415332,0.1090849 -0.2415332,0.2445455 v 0.055267 c 3e-7,0.1354605 0.1077411,0.2445453 0.2415332,0.2445453 h 0.7265304 c 0.1337921,0 0.2415332,-0.1090848 0.2415332,-0.2445453 v -0.055267 c 0,-0.1354606 -0.1077411,-0.2445455 -0.2415332,-0.2445455 z m 0.013526,0.8094453 c -0.1337919,0 -0.241533,0.1090848 -0.241533,0.2445456 v 0.054779 c 0,0.1354605 0.1077411,0.2445453 0.241533,0.2445453 h 0.7260484 c 0.1337921,0 0.2415332,-0.1090848 0.2415332,-0.2445453 v -0.054779 c 0,-0.1354608 -0.1077411,-0.2445456 -0.2415332,-0.2445456 z m 0,0.7952616 c -0.1337919,0 -0.241533,0.1090848 -0.241533,0.2445455 v 0.054779 c 0,0.1354605 0.1077411,0.2445453 0.241533,0.2445453 h 0.7260484 c 0.1337921,0 0.2415332,-0.1090848 0.2415332,-0.2445453 v -0.054779 c 0,-0.1354607 -0.1077411,-0.2445455 -0.2415332,-0.2445455 z m 0,0.8138472 c -0.1337919,0 -0.241533,0.1090848 -0.241533,0.2445456 v 0.054779 c 0,0.1354604 0.1077411,0.2445452 0.241533,0.2445452 h 0.7260484 c 0.1337921,0 0.2415332,-0.1090848 0.2415332,-0.2445452 v -0.054779 c 0,-0.1354608 -0.1077411,-0.2445456 -0.2415332,-0.2445456 z m 0.080672,0.8226508 c -0.1059133,0 -0.191777,0.07749 -0.191777,0.1731382 V 6.5332419 L 5.6046225,7.3197 c -0.033282,0.087976 -0.041631,0.1797654 -0.03623,0.2704671 -0.021033,0.1743135 0.027361,0.3524522 0.1425046,0.4978944 0.1494445,0.1884284 0.391629,0.3007909 0.6482745,0.3007909 0.2566923,0 0.4988356,-0.1123625 0.6482748,-0.3007909 C 7.1225832,7.94263 7.1709735,7.7648796 7.1499512,7.5906562 7.1554291,7.4998207 7.1470534,7.4082545 7.1137215,7.320189 L 6.8176003,6.5332419 V 6.1899001 c 0,-0.095667 -0.085864,-0.1731382 -0.1917774,-0.1731382 z M 6.0693317,7.2849745 H 6.649011 l 0.099512,0.2641089 c 0.00794,0.021059 0.011377,0.042891 0.014976,0.06456 -0.010284,0.055003 -0.033185,0.1084861 -0.070045,0.1550416 -0.1537694,0.1943817 -0.5152554,0.1943817 -0.6690466,0 -0.036852,-0.046556 -0.059284,-0.1000188 -0.069561,-0.1550416 0.0036,-0.021691 0.00704,-0.043468 0.014976,-0.06456 z"
     style="opacity:0.929;fill:#ffffff;stroke-width:0.24733" />
</svg>
