<?xml version="1.0" encoding="UTF-8" standalone="no"?>
<svg
   clip-rule="evenodd"
   fill-rule="evenodd"
   stroke-linejoin="round"
   stroke-miterlimit="2"
   viewBox="0 0 48 48"
   version="1.1"
   id="svg3"
   sodipodi:docname="flat-remix-blue-dark_appimagelauncher.svg"
   xml:space="preserve"
   inkscape:version="1.4.2 (ebf0e940d0, 2025-05-08)"
   xmlns:inkscape="http://www.inkscape.org/namespaces/inkscape"
   xmlns:sodipodi="http://sodipodi.sourceforge.net/DTD/sodipodi-0.dtd"
   xmlns:xlink="http://www.w3.org/1999/xlink"
   xmlns="http://www.w3.org/2000/svg"
   xmlns:svg="http://www.w3.org/2000/svg"><defs
     id="defs3"><linearGradient
       id="linearGradient15"
       inkscape:collect="always"><stop
         style="stop-color:#ffffff;stop-opacity:1;"
         offset="0"
         id="stop15" /><stop
         style="stop-color:#b1b9bf;stop-opacity:1;"
         offset="1"
         id="stop16" /></linearGradient><linearGradient
       id="b"
       x1="37.215"
       x2="102.17"
       y1="132.05"
       y2="-1.968"
       gradientUnits="userSpaceOnUse"><stop
         stop-color="#1b3f7c"
         offset="0"
         id="stop1-3" /><stop
         stop-color="#367bf0"
         offset="1"
         id="stop2-6" /></linearGradient><linearGradient
       id="a-7"
       x1="53.615"
       x2="123.04"
       y1="130.51"
       y2="11.064"
       gradientUnits="userSpaceOnUse"><stop
         stop-color="#367bf0"
         offset="0"
         id="stop3"
         style="stop-color:#ffffff;stop-opacity:1;" /><stop
         stop-color="#2656a8"
         offset="1"
         id="stop4"
         style="stop-color:#9fa8b6;stop-opacity:1;" /></linearGradient><linearGradient
       inkscape:collect="always"
       xlink:href="#linearGradient15"
       id="linearGradient16"
       x1="66.237984"
       y1="16.640524"
       x2="66.237984"
       y2="118.82911"
       gradientUnits="userSpaceOnUse" /><linearGradient
       inkscape:collect="always"
       xlink:href="#a"
       id="linearGradient5"
       x1="24.000004"
       y1="2.3319962"
       x2="24.000004"
       y2="45.668003"
       gradientUnits="userSpaceOnUse" /></defs><sodipodi:namedview
     id="namedview3"
     pagecolor="#ffffff"
     bordercolor="#000000"
     borderopacity="0.25"
     inkscape:showpageshadow="2"
     inkscape:pageopacity="0.0"
     inkscape:pagecheckerboard="0"
     inkscape:deskcolor="#d1d1d1"
     inkscape:zoom="8.3645833"
     inkscape:cx="26.181818"
     inkscape:cy="31.501868"
     inkscape:window-width="1920"
     inkscape:window-height="1012"
     inkscape:window-x="0"
     inkscape:window-y="0"
     inkscape:window-maximized="1"
     inkscape:current-layer="svg3" /><linearGradient
     id="a"
     x2="6.4458064e-08"
     gradientTransform="matrix(0,-45.5294,45.5294,0,267.172,46.7647)"
     gradientUnits="userSpaceOnUse"
     x1="1"
     y1="0"
     y2="0"><stop
       stop-color="#1c4a5a"
       offset="0"
       id="stop18"
       style="stop-color:#1b627c;stop-opacity:1;" /><stop
       stop-color="#1c4a5a"
       offset="1"
       id="stop17"
       style="stop-color:#0a3449;stop-opacity:1;" /></linearGradient><path
     d="m 39.44,2.332 c 3.438,0 6.228,2.79 6.228,6.228 v 30.88 c 0,3.438 -2.79,6.228 -6.228,6.228 H 8.56 c -3.438,0 -6.228,-2.79 -6.228,-6.228 V 8.56 c 0,-3.438 2.79,-6.228 6.228,-6.228 z"
     fill="url(#a)"
     id="path4"
     style="fill:url(#linearGradient5);fill-opacity:1" /><g
     id="g12"
     transform="matrix(0.2768466,0,0,0.2768466,5.2483492,5.2479893)"><path
       d="m 60.373,9.5193 -45.231,116.43 h 23.127 l 27.968,-72.808 27.97,72.808 h 23.127 L 72.103,9.5193 h -5.8664 z"
       fill="#2b62c0"
       id="path5"
       style="display:inline;fill:#ffffff;fill-opacity:1" /><g
       id="g3"
       style="display:inline"><path
         d="M 60.064,34.8 A 59.531,36.148 0 0 0 8.202,70.648 59.531,36.148 0 0 0 67.733,106.797 59.531,36.148 0 0 0 127.264,70.648 59.531,36.148 0 0 0 100.024,40.281 c -9.5e-4,0.03005 -0.006,0.05909 -0.008,0.08906 a 5.6033,5.6033 0 0 0 -5.431,-4.2197 5.6033,5.6033 0 0 0 -5.6032,5.6032 5.6033,5.6033 0 0 0 5.6032,5.6032 5.6033,5.6033 0 0 0 4.0772,-1.7595 c -0.02738,0.05715 -0.04711,0.11731 -0.07525,0.17417 a 47.37,28.764 0 0 1 16.517,21.825 47.37,28.764 0 0 1 -47.371,28.762 47.37,28.764 0 0 1 -47.369,-28.762 47.37,28.764 0 0 1 38.793,-28.289 c 0.045,-1.5672 0.35524,-3.0797 0.90648,-4.5067 z"
         fill="url(#a)"
         stroke-miterlimit="5"
         stroke-width="4.5317"
         id="path7"
         style="fill:url(#a-7)" /><path
         d="m 227.01,131.53 a 225,136.62 0 0 0 -1.9453,0.15821 c -0.8731,3.5244 -1.3757,7.1592 -1.4824,10.875 a 179.04,108.71 0 0 0 -146.62,106.92 179.04,108.71 0 0 0 0.06836,2.9902 179.04,108.71 0 0 1 146.55,-103.91 c 0.17008,-5.9232 1.3443,-11.64 3.4277,-17.033 z m 109.51,23.279 a 21.178,21.178 0 0 0 -0.21484,3 21.178,21.178 0 0 0 21.178,21.178 21.178,21.178 0 0 0 15.41,-6.6504 c -0.10349,0.216 -0.1788,0.44331 -0.28516,0.65821 a 179.04,108.71 0 0 1 62.357,79.492 179.04,108.71 0 0 0 0.0684,-3.0039 179.04,108.71 0 0 0 -62.426,-82.488 c 0.10636,-0.2149 0.18167,-0.44221 0.28516,-0.65821 a 21.178,21.178 0 0 1 -15.41,6.6504 21.178,21.178 0 0 1 -20.963,-18.178 z m -305.47,109.2 a 225,136.62 0 0 0 -0.05469,3.0117 225,136.62 0 0 0 225,136.62 225,136.62 0 0 0 225,-136.62 225,136.62 0 0 0 -0.0547,-2.9863 225,136.62 0 0 1 -224.95,133.61 225,136.62 0 0 1 -224.95,-133.64 z"
         opacity="0.2"
         stroke-miterlimit="5"
         stroke-width="17.128"
         id="path8"
         transform="scale(0.26458)"
         style="display:none" /></g><path
       d="M 197.32,115.42 57.23,476.02 h 87.41 L 197.322,338.88 V 115.42 Z"
       fill="#2b62c0"
       id="path9"
       style="display:inline;fill:#ffffff;fill-opacity:1"
       transform="scale(0.26458)" /><path
       d="m 228.18,35.979 -66.486,171.14 h 86.24 l 2.4102,-6.2754 2.4102,6.2754 h 86.25 l -66.486,-171.14 h -22.174 -22.164 z"
       fill="#2b62c0"
       id="path10"
       transform="scale(0.26458)"
       style="display:inline;fill:#ffffff;fill-opacity:1" /><path
       id="path11"
       style="display:none;fill:url(#linearGradient16)"
       d="M 60.371041,9.522112 52.20683,30.535716 51.112227,33.352404 42.780688,54.798272 15.143685,125.94752 h 23.12612 L 52.20683,89.658266 65.60004,54.798272 l 0.634452,-1.659336 0.641424,1.659336 15.429033,40.172657 C 90.026717,93.45644 96.887358,90.771843 102.30761,87.259898 L 89.695268,54.798272 72.104915,9.522112 H 66.234492 Z M 106.50476,98.08044 c -5.89026,3.0728 -12.775835,5.4583 -20.330352,6.95108 l 8.031743,20.916 h 23.126119 z" /></g></svg>
