<?xml version="1.0" encoding="UTF-8" standalone="no"?>
<svg
   clip-rule="evenodd"
   fill-rule="evenodd"
   stroke-linejoin="round"
   stroke-miterlimit="2"
   viewBox="0 0 48 48"
   version="1.1"
   id="svg4"
   sodipodi:docname="audacity.svg"
   inkscape:version="1.4.2 (ebf0e940d0, 2025-05-08)"
   xmlns:inkscape="http://www.inkscape.org/namespaces/inkscape"
   xmlns:sodipodi="http://sodipodi.sourceforge.net/DTD/sodipodi-0.dtd"
   xmlns:xlink="http://www.w3.org/1999/xlink"
   xmlns="http://www.w3.org/2000/svg"
   xmlns:svg="http://www.w3.org/2000/svg">
  <defs
     id="defs4">
    <inkscape:path-effect
       effect="perspective-envelope"
       up_left_point="165.29053,155.64553"
       up_right_point="283.60312,183.70249"
       down_left_point="164.43263,281.94698"
       down_right_point="292.33774,251.92049"
       id="path-effect1"
       is_visible="true"
       lpeversion="1"
       deform_type="perspective"
       horizontal_mirror="false"
       vertical_mirror="false"
       overflow_perspective="false" />
    <linearGradient
       inkscape:collect="always"
       xlink:href="#linearGradient12"
       id="linearGradient13"
       x1="132.726"
       y1="89.655998"
       x2="323.75699"
       y2="89.655998"
       gradientUnits="userSpaceOnUse" />
    <linearGradient
       id="linearGradient12"
       inkscape:collect="always">
      <stop
         style="stop-color:#ffffff;stop-opacity:1;"
         offset="0"
         id="stop12" />
      <stop
         style="stop-color:#c0c0c0;stop-opacity:1;"
         offset="1"
         id="stop13" />
    </linearGradient>
    <linearGradient
       inkscape:collect="always"
       xlink:href="#linearGradient16"
       id="linearGradient17"
       x1="279.63699"
       y1="174.8855"
       x2="279.63699"
       y2="273.22949"
       gradientUnits="userSpaceOnUse" />
    <linearGradient
       id="linearGradient16"
       inkscape:collect="always">
      <stop
         style="stop-color:#9d9d9d;stop-opacity:0;"
         offset="0"
         id="stop16" />
      <stop
         style="stop-color:#9d9d9d;stop-opacity:1;"
         offset="1"
         id="stop17" />
    </linearGradient>
    <linearGradient
       inkscape:collect="always"
       xlink:href="#linearGradient12"
       id="linearGradient15"
       x1="83.688507"
       y1="155.701"
       x2="83.688507"
       y2="292.41202"
       gradientUnits="userSpaceOnUse" />
  </defs>
  <sodipodi:namedview
     id="namedview4"
     pagecolor="#ffffff"
     bordercolor="#000000"
     borderopacity="0.25"
     inkscape:showpageshadow="2"
     inkscape:pageopacity="0.0"
     inkscape:pagecheckerboard="0"
     inkscape:deskcolor="#d1d1d1"
     inkscape:zoom="5.9146535"
     inkscape:cx="25.360742"
     inkscape:cy="25.614349"
     inkscape:window-width="1920"
     inkscape:window-height="1012"
     inkscape:window-x="0"
     inkscape:window-y="0"
     inkscape:window-maximized="1"
     inkscape:current-layer="svg4" />
  <linearGradient
     id="a"
     x2="1"
     gradientTransform="matrix(0 -43.336 43.336 0 24.5417 45.668)"
     gradientUnits="userSpaceOnUse">
    <stop
       stop-color="#8e8e8e"
       offset="0"
       id="stop1"
       style="stop-color:#146dbc;stop-opacity:0.99607843;" />
    <stop
       stop-color="#c3c3c3"
       offset="1"
       id="stop2"
       style="stop-color:#54bcff;stop-opacity:1;" />
  </linearGradient>
  <path
     d="m2.332 8.56c0-3.438 2.79-6.228 6.228-6.228h30.88c3.438 0 6.228 2.79 6.228 6.228v30.88c0 3.438-2.79 6.228-6.228 6.228h-30.88c-3.438 0-6.228-2.79-6.228-6.228z"
     fill="url(#a)"
     id="path2" />
  <g
     id="g12"
     transform="matrix(0.09668085,0,0,0.09668085,5.0432057,8.5363331)"
     style="opacity:0.85">
	<path
   style="fill:#c0c0c0;fill-opacity:1"
   d="m 298.526,153.455 c -13.935,0 -25.231,-11.296 -25.231,-25.231 0,-42.878 -34.884,-77.761 -77.762,-77.761 -42.877,0 -77.76,34.883 -77.76,77.761 0,13.936 -11.297,25.231 -25.231,25.231 -13.936,0 -25.231,-11.296 -25.231,-25.231 C 67.311,57.521 124.831,0 195.533,0 c 70.704,0 128.225,57.521 128.225,128.224 0,13.935 -11.296,25.231 -25.232,25.231 z"
   id="path1" />

	<path
   style="fill:url(#linearGradient13)"
   d="M 293.493,45.588 C 275.445,33.15 253.592,25.857 230.062,25.857 c -41.618,0 -78.01,22.807 -97.336,56.577 14.156,-19.365 37.036,-31.971 62.807,-31.971 42.878,0 77.762,34.883 77.762,77.761 0,13.936 11.297,25.231 25.231,25.231 13.936,0 25.231,-11.296 25.231,-25.231 10e-4,-31.459 -11.395,-60.302 -30.264,-82.636 z"
   id="path2-6" />

	<g
   id="g5">
		<g
   id="g3">
			<path
   style="fill:#ffffff;fill-opacity:1"
   d="m 282.882,128.224 c -37.75,0 -68.354,30.603 -68.354,68.355 v 54.957 c 0,37.752 30.604,68.355 68.354,68.355 h 25.582 c 37.752,0 68.355,-30.604 68.355,-68.355 v -54.957 c 0,-37.752 -30.604,-68.355 -68.355,-68.355 z"
   id="path3-7" />

		</g>

		<path
   style="fill:#c0c0c0;fill-opacity:1"
   d="m 351.239,251.535 c 0,37.752 -30.605,68.355 -68.357,68.355 -37.75,0 -68.354,-30.604 -68.354,-68.355 v -54.957 c 0,-37.752 30.604,-68.355 68.354,-68.355 37.752,0 68.357,30.603 68.357,68.355 z"
   id="path4-5" />

		<path
   style="fill:url(#linearGradient17);fill-opacity:1"
   d="m 328.809,243.823 c 0,27.157 -22.015,49.172 -49.173,49.172 -27.157,0 -49.171,-22.015 -49.171,-49.172 V 204.29 c 0,-27.156 22.014,-49.17 49.171,-49.17 27.158,0 49.173,22.014 49.173,49.17 z"
   id="path5" />

	</g>

	<g
   id="g8">
		<g
   id="g6">
			<path
   style="fill:#ffffff;fill-opacity:1"
   d="m 83.687,128.224 c -37.75,0 -68.354,30.603 -68.354,68.355 v 54.957 c 0,37.752 30.604,68.355 68.354,68.355 h 25.583 c 37.751,0 68.355,-30.604 68.355,-68.355 v -54.957 c 0,-37.752 -30.605,-68.355 -68.355,-68.355 z"
   id="path6" />

		</g>

		<path
   style="fill:url(#linearGradient15);fill-opacity:1"
   d="m 152.044,251.535 c 0,37.752 -30.606,68.355 -68.357,68.355 -37.75,0 -68.354,-30.604 -68.354,-68.355 v -54.957 c 0,-37.752 30.604,-68.355 68.354,-68.355 37.752,0 68.357,30.603 68.357,68.355 z"
   id="path7" />

		<path
   style="fill:#ffffff;fill-opacity:1"
   d="m 129.614,243.823 c 0,27.157 -22.016,49.172 -49.173,49.172 -27.158,0 -49.171,-22.015 -49.171,-49.172 V 204.29 c 0,-27.156 22.013,-49.17 49.171,-49.17 27.157,0 49.173,22.014 49.173,49.17 z"
   id="path8" />

		
	</g>

	<g
   id="g11"
   style="display:none">
		<path
   style="fill:#77b8e8"
   d="m 137.988,392.152 c -34.173,0 -61.974,-27.801 -61.974,-61.973 v -37.185 c 0,-2.445 1.981,-4.427 4.427,-4.427 2.444,0 4.426,1.981 4.426,4.427 v 37.185 c 0,29.29 23.829,53.12 53.121,53.12 29.289,0 53.12,-23.83 53.12,-53.12 0,-2.445 1.982,-4.427 4.427,-4.427 2.444,0 4.427,1.981 4.427,4.427 0,34.173 -27.802,61.973 -61.974,61.973 z"
   id="path9" />

		<rect
   x="187.409"
   y="292.10999"
   style="fill:#333e48"
   width="16.250999"
   height="43.608002"
   id="rect9" />

		<path
   style="fill:#ffa400"
   d="m 195.535,271.458 c -3.004,0 -5.439,2.435 -5.439,5.437 v 15.216 h 10.874 v -15.216 c 0.001,-3.002 -2.431,-5.437 -5.435,-5.437 z"
   id="path10" />

		<rect
   x="187.409"
   y="297.569"
   style="fill:#3e4a57"
   width="16.250999"
   height="4.684"
   id="rect10" />

		<rect
   x="187.409"
   y="306.57001"
   style="fill:#3e4a57"
   width="16.250999"
   height="4.684"
   id="rect11" />

	</g>

</g>
</svg>
