<?xml version="1.0" encoding="UTF-8" standalone="no"?>
<svg
   clip-rule="evenodd"
   fill-rule="evenodd"
   stroke-linejoin="round"
   stroke-miterlimit="2"
   viewBox="0 0 48 48"
   version="1.1"
   id="svg4"
   sodipodi:docname="aseprite.svg"
   inkscape:version="1.4.2 (ebf0e940d0, 2025-05-08)"
   xmlns:inkscape="http://www.inkscape.org/namespaces/inkscape"
   xmlns:sodipodi="http://sodipodi.sourceforge.net/DTD/sodipodi-0.dtd"
   xmlns:xlink="http://www.w3.org/1999/xlink"
   xmlns="http://www.w3.org/2000/svg"
   xmlns:svg="http://www.w3.org/2000/svg">
  <defs
     id="defs4">
    <linearGradient
       id="swatch10"
       inkscape:swatch="solid">
      <stop
         style="stop-color:#464a74;stop-opacity:1;"
         offset="0"
         id="stop10" />
    </linearGradient>
    <inkscape:path-effect
       effect="mirror_symmetry"
       start_point="24.752444,14.555141"
       end_point="24.752444,28.843435"
       center_point="24.752444,21.699288"
       id="path-effect7"
       is_visible="true"
       lpeversion="1.2"
       lpesatellites=""
       mode="free"
       discard_orig_path="false"
       fuse_paths="false"
       oposite_fuse="false"
       split_items="false"
       split_open="false"
       link_styles="false" />
    <linearGradient
       id="linearGradient5"
       inkscape:collect="always">
      <stop
         style="stop-color:#ffffff;stop-opacity:1;"
         offset="0"
         id="stop5" />
      <stop
         style="stop-color:#b9bbe9;stop-opacity:1;"
         offset="1"
         id="stop6" />
    </linearGradient>
    <linearGradient
       id="a-3"
       x2="1"
       gradientTransform="matrix(0,-39.954568,39.954568,0,24.499432,43.977284)"
       gradientUnits="userSpaceOnUse">
      <stop
         stop-color="#8e8e8e"
         offset="0"
         id="stop1-6"
         style="stop-color:#9696c1;stop-opacity:1;" />
      <stop
         stop-color="#c3c3c3"
         offset="0.5040651"
         id="stop2-7"
         style="stop-color:#ffffff;stop-opacity:1;" />
    </linearGradient>
    <linearGradient
       id="a-3-5"
       x2="1"
       gradientTransform="matrix(0,-39.954568,39.954568,0,24.499432,43.977284)"
       gradientUnits="userSpaceOnUse">
      <stop
         stop-color="#8e8e8e"
         offset="0"
         id="stop1-6-6"
         style="stop-color:#7176a9;stop-opacity:1;" />
      <stop
         stop-color="#c3c3c3"
         offset="1"
         id="stop2-7-2" />
    </linearGradient>
    <linearGradient
       inkscape:collect="always"
       xlink:href="#linearGradient5"
       id="linearGradient6"
       x1="24"
       y1="4.6933594"
       x2="24"
       y2="43.306641"
       gradientUnits="userSpaceOnUse" />
  </defs>
  <sodipodi:namedview
     id="namedview4"
     pagecolor="#ffffff"
     bordercolor="#000000"
     borderopacity="0.25"
     inkscape:showpageshadow="2"
     inkscape:pageopacity="0.0"
     inkscape:pagecheckerboard="0"
     inkscape:deskcolor="#d1d1d1"
     inkscape:zoom="11.313708"
     inkscape:cx="23.688077"
     inkscape:cy="18.694136"
     inkscape:window-width="1920"
     inkscape:window-height="1012"
     inkscape:window-x="0"
     inkscape:window-y="0"
     inkscape:window-maximized="1"
     inkscape:current-layer="svg4" />
  <linearGradient
     id="a"
     x2="1"
     gradientTransform="matrix(0 -43.336 43.336 0 24.5417 45.668)"
     gradientUnits="userSpaceOnUse">
    <stop
       stop-color="#8e8e8e"
       offset="0"
       id="stop1"
       style="stop-color:#464a74;stop-opacity:1;" />
    <stop
       stop-color="#c3c3c3"
       offset="1"
       id="stop2" />
  </linearGradient>
  <path
     d="m2.332 8.56c0-3.438 2.79-6.228 6.228-6.228h30.88c3.438 0 6.228 2.79 6.228 6.228v30.88c0 3.438-2.79 6.228-6.228 6.228h-30.88c-3.438 0-6.228-2.79-6.228-6.228z"
     fill="url(#a)"
     id="path2"
     style="fill:#464a74;fill-opacity:1" />
  <path
     id="path5"
     style="fill:url(#linearGradient6);fill-opacity:1;stroke:none;stroke-opacity:1;stroke-width:4.5;stroke-dasharray:none"
     sodipodi:type="inkscape:offset"
     inkscape:radius="-2.360661"
     inkscape:original="M 8.5605469 2.3320312 C 5.1225469 2.3320312 2.3320312 5.1225469 2.3320312 8.5605469 L 2.3320312 39.439453 C 2.3320312 42.877453 5.1225469 45.667969 8.5605469 45.667969 L 39.439453 45.667969 C 42.877453 45.667969 45.667969 42.877453 45.667969 39.439453 L 45.667969 8.5605469 C 45.667969 5.1225469 42.877453 2.3320312 39.439453 2.3320312 L 8.5605469 2.3320312 z "
     d="m 8.5605469,4.6933594 c -2.1606175,0 -3.8671875,1.70657 -3.8671875,3.8671875 V 39.439453 c 0,2.160618 1.7065701,3.867188 3.8671875,3.867188 H 39.439453 c 2.160617,0 3.867188,-1.706571 3.867188,-3.867188 V 8.5605469 c 0,-2.1606174 -1.70657,-3.8671875 -3.867188,-3.8671875 z" />
  <path
     style="fill:#464a74;fill-opacity:1;stroke:none;stroke-width:2;stroke-linejoin:miter;stroke-dasharray:none;stroke-opacity:1;paint-order:normal"
     id="rect6"
     width="3.7830906"
     height="15.475795"
     x="13.781855"
     y="12.130204"
     ry="1.8915453"
     inkscape:path-effect="#path-effect7"
     sodipodi:type="rect"
     d="m 15.6734,12.130204 c 1.047916,0 1.891545,0.843629 1.891545,1.891545 v 11.692705 c 0,1.047916 -0.843629,1.891545 -1.891545,1.891545 -1.047916,0 -1.891545,-0.843629 -1.891545,-1.891545 V 14.021749 c 0,-1.047916 0.843629,-1.891545 1.891545,-1.891545 z m 18.158088,0 c -1.047916,0 -1.891545,0.843629 -1.891545,1.891545 v 11.692705 c 0,1.047916 0.843629,1.891545 1.891545,1.891545 1.047916,0 1.891545,-0.843629 1.891545,-1.891545 V 14.021749 c 0,-1.047916 -0.843629,-1.891545 -1.891545,-1.891545 z"
     transform="translate(-0.752444,-1.4999869)" />
  <path
     id="path14"
     style="fill:#5b6097;fill-opacity:1;stroke:none;stroke-opacity:1;stroke-width:4.5;stroke-dasharray:none"
     d="M 4.6933594 33.339844 L 4.6933594 39.439453 C 4.6933594 41.600071 6.3999295 43.306641 8.5605469 43.306641 L 39.439453 43.306641 C 41.60007 43.306641 43.306641 41.60007 43.306641 39.439453 L 43.306641 33.339844 C 43.306641 35.500461 41.60007 37.207031 39.439453 37.207031 L 8.5605469 37.207031 C 6.3999295 37.207031 4.6933594 35.500461 4.6933594 33.339844 z " />
</svg>
