<?xml version="1.0" encoding="UTF-8" standalone="no"?>
<svg
   width="64"
   height="64"
   version="1"
   id="svg10"
   sodipodi:docname="papirus_bluemail.svg"
   inkscape:version="1.4.2 (ebf0e940d0, 2025-05-08)"
   xmlns:inkscape="http://www.inkscape.org/namespaces/inkscape"
   xmlns:sodipodi="http://sodipodi.sourceforge.net/DTD/sodipodi-0.dtd"
   xmlns:xlink="http://www.w3.org/1999/xlink"
   xmlns="http://www.w3.org/2000/svg"
   xmlns:svg="http://www.w3.org/2000/svg">
  <defs
     id="defs10">
    <linearGradient
       id="linearGradient19"
       inkscape:collect="always">
      <stop
         style="stop-color:#fdfdfe;stop-opacity:1;"
         offset="0"
         id="stop19" />
      <stop
         style="stop-color:#cfdaf0;stop-opacity:1;"
         offset="1"
         id="stop20" />
    </linearGradient>
    <linearGradient
       id="linearGradient17"
       inkscape:collect="always">
      <stop
         style="stop-color:#4971f3;stop-opacity:1;"
         offset="0"
         id="stop17" />
      <stop
         style="stop-color:#2543a5;stop-opacity:1;"
         offset="1"
         id="stop18" />
    </linearGradient>
    <linearGradient
       id="linearGradient15"
       inkscape:collect="always">
      <stop
         style="stop-color:#3c60d8;stop-opacity:1;"
         offset="0"
         id="stop15" />
      <stop
         style="stop-color:#2543a5;stop-opacity:1;"
         offset="1"
         id="stop16" />
    </linearGradient>
    <linearGradient
       id="linearGradient13"
       inkscape:collect="always">
      <stop
         style="stop-color:#3797ff;stop-opacity:1;"
         offset="0"
         id="stop13" />
      <stop
         style="stop-color:#3c60d8;stop-opacity:1;"
         offset="1"
         id="stop14" />
    </linearGradient>
    <linearGradient
       id="linearGradient10"
       inkscape:collect="always">
      <stop
         style="stop-color:#2e49a4;stop-opacity:1;"
         offset="0"
         id="stop10" />
      <stop
         style="stop-color:#001846;stop-opacity:1;"
         offset="1"
         id="stop11" />
    </linearGradient>
    <linearGradient
       inkscape:collect="always"
       xlink:href="#linearGradient10"
       id="linearGradient11"
       x1="32"
       y1="27"
       x2="32"
       y2="57"
       gradientUnits="userSpaceOnUse" />
    <linearGradient
       inkscape:collect="always"
       xlink:href="#linearGradient13"
       id="linearGradient14"
       x1="32"
       y1="41.009666"
       x2="32"
       y2="57"
       gradientUnits="userSpaceOnUse" />
    <linearGradient
       inkscape:collect="always"
       xlink:href="#linearGradient15"
       id="linearGradient16"
       x1="7.7133121"
       y1="27"
       x2="7.7133121"
       y2="56.983761"
       gradientUnits="userSpaceOnUse" />
    <linearGradient
       inkscape:collect="always"
       xlink:href="#linearGradient17"
       id="linearGradient18"
       x1="37.91111"
       y1="27"
       x2="37.91111"
       y2="57"
       gradientUnits="userSpaceOnUse" />
    <linearGradient
       inkscape:collect="always"
       xlink:href="#linearGradient19"
       id="linearGradient20"
       x1="32"
       y1="21"
       x2="32"
       y2="45"
       gradientUnits="userSpaceOnUse" />
  </defs>
  <sodipodi:namedview
     id="namedview10"
     pagecolor="#ffffff"
     bordercolor="#000000"
     borderopacity="0.25"
     inkscape:showpageshadow="2"
     inkscape:pageopacity="0.0"
     inkscape:pagecheckerboard="0"
     inkscape:deskcolor="#d1d1d1"
     inkscape:zoom="4.4359902"
     inkscape:cx="24.346312"
     inkscape:cy="56.01906"
     inkscape:window-width="1920"
     inkscape:window-height="1012"
     inkscape:window-x="0"
     inkscape:window-y="0"
     inkscape:window-maximized="1"
     inkscape:current-layer="svg10" />
  <path
     style="fill:url(#linearGradient11)"
     d="M 4,27 32,18.6 60,27 55.8,50.8 H 8.2 Z"
     id="path2" />
  <path
     style="fill:#3c60d8"
     d="M 31.672612,7.000605 C 29.988994,7.0490356 28.946048,8.2391194 28.20092,8.7953312 L 4,27 H 60 L 35.799078,8.7953312 C 35.05395,8.2391194 34.011008,7.049037 32.327388,7.000605 32.222304,6.9973998 32.110162,7.007672 32,7.0139786 c -0.11016,-0.00628 -0.2223,-0.01636 -0.327388,-0.01336 z"
     id="path3" />
  <rect
     style="fill:url(#linearGradient20)"
     width="24"
     height="24"
     x="20"
     y="21"
     rx="2.595"
     ry="2.595"
     id="rect3" />
  <path
     style="fill:url(#linearGradient16)"
     d="m 4,27 v 3.913044 13.081052 9.092862 c 0,1.001808 0.3902864,1.913368 1.034173,2.604142 0.7494228,0.803998 4.1745184,-0.876756 5.395368,-0.894906 l 20.315433,-0.302018 c 39.18831,1.941918 0.06082,-6.585304 0.06082,-6.585304 z"
     id="path4" />
  <path
     style="fill:url(#linearGradient18)"
     d="m 60,27 v 3.913044 13.081052 9.092862 c 0,1.001808 -0.390286,1.913368 -1.034172,2.604142 -0.749424,0.803998 -4.17452,-0.876756 -5.395368,-0.894906 L 33.255026,54.494176 c -39.1883094,1.941918 -0.06082,-6.585304 -0.06082,-6.585304 z"
     id="path5" />
  <path
     style="fill:#3d62dd"
     d="m 30,22.609376 c -1.882192,0.210628 -3.263886,0.9915 -4,1.695312 V 33 c 0,3.313708 2.686292,6 6,6 3.313708,0 6,-2.686292 6,-6 0,-3.313708 -2.686292,-6 -6,-6 -0.26764,0.0011 -0.734902,0.0178 -1,0.05468 v 4.09375 c 0.238129,-0.09725 0.742781,-0.147642 1,-0.14843 1.104569,0 2,0.895431 2,2 0,1.104569 -0.895431,2 -2,2 -1.104569,0 -2,-0.895431 -2,-2 z"
     id="path6" />
  <path
     style="fill:url(#linearGradient14)"
     d="m 31.683212,41.000466 c -1.629102,0.0333 -2.63828,0.851476 -3.359278,1.233868 L 4.5762194,55.159002 C 5.2892262,56.261644 6.5945312,57 8.097561,57 H 55.90244 c 1.503028,0 2.808334,-0.738356 3.521342,-1.840998 L 35.676066,42.234334 c -0.721,-0.382392 -1.730176,-1.20057 -3.359278,-1.233868 -0.10168,-0.0024 -0.210194,0.0046 -0.316788,0.0092 -0.1066,-0.0042 -0.215102,-0.0114 -0.316788,-0.0092 z"
     id="path9" />
</svg>
