<?xml version="1.0" encoding="UTF-8" standalone="no"?>
<svg
   clip-rule="evenodd"
   fill-rule="evenodd"
   stroke-linejoin="round"
   stroke-miterlimit="2"
   viewBox="0 0 48 48"
   version="1.1"
   id="svg9"
   sodipodi:docname="kora_btop.svg"
   inkscape:version="1.4.2 (ebf0e940d0, 2025-05-08)"
   xmlns:inkscape="http://www.inkscape.org/namespaces/inkscape"
   xmlns:sodipodi="http://sodipodi.sourceforge.net/DTD/sodipodi-0.dtd"
   xmlns:xlink="http://www.w3.org/1999/xlink"
   xmlns="http://www.w3.org/2000/svg"
   xmlns:svg="http://www.w3.org/2000/svg">
  <defs
     id="defs9">
    <inkscape:path-effect
       effect="fillet_chamfer"
       id="path-effect9"
       is_visible="true"
       lpeversion="1"
       nodesatellites_param="F,0,0,1,0,3.8357251,0,1 @ F,0,0,1,0,3.8357251,0,1 @ F,0,0,1,0,3.8357251,0,1 @ F,0,0,1,0,3.8357251,0,1 @ F,0,0,1,0,3.8357251,0,1 @ F,0,0,1,0,3.8357251,0,1 @ F,0,0,1,0,3.8357251,0,1 @ F,0,0,1,0,3.8357251,0,1 @ F,0,0,1,0,3.8357251,0,1 @ F,0,0,1,0,3.8357251,0,1 @ F,0,0,1,0,3.8357251,0,1 @ F,0,0,1,0,3.8357251,0,1 @ F,0,0,1,0,3.8357251,0,1 @ F,0,0,1,0,3.8357251,0,1 @ F,0,0,1,0,3.8357251,0,1 @ F,0,0,1,0,3.8357251,0,1 | F,0,0,1,0,3.8357251,0,1 @ F,0,0,1,0,3.8357251,0,1 @ F,0,0,1,0,3.8357251,0,1 @ F,0,0,1,0,3.8357251,0,1 | F,0,0,1,0,3.8357251,0,1 @ F,0,0,1,0,3.8357251,0,1 @ F,0,0,1,0,3.8357251,0,1 @ F,0,0,1,0,3.8357251,0,1"
       radius="1"
       unit="px"
       method="auto"
       mode="F"
       chamfer_steps="1"
       flexible="false"
       use_knot_distance="true"
       apply_no_radius="true"
       apply_with_radius="true"
       only_selected="false"
       hide_knots="false" />
    <linearGradient
       inkscape:collect="always"
       xlink:href="#linearGradient6"
       id="linearGradient7"
       x1="106.11156"
       y1="155.99815"
       x2="106.11156"
       y2="90.997978"
       gradientUnits="userSpaceOnUse" />
    <linearGradient
       id="linearGradient6"
       inkscape:collect="always">
      <stop
         style="stop-color:#62002c;stop-opacity:1;"
         offset="0"
         id="stop6" />
      <stop
         style="stop-color:#ff0000;stop-opacity:1;"
         offset="1"
         id="stop7" />
    </linearGradient>
    <filter
       style="color-interpolation-filters:sRGB"
       inkscape:label="Drop Shadow"
       id="filter34"
       x="0"
       y="0"
       width="1.0923075"
       height="1.0545455">
      <feFlood
         result="flood"
         in="SourceGraphic"
         flood-opacity="1.000000"
         flood-color="rgb(0,0,0)"
         id="feFlood33" />
      <feGaussianBlur
         result="blur"
         in="SourceGraphic"
         stdDeviation="0.000000"
         id="feGaussianBlur33" />
      <feOffset
         result="offset"
         in="blur"
         dx="6.000000"
         dy="6.000000"
         id="feOffset33" />
      <feComposite
         result="comp1"
         operator="in"
         in="flood"
         in2="offset"
         id="feComposite33" />
      <feComposite
         result="comp2"
         operator="over"
         in="SourceGraphic"
         in2="comp1"
         id="feComposite34" />
    </filter>
    <inkscape:path-effect
       effect="fillet_chamfer"
       id="path-effect6"
       is_visible="true"
       lpeversion="1"
       nodesatellites_param="F,0,0,1,0,3.9687499,0,1 @ F,0,0,1,0,3.9687499,0,1 @ F,0,0,1,0,3.9687499,0,1 @ F,0,0,1,0,3.9687499,0,1 @ F,0,0,1,0,3.9687499,0,1 @ F,0,0,1,0,3.9687499,0,1 @ F,0,0,1,0,3.9687499,0,1 @ F,0,0,1,0,3.9687499,0,1 @ F,0,0,1,0,3.9687499,0,1 @ F,0,0,1,0,3.9687499,0,1 @ F,0,0,1,0,3.9687499,0,1 @ F,0,0,1,0,3.9687499,0,1 @ F,0,0,1,0,3.9687499,0,1 @ F,0,0,1,0,3.9687499,0,1 @ F,0,0,1,0,3.9687499,0,1 @ F,0,0,1,0,3.9687499,0,1 | F,0,0,1,0,3.9687499,0,1 @ F,0,0,1,0,3.9687499,0,1 @ F,0,0,1,0,3.9687499,0,1 @ F,0,0,1,0,3.9687499,0,1 | F,0,0,1,0,3.9687499,0,1 @ F,0,0,1,0,3.9687499,0,1 @ F,0,0,1,0,3.9687499,0,1 @ F,0,0,1,0,3.9687499,0,1"
       radius="14"
       unit="cm"
       method="auto"
       mode="F"
       chamfer_steps="1"
       flexible="false"
       use_knot_distance="true"
       apply_no_radius="true"
       apply_with_radius="true"
       only_selected="false"
       hide_knots="false" />
  </defs>
  <sodipodi:namedview
     id="namedview9"
     pagecolor="#ffffff"
     bordercolor="#000000"
     borderopacity="0.25"
     inkscape:showpageshadow="2"
     inkscape:pageopacity="0.0"
     inkscape:pagecheckerboard="0"
     inkscape:deskcolor="#d1d1d1"
     inkscape:zoom="8.3645833"
     inkscape:cx="33.892902"
     inkscape:cy="27.556663"
     inkscape:window-width="1920"
     inkscape:window-height="1012"
     inkscape:window-x="0"
     inkscape:window-y="0"
     inkscape:window-maximized="1"
     inkscape:current-layer="svg9" />
  <linearGradient
     id="a"
     x2="1.0000001"
     gradientTransform="matrix(0,-36.2165,36.2165,0,275.714,42.119)"
     gradientUnits="userSpaceOnUse"
     x1="2.0112143e-08"
     y1="-8.3266727e-17"
     y2="5.5511151e-17">
    <stop
       stop-color="#313738"
       offset="0"
       id="stop1"
       style="stop-color:#241f31;stop-opacity:1;" />
    <stop
       stop-color="#535552"
       offset="1"
       id="stop2"
       style="stop-color:#312b44;stop-opacity:1;" />
  </linearGradient>
  <linearGradient
     id="b"
     x2="1"
     gradientTransform="matrix(-.115663 -17.2337 17.2337 -.115663 821.277 37.3519)"
     gradientUnits="userSpaceOnUse">
    <stop
       stop-color="#00bf7e"
       stop-opacity=".99"
       offset="0"
       id="stop3" />
    <stop
       stop-color="#00ffa9"
       stop-opacity=".99"
       offset="1"
       id="stop4" />
  </linearGradient>
  <path
     d="m39.44 2.332c3.438 0 6.228 2.79 6.228 6.228v30.88c0 3.438-2.79 6.228-6.228 6.228h-30.88c-3.438 0-6.228-2.79-6.228-6.228v-30.88c0-3.438 2.79-6.228 6.228-6.228z"
     fill="url(#a)"
     id="path4" />
  <path
     d="m2.332 9.588v-1.028c0-3.438 2.79-6.228 6.228-6.228h30.88c3.438 0 6.228 2.79 6.228 6.228v1.028z"
     fill="#ebebeb"
     fill-opacity=".1"
     id="path5" />
  <g
     fill-opacity=".5"
     id="g8">
    <path
       d="m33.214 7.159h-.069c-.066 0-.118-.054-.118-.119v-.2c-.283-.071-.363-.239-.363-.583 0-.507.412-.92.919-.92s.919.413.919.92c0 .339-.085.506-.361.579v.203c0 .066-.054.119-.119.119h-.069c-.066 0-.12-.053-.12-.119v-.159c-.031.002-.062.003-.096.004v.156c0 .065-.053.118-.119.118h-.069c-.066 0-.119-.053-.119-.118v-.155c-.034-.001-.066-.002-.097-.004v.159c0 .065-.053.119-.119.119zm-.012-1.276c.156.061.282.123.282.274s-.102.18-.282.273c-.138.073-.283-.122-.283-.273s.137-.33.283-.274zm.759 0c.15-.042.282.123.282.274s-.149.354-.282.273c-.165-.097-.283-.122-.283-.273s.11-.225.283-.274z"
       fill="#ededed"
       id="path6" />
    <path
       d="m41.249 5.55.33.349.523-.495.417.441-.521.494.33.35c.113.118.111.302-.002.409-.114.108-.298.1-.409-.019l-.332-.349-.523.496-.418-.44.524-.471-.331-.376c-.113-.118-.11-.302.003-.409.113-.108.297-.099.409.02z"
       fill="#fff"
       id="path7" />
    <path
       d="m37.356 5.471.003-.134.48.013-.005.134.26.007c.248.007.445.215.437.463l-.024.9c-.006.249-.213.446-.462.439l-.996-.027c-.249-.006-.445-.214-.438-.462l.023-.901c.007-.249.215-.445.464-.439zm-.144.392c.129.003.231.111.227.24-.002.129-.111.231-.239.228-.129-.003-.232-.112-.228-.24.003-.129.111-.231.24-.228zm.798.021c.129.004.231.111.227.241-.003.129-.11.231-.24.227-.129-.003-.231-.11-.228-.24.004-.129.112-.231.241-.228z"
       fill="#fff"
       id="path8" />
  </g>
  <path
     id="rect2"
     style="fill:url(#linearGradient7);stroke-width:0.143669;stroke-linecap:round;stroke-miterlimit:2;paint-order:stroke markers fill;filter:url(#filter34)"
     d="m 73.61147,72.333787 v 12.328363 25.00002 20.00033 25.00002 19.99982 a 3.8357251,3.8357251 45 0 0 3.835725,3.83573 l 47.328285,0 a 3.8357251,3.8357251 135 0 0 3.83573,-3.83573 v -12.32836 a 3.8357251,3.8357251 135 0 1 3.83573,-3.83573 h 2.32897 a 3.8357251,3.8357251 135 0 0 3.83573,-3.83573 v -17.32856 a 3.8357251,3.8357251 45 0 0 -3.83573,-3.83573 h -2.32897 a 3.8357251,3.8357251 45 0 1 -3.83573,-3.83573 v -12.32887 a 3.8357251,3.8357251 135 0 1 3.83573,-3.83573 h 2.32897 a 3.8357251,3.8357251 135 0 0 3.83573,-3.83573 V 92.3336 a 3.8357251,3.8357251 45 0 0 -3.83573,-3.835725 h -2.32897 A 3.8357251,3.8357251 45 0 1 128.61121,84.66215 V 72.333787 a 3.8357251,3.8357251 45 0 0 -3.83573,-3.835725 H 77.447195 a 3.8357251,3.8357251 135 0 0 -3.835725,3.835725 z m 23.835538,16.164088 h 17.328572 a 3.8357251,3.8357251 45 0 1 3.83573,3.835725 v 17.32857 a 3.8357251,3.8357251 135 0 1 -3.83573,3.83573 H 97.447008 a 3.8357251,3.8357251 45 0 1 -3.835725,-3.83573 V 92.3336 a 3.8357251,3.8357251 135 0 1 3.835725,-3.835725 z m 0,45.000355 h 17.328572 a 3.8357251,3.8357251 45 0 1 3.83573,3.83573 v 17.32856 a 3.8357251,3.8357251 135 0 1 -3.83573,3.83573 H 97.447008 a 3.8357251,3.8357251 45 0 1 -3.835725,-3.83573 v -17.32856 a 3.8357251,3.8357251 135 0 1 3.835725,-3.83573 z"
     transform="matrix(0.25123306,0,0,0.25123306,-2.2289286,-4.1877257)"
     inkscape:path-effect="#path-effect9"
     inkscape:original-d="m 73.61147,68.498062 v 19.999813 25.000025 20.00033 25.00002 19.99982 h 54.99974 v -19.99982 h 10.00043 V 133.49823 H 128.61121 V 113.4979 h 10.00043 V 88.497875 H 128.61121 V 68.498062 Z M 93.611283,88.497875 H 118.61131 V 113.4979 H 93.611283 Z m 0,45.000355 h 25.000027 v 25.00002 H 93.611283 Z" />
</svg>
