<?xml version="1.0" encoding="UTF-8" standalone="no"?>
<svg
   clip-rule="evenodd"
   fill-rule="evenodd"
   stroke-linejoin="round"
   stroke-miterlimit="2"
   viewBox="0 0 64 64"
   version="1.1"
   id="svg6"
   sodipodi:docname="trenchbroom.svg"
   inkscape:version="1.4.2 (ebf0e940d0, 2025-05-08)"
   xmlns:inkscape="http://www.inkscape.org/namespaces/inkscape"
   xmlns:sodipodi="http://sodipodi.sourceforge.net/DTD/sodipodi-0.dtd"
   xmlns:xlink="http://www.w3.org/1999/xlink"
   xmlns="http://www.w3.org/2000/svg"
   xmlns:svg="http://www.w3.org/2000/svg">
  <defs
     id="defs6">
    <inkscape:path-effect
       effect="fillet_chamfer"
       id="path-effect149"
       is_visible="true"
       lpeversion="1"
       nodesatellites_param="F,0,0,1,0,4,0,1 @ F,0,0,1,0,4,0,1 @ F,0,0,1,0,4,0,1 @ F,0,0,1,0,4,0,1 @ F,0,0,1,0,4,0,1 @ F,0,0,1,0,4,0,1"
       radius="4"
       unit="px"
       method="auto"
       mode="F"
       chamfer_steps="1"
       flexible="false"
       use_knot_distance="true"
       apply_no_radius="true"
       apply_with_radius="true"
       only_selected="false"
       hide_knots="false" />
    <inkscape:path-effect
       effect="fillet_chamfer"
       id="path-effect113"
       is_visible="true"
       lpeversion="1"
       nodesatellites_param="F,0,0,1,0,5,0,1 @ F,0,0,1,0,5,0,1 @ F,0,0,1,0,5,0,1 @ F,0,0,1,0,5,0,1"
       radius="5"
       unit="px"
       method="auto"
       mode="F"
       chamfer_steps="1"
       flexible="false"
       use_knot_distance="true"
       apply_no_radius="true"
       apply_with_radius="true"
       only_selected="false"
       hide_knots="false" />
    <inkscape:path-effect
       effect="perspective-envelope"
       up_left_point="32.492501,-27.280461"
       up_right_point="59.491987,-11.691967"
       down_left_point="32.491986,3.8964844"
       down_right_point="59.491986,19.484942"
       id="path-effect108"
       is_visible="true"
       lpeversion="1"
       deform_type="perspective"
       horizontal_mirror="false"
       vertical_mirror="false"
       overflow_perspective="false" />
    <inkscape:path-effect
       effect="mirror_symmetry"
       start_point="25.928906,25.830149"
       end_point="25.928906,33.881391"
       center_point="25.928906,29.85577"
       id="path-effect106"
       is_visible="true"
       lpeversion="1.2"
       lpesatellites=""
       mode="free"
       discard_orig_path="false"
       fuse_paths="false"
       oposite_fuse="false"
       split_items="false"
       split_open="false"
       link_styles="false" />
    <inkscape:path-effect
       effect="fillet_chamfer"
       id="path-effect104"
       is_visible="true"
       lpeversion="1"
       nodesatellites_param="F,0,0,1,0,1,0,1 @ F,0,0,1,0,1,0,1 @ F,0,0,1,0,1,0,1 @ F,0,0,1,0,1,0,1"
       radius="1"
       unit="px"
       method="auto"
       mode="F"
       chamfer_steps="1"
       flexible="false"
       use_knot_distance="true"
       apply_no_radius="true"
       apply_with_radius="true"
       only_selected="false"
       hide_knots="false" />
    <inkscape:path-effect
       effect="mirror_symmetry"
       start_point="35.503898,-265.62352"
       end_point="35.503898,-117.35884"
       center_point="35.503898,-191.49118"
       id="path-effect102"
       is_visible="true"
       lpeversion="1.2"
       lpesatellites=""
       mode="free"
       discard_orig_path="false"
       fuse_paths="false"
       oposite_fuse="false"
       split_items="false"
       split_open="false"
       link_styles="false" />
    <inkscape:path-effect
       effect="fillet_chamfer"
       id="path-effect100"
       is_visible="true"
       lpeversion="1"
       nodesatellites_param="F,0,0,1,0,0,0,1 @ F,0,0,1,0,0,0,1 @ F,0,0,1,0,0,0,1 @ F,0,0,1,0,0,0,1 @ F,0,0,1,0,1.7874874,0,1 @ F,0,0,1,0,0,0,1 @ F,0,0,1,0,0,0,1 @ F,0,0,1,0,1.78278,0,1 @ F,0,0,1,0,2.3822787,0,1 @ F,0,0,1,0,0,0,1 @ F,0,0,1,0,0,0,1 @ F,0,0,1,0,0,0,1 @ F,0,0,1,0,0,0,1 @ F,0,0,1,0,0,0,1 @ F,0,0,1,0,0,0,1 @ F,0,0,1,0,0,0,1 @ F,0,0,1,0,0,0,1 | F,0,0,1,0,0,0,1 @ F,0,0,1,0,0,0,1 @ F,0,0,1,0,0,0,1 @ F,0,0,1,0,0,0,1 @ F,0,0,1,0,0,0,1 @ F,0,0,1,0,0,0,1 @ F,0,0,1,0,0,0,1 @ F,0,0,1,0,0,0,1 @ F,0,0,1,0,0,0,1 @ F,0,0,1,0,0,0,1 @ F,0,0,1,0,0,0,1 @ F,0,0,1,0,0,0,1 @ F,0,0,1,0,0,0,1 @ F,0,0,1,0,0,0,1 | F,0,0,1,0,0,0,1 @ F,0,0,1,0,0,0,1 @ F,0,0,1,0,0,0,1 @ F,0,0,1,0,0,0,1 @ F,0,0,1,0,0,0,1 @ F,0,0,1,0,0,0,1 @ F,0,0,1,0,0,0,1 @ F,0,0,1,0,0,0,1 @ F,0,0,1,0,0,0,1 @ F,0,0,1,0,0,0,1 @ F,0,0,1,0,0,0,1 @ F,0,0,1,0,0,0,1 @ F,0,0,1,0,0,0,1 @ F,0,0,1,0,0,0,1 | F,0,0,1,0,0,0,1 @ F,0,0,1,0,0,0,1 @ F,0,0,1,0,0,0,1 @ F,0,0,1,0,0,0,1 @ F,0,0,1,0,0,0,1 @ F,0,0,1,0,0,0,1 @ F,0,0,1,0,0,0,1 @ F,0,0,1,0,0,0,1 @ F,0,0,1,0,0,0,1 @ F,0,0,1,0,0,0,1 @ F,0,0,1,0,0,0,1 @ F,0,0,1,0,0,0,1"
       radius="0"
       unit="px"
       method="auto"
       mode="F"
       chamfer_steps="1"
       flexible="false"
       use_knot_distance="true"
       apply_no_radius="true"
       apply_with_radius="true"
       only_selected="false"
       hide_knots="false" />
    <inkscape:path-effect
       effect="fillet_chamfer"
       id="path-effect98"
       is_visible="true"
       lpeversion="1"
       nodesatellites_param="F,0,0,1,0,1.5,0,1 @ F,0,0,1,0,1.5,0,1 @ F,0,0,1,0,1.5,0,1 @ F,0,0,1,0,1.5,0,1"
       radius="1.5"
       unit="px"
       method="auto"
       mode="F"
       chamfer_steps="1"
       flexible="false"
       use_knot_distance="true"
       apply_no_radius="true"
       apply_with_radius="true"
       only_selected="false"
       hide_knots="false" />
    <inkscape:path-effect
       effect="perspective-envelope"
       up_left_point="-73.962124,-24.000503"
       up_right_point="-46.962639,-39.58893"
       down_left_point="-46.962638,-8.412009"
       down_right_point="-19.963151,-24.000503"
       id="path-effect96"
       is_visible="true"
       lpeversion="1"
       deform_type="perspective"
       horizontal_mirror="false"
       vertical_mirror="false"
       overflow_perspective="false" />
    <inkscape:path-effect
       effect="perspective-envelope"
       up_left_point="32.492501,-27.280461"
       up_right_point="59.491987,-11.691967"
       down_left_point="32.491986,3.8964844"
       down_right_point="59.491986,19.484942"
       id="path-effect94"
       is_visible="true"
       lpeversion="1"
       deform_type="perspective"
       horizontal_mirror="false"
       vertical_mirror="false"
       overflow_perspective="false" />
    <inkscape:path-effect
       effect="mirror_symmetry"
       start_point="25.928906,25.830149"
       end_point="25.928906,33.881391"
       center_point="25.928906,29.85577"
       id="path-effect92"
       is_visible="true"
       lpeversion="1.2"
       lpesatellites=""
       mode="free"
       discard_orig_path="false"
       fuse_paths="false"
       oposite_fuse="false"
       split_items="false"
       split_open="false"
       link_styles="false" />
    <inkscape:path-effect
       effect="fillet_chamfer"
       id="path-effect90"
       is_visible="true"
       lpeversion="1"
       nodesatellites_param="F,0,0,1,0,1,0,1 @ F,0,0,1,0,1,0,1 @ F,0,0,1,0,1,0,1 @ F,0,0,1,0,1,0,1"
       radius="1"
       unit="px"
       method="auto"
       mode="F"
       chamfer_steps="1"
       flexible="false"
       use_knot_distance="true"
       apply_no_radius="true"
       apply_with_radius="true"
       only_selected="false"
       hide_knots="false" />
    <inkscape:path-effect
       effect="mirror_symmetry"
       start_point="35.503898,-265.62352"
       end_point="35.503898,-117.35884"
       center_point="35.503898,-191.49118"
       id="path-effect88"
       is_visible="true"
       lpeversion="1.2"
       lpesatellites=""
       mode="free"
       discard_orig_path="false"
       fuse_paths="false"
       oposite_fuse="false"
       split_items="false"
       split_open="false"
       link_styles="false" />
    <inkscape:path-effect
       effect="fillet_chamfer"
       id="path-effect86"
       is_visible="true"
       lpeversion="1"
       nodesatellites_param="F,0,0,1,0,0,0,1 @ F,0,0,1,0,0,0,1 @ F,0,0,1,0,0,0,1 @ F,0,0,1,0,0,0,1 @ F,0,0,1,0,1.7874874,0,1 @ F,0,0,1,0,0,0,1 @ F,0,0,1,0,0,0,1 @ F,0,0,1,0,1.78278,0,1 @ F,0,0,1,0,2.3822787,0,1 @ F,0,0,1,0,0,0,1 @ F,0,0,1,0,0,0,1 @ F,0,0,1,0,0,0,1 @ F,0,0,1,0,0,0,1 @ F,0,0,1,0,0,0,1 @ F,0,0,1,0,0,0,1 @ F,0,0,1,0,0,0,1 @ F,0,0,1,0,0,0,1 | F,0,0,1,0,0,0,1 @ F,0,0,1,0,0,0,1 @ F,0,0,1,0,0,0,1 @ F,0,0,1,0,0,0,1 @ F,0,0,1,0,0,0,1 @ F,0,0,1,0,0,0,1 @ F,0,0,1,0,0,0,1 @ F,0,0,1,0,0,0,1 @ F,0,0,1,0,0,0,1 @ F,0,0,1,0,0,0,1 @ F,0,0,1,0,0,0,1 @ F,0,0,1,0,0,0,1 @ F,0,0,1,0,0,0,1 @ F,0,0,1,0,0,0,1 | F,0,0,1,0,0,0,1 @ F,0,0,1,0,0,0,1 @ F,0,0,1,0,0,0,1 @ F,0,0,1,0,0,0,1 @ F,0,0,1,0,0,0,1 @ F,0,0,1,0,0,0,1 @ F,0,0,1,0,0,0,1 @ F,0,0,1,0,0,0,1 @ F,0,0,1,0,0,0,1 @ F,0,0,1,0,0,0,1 @ F,0,0,1,0,0,0,1 @ F,0,0,1,0,0,0,1 @ F,0,0,1,0,0,0,1 @ F,0,0,1,0,0,0,1 | F,0,0,1,0,0,0,1 @ F,0,0,1,0,0,0,1 @ F,0,0,1,0,0,0,1 @ F,0,0,1,0,0,0,1 @ F,0,0,1,0,0,0,1 @ F,0,0,1,0,0,0,1 @ F,0,0,1,0,0,0,1 @ F,0,0,1,0,0,0,1 @ F,0,0,1,0,0,0,1 @ F,0,0,1,0,0,0,1 @ F,0,0,1,0,0,0,1 @ F,0,0,1,0,0,0,1"
       radius="0"
       unit="px"
       method="auto"
       mode="F"
       chamfer_steps="1"
       flexible="false"
       use_knot_distance="true"
       apply_no_radius="true"
       apply_with_radius="true"
       only_selected="false"
       hide_knots="false" />
    <inkscape:path-effect
       effect="fillet_chamfer"
       id="path-effect84"
       is_visible="true"
       lpeversion="1"
       nodesatellites_param="F,0,0,1,0,1.5,0,1 @ F,0,0,1,0,1.5,0,1 @ F,0,0,1,0,1.5,0,1 @ F,0,0,1,0,1.5,0,1"
       radius="1.5"
       unit="px"
       method="auto"
       mode="F"
       chamfer_steps="1"
       flexible="false"
       use_knot_distance="true"
       apply_no_radius="true"
       apply_with_radius="true"
       only_selected="false"
       hide_knots="false" />
    <linearGradient
       id="linearGradient65"
       x2="1"
       gradientTransform="matrix(0,-43.3022,43.3022,0,298.19,45.6914)"
       gradientUnits="userSpaceOnUse"
       x1="0"
       y1="0"
       y2="0"
       spreadMethod="pad">
      <stop
         stop-color="#00594e"
         offset="0"
         id="stop64"
         style="stop-color:#513a13;stop-opacity:1;" />
      <stop
         stop-color="#32867d"
         offset="1"
         id="stop65"
         style="stop-color:#9e6f1d;stop-opacity:1;" />
    </linearGradient>
    <inkscape:path-effect
       effect="perspective-envelope"
       up_left_point="-73.962124,-24.000503"
       up_right_point="-46.962639,-39.58893"
       down_left_point="-46.962638,-8.412009"
       down_right_point="-19.963151,-24.000503"
       id="path-effect63"
       is_visible="true"
       lpeversion="1"
       deform_type="perspective"
       horizontal_mirror="false"
       vertical_mirror="false"
       overflow_perspective="false" />
    <inkscape:path-effect
       effect="perspective-envelope"
       up_left_point="-73.962639,-73.962639"
       up_right_point="-20.403484,-73.962639"
       down_left_point="-73.962639,-20.403484"
       down_right_point="-20.403484,-20.403484"
       id="path-effect62"
       is_visible="true"
       lpeversion="1"
       deform_type="perspective"
       horizontal_mirror="false"
       vertical_mirror="false"
       overflow_perspective="false" />
    <inkscape:path-effect
       effect="perspective-envelope"
       up_left_point="32.492501,-27.280461"
       up_right_point="59.491987,-11.691967"
       down_left_point="32.491986,3.8964844"
       down_right_point="59.491986,19.484942"
       id="path-effect60"
       is_visible="true"
       lpeversion="1"
       deform_type="perspective"
       horizontal_mirror="false"
       vertical_mirror="false"
       overflow_perspective="false" />
    <inkscape:path-effect
       effect="mirror_symmetry"
       start_point="25.928906,25.830149"
       end_point="25.928906,33.881391"
       center_point="25.928906,29.85577"
       id="path-effect58"
       is_visible="true"
       lpeversion="1.2"
       lpesatellites=""
       mode="free"
       discard_orig_path="false"
       fuse_paths="false"
       oposite_fuse="false"
       split_items="false"
       split_open="false"
       link_styles="false" />
    <inkscape:path-effect
       effect="fillet_chamfer"
       id="path-effect56"
       is_visible="true"
       lpeversion="1"
       nodesatellites_param="F,0,0,1,0,1,0,1 @ F,0,0,1,0,1,0,1 @ F,0,0,1,0,1,0,1 @ F,0,0,1,0,1,0,1"
       radius="1"
       unit="px"
       method="auto"
       mode="F"
       chamfer_steps="1"
       flexible="false"
       use_knot_distance="true"
       apply_no_radius="true"
       apply_with_radius="true"
       only_selected="false"
       hide_knots="false" />
    <inkscape:path-effect
       effect="mirror_symmetry"
       start_point="35.503898,-265.62352"
       end_point="35.503898,-117.35884"
       center_point="35.503898,-191.49118"
       id="path-effect54"
       is_visible="true"
       lpeversion="1.2"
       lpesatellites=""
       mode="free"
       discard_orig_path="false"
       fuse_paths="false"
       oposite_fuse="false"
       split_items="false"
       split_open="false"
       link_styles="false" />
    <inkscape:path-effect
       effect="fillet_chamfer"
       id="path-effect52"
       is_visible="true"
       lpeversion="1"
       nodesatellites_param="F,0,0,1,0,0,0,1 @ F,0,0,1,0,0,0,1 @ F,0,0,1,0,0,0,1 @ F,0,0,1,0,0,0,1 @ F,0,0,1,0,1.7874874,0,1 @ F,0,0,1,0,0,0,1 @ F,0,0,1,0,0,0,1 @ F,0,0,1,0,1.78278,0,1 @ F,0,0,1,0,2.3822787,0,1 @ F,0,0,1,0,0,0,1 @ F,0,0,1,0,0,0,1 @ F,0,0,1,0,0,0,1 @ F,0,0,1,0,0,0,1 @ F,0,0,1,0,0,0,1 @ F,0,0,1,0,0,0,1 @ F,0,0,1,0,0,0,1 @ F,0,0,1,0,0,0,1 | F,0,0,1,0,0,0,1 @ F,0,0,1,0,0,0,1 @ F,0,0,1,0,0,0,1 @ F,0,0,1,0,0,0,1 @ F,0,0,1,0,0,0,1 @ F,0,0,1,0,0,0,1 @ F,0,0,1,0,0,0,1 @ F,0,0,1,0,0,0,1 @ F,0,0,1,0,0,0,1 @ F,0,0,1,0,0,0,1 @ F,0,0,1,0,0,0,1 @ F,0,0,1,0,0,0,1 @ F,0,0,1,0,0,0,1 @ F,0,0,1,0,0,0,1 | F,0,0,1,0,0,0,1 @ F,0,0,1,0,0,0,1 @ F,0,0,1,0,0,0,1 @ F,0,0,1,0,0,0,1 @ F,0,0,1,0,0,0,1 @ F,0,0,1,0,0,0,1 @ F,0,0,1,0,0,0,1 @ F,0,0,1,0,0,0,1 @ F,0,0,1,0,0,0,1 @ F,0,0,1,0,0,0,1 @ F,0,0,1,0,0,0,1 @ F,0,0,1,0,0,0,1 @ F,0,0,1,0,0,0,1 @ F,0,0,1,0,0,0,1 | F,0,0,1,0,0,0,1 @ F,0,0,1,0,0,0,1 @ F,0,0,1,0,0,0,1 @ F,0,0,1,0,0,0,1 @ F,0,0,1,0,0,0,1 @ F,0,0,1,0,0,0,1 @ F,0,0,1,0,0,0,1 @ F,0,0,1,0,0,0,1 @ F,0,0,1,0,0,0,1 @ F,0,0,1,0,0,0,1 @ F,0,0,1,0,0,0,1 @ F,0,0,1,0,0,0,1"
       radius="0"
       unit="px"
       method="auto"
       mode="F"
       chamfer_steps="1"
       flexible="false"
       use_knot_distance="true"
       apply_no_radius="true"
       apply_with_radius="true"
       only_selected="false"
       hide_knots="false" />
    <inkscape:path-effect
       effect="fillet_chamfer"
       id="path-effect50"
       is_visible="true"
       lpeversion="1"
       nodesatellites_param="F,0,0,1,0,1.5,0,1 @ F,0,0,1,0,1.5,0,1 @ F,0,0,1,0,1.5,0,1 @ F,0,0,1,0,1.5,0,1"
       radius="1.5"
       unit="px"
       method="auto"
       mode="F"
       chamfer_steps="1"
       flexible="false"
       use_knot_distance="true"
       apply_no_radius="true"
       apply_with_radius="true"
       only_selected="false"
       hide_knots="false" />
    <inkscape:path-effect
       effect="perspective-envelope"
       up_left_point="32.492501,-27.280461"
       up_right_point="59.491987,-11.691967"
       down_left_point="32.491986,3.8964844"
       down_right_point="59.491986,19.484942"
       id="path-effect41"
       is_visible="true"
       lpeversion="1"
       deform_type="perspective"
       horizontal_mirror="false"
       vertical_mirror="false"
       overflow_perspective="false" />
    <inkscape:path-effect
       effect="mirror_symmetry"
       start_point="25.928906,25.830149"
       end_point="25.928906,33.881391"
       center_point="25.928906,29.85577"
       id="path-effect40"
       is_visible="true"
       lpeversion="1.2"
       lpesatellites=""
       mode="free"
       discard_orig_path="false"
       fuse_paths="false"
       oposite_fuse="false"
       split_items="false"
       split_open="false"
       link_styles="false" />
    <inkscape:path-effect
       effect="fillet_chamfer"
       id="path-effect38"
       is_visible="true"
       lpeversion="1"
       nodesatellites_param="F,0,0,1,0,1,0,1 @ F,0,0,1,0,1,0,1 @ F,0,0,1,0,1,0,1 @ F,0,0,1,0,1,0,1"
       radius="1"
       unit="px"
       method="auto"
       mode="F"
       chamfer_steps="1"
       flexible="false"
       use_knot_distance="true"
       apply_no_radius="true"
       apply_with_radius="true"
       only_selected="false"
       hide_knots="false" />
    <inkscape:path-effect
       effect="mirror_symmetry"
       start_point="35.503898,-265.62352"
       end_point="35.503898,-117.35884"
       center_point="35.503898,-191.49118"
       id="path-effect36"
       is_visible="true"
       lpeversion="1.2"
       lpesatellites=""
       mode="free"
       discard_orig_path="false"
       fuse_paths="false"
       oposite_fuse="false"
       split_items="false"
       split_open="false"
       link_styles="false" />
    <inkscape:path-effect
       effect="fillet_chamfer"
       id="path-effect34"
       is_visible="true"
       lpeversion="1"
       nodesatellites_param="F,0,0,1,0,0,0,1 @ F,0,0,1,0,0,0,1 @ F,0,0,1,0,0,0,1 @ F,0,0,1,0,0,0,1 @ F,0,0,1,0,1.7874874,0,1 @ F,0,0,1,0,0,0,1 @ F,0,0,1,0,0,0,1 @ F,0,0,1,0,1.78278,0,1 @ F,0,0,1,0,2.3822787,0,1 @ F,0,0,1,0,0,0,1 @ F,0,0,1,0,0,0,1 @ F,0,0,1,0,0,0,1 @ F,0,0,1,0,0,0,1 @ F,0,0,1,0,0,0,1 @ F,0,0,1,0,0,0,1 @ F,0,0,1,0,0,0,1 @ F,0,0,1,0,0,0,1 | F,0,0,1,0,0,0,1 @ F,0,0,1,0,0,0,1 @ F,0,0,1,0,0,0,1 @ F,0,0,1,0,0,0,1 @ F,0,0,1,0,0,0,1 @ F,0,0,1,0,0,0,1 @ F,0,0,1,0,0,0,1 @ F,0,0,1,0,0,0,1 @ F,0,0,1,0,0,0,1 @ F,0,0,1,0,0,0,1 @ F,0,0,1,0,0,0,1 @ F,0,0,1,0,0,0,1 @ F,0,0,1,0,0,0,1 @ F,0,0,1,0,0,0,1 | F,0,0,1,0,0,0,1 @ F,0,0,1,0,0,0,1 @ F,0,0,1,0,0,0,1 @ F,0,0,1,0,0,0,1 @ F,0,0,1,0,0,0,1 @ F,0,0,1,0,0,0,1 @ F,0,0,1,0,0,0,1 @ F,0,0,1,0,0,0,1 @ F,0,0,1,0,0,0,1 @ F,0,0,1,0,0,0,1 @ F,0,0,1,0,0,0,1 @ F,0,0,1,0,0,0,1 @ F,0,0,1,0,0,0,1 @ F,0,0,1,0,0,0,1 | F,0,0,1,0,0,0,1 @ F,0,0,1,0,0,0,1 @ F,0,0,1,0,0,0,1 @ F,0,0,1,0,0,0,1 @ F,0,0,1,0,0,0,1 @ F,0,0,1,0,0,0,1 @ F,0,0,1,0,0,0,1 @ F,0,0,1,0,0,0,1 @ F,0,0,1,0,0,0,1 @ F,0,0,1,0,0,0,1 @ F,0,0,1,0,0,0,1 @ F,0,0,1,0,0,0,1"
       radius="0"
       unit="px"
       method="auto"
       mode="F"
       chamfer_steps="1"
       flexible="false"
       use_knot_distance="true"
       apply_no_radius="true"
       apply_with_radius="true"
       only_selected="false"
       hide_knots="false" />
    <inkscape:path-effect
       effect="fillet_chamfer"
       id="path-effect32"
       is_visible="true"
       lpeversion="1"
       nodesatellites_param="F,0,0,1,0,1.5,0,1 @ F,0,0,1,0,1.5,0,1 @ F,0,0,1,0,1.5,0,1 @ F,0,0,1,0,1.5,0,1"
       radius="1.5"
       unit="px"
       method="auto"
       mode="F"
       chamfer_steps="1"
       flexible="false"
       use_knot_distance="true"
       apply_no_radius="true"
       apply_with_radius="true"
       only_selected="false"
       hide_knots="false" />
    <inkscape:path-effect
       effect="mirror_symmetry"
       start_point="25.928906,25.830149"
       end_point="25.928906,33.881391"
       center_point="25.928906,29.85577"
       id="path-effect22"
       is_visible="true"
       lpeversion="1.2"
       lpesatellites=""
       mode="free"
       discard_orig_path="false"
       fuse_paths="false"
       oposite_fuse="false"
       split_items="false"
       split_open="false"
       link_styles="false" />
    <inkscape:path-effect
       effect="fillet_chamfer"
       id="path-effect20"
       is_visible="true"
       lpeversion="1"
       nodesatellites_param="F,0,0,1,0,1,0,1 @ F,0,0,1,0,1,0,1 @ F,0,0,1,0,1,0,1 @ F,0,0,1,0,1,0,1"
       radius="1"
       unit="px"
       method="auto"
       mode="F"
       chamfer_steps="1"
       flexible="false"
       use_knot_distance="true"
       apply_no_radius="true"
       apply_with_radius="true"
       only_selected="false"
       hide_knots="false" />
    <inkscape:path-effect
       effect="mirror_symmetry"
       start_point="35.503898,-265.62352"
       end_point="35.503898,-117.35884"
       center_point="35.503898,-191.49118"
       id="path-effect18"
       is_visible="true"
       lpeversion="1.2"
       lpesatellites=""
       mode="free"
       discard_orig_path="false"
       fuse_paths="false"
       oposite_fuse="false"
       split_items="false"
       split_open="false"
       link_styles="false" />
    <inkscape:path-effect
       effect="fillet_chamfer"
       id="path-effect16"
       is_visible="true"
       lpeversion="1"
       nodesatellites_param="F,0,0,1,0,0,0,1 @ F,0,0,1,0,0,0,1 @ F,0,0,1,0,0,0,1 @ F,0,0,1,0,0,0,1 @ F,0,0,1,0,1.7874874,0,1 @ F,0,0,1,0,0,0,1 @ F,0,0,1,0,0,0,1 @ F,0,0,1,0,1.78278,0,1 @ F,0,0,1,0,2.3822787,0,1 @ F,0,0,1,0,0,0,1 @ F,0,0,1,0,0,0,1 @ F,0,0,1,0,0,0,1 @ F,0,0,1,0,0,0,1 @ F,0,0,1,0,0,0,1 @ F,0,0,1,0,0,0,1 @ F,0,0,1,0,0,0,1 @ F,0,0,1,0,0,0,1 | F,0,0,1,0,0,0,1 @ F,0,0,1,0,0,0,1 @ F,0,0,1,0,0,0,1 @ F,0,0,1,0,0,0,1 @ F,0,0,1,0,0,0,1 @ F,0,0,1,0,0,0,1 @ F,0,0,1,0,0,0,1 @ F,0,0,1,0,0,0,1 @ F,0,0,1,0,0,0,1 @ F,0,0,1,0,0,0,1 @ F,0,0,1,0,0,0,1 @ F,0,0,1,0,0,0,1 @ F,0,0,1,0,0,0,1 @ F,0,0,1,0,0,0,1 | F,0,0,1,0,0,0,1 @ F,0,0,1,0,0,0,1 @ F,0,0,1,0,0,0,1 @ F,0,0,1,0,0,0,1 @ F,0,0,1,0,0,0,1 @ F,0,0,1,0,0,0,1 @ F,0,0,1,0,0,0,1 @ F,0,0,1,0,0,0,1 @ F,0,0,1,0,0,0,1 @ F,0,0,1,0,0,0,1 @ F,0,0,1,0,0,0,1 @ F,0,0,1,0,0,0,1 @ F,0,0,1,0,0,0,1 @ F,0,0,1,0,0,0,1 | F,0,0,1,0,0,0,1 @ F,0,0,1,0,0,0,1 @ F,0,0,1,0,0,0,1 @ F,0,0,1,0,0,0,1 @ F,0,0,1,0,0,0,1 @ F,0,0,1,0,0,0,1 @ F,0,0,1,0,0,0,1 @ F,0,0,1,0,0,0,1 @ F,0,0,1,0,0,0,1 @ F,0,0,1,0,0,0,1 @ F,0,0,1,0,0,0,1 @ F,0,0,1,0,0,0,1"
       radius="0"
       unit="px"
       method="auto"
       mode="F"
       chamfer_steps="1"
       flexible="false"
       use_knot_distance="true"
       apply_no_radius="true"
       apply_with_radius="true"
       only_selected="false"
       hide_knots="false" />
    <inkscape:path-effect
       effect="fillet_chamfer"
       id="path-effect14"
       is_visible="true"
       lpeversion="1"
       nodesatellites_param="F,0,0,1,0,1.5,0,1 @ F,0,0,1,0,1.5,0,1 @ F,0,0,1,0,1.5,0,1 @ F,0,0,1,0,1.5,0,1"
       radius="1.5"
       unit="px"
       method="auto"
       mode="F"
       chamfer_steps="1"
       flexible="false"
       use_knot_distance="true"
       apply_no_radius="true"
       apply_with_radius="true"
       only_selected="false"
       hide_knots="false" />
    <linearGradient
       id="linearGradient112"
       x2="1"
       gradientTransform="matrix(0,-43.3022,43.3022,0,298.19,45.6914)"
       gradientUnits="userSpaceOnUse"
       x1="0"
       y1="0"
       y2="0"
       spreadMethod="pad">
      <stop
         stop-color="#00594e"
         offset="0"
         id="stop111"
         style="stop-color:#583d12;stop-opacity:1;" />
      <stop
         stop-color="#32867d"
         offset="1"
         id="stop112"
         style="stop-color:#8e651d;stop-opacity:1;" />
    </linearGradient>
    <linearGradient
       id="a-3"
       x2="1"
       gradientTransform="matrix(0,-43.3022,43.3022,0,298.19,45.6914)"
       gradientUnits="userSpaceOnUse"
       x1="0"
       y1="0"
       y2="0"
       spreadMethod="pad"
       xlink:href="#linearGradient55">
      <stop
         stop-color="#00594e"
         offset="0"
         id="stop1-6"
         style="stop-color:#7f5a1a;stop-opacity:1;" />
      <stop
         stop-color="#32867d"
         offset="1"
         id="stop2-7"
         style="stop-color:#b58124;stop-opacity:1;" />
    </linearGradient>
    <linearGradient
       id="linearGradient55"
       x2="1"
       gradientTransform="matrix(0,-43.3022,43.3022,0,298.19,45.6914)"
       gradientUnits="userSpaceOnUse"
       x1="0"
       y1="0"
       y2="0"
       spreadMethod="pad">
      <stop
         stop-color="#00594e"
         offset="0"
         id="stop54"
         style="stop-color:#39280c;stop-opacity:1;" />
      <stop
         stop-color="#32867d"
         offset="1"
         id="stop55"
         style="stop-color:#b58124;stop-opacity:1;" />
    </linearGradient>
    <inkscape:path-effect
       effect="fillet_chamfer"
       id="path-effect159"
       is_visible="true"
       lpeversion="1"
       nodesatellites_param="F,0,0,1,0,1.5,0,1 @ F,0,0,1,0,1.5,0,1 @ F,0,0,1,0,1.5,0,1 @ F,0,0,1,0,1.5,0,1"
       radius="1.5"
       unit="px"
       method="auto"
       mode="F"
       chamfer_steps="1"
       flexible="false"
       use_knot_distance="true"
       apply_no_radius="true"
       apply_with_radius="true"
       only_selected="false"
       hide_knots="false" />
    <inkscape:path-effect
       effect="fillet_chamfer"
       id="path-effect161"
       is_visible="true"
       lpeversion="1"
       nodesatellites_param="F,0,0,1,0,0,0,1 @ F,0,0,1,0,0,0,1 @ F,0,0,1,0,0,0,1 @ F,0,0,1,0,0,0,1 @ F,0,0,1,0,1.7874874,0,1 @ F,0,0,1,0,0,0,1 @ F,0,0,1,0,0,0,1 @ F,0,0,1,0,1.78278,0,1 @ F,0,0,1,0,2.3822787,0,1 @ F,0,0,1,0,0,0,1 @ F,0,0,1,0,0,0,1 @ F,0,0,1,0,0,0,1 @ F,0,0,1,0,0,0,1 @ F,0,0,1,0,0,0,1 @ F,0,0,1,0,0,0,1 @ F,0,0,1,0,0,0,1 @ F,0,0,1,0,0,0,1 | F,0,0,1,0,0,0,1 @ F,0,0,1,0,0,0,1 @ F,0,0,1,0,0,0,1 @ F,0,0,1,0,0,0,1 @ F,0,0,1,0,0,0,1 @ F,0,0,1,0,0,0,1 @ F,0,0,1,0,0,0,1 @ F,0,0,1,0,0,0,1 @ F,0,0,1,0,0,0,1 @ F,0,0,1,0,0,0,1 @ F,0,0,1,0,0,0,1 @ F,0,0,1,0,0,0,1 @ F,0,0,1,0,0,0,1 @ F,0,0,1,0,0,0,1 | F,0,0,1,0,0,0,1 @ F,0,0,1,0,0,0,1 @ F,0,0,1,0,0,0,1 @ F,0,0,1,0,0,0,1 @ F,0,0,1,0,0,0,1 @ F,0,0,1,0,0,0,1 @ F,0,0,1,0,0,0,1 @ F,0,0,1,0,0,0,1 @ F,0,0,1,0,0,0,1 @ F,0,0,1,0,0,0,1 @ F,0,0,1,0,0,0,1 @ F,0,0,1,0,0,0,1 @ F,0,0,1,0,0,0,1 @ F,0,0,1,0,0,0,1 | F,0,0,1,0,0,0,1 @ F,0,0,1,0,0,0,1 @ F,0,0,1,0,0,0,1 @ F,0,0,1,0,0,0,1 @ F,0,0,1,0,0,0,1 @ F,0,0,1,0,0,0,1 @ F,0,0,1,0,0,0,1 @ F,0,0,1,0,0,0,1 @ F,0,0,1,0,0,0,1 @ F,0,0,1,0,0,0,1 @ F,0,0,1,0,0,0,1 @ F,0,0,1,0,0,0,1"
       radius="0"
       unit="px"
       method="auto"
       mode="F"
       chamfer_steps="1"
       flexible="false"
       use_knot_distance="true"
       apply_no_radius="true"
       apply_with_radius="true"
       only_selected="false"
       hide_knots="false" />
    <inkscape:path-effect
       effect="mirror_symmetry"
       start_point="35.503898,-265.62352"
       end_point="35.503898,-117.35884"
       center_point="35.503898,-191.49118"
       id="path-effect163"
       is_visible="true"
       lpeversion="1.2"
       lpesatellites=""
       mode="free"
       discard_orig_path="false"
       fuse_paths="false"
       oposite_fuse="false"
       split_items="false"
       split_open="false"
       link_styles="false" />
    <inkscape:path-effect
       effect="fillet_chamfer"
       id="path-effect165"
       is_visible="true"
       lpeversion="1"
       nodesatellites_param="F,0,0,1,0,1,0,1 @ F,0,0,1,0,1,0,1 @ F,0,0,1,0,1,0,1 @ F,0,0,1,0,1,0,1"
       radius="1"
       unit="px"
       method="auto"
       mode="F"
       chamfer_steps="1"
       flexible="false"
       use_knot_distance="true"
       apply_no_radius="true"
       apply_with_radius="true"
       only_selected="false"
       hide_knots="false" />
    <inkscape:path-effect
       effect="mirror_symmetry"
       start_point="25.928906,25.830149"
       end_point="25.928906,33.881391"
       center_point="25.928906,29.85577"
       id="path-effect167"
       is_visible="true"
       lpeversion="1.2"
       lpesatellites=""
       mode="free"
       discard_orig_path="false"
       fuse_paths="false"
       oposite_fuse="false"
       split_items="false"
       split_open="false"
       link_styles="false" />
    <pattern
       inkscape:collect="always"
       xlink:href="#ZigZag"
       preserveAspectRatio="xMidYMid"
       id="pattern131"
       patternTransform="matrix(0,-0.04,0.04,0,0,0)"
       x="0"
       y="0" />
    <pattern
       patternUnits="userSpaceOnUse"
       width="100"
       height="90"
       patternTransform="scale(0.2)"
       inkscape:stockid="Zig Zag"
       id="ZigZag"
       style="fill:#342320"
       x="0"
       y="0"
       preserveAspectRatio="none"
       inkscape:collect="always"
       inkscape:isstock="true"
       inkscape:label="Zig Zag">
      <path
         style="opacity:1;fill-opacity:1;stroke:none;stroke-width:1;stroke-dasharray:none"
         d="M 50,90 0,40 V 10 L 50,60 100,10 V 40 L 50,90"
         id="zigzag-path-pattern"
         sodipodi:nodetypes="ccccccc" />
    </pattern>
    <linearGradient
       inkscape:collect="always"
       xlink:href="#linearGradient112"
       id="linearGradient40"
       gradientUnits="userSpaceOnUse"
       x1="-48.888672"
       y1="31.832886"
       x2="-47.46891"
       y2="-19.632627" />
    <linearGradient
       inkscape:collect="always"
       xlink:href="#a-3"
       id="linearGradient41"
       gradientUnits="userSpaceOnUse"
       x1="24.000002"
       y1="39.783813"
       x2="24.000002"
       y2="1.2777673" />
    <linearGradient
       inkscape:collect="always"
       xlink:href="#a-3"
       id="linearGradient62"
       gradientUnits="userSpaceOnUse"
       x1="24.000002"
       y1="39.783813"
       x2="24.000002"
       y2="1.2777673" />
  </defs>
  <sodipodi:namedview
     id="namedview6"
     pagecolor="#ffffff"
     bordercolor="#000000"
     borderopacity="0.25"
     inkscape:showpageshadow="2"
     inkscape:pageopacity="0.0"
     inkscape:pagecheckerboard="0"
     inkscape:deskcolor="#d1d1d1"
     inkscape:zoom="6.2734375"
     inkscape:cx="32.996264"
     inkscape:cy="39.611457"
     inkscape:window-width="1920"
     inkscape:window-height="1012"
     inkscape:window-x="0"
     inkscape:window-y="0"
     inkscape:window-maximized="1"
     inkscape:current-layer="svg6" />
  <linearGradient
     id="a"
     x2="1"
     gradientTransform="matrix(0 -21.7658 21.7658 0 630.037 59.6287)"
     gradientUnits="userSpaceOnUse">
    <stop
       stop-color="#006783"
       offset="0"
       id="stop1" />
    <stop
       stop-color="#13bee3"
       offset="1"
       id="stop2" />
  </linearGradient>
  <g
     id="g65"
     inkscape:label="rounded cube logo"
     style="display:inline">
    <path
       id="rect25"
       style="display:inline;fill:url(#linearGradient40);stroke:none;stroke-width:15;stroke-miterlimit:2;opacity:1"
       d="m -18.932935,-36.373424 -20.07195,11.589577 a 6.9285112,6.9285112 119.9989 0 0 -3.464025,6.000133 V 4.3920676 a 6.9285113,6.9285113 60.001103 0 0 3.464025,6.0001334 l 20.07195,11.589577 a 6.9275872,6.9275872 0 0 0 6.92805,0 L 8.0670654,10.392201 A 6.9285113,6.9285113 119.9989 0 0 11.53109,4.3920676 V -18.783714 A 6.9285112,6.9285112 60.001103 0 0 8.0670654,-24.783847 L -12.004885,-36.373424 a 6.9275874,6.9275874 0 0 0 -6.92805,0 z"
       transform="translate(47.46891,39.195823)"
       inkscape:path-effect="#path-effect149"
       inkscape:original-d="m -15.46891,-38.373557 -27,15.589843 V 8.3920676 l 27,15.5898434 27,-15.5898434 V -22.783714 Z" />
    <path
       id="path25"
       transform="translate(-26.941679,42.441967)"
       d="m 34.724137,-19.512975 21.435574,12.3760577 c 0.516129,0.2979928 0.934534,1.0227023 0.934533,1.6186846 l -1.5e-5,13.0910246 c -10e-7,0.5959922 -0.41841,0.8375692 -0.934545,0.5395768 L 34.723911,-4.2636749 c -0.516143,-0.2979976 -0.934553,-1.0227204 -0.934544,-1.6187133 l 2.02e-4,-13.0910378 c 9e-6,-0.595983 0.418429,-0.837547 0.934568,-0.539549 z"
       style="display:inline;fill:url(#linearGradient41);stroke-width:1.87828;stroke-miterlimit:2" />
    <path
       id="path26"
       style="display:inline;fill:#342320;fill-opacity:1;stroke:none;stroke-width:1;stroke-miterlimit:2;stroke-dasharray:none"
       d="m 129.7965,-331.60628 c -1.77231,-0.98571 -4.61458,-2.02192 -5.9713,-2.05014 -1.86288,0.0152 -2.80028,0.42512 -3.58191,1.09542 -1.06107,1.07907 -1.82739,3.08891 -1.79987,4.67862 0.0749,1.4894 0.79864,5.14859 1.10323,7.26581 0.10949,0.76099 -0.21442,1.59503 -0.77867,1.48974 -0.84822,-0.15827 -2.01006,-0.53791 -2.2486,-0.0125 -0.28913,1.391 0.59852,6.6268 1.54707,7.70135 1.03777,0.93762 3.29942,1.64558 4.72529,2.16284 0.60195,0.21836 1.25604,1.11217 1.35148,1.86584 0.16195,1.27889 0.25648,2.91059 0.36652,4.17223 0.0861,0.98693 0.93719,2.22626 1.75687,2.7093 l 7.94049,4.67937 c 0.3702,-0.4611 0.49276,-5.09785 1.01521,-6.27831 0.79948,0.41719 4.40837,3.8382 5.81614,4.2282 0.95784,0.049 1.92782,-4.09473 1.66686,-5.80993 -0.353,-1.24583 -2.96427,-2.94249 -3.12527,-3.82636 -0.007,-1.21868 1.24884,-5.29456 1.37872,-7.07682 0.0559,-1.54054 -0.66305,-4.42474 -1.69337,-6.73642 -0.76123,-1.57962 -1.68143,-3.08603 -3.52422,-5.28522 -1.34281,-1.56281 -4.17343,-3.87018 -5.94467,-4.97298 z m -7.14172,8.3872 c 0.0479,0.0262 0.0976,0.0578 0.14629,0.0895 l 5.14675,3.37592 c 0.44059,0.28898 0.82863,0.82837 1.00186,1.39745 l 0.15515,0.51444 c 0.23949,0.78675 0.28331,1.53053 0.12411,2.11921 l -0.37683,1.39489 c -0.12129,0.44852 -0.51551,0.59414 -0.9797,0.36088 l -4.96944,-2.50058 c -0.47119,-0.23672 -0.9201,-0.76185 -1.16588,-1.3693 l -0.39454,-0.97515 c -0.37107,-0.91706 -0.50628,-1.83245 -0.37678,-2.56711 l 0.21723,-1.23621 c 0.13289,-0.75392 0.75351,-0.99741 1.47178,-0.60402 z m 13.90198,8.02642 c 0.71827,0.43599 1.33888,1.39613 1.47175,2.30349 l 0.21721,1.48703 c 0.12948,0.88418 -0.006,1.64344 -0.37682,2.132 l -0.39455,0.51957 c -0.24579,0.32364 -0.6947,0.33039 -1.16589,0.023 l -4.96942,-3.2377 c -0.46419,-0.30275 -0.85841,-0.90358 -0.97969,-1.49216 l -0.3768,-1.82999 c -0.15919,-0.7725 -0.11536,-1.46568 0.12414,-1.97588 l 0.15516,-0.33528 c 0.17324,-0.36904 0.56128,-0.46039 1.00187,-0.24058 l 5.14675,2.56712 c 0.0487,0.0245 0.0984,0.0503 0.14629,0.0794 z m -6.97319,0.92394 c 0.007,0.003 0.0152,0.008 0.0222,0.0128 0.0556,0.0292 0.11195,0.0943 0.14185,0.18429 l 1.03731,3.11738 c 0.0727,0.21902 -0.0126,0.38086 -0.17732,0.33273 l -0.59847,-0.1766 c -0.17256,-0.0504 -0.3433,-0.57624 -0.4034,-0.79087 -0.0601,0.14526 -0.23084,0.47389 -0.40341,0.32505 l -0.59846,-0.51445 c -0.16473,-0.14209 -0.25006,-0.40246 -0.17731,-0.53748 l 1.03735,-1.91957 c 0.0262,-0.0486 0.0711,-0.0563 0.11969,-0.0333 z"
       transform="matrix(0.21812195,0,0,0.21812195,-9.76963,105.47423)"
       sodipodi:nodetypes="cccccccccccccccccccccccccccccccsccccccccccccccsccccccccccscsc"
       inkscape:label="skull" />
    <path
       style="display:inline;fill:#342320;fill-opacity:1;stroke:none;stroke-width:1;stroke-miterlimit:2;stroke-dasharray:none;stroke-opacity:1"
       d="m 107.10477,-413.13557 36.89589,43.43101 -3.68973,8.74339 10.18758,22.22421 -7.59963,6.1681 -12.99635,-3.81534 11.62688,-6.09492 -1.65202,-5.59579 -15.51751,-4.07557 2.89941,7.88127 -15.74965,-19.90332 26.56894,11.34004 -2.6066,-7.96015 -20.37781,-13.6184 0.27039,7.37704 -10.13252,-20.34837 30.32262,20.59652 0.9087,-5.26193 -19.55653,-19.91285 0.11003,8.58442 z m 115.16823,66.49351 -36.89586,0.82656 3.68952,13.00382 -10.1878,10.4603 7.59942,14.94334 12.99619,11.19158 -11.62657,-19.52038 1.65208,-3.68814 15.5173,13.84256 -2.89949,4.53321 15.74963,-1.71695 -26.56858,-19.33924 2.60668,-4.9502 20.37763,9.91206 -0.2705,7.06471 10.13261,-8.64803 -30.32231,-14.41733 -0.9086,-6.31115 19.55647,2.66941 -0.11017,8.45724 z"
       id="path27"
       sodipodi:nodetypes="ccccccccccccccccccccc"
       transform="matrix(0.17023821,0,0,0.17023821,-9.536108,96.000658)"
       inkscape:label="wings" />
    <path
       id="path28"
       transform="translate(-29.420893,52.124552)"
       d="m 37.027873,-8.4102747 8.852996,5.1112987 c 0.344094,0.1986635 0.623035,0.681813 0.623031,1.0791448 l -1.1e-5,1.22534327 c -4e-6,0.39733254 -0.278951,0.55838578 -0.623045,0.35972227 L 37.027833,-5.7460633 C 36.683736,-5.9447283 36.404795,-6.42788 36.404801,-6.8252127 l 1.9e-5,-1.2253439 c 6e-6,-0.3973319 0.278956,-0.5583831 0.623053,-0.3597181 z m 21.78618,12.5783038 -8.852905,-5.11124631 c -0.344093,-0.19866299 -0.623038,-0.0376103 -0.623041,0.35972138 l -9e-6,1.22534315 c -3e-6,0.39733248 0.278937,0.88048238 0.623031,1.07914538 l 8.85292,5.1112453 c 0.344091,0.1986615 0.623032,0.037607 0.623033,-0.3597256 l 1e-6,-1.2253426 c 10e-7,-0.3973315 -0.278939,-0.8804792 -0.62303,-1.0791407 z"
       style="display:inline;fill:#342320;fill-opacity:1;stroke-width:1.87828;stroke-miterlimit:2" />
    <path
       id="rect28"
       d="M 32.492148,-5.7563653 59.491986,9.8321022 V 11.040295 L 32.492128,-4.5481711 Z"
       style="display:inline;opacity:1;fill:#4f370f;fill-opacity:1;stroke-miterlimit:2"
       transform="translate(-27.491987,43.691967)" />
    <path
       id="rect29"
       d="M 32.492148,-5.7563653 59.491986,9.8321022 V 11.040295 L 32.492128,-4.5481711 Z"
       style="display:inline;opacity:1;fill:url(#pattern131);fill-opacity:1;stroke-miterlimit:2"
       transform="translate(-27.491987,43.691967)" />
    <path
       id="path42"
       transform="matrix(-1,0,0,1,90.941422,42.442002)"
       d="m 34.724137,-19.512975 21.435574,12.3760577 c 0.516129,0.2979928 0.934534,1.0227023 0.934533,1.6186846 l -1.5e-5,13.0910246 c -10e-7,0.5959922 -0.41841,0.8375692 -0.934545,0.5395768 L 34.723911,-4.2636749 c -0.516143,-0.2979976 -0.934553,-1.0227204 -0.934544,-1.6187133 l 2.02e-4,-13.0910378 c 9e-6,-0.595983 0.418429,-0.837547 0.934568,-0.539549 z"
       style="display:inline;fill:url(#linearGradient62);stroke-width:1.87828;stroke-miterlimit:2" />
    <path
       id="path43"
       style="display:inline;fill:#342320;fill-opacity:1;stroke:none;stroke-width:1;stroke-miterlimit:2;stroke-dasharray:none"
       d="m 129.7965,-331.60628 c -1.77231,-0.98571 -4.61458,-2.02192 -5.9713,-2.05014 -1.86288,0.0152 -2.80028,0.42512 -3.58191,1.09542 -1.06107,1.07907 -1.82739,3.08891 -1.79987,4.67862 0.0749,1.4894 0.79864,5.14859 1.10323,7.26581 0.10949,0.76099 -0.21442,1.59503 -0.77867,1.48974 -0.84822,-0.15827 -2.01006,-0.53791 -2.2486,-0.0125 -0.28913,1.391 0.59852,6.6268 1.54707,7.70135 1.03777,0.93762 3.29942,1.64558 4.72529,2.16284 0.60195,0.21836 1.25604,1.11217 1.35148,1.86584 0.16195,1.27889 0.25648,2.91059 0.36652,4.17223 0.0861,0.98693 0.93719,2.22626 1.75687,2.7093 l 7.94049,4.67937 c 0.3702,-0.4611 0.49276,-5.09785 1.01521,-6.27831 0.79948,0.41719 4.40837,3.8382 5.81614,4.2282 0.95784,0.049 1.92782,-4.09473 1.66686,-5.80993 -0.353,-1.24583 -2.96427,-2.94249 -3.12527,-3.82636 -0.007,-1.21868 1.24884,-5.29456 1.37872,-7.07682 0.0559,-1.54054 -0.66305,-4.42474 -1.69337,-6.73642 -0.76123,-1.57962 -1.68143,-3.08603 -3.52422,-5.28522 -1.34281,-1.56281 -4.17343,-3.87018 -5.94467,-4.97298 z m -7.14172,8.3872 c 0.0479,0.0262 0.0976,0.0578 0.14629,0.0895 l 5.14675,3.37592 c 0.44059,0.28898 0.82863,0.82837 1.00186,1.39745 l 0.15515,0.51444 c 0.23949,0.78675 0.28331,1.53053 0.12411,2.11921 l -0.37683,1.39489 c -0.12129,0.44852 -0.51551,0.59414 -0.9797,0.36088 l -4.96944,-2.50058 c -0.47119,-0.23672 -0.9201,-0.76185 -1.16588,-1.3693 l -0.39454,-0.97515 c -0.37107,-0.91706 -0.50628,-1.83245 -0.37678,-2.56711 l 0.21723,-1.23621 c 0.13289,-0.75392 0.75351,-0.99741 1.47178,-0.60402 z m 13.90198,8.02642 c 0.71827,0.43599 1.33888,1.39613 1.47175,2.30349 l 0.21721,1.48703 c 0.12948,0.88418 -0.006,1.64344 -0.37682,2.132 l -0.39455,0.51957 c -0.24579,0.32364 -0.6947,0.33039 -1.16589,0.023 l -4.96942,-3.2377 c -0.46419,-0.30275 -0.85841,-0.90358 -0.97969,-1.49216 l -0.3768,-1.82999 c -0.15919,-0.7725 -0.11536,-1.46568 0.12414,-1.97588 l 0.15516,-0.33528 c 0.17324,-0.36904 0.56128,-0.46039 1.00187,-0.24058 l 5.14675,2.56712 c 0.0487,0.0245 0.0984,0.0503 0.14629,0.0794 z m -6.97319,0.92394 c 0.007,0.003 0.0152,0.008 0.0222,0.0128 0.0556,0.0292 0.11195,0.0943 0.14185,0.18429 l 1.03731,3.11738 c 0.0727,0.21902 -0.0126,0.38086 -0.17732,0.33273 l -0.59847,-0.1766 c -0.17256,-0.0504 -0.3433,-0.57624 -0.4034,-0.79087 -0.0601,0.14526 -0.23084,0.47389 -0.40341,0.32505 l -0.59846,-0.51445 c -0.16473,-0.14209 -0.25006,-0.40246 -0.17731,-0.53748 l 1.03735,-1.91957 c 0.0262,-0.0486 0.0711,-0.0563 0.11969,-0.0333 z"
       transform="matrix(-0.21812195,0,0,0.21812195,73.769373,105.47427)"
       sodipodi:nodetypes="cccccccccccccccccccccccccccccccsccccccccccccccsccccccccccscsc"
       inkscape:label="skull" />
    <path
       style="display:inline;fill:#342320;fill-opacity:1;stroke:none;stroke-width:1;stroke-miterlimit:2;stroke-dasharray:none;stroke-opacity:1"
       d="m 107.10477,-413.13557 36.89589,43.43101 -3.68973,8.74339 10.18758,22.22421 -7.59963,6.1681 -12.99635,-3.81534 11.62688,-6.09492 -1.65202,-5.59579 -15.51751,-4.07557 2.89941,7.88127 -15.74965,-19.90332 26.56894,11.34004 -2.6066,-7.96015 -20.37781,-13.6184 0.27039,7.37704 -10.13252,-20.34837 30.32262,20.59652 0.9087,-5.26193 -19.55653,-19.91285 0.11003,8.58442 z m 115.16823,66.49351 -36.89586,0.82656 3.68952,13.00382 -10.1878,10.4603 7.59942,14.94334 12.99619,11.19158 -11.62657,-19.52038 1.65208,-3.68814 15.5173,13.84256 -2.89949,4.53321 15.74963,-1.71695 -26.56858,-19.33924 2.60668,-4.9502 20.37763,9.91206 -0.2705,7.06471 10.13261,-8.64803 -30.32231,-14.41733 -0.9086,-6.31115 19.55647,2.66941 -0.11017,8.45724 z"
       id="path44"
       sodipodi:nodetypes="ccccccccccccccccccccc"
       transform="matrix(-0.17023821,0,0,0.17023821,73.535851,96.000693)"
       inkscape:label="wings" />
    <path
       id="path45"
       transform="matrix(-1,0,0,1,93.420636,52.124587)"
       d="m 37.027873,-8.4102747 8.852996,5.1112987 c 0.344094,0.1986635 0.623035,0.681813 0.623031,1.0791448 l -1.1e-5,1.22534327 c -4e-6,0.39733254 -0.278951,0.55838578 -0.623045,0.35972227 L 37.027833,-5.7460633 C 36.683736,-5.9447283 36.404795,-6.42788 36.404801,-6.8252127 l 1.9e-5,-1.2253439 c 6e-6,-0.3973319 0.278956,-0.5583831 0.623053,-0.3597181 z m 21.78618,12.5783038 -8.852905,-5.11124631 c -0.344093,-0.19866299 -0.623038,-0.0376103 -0.623041,0.35972138 l -9e-6,1.22534315 c -3e-6,0.39733248 0.278937,0.88048238 0.623031,1.07914538 l 8.85292,5.1112453 c 0.344091,0.1986615 0.623032,0.037607 0.623033,-0.3597256 l 1e-6,-1.2253426 c 10e-7,-0.3973315 -0.278939,-0.8804792 -0.62303,-1.0791407 z"
       style="display:inline;fill:#342320;fill-opacity:1;stroke-width:1.87828;stroke-miterlimit:2" />
    <path
       id="path46"
       d="M 32.492148,-5.7563653 59.491986,9.8321022 V 11.040295 L 32.492128,-4.5481711 Z"
       style="display:inline;opacity:1;fill:#4f370f;fill-opacity:1;stroke-miterlimit:2"
       transform="matrix(-1,0,0,1,91.49173,43.692002)" />
    <path
       id="path47"
       d="M 32.492148,-5.7563653 59.491986,9.8321022 V 11.040295 L 32.492128,-4.5481711 Z"
       style="display:inline;opacity:1;fill:url(#pattern131);fill-opacity:1;stroke-miterlimit:2"
       transform="matrix(-1,0,0,1,91.49173,43.692002)" />
  </g>
</svg>
