<?xml version="1.0" encoding="UTF-8" standalone="no"?>
<svg
   clip-rule="evenodd"
   fill-rule="evenodd"
   stroke-linejoin="round"
   stroke-miterlimit="2"
   viewBox="0 0 48 48"
   version="1.1"
   id="svg7"
   sodipodi:docname="cog.svg"
   inkscape:version="1.4.2 (ebf0e940d0, 2025-05-08)"
   xmlns:inkscape="http://www.inkscape.org/namespaces/inkscape"
   xmlns:sodipodi="http://sodipodi.sourceforge.net/DTD/sodipodi-0.dtd"
   xmlns:xlink="http://www.w3.org/1999/xlink"
   xmlns="http://www.w3.org/2000/svg"
   xmlns:svg="http://www.w3.org/2000/svg">
  <defs
     id="defs7">
    <inkscape:path-effect
       effect="mirror_symmetry"
       start_point="12.18606,1040.7769"
       end_point="12.18606,1042.9193"
       center_point="12.18606,1041.8481"
       id="path-effect16"
       is_visible="true"
       lpeversion="1.2"
       lpesatellites=""
       mode="free"
       discard_orig_path="false"
       fuse_paths="false"
       oposite_fuse="false"
       split_items="false"
       split_open="false"
       link_styles="false" />
    <inkscape:path-effect
       effect="mirror_symmetry"
       start_point="11.966709,1032.7208"
       end_point="11.966709,1038.9534"
       center_point="11.966709,1035.8371"
       id="path-effect15"
       is_visible="true"
       lpeversion="1.2"
       lpesatellites=""
       mode="free"
       discard_orig_path="false"
       fuse_paths="false"
       oposite_fuse="false"
       split_items="false"
       split_open="false"
       link_styles="false" />
    <linearGradient
       id="linearGradient11"
       inkscape:collect="always">
      <stop
         style="stop-color:#4a4a57;stop-opacity:1;"
         offset="0"
         id="stop11" />
      <stop
         style="stop-color:#1a1a21;stop-opacity:1;"
         offset="1"
         id="stop12" />
    </linearGradient>
    <linearGradient
       id="linearGradient3"
       inkscape:collect="always">
      <stop
         style="stop-color:#b1b5c2;stop-opacity:1;"
         offset="0"
         id="stop9" />
      <stop
         style="stop-color:#e8ebff;stop-opacity:1;"
         offset="1"
         id="stop10" />
    </linearGradient>
    <linearGradient
       inkscape:collect="always"
       xlink:href="#linearGradient3"
       id="linearGradient7"
       x1="11.999929"
       y1="1052.2161"
       x2="11.999929"
       y2="1028.4839"
       gradientUnits="userSpaceOnUse"
       gradientTransform="matrix(1.087203,0,0,1.087203,-1.0464302,-90.721671)" />
    <linearGradient
       inkscape:collect="always"
       xlink:href="#linearGradient3"
       id="linearGradient5"
       x1="12"
       y1="1028.4"
       x2="12"
       y2="1052.4"
       gradientUnits="userSpaceOnUse"
       gradientTransform="matrix(1.0170623,0,0,1.0170623,-0.20474218,-17.747312)" />
    <linearGradient
       inkscape:collect="always"
       xlink:href="#linearGradient3"
       id="linearGradient10"
       x1="24"
       y1="27.666838"
       x2="24"
       y2="20.333162"
       gradientUnits="userSpaceOnUse"
       gradientTransform="matrix(0.5999953,0,0,0.5999953,-2.3999572,1025.9501)" />
    <linearGradient
       inkscape:collect="always"
       xlink:href="#linearGradient11"
       id="linearGradient12"
       x1="24"
       y1="13.132148"
       x2="24"
       y2="35.173901"
       gradientUnits="userSpaceOnUse"
       gradientTransform="matrix(0.59999531,0,0,0.59999531,-2.3999572,1025.9501)" />
    <linearGradient
       inkscape:collect="always"
       xlink:href="#linearGradient3"
       id="linearGradient21"
       x1="8.4674473"
       y1="11.379429"
       x2="8.4674473"
       y2="5.2730188"
       gradientUnits="userSpaceOnUse"
       gradientTransform="matrix(0.94325867,0,0,0.94325867,4.0129368,1032.4962)" />
  </defs>
  <sodipodi:namedview
     id="namedview7"
     pagecolor="#a9a9a9"
     bordercolor="#000000"
     borderopacity="0.25"
     inkscape:showpageshadow="2"
     inkscape:pageopacity="0.0"
     inkscape:pagecheckerboard="true"
     inkscape:deskcolor="#d1d1d1"
     inkscape:zoom="8.500488"
     inkscape:cx="23.880982"
     inkscape:cy="15.999081"
     inkscape:window-width="1920"
     inkscape:window-height="1012"
     inkscape:window-x="0"
     inkscape:window-y="0"
     inkscape:window-maximized="1"
     inkscape:current-layer="g13" />
  <linearGradient
     id="a"
     x2="1"
     gradientTransform="matrix(-0.66979382,-43.242487,43.242487,-0.66979382,78.117488,44.549756)"
     gradientUnits="userSpaceOnUse">
    <stop
       stop-color="#2f2f2f"
       offset="0.19635226"
       id="stop1"
       style="stop-color:#1c1c1c;stop-opacity:1;" />
    <stop
       stop-color="#4f4f4f"
       offset="1"
       id="stop2"
       style="stop-color:#36383a;stop-opacity:1;" />
  </linearGradient>
  <linearGradient
     id="b"
     x2="1"
     gradientTransform="matrix(0 -27.5528 27.5528 0 92.1932 37.8331)"
     gradientUnits="userSpaceOnUse">
    <stop
       stop-color="#b8b8b8"
       stop-opacity=".5"
       offset="0"
       id="stop3"
       style="stop-color:#414141;stop-opacity:1;" />
    <stop
       stop-color="#fff"
       stop-opacity=".5"
       offset="1"
       id="stop4"
       style="stop-color:#7f7f7f;stop-opacity:1;" />
  </linearGradient>
  <linearGradient
     id="c"
     x2="1"
     gradientTransform="matrix(0 -42.3632 42.3632 0 303.732 45.2688)"
     gradientUnits="userSpaceOnUse">
    <stop
       stop-color="#b8b8b8"
       offset="0"
       id="stop5"
       style="stop-color:#c8c8c8;stop-opacity:1;" />
    <stop
       stop-color="#fff"
       offset="1"
       id="stop6" />
  </linearGradient>
  <g
     id="g1"
     transform="matrix(1.8120192,0,0,1.8120192,2.255896,-1861.1342)">
    <circle
       style="fill:url(#linearGradient12);stroke-width:1.49999;stroke-miterlimit:40"
       id="circle10"
       cx="11.99993"
       cy="1040.35"
       r="7.5765204"
       inkscape:label="background" />
    <path
       d="m 3.5435235,1030.4021 c 3.2240413,1.3101 3.416874,0.7268 4.0121053,-2.3919 l 2.1140663,-0.5436 c 2.1006819,2.7687 2.5397789,2.4356 4.6601869,0 l 2.11461,0.5436 c 0.285585,3.5913 1.352887,3.2694 4.011779,2.3919 l 1.537305,1.5221 c -1.313053,3.1607 -0.835937,3.4437 2.330964,4.0226 l 0.576217,2.0657 c -2.772853,2.1271 -2.427123,2.5347 0,4.675 l -0.576217,2.1744 c -3.425144,0.3862 -3.35833,0.8624 -2.330964,3.9139 l -1.537305,1.6308 c -3.20314,-1.4615 -3.413941,-0.8484 -4.011779,2.2832 l -2.11461,0.5436 c -2.026457,-2.7017 -2.614048,-2.3497 -4.6601869,0 l -2.114175,-0.5436 c -0.4129963,-3.4204 -0.9569758,-3.4353 -4.0119966,-2.2832 l -1.5375225,-1.6308 c 1.3240751,-3.2034 0.8175312,-3.3383 -2.33031099,-3.9139 l -0.57658725,-2.1744 c 2.76663084,-2.118 2.43339824,-2.5297 0,-4.675 l 0.57657638,-2.0657 c 3.44645966,-0.3908 3.34210086,-1.0177 2.33031096,-4.0226 l 1.5375225,-1.5221 z m 3.0751538,4.5662 c -2.9720869,2.9355 -2.9720869,7.8279 0,10.7634 2.9719782,2.9354 7.7905707,2.9354 10.7629837,0 2.971326,-2.9355 2.971326,-7.8279 0,-10.7634 -2.972413,-2.9354 -7.7910055,-2.9354 -10.7629837,0 z"
       fill="#95a5a6"
       id="path1"
       sodipodi:nodetypes="ccccccccccccccccccccccccccccccc"
       style="display:inline;fill:url(#linearGradient7);stroke-width:1.0872"
       inkscape:label="gear" />
    <g
       id="g13"
       inkscape:label="center v2"
       style="display:inline">
      <path
         d="m 7.0211074,1033.62 c 3.7169296,-2.7239 8.9618856,-1.9359 11.7143586,1.7597 2.75237,3.6956 1.959112,8.976 -1.757612,11.6998 -3.716723,2.7238 -8.9615744,1.936 -11.7143582,-1.7598 -2.7524731,-3.6956 -1.9591113,-8.976 1.7577151,-11.6997 z m 1.5174386,0.3337 1.915494,2.5111 c 0.99388,-0.38 2.071763,-0.4298 3.036672,0.033 l 1.876773,-2.6827 c -2.108918,-1.0578 -4.666209,-1.0185 -6.828939,0.1388 z m -1.6820002,1.2296 c -1.7516948,1.7485 -2.4973177,4.1775 -2.0708134,6.4649 l 3.0319365,-1.0268 c -0.069242,-1.069 0.2741184,-2.0763 0.9388157,-2.8234 z m 3.9043292,3.4451 c -0.9333793,0.7069 -1.1084966,2.0437 -0.423981,2.9936 0.684203,0.95 1.931802,1.0656 2.864872,0.3587 0.933069,-0.7069 1.054014,-1.9986 0.36981,-2.9486 -0.699758,-0.8461 -1.893184,-1.0069 -2.810701,-0.4037 z m 6.281631,-3.503 -1.861217,2.579 c 0.225067,0.1086 1.090645,1.2121 0.990259,2.9015 l 3.0346,0.9853 c 0.318306,-1.9638 -0.09129,-3.9311 -1.311682,-5.5966 -0.251529,-0.3556 -0.550709,-0.6122 -0.85196,-0.8692 z m -11.5758054,8.5309 c 0.188474,0.3459 0.386577,0.6933 0.6378989,1.0486 1.2201871,1.6656 3.0049261,2.6749 4.9048835,2.8543 l 0.009,-3.1748 c -1.6172099,-0.2429 -2.4625398,-1.6012 -2.5199314,-1.755 z m 10.0738314,-1.0276 c -0.602523,0.9049 -1.438888,1.4431 -2.461579,1.7475 l -0.0017,3.282 c 1.157656,-0.2496 2.286366,-0.7152 3.277417,-1.4133 0.991051,-0.6983 1.751257,-1.6428 2.257817,-2.7313 z"
         fill="#7f8c8d"
         id="path2"
         style="display:inline;fill:#b1b5c2;fill-opacity:1;stroke-width:1.04701"
         sodipodi:nodetypes="cccccccccccccccccccscccccccccccccccccsc"
         inkscape:label="center" />
      <circle
         style="display:none;fill:url(#linearGradient10);stroke-width:1.49999;stroke-miterlimit:40"
         id="path3"
         cx="11.99993"
         cy="1040.35"
         r="2.2000856"
         inkscape:label="cap" />
    </g>
    <g
       id="g12"
       transform="translate(-4.7756435e-5,4.1395129e-4)"
       style="display:none"
       inkscape:label="center v1">
      <path
         id="path20"
         style="fill:#91929b;fill-opacity:1;stroke-width:2.1033;stroke-dasharray:none"
         d="m 11.989065,1032.2461 a 8.2794838,8.2794838 0 0 0 -1.953352,0.2344 c 0.09684,0.028 0.192087,0.065 0.282481,0.1133 0.05128,0.028 0.100405,0.059 0.148675,0.094 0.306967,0.2381 0.594974,0.5316 0.627862,0.9378 0.104874,1.2642 0.02105,2.9764 -0.008,4.3276 -0.0048,0.2274 -0.09904,0.4442 -0.171543,0.5089 -0.256576,0.3977 -0.809176,0.6599 -0.96867,1.1048 -0.3378308,0.7092 -0.063847,1.0007 -0.5626754,1.3975 -1.1960365,0.728 -2.4243669,1.432 -3.643665,2.0768 -0.6082158,0.3409 -1.2129071,0.2621 -1.6662966,-0.086 a 8.2794838,8.2794838 0 0 0 1.8950262,3.2549 c -0.028723,-0.1368 -0.038594,-0.2787 -0.024016,-0.4231 0.052731,-0.385 0.1644363,-0.7818 0.4997745,-1.0134 1.042387,-0.7229 2.5665407,-1.5042 3.7511693,-2.1546 0.199355,-0.1094 0.433899,-0.1357 0.526078,-0.1052 0.4727,0.023 0.977128,0.369 1.442142,0.2847 0.587389,-0.046 0.799056,-0.2738 1.118488,-0.2859 0.106465,-0.01 0.224572,0.015 0.37283,0.073 0.614213,0.3358 1.227796,0.6825 1.833271,1.0361 0.605473,0.3537 1.20233,0.7151 1.786379,1.0818 0.597112,0.3551 0.831381,0.9144 0.759382,1.4788 a 8.2794838,8.2794838 0 0 0 1.891594,-3.3005 c -0.102792,0.094 -0.219767,0.1747 -0.351098,0.2355 -0.358127,0.1506 -0.755277,0.2576 -1.125353,0.087 -1.152961,-0.5291 -2.602835,-1.4434 -3.766035,-2.1318 -0.195678,-0.1159 -0.338381,-0.3031 -0.359106,-0.398 -0.220586,-0.4187 -0.179023,-1.0299 -0.488338,-1.3873 -0.45223,-0.6425 -0.841416,-0.5474 -0.942366,-1.1767 -0.04732,-1.3994 -0.05706,-2.8139 -0.02059,-4.1927 0.0017,-0.7461 0.419956,-1.2521 1.005267,-1.4525 a 8.2794838,8.2794838 0 0 0 -1.889308,-0.2195 z m 0.0011,7.213 a 1.0668164,1.0668164 0 0 1 1.065881,1.0658 1.0668164,1.0668164 0 0 1 -1.065881,1.0683 1.0668164,1.0668164 0 0 1 -1.068168,-1.0683 1.0668164,1.0668164 0 0 1 1.068168,-1.0658 z"
         inkscape:label="center" />
      <path
         id="path2-3"
         style="display:inline;fill:url(#linearGradient21);fill-opacity:1;stroke:none;stroke-width:0.524622;stroke-dasharray:none;stroke-dashoffset:0.42096"
         d="m 14.617581,1040.3501 c 0,1.4457 -1.171964,2.6176 -2.617652,2.6176 -1.445688,0 -2.6176496,-1.1719 -2.6176496,-2.6176 0,-1.4457 1.1719616,-2.6177 2.6176496,-2.6177 1.445688,0 2.617652,1.172 2.617652,2.6177 z"
         sodipodi:nodetypes="sssss"
         inkscape:label="cap" />
    </g>
    <circle
       style="display:inline;fill:none;stroke:url(#linearGradient5);stroke-width:1.80693;stroke-linecap:round;stroke-miterlimit:2;stroke-dasharray:none"
       id="path4"
       cx="12.000006"
       cy="1040.4044"
       r="7.5690713"
       inkscape:label="edge" />
  </g>
</svg>
