<?xml version="1.0" encoding="UTF-8" standalone="no"?>
<svg
   clip-rule="evenodd"
   fill-rule="evenodd"
   stroke-linejoin="round"
   stroke-miterlimit="2"
   viewBox="0 0 48 48"
   version="1.1"
   id="svg3"
   sodipodi:docname="kora_dolphin.svg"
   xml:space="preserve"
   inkscape:version="1.4.2 (ebf0e940d0, 2025-05-08)"
   xmlns:inkscape="http://www.inkscape.org/namespaces/inkscape"
   xmlns:sodipodi="http://sodipodi.sourceforge.net/DTD/sodipodi-0.dtd"
   xmlns:xlink="http://www.w3.org/1999/xlink"
   xmlns="http://www.w3.org/2000/svg"
   xmlns:svg="http://www.w3.org/2000/svg"><defs
     id="defs3"><linearGradient
       id="linearGradient3"
       inkscape:collect="always"><stop
         style="stop-color:#0b4e94;stop-opacity:1;"
         offset="0"
         id="stop3" /><stop
         style="stop-color:#137098;stop-opacity:1;"
         offset="1"
         id="stop4" /></linearGradient><linearGradient
       inkscape:collect="always"
       xlink:href="#linearGradient3"
       id="linearGradient4"
       x1="208.289"
       y1="547.65106"
       x2="16.490265"
       y2="72.932533"
       gradientUnits="userSpaceOnUse" /><linearGradient
       inkscape:collect="always"
       xlink:href="#linearGradient3"
       id="linearGradient5"
       gradientUnits="userSpaceOnUse"
       x1="208.289"
       y1="547.65106"
       x2="16.490265"
       y2="72.932533" /><linearGradient
       inkscape:collect="always"
       xlink:href="#linearGradient3"
       id="linearGradient6"
       gradientUnits="userSpaceOnUse"
       x1="208.289"
       y1="547.65106"
       x2="16.490265"
       y2="72.932533" /><linearGradient
       inkscape:collect="always"
       xlink:href="#linearGradient3"
       id="linearGradient7"
       gradientUnits="userSpaceOnUse"
       x1="208.289"
       y1="547.65106"
       x2="16.490265"
       y2="72.932533" /></defs><sodipodi:namedview
     id="namedview3"
     pagecolor="#ffffff"
     bordercolor="#000000"
     borderopacity="0.25"
     inkscape:showpageshadow="2"
     inkscape:pageopacity="0.0"
     inkscape:pagecheckerboard="0"
     inkscape:deskcolor="#d1d1d1"
     inkscape:zoom="11.313709"
     inkscape:cx="29.43332"
     inkscape:cy="24.174213"
     inkscape:window-width="1920"
     inkscape:window-height="1012"
     inkscape:window-x="0"
     inkscape:window-y="0"
     inkscape:window-maximized="1"
     inkscape:current-layer="svg3" /><linearGradient
     id="a"
     x2="1"
     gradientTransform="matrix(0 -32.5937 29.6469 0 25.0628 40.2224)"
     gradientUnits="userSpaceOnUse"><stop
       stop-color="#1075f6"
       offset="0"
       id="stop1" /><stop
       stop-color="#12c5ff"
       offset="1"
       id="stop2" /></linearGradient><path
     d="m46.798 12.466c0-1.327-.526-2.598-1.464-3.536s-2.21-1.464-3.536-1.464h-35.596c-1.326 0-2.598.526-3.536 1.464s-1.464 2.209-1.464 3.536v23.073c0 1.326.526 2.597 1.464 3.535s2.21 1.465 3.536 1.465h35.596c1.326 0 2.598-.527 3.536-1.465s1.464-2.209 1.464-3.535z"
     fill="#0083d5"
     id="path2" /><path
     d="m 46.798,16.201 c 0,-2.761 -2.238,-5 -5,-5 H 23.274 c -1.232,0 -2.42,-0.454 -3.337,-1.276 C 19.509,9.542 19.041,9.121 18.613,8.738 17.696,7.916 16.508,7.461 15.276,7.461 H 6.202 c -1.326,0 -2.598,0.527 -3.536,1.465 -0.938,0.938 -1.464,2.209 -1.464,3.535 v 23.078 c 0,1.326 0.526,2.597 1.464,3.535 0.938,0.938 2.21,1.465 3.536,1.465 h 35.596 c 2.762,0 5,-2.239 5,-5 z"
     fill="url(#a)"
     id="path3"
     sodipodi:nodetypes="sssccssssssssss" /><style
     type="text/css"
     id="style1">
	.st0{fill:#000000;}
</style><g
     id="g2"
     transform="matrix(0.05135417,0,0,0.05135417,18.658778,9.7634451)"
     style="fill:url(#linearGradient4)">
	
	<g
   id="g3"
   transform="translate(-143.61034,54.291714)"
   style="fill:url(#linearGradient7)"><path
     class="st0"
     d="m 377.50587,320.77591 c -13.241,9.666 -29.735,20.375 -47.188,29.397 13.099,7.247 40.25813,30.43109 47.50413,35.16009 11.27,7.366 25.936,15.466 20.652,-14.388 -2.331,-13.188 -14.83913,-38.25409 -20.96813,-50.16909 z"
     id="path1"
     style="fill:url(#linearGradient5);fill-opacity:1"
     sodipodi:nodetypes="ccccc" /><path
     class="st0"
     d="m 486,143.476 c -12.956,6.482 -32.065,17.872 -45.178,23.439 -10.537,-19.573 -34.456,-28.738 -64.064,-25.036 -25.584,3.193 -42.369,19.888 -57.559,30.38 -13.593,9.382 -48.491,37.296 -79.402,49.024 -34.081,15.212 -65.015,12.784 -86.334,7.464 -11.136,-2.788 -59.687,-23.456 -24.512,-92.734 17.288,-34.059 15.047,-56.39 8.52,-61.283 -8.52,-6.392 -37.296,14.388 -54.883,28.782 C 65,92.317 18.636,69.934 8.505,72.069 c -12.515,2.623 -12.724,39.147 9.6,63.943 19.184,21.319 35.872,35.887 37.303,52.23 5.328,60.751 19.146,96.422 50.087,131.102 21.589,24.182 86.26565,49.30497 86.26565,49.30497 -5.583,21.492 -11.15765,37.68103 -15.24965,47.67003 -5.463,13.347 -11.083,30.537 18,20.99 49.151,-16.134 88.178,-59.47 98.4595,-65.952 10.2815,-6.482 22.7285,-10.776 33.1515,-15.781 30.087,-14.441 58.622,-35.175 73.543,-47.967 C 464.688,251.122 486,206.355 505.183,176.515 524.375,146.668 498.207,137.369 486,143.476 Z"
     id="path2-3"
     style="fill:url(#linearGradient6);fill-opacity:1"
     sodipodi:nodetypes="ccccccccccccccccccccc" /></g>
</g></svg>
