<?xml version="1.0" encoding="UTF-8" standalone="no"?>
<svg
   width="48"
   height="48"
   version="1.1"
   id="svg14"
   sodipodi:docname="breeze_gparted.svg"
   inkscape:version="1.4.2 (ebf0e940d0, 2025-05-08)"
   xmlns:inkscape="http://www.inkscape.org/namespaces/inkscape"
   xmlns:sodipodi="http://sodipodi.sourceforge.net/DTD/sodipodi-0.dtd"
   xmlns="http://www.w3.org/2000/svg"
   xmlns:svg="http://www.w3.org/2000/svg">
  <sodipodi:namedview
     id="namedview14"
     pagecolor="#ffffff"
     bordercolor="#000000"
     borderopacity="0.25"
     inkscape:showpageshadow="2"
     inkscape:pageopacity="0.0"
     inkscape:pagecheckerboard="0"
     inkscape:deskcolor="#d1d1d1"
     inkscape:zoom="5.9220193"
     inkscape:cx="3.3772264"
     inkscape:cy="25.666921"
     inkscape:window-width="1920"
     inkscape:window-height="1012"
     inkscape:window-x="0"
     inkscape:window-y="0"
     inkscape:window-maximized="1"
     inkscape:current-layer="g9" />
  <defs
     id="defs8">
    <linearGradient
       id="a"
       y1="41"
       y2="7"
       x2="0"
       gradientUnits="userSpaceOnUse">
      <stop
         stop-color="#728790"
         id="stop1"
         offset="0"
         style="stop-color:#5c7379;stop-opacity:1;" />
      <stop
         offset="1"
         stop-color="#85969e"
         id="stop2"
         style="stop-color:#8fa4ae;stop-opacity:1;" />
    </linearGradient>
    <linearGradient
       id="b"
       y1="36"
       y2="12"
       x2="0"
       gradientUnits="userSpaceOnUse">
      <stop
         stop-color="#06a370"
         id="stop3" />
      <stop
         offset="1"
         stop-color="#22d1b0"
         id="stop4" />
    </linearGradient>
    <linearGradient
       id="c"
       y1="44"
       y2="4"
       x2="0"
       gradientUnits="userSpaceOnUse">
      <stop
         stop-color="#2a2c2f"
         id="stop5" />
      <stop
         offset="1"
         stop-color="#424649"
         id="stop6" />
    </linearGradient>
    <linearGradient
       id="d"
       y1="15"
       x1="15"
       y2="44"
       x2="44"
       gradientUnits="userSpaceOnUse">
      <stop
         stop-color="#020303"
         id="stop7" />
      <stop
         offset="1"
         stop-color="#424649"
         stop-opacity="0"
         id="stop8" />
    </linearGradient>
  </defs>
  <g
     stroke-opacity=".55"
     stroke-width="2.8"
     id="g9">
    <path
       fill="url(#c)"
       d="m24 4c-11.08 0-20 8.92-20 20h7c0-7.202 5.798-13 13-13zm13 20c0 7.202-5.798 13-13 13v7c11.08 0 20-8.92 20-20z"
       id="path8" />
    <path
       fill="url(#a)"
       d="m24 7c-9.418 0-17 7.582-17 17 0 9.418 7.582 17 17 17 9.418 0 17-7.582 17-17h-7c0 5.54-4.46 10-10 10-5.54 0-10-4.46-10-10 0-5.54 4.46-10 10-10z"
       id="path9" />
  </g>
  <path
     opacity=".2"
     fill="url(#d)"
     fill-rule="evenodd"
     d="m22 15l-7 7 2.68 10-1.68 1 10.801 10.801c8.829-1.227 15.773-8.171 17-17l-2.801-2.801h-5c0-3.597-1.575-6.804-4.066-9zm2 2c3.878 0 7 3.122 7 7 0 3.878-3.122 7-7 7-3.878 0-7-3.122-7-7 0-3.878 3.122-7 7-7"
     id="path10" />
  <g
     stroke-opacity=".55"
     stroke-width="2.8"
     id="g14">
    <path
       fill="url(#b)"
       d="m24 12c-6.648 0-12 5.352-12 12 0 6.648 5.352 12 12 12 6.648 0 12-5.352 12-12 0-6.648-5.352-12-12-12m0 5c3.878 0 7 3.122 7 7 0 3.878-3.122 7-7 7-3.878 0-7-3.122-7-7 0-3.878 3.122-7 7-7"
       id="path11" />
  </g>
</svg>
