<?xml version="1.0" encoding="UTF-8" standalone="no"?>
<svg
   clip-rule="evenodd"
   fill-rule="evenodd"
   stroke-linejoin="round"
   stroke-miterlimit="2"
   viewBox="0 0 48 48"
   version="1.1"
   id="svg2"
   sodipodi:docname="kora_flycast.svg"
   inkscape:version="1.4.3 (0d15f75042, 2025-12-25)"
   xmlns:inkscape="http://www.inkscape.org/namespaces/inkscape"
   xmlns:sodipodi="http://sodipodi.sourceforge.net/DTD/sodipodi-0.dtd"
   xmlns:xlink="http://www.w3.org/1999/xlink"
   xmlns="http://www.w3.org/2000/svg"
   xmlns:svg="http://www.w3.org/2000/svg">
  <defs
     id="defs2">
    <linearGradient
       id="linearGradient1"
       inkscape:collect="always">
      <stop
         style="stop-color:#7a34eb;stop-opacity:1;"
         offset="0"
         id="stop3" />
      <stop
         style="stop-color:#9965eb;stop-opacity:1;"
         offset="1"
         id="stop4" />
    </linearGradient>
    <linearGradient
       inkscape:collect="always"
       xlink:href="#linearGradient1"
       id="linearGradient4"
       x1="24"
       y1="43.727924"
       x2="24"
       y2="4.2720757"
       gradientUnits="userSpaceOnUse" />
  </defs>
  <sodipodi:namedview
     id="namedview2"
     pagecolor="#ffffff"
     bordercolor="#000000"
     borderopacity="0.25"
     inkscape:showpageshadow="2"
     inkscape:pageopacity="0.0"
     inkscape:pagecheckerboard="0"
     inkscape:deskcolor="#d1d1d1"
     inkscape:zoom="8.375"
     inkscape:cx="18.925373"
     inkscape:cy="26.985075"
     inkscape:window-width="1920"
     inkscape:window-height="1012"
     inkscape:window-x="0"
     inkscape:window-y="0"
     inkscape:window-maximized="1"
     inkscape:current-layer="svg2" />
  <linearGradient
     id="a"
     x2="1"
     gradientTransform="matrix(0 -45.528 45.528 0 24 46.764)"
     gradientUnits="userSpaceOnUse">
    <stop
       stop-color="#e4e4e4"
       offset="0"
       id="stop1" />
    <stop
       stop-color="#ffffff"
       offset="1"
       id="stop2" />
  </linearGradient>
  <path
     d="m 23.178122,4.2720757 c -10.625173,0 -21.3731213,8.9077543 -21.3731213,21.3716773 0,9.612633 8.9886413,18.084171 19.7293683,18.084171 3.894164,0 8.254876,-1.314424 11.793711,-3.78872 3.538836,-2.474296 6.290461,-6.268794 6.290461,-11.006501 0,-9.096973 -7.123893,-18.085616 -16.440419,-18.085616 -3.761276,0 -7.343445,1.594643 -10.057515,3.982274 -2.712625,2.38763 -4.6221517,5.623137 -4.73915,9.115751 -0.102554,3.082398 0.8189877,6.349682 2.995732,8.907754 2.176745,2.556628 5.640471,4.300047 10.15718,4.300047 4.80415,0 9.863963,-3.967829 9.863963,-9.865407 0,-4.4156 -3.589391,-8.220209 -8.05699,-8.220209 -1.119428,0 -2.553739,0.180552 -3.933163,0.839209 C 18.0302,20.563719 16.601666,22.012474 16.601666,24 c 0,3.031843 1.817084,4.991925 3.47817,5.796468 1.661086,0.803099 3.261506,0.779988 3.261506,0.779988 h 0.02311 c 0.902764,0 1.645197,-0.742433 1.645197,-1.643753 0,-0.902764 -0.742433,-1.645197 -1.645197,-1.645197 -0.0072,0 -0.01444,0 -0.02311,0 -0.0072,0 -0.941764,-0.02311 -1.830084,-0.452104 C 20.624383,26.406408 19.890616,25.899416 19.890616,24 c 0,-0.589324 0.216664,-0.784321 0.934542,-1.12665 0.716433,-0.342328 1.827194,-0.517103 2.516184,-0.517103 2.55085,0 4.769484,2.329854 4.769484,4.931259 0,3.967829 -3.631279,6.576456 -6.576457,6.576456 -3.704944,0 -6.085352,-1.301425 -7.652551,-3.143063 -1.567198,-1.841639 -2.28941,-4.326046 -2.211411,-6.666011 0.07655,-2.329854 1.454534,-4.848927 3.624056,-6.759898 2.170968,-1.909527 5.069924,-3.158952 7.883659,-3.158952 7.123893,0 13.152913,7.453221 13.152913,14.796665 0,3.481059 -1.961526,6.263017 -4.887926,8.309764 -2.926401,2.046747 -6.784454,3.197952 -9.90874,3.197952 -8.988642,0 -16.4404179,-7.288557 -16.4404179,-14.796666 0,-10.552952 9.3179699,-18.0841714 18.0841709,-18.0841714 10.222179,0 14.857332,4.1252714 17.285406,8.2332094 C 42.890158,19.900729 42.906047,24 42.906047,24 v 0.02311 c 0,0.902764 0.742433,1.643753 1.645197,1.643753 0.90132,0 1.643753,-0.740989 1.643753,-1.643753 0,-0.0072 0,-0.01589 0,-0.02311 0,-0.0072 0.01589,-4.942814 -2.900401,-9.876962 C 40.379752,9.1888904 34.327621,4.2720757 23.178122,4.2720757 Z"
     fill="#7a34eb"
     fill-rule="nonzero"
     id="path2"
     style="stroke-width:1.44442;fill:url(#linearGradient4)" />
</svg>
