<?xml version="1.0" encoding="UTF-8" standalone="no"?>
<svg
   version="1"
   width="48"
   height="48"
   id="svg25"
   sodipodi:docname="v3_breeze-dark_gimp.svg"
   inkscape:version="1.4.2 (ebf0e940d0, 2025-05-08)"
   xmlns:inkscape="http://www.inkscape.org/namespaces/inkscape"
   xmlns:sodipodi="http://sodipodi.sourceforge.net/DTD/sodipodi-0.dtd"
   xmlns:xlink="http://www.w3.org/1999/xlink"
   xmlns="http://www.w3.org/2000/svg"
   xmlns:svg="http://www.w3.org/2000/svg">
  <sodipodi:namedview
     id="namedview25"
     pagecolor="#ffffff"
     bordercolor="#000000"
     borderopacity="0.25"
     inkscape:showpageshadow="2"
     inkscape:pageopacity="0.0"
     inkscape:pagecheckerboard="0"
     inkscape:deskcolor="#d1d1d1"
     inkscape:zoom="5.6568543"
     inkscape:cx="1.7677669"
     inkscape:cy="13.523417"
     inkscape:window-width="1920"
     inkscape:window-height="1012"
     inkscape:window-x="0"
     inkscape:window-y="0"
     inkscape:window-maximized="1"
     inkscape:current-layer="svg25" />
  <defs
     id="defs14">
    <linearGradient
       id="linearGradient4176">
      <stop
         style="stop-color:#6f8181;stop-opacity:1"
         offset="0"
         id="stop1" />
      <stop
         style="stop-color:#b0b8b8;stop-opacity:1"
         offset="1"
         id="stop2" />
    </linearGradient>
    <linearGradient
       id="linearGradient4215">
      <stop
         offset="0"
         style="stop-color:#334545;stop-opacity:1"
         id="stop3" />
      <stop
         offset="1"
         style="stop-color:#172525;stop-opacity:1"
         id="stop4" />
    </linearGradient>
    <linearGradient
       id="linearGradient4209">
      <stop
         offset="0"
         style="stop-color:#cfd5d5;stop-opacity:1"
         id="stop5" />
      <stop
         offset="1"
         style="stop-color:#fcfcfc;stop-opacity:1"
         id="stop6" />
    </linearGradient>
    <linearGradient
       id="linearGradient4349">
      <stop
         style="stop-color:#000000;stop-opacity:1;"
         offset="0"
         id="stop7" />
      <stop
         style="stop-color:#000000;stop-opacity:0;"
         offset="1"
         id="stop8" />
    </linearGradient>
    <linearGradient
       id="linearGradient4267">
      <stop
         style="stop-color:#6c5548;stop-opacity:1"
         offset="0"
         id="stop9" />
      <stop
         style="stop-color:#bb9d71;stop-opacity:1"
         offset="1"
         id="stop10" />
    </linearGradient>
    <radialGradient
       cx="15.415"
       cy="35.357"
       r="7.579"
       fx="15.415"
       fy="35.357"
       id="radialGradient6969"
       xlink:href="#linearGradient4215"
       gradientUnits="userSpaceOnUse"
       gradientTransform="matrix(-0.40543333,-1.3172939,1.341188,-0.37818452,27.640115,104.16952)" />
    <linearGradient
       id="linearGradient6951">
      <stop
         style="stop-color:#ffa92d;stop-opacity:1"
         offset="0"
         id="stop11" />
      <stop
         style="stop-color:#cd7223;stop-opacity:1"
         offset="1"
         id="stop12" />
    </linearGradient>
    <linearGradient
       x1="37.018"
       y1="19.24"
       x2="30.865"
       y2="14.64"
       id="linearGradient6957"
       xlink:href="#linearGradient6951"
       gradientUnits="userSpaceOnUse"
       gradientTransform="matrix(-0.24798048,-0.84176725,0.84176725,-0.24798048,47.686475,92.0492)" />
    <linearGradient
       id="linearGradient6482">
      <stop
         style="stop-color:black;stop-opacity:1"
         offset="0"
         id="stop13" />
      <stop
         style="stop-color:black;stop-opacity:0"
         offset="1"
         id="stop14" />
    </linearGradient>
    <linearGradient
       x1="32.35"
       y1="28.083"
       x2="21.213"
       y2="30.293"
       id="linearGradient4351"
       xlink:href="#linearGradient6482"
       gradientUnits="userSpaceOnUse"
       gradientTransform="matrix(1.2194793,0,0,1.3011844,-4.8539477,-5.5118806)" />
    <linearGradient
       xlink:href="#linearGradient4267"
       id="linearGradient4273"
       x1="34.712"
       y1="34.585"
       x2="5"
       y2="9"
       gradientUnits="userSpaceOnUse"
       gradientTransform="matrix(1.2522451,0,0,1.2522451,-1.0193685,-4.4104301)" />
    <radialGradient
       xlink:href="#linearGradient4209"
       id="radialGradient4281"
       cx="22"
       cy="22"
       fx="22"
       fy="22"
       r="5"
       gradientUnits="userSpaceOnUse"
       gradientTransform="matrix(1.2522451,0,0,1.2522451,-1.0193685,-4.4104301)" />
    <radialGradient
       xlink:href="#linearGradient4209"
       id="radialGradient4289"
       cx="13.5"
       cy="21.5"
       fx="13.5"
       fy="21.5"
       r="4.5"
       gradientUnits="userSpaceOnUse"
       gradientTransform="matrix(1.2522451,0,0,1.2522451,-1.0193685,-4.4104301)" />
    <radialGradient
       xlink:href="#linearGradient4215"
       id="radialGradient4335"
       cx="3.496"
       cy="22.823"
       fx="3.496"
       fy="22.823"
       r="5.5"
       gradientTransform="matrix(1.2522451,0,0,1.3660857,-1.0193685,-7.3702847)"
       gradientUnits="userSpaceOnUse" />
    <linearGradient
       xlink:href="#linearGradient4349"
       id="linearGradient4240"
       x1="15.263"
       y1="18.832"
       x2="31"
       y2="35"
       gradientUnits="userSpaceOnUse"
       gradientTransform="matrix(1.2522451,0,0,1.2522451,-1.0193685,-4.4104301)" />
    <radialGradient
       xlink:href="#linearGradient4215"
       id="radialGradient4282"
       cx="23.5"
       cy="22.5"
       fx="23.5"
       fy="22.5"
       r="2.5"
       gradientUnits="userSpaceOnUse"
       gradientTransform="matrix(1.2522451,0,0,1.2522451,-1.019369,-4.4104301)" />
    <radialGradient
       xlink:href="#linearGradient4215"
       id="radialGradient4290"
       cx="14.5"
       cy="21.5"
       fx="14.5"
       fy="21.5"
       r="2.5"
       gradientUnits="userSpaceOnUse"
       gradientTransform="matrix(1.0017962,0,0,1.0017962,3.2382643,1.6003468)" />
    <linearGradient
       xlink:href="#linearGradient4176"
       id="linearGradient4182"
       x1="37.34"
       y1="35.924"
       x2="38.347"
       y2="33.509"
       gradientUnits="userSpaceOnUse"
       gradientTransform="matrix(2.1591306,0,0,2.1591306,-20.306129,-10.735292)" />
  </defs>
  <path
     style="color:#000000;font-style:normal;font-variant:normal;font-weight:normal;font-stretch:normal;font-size:medium;line-height:normal;font-family:sans-serif;text-indent:0;text-align:start;text-decoration:none;text-decoration-line:none;text-decoration-style:solid;text-decoration-color:#000000;letter-spacing:normal;word-spacing:normal;text-transform:none;writing-mode:lr-tb;direction:ltr;baseline-shift:baseline;text-anchor:start;white-space:normal;clip-rule:nonzero;display:inline;overflow:visible;visibility:visible;opacity:1;isolation:auto;mix-blend-mode:normal;color-interpolation:sRGB;color-interpolation-filters:linearRGB;solid-color:#000000;solid-opacity:1;fill:url(#linearGradient4273);fill-opacity:1;fill-rule:evenodd;stroke:none;stroke-width:1.25224;stroke-linecap:butt;stroke-linejoin:miter;stroke-miterlimit:10;stroke-dasharray:none;stroke-dashoffset:0;stroke-opacity:1;marker:none;color-rendering:auto;image-rendering:auto;shape-rendering:auto;text-rendering:auto;enable-background:accumulate"
     d="m 46.238341,5.6485915 c -0.393907,-0.060233 -0.74779,0.1542152 -0.960538,0.3986644 -0.212741,0.2444483 -0.360355,0.5474066 -0.488905,0.9294004 -0.222321,0.6606207 -1.038779,3.1131717 -3.98289,5.5372727 -2.944107,2.424106 -8.021118,5.418468 -16.820474,5.637132 -6.685918,0.07646 -10.779085,-4.225545 -12.48245,-10.0390387 v 3.4378447 l -0.02716,9.655986 0.05432,0.12718 c 0,0 0.47934,1.028374 -0.02715,2.413997 -0.506502,1.385624 -2.504008,3.189078 -6.9677687,4.483137 l -0.5457047,0.156531 0.1037069,0.555192 c 0.2475919,1.344561 1.234509,2.722561 2.6914735,4.133387 1.4569651,1.410829 3.407713,2.838079 5.679258,4.128498 4.543089,2.580837 10.36194,4.620131 16.015504,4.715485 5.653561,0.09535 11.185055,-1.813955 14.84508,-7.102579 3.660029,-5.288619 5.445009,-14.46462 3.982889,-27.6101201 l -0.0026,-0.00487 v -0.00488 C 47.258508,6.8358579 47.176086,6.5276802 47.028453,6.257639 46.880819,5.9875986 46.632201,5.7088725 46.238294,5.6486368 Z"
     id="path14" />
  <path
     style="opacity:0.2;fill:url(#linearGradient4240);fill-opacity:1;stroke:none;stroke-width:2.5045;stroke-linecap:round;stroke-linejoin:round;stroke-miterlimit:4;stroke-dasharray:none;stroke-opacity:1"
     d="m 19.561967,18.127539 -8.071112,8.071111 15.643283,15.643282 c 0.448619,0.03119 0.897923,0.07072 1.345186,0.07825 5.653562,0.09535 11.185927,-1.813957 14.845954,-7.102578 0.505257,-0.730081 0.971255,-1.542878 1.401438,-2.421335 L 30.70744,18.377009 25.258215,23.823788 Z"
     id="path15" />
  <path
     style="color:#000000;display:inline;overflow:visible;visibility:visible;fill:url(#linearGradient4351);fill-opacity:1;fill-rule:evenodd;stroke:none;stroke-width:1.25224;stroke-linecap:butt;stroke-linejoin:miter;stroke-miterlimit:10;stroke-dasharray:none;stroke-dashoffset:0;stroke-opacity:1;marker:none;marker-start:none;marker-mid:none;marker-end:none"
     d="m 19.016556,33.159426 c 8.217952,1.753787 12.402951,0.127634 14.852254,-1.890327 -0.646725,-0.891326 -1.077557,-1.868908 -1.077557,-1.868908 0,0 2.195828,0.850902 3.206366,2.242687 1.007645,1.387802 0.374147,2.242861 0.110442,4.018539 -0.587071,-1.559598 -1.682859,-2.144472 -1.831211,-2.76415 -2.202707,3.248965 -7.690577,3.113997 -15.260288,0.262159 z"
     id="path16" />
  <path
     style="color:#000000;font-style:normal;font-variant:normal;font-weight:normal;font-stretch:normal;font-size:medium;line-height:normal;font-family:sans-serif;text-indent:0;text-align:start;text-decoration:none;text-decoration-line:none;text-decoration-style:solid;text-decoration-color:#000000;letter-spacing:normal;word-spacing:normal;text-transform:none;writing-mode:lr-tb;direction:ltr;baseline-shift:baseline;text-anchor:start;white-space:normal;clip-rule:nonzero;display:inline;overflow:visible;visibility:visible;opacity:0.2;isolation:auto;mix-blend-mode:normal;color-interpolation:sRGB;color-interpolation-filters:linearRGB;solid-color:#000000;solid-opacity:1;fill:#000000;fill-opacity:1;fill-rule:evenodd;stroke:none;stroke-width:1.25224;stroke-linecap:butt;stroke-linejoin:miter;stroke-miterlimit:10;stroke-dasharray:none;stroke-dashoffset:0;stroke-opacity:1;marker:none;color-rendering:auto;image-rendering:auto;shape-rendering:auto;text-rendering:auto;enable-background:accumulate"
     d="m 47.808415,15.42983 c -0.102934,8.187797 -1.77829,14.227126 -4.483137,18.135547 -3.660027,5.288619 -9.192392,7.197934 -14.845954,7.102577 C 22.825761,40.572602 17.00737,38.533303 12.46428,35.952467 10.192735,34.66205 8.2421169,33.2348 6.7851512,31.823972 5.5515028,30.629388 4.6597283,29.45651 4.2635405,28.30937 l -0.2739287,0.07826 0.102722,0.555194 c 0.2475925,1.344558 1.2358509,2.722561 2.6928165,4.133387 1.4569646,1.410828 3.4075837,2.838078 5.6791297,4.128497 4.54309,2.580836 10.361481,4.620133 16.015044,4.715487 5.653562,0.09535 11.185927,-1.813958 14.845954,-7.102578 2.84044,-4.104349 4.542645,-10.562429 4.483137,-19.387794 z m -36.32979,4.532053 -0.0024,1.244905 0.0538,0.127184 c 0,0 0.08131,0.211374 0.141857,0.523399 0.188887,-1.049238 -0.141857,-1.775646 -0.141857,-1.775646 l -0.05136,-0.119838 z"
     id="path17" />
  <path
     style="color:#000000;font-style:normal;font-variant:normal;font-weight:normal;font-stretch:normal;font-size:medium;line-height:normal;font-family:sans-serif;text-indent:0;text-align:start;text-decoration:none;text-decoration-line:none;text-decoration-style:solid;text-decoration-color:#000000;letter-spacing:normal;word-spacing:normal;text-transform:none;writing-mode:lr-tb;direction:ltr;baseline-shift:baseline;text-anchor:start;white-space:normal;clip-rule:nonzero;display:inline;overflow:visible;visibility:visible;opacity:1;isolation:auto;mix-blend-mode:normal;color-interpolation:sRGB;color-interpolation-filters:linearRGB;solid-color:#000000;solid-opacity:1;fill:url(#radialGradient4289);fill-opacity:1;fill-rule:evenodd;stroke:none;stroke-width:1.25224;stroke-linecap:butt;stroke-linejoin:miter;stroke-miterlimit:10;stroke-dasharray:none;stroke-dashoffset:0;stroke-opacity:1;marker:none;color-rendering:auto;image-rendering:auto;shape-rendering:auto;text-rendering:auto;enable-background:accumulate"
     d="m 15.885942,16.877739 c -1.391607,0 -2.790743,0.460509 -3.858767,1.409979 -1.068027,0.949473 -1.776623,2.398128 -1.776336,4.225125 -2.87e-4,1.826996 0.708309,3.27565 1.776336,4.225121 1.068024,0.949473 2.46716,1.40998 3.858767,1.409981 1.391609,0 2.793152,-0.460508 3.86118,-1.409981 1.068023,-0.949471 1.77421,-2.398125 1.773924,-4.225121 2.86e-4,-1.826997 -0.705901,-3.275652 -1.773924,-4.225125 -1.068026,-0.94947 -2.469571,-1.409979 -3.86118,-1.409979 z"
     id="path21" />
  <path
     style="color:#000000;display:inline;overflow:visible;visibility:visible;fill:url(#radialGradient4335);fill-opacity:1;fill-rule:evenodd;stroke:none;stroke-width:1.25224;stroke-linecap:butt;stroke-linejoin:miter;stroke-miterlimit:10;stroke-dasharray:none;stroke-dashoffset:0;stroke-opacity:1;marker:none;marker-start:none;marker-mid:none;marker-end:none"
     d="m 5.3685064,20.634711 c -0.3056079,-0.0027 -0.6053028,0.01871 -0.8966192,0.06487 -0.7768449,0.123186 -1.496108,0.416726 -2.1162138,0.862808 -2.48042109,1.784321 -3.13366426,5.828227 -0.069898,10.062842 3.063767,4.234613 7.1172566,4.891858 9.5976796,3.107537 2.480421,-1.784312 3.136076,-5.828221 0.07231,-10.062836 -2.0106,-2.778961 -4.4480044,-4.016584 -6.5872587,-4.035224 z"
     id="path22" />
  <path
     style="color:#000000;font-style:normal;font-variant:normal;font-weight:normal;font-stretch:normal;font-size:medium;line-height:normal;font-family:sans-serif;text-indent:0;text-align:start;text-decoration:none;text-decoration-line:none;text-decoration-style:solid;text-decoration-color:#000000;letter-spacing:normal;word-spacing:normal;text-transform:none;writing-mode:lr-tb;direction:ltr;baseline-shift:baseline;text-anchor:start;white-space:normal;clip-rule:nonzero;display:inline;overflow:visible;visibility:visible;opacity:1;isolation:auto;mix-blend-mode:normal;color-interpolation:sRGB;color-interpolation-filters:linearRGB;solid-color:#000000;solid-opacity:1;fill:url(#radialGradient4281);fill-opacity:1;fill-rule:evenodd;stroke:none;stroke-width:1.25224;stroke-linecap:butt;stroke-linejoin:miter;stroke-miterlimit:10;stroke-dasharray:none;stroke-dashoffset:0;stroke-opacity:1;marker:none;color-rendering:auto;image-rendering:auto;shape-rendering:auto;text-rendering:auto;enable-background:accumulate"
     d="m 26.528867,16.877739 c -1.548962,0 -3.105708,0.512099 -4.290893,1.565596 -1.185187,1.0535 -1.969175,2.658994 -1.969175,4.69679 0,2.037797 0.783988,3.640969 1.969175,4.694472 1.185185,1.053497 2.741931,1.565594 4.290893,1.565594 1.548966,0 3.10571,-0.512097 4.290895,-1.565594 1.185187,-1.053503 1.971491,-2.656675 1.971491,-4.694472 0,-2.037796 -0.786304,-3.64329 -1.971491,-4.69679 -1.185185,-1.053497 -2.741929,-1.565596 -4.290895,-1.565596 z"
     id="path23" />
  <path
     style="color:#000000;font-style:normal;font-variant:normal;font-weight:normal;font-stretch:normal;font-size:medium;line-height:normal;font-family:sans-serif;text-indent:0;text-align:start;text-decoration:none;text-decoration-line:none;text-decoration-style:solid;text-decoration-color:#000000;letter-spacing:normal;word-spacing:normal;text-transform:none;writing-mode:lr-tb;direction:ltr;baseline-shift:baseline;text-anchor:start;white-space:normal;clip-rule:nonzero;display:inline;overflow:visible;visibility:visible;opacity:1;isolation:auto;mix-blend-mode:normal;color-interpolation:sRGB;color-interpolation-filters:linearRGB;solid-color:#000000;solid-opacity:1;fill:url(#radialGradient4282);fill-opacity:1;fill-rule:evenodd;stroke:none;stroke-width:1.3426;stroke-linecap:butt;stroke-linejoin:miter;stroke-miterlimit:10;stroke-dasharray:none;stroke-dashoffset:0;stroke-opacity:1;marker:none;color-rendering:auto;image-rendering:auto;shape-rendering:auto;text-rendering:auto;enable-background:accumulate"
     d="m 28.408394,20.634475 c -0.767115,0 -1.542624,0.253634 -2.140067,0.784692 -0.597443,0.531058 -0.990546,1.349002 -0.990546,2.345922 0,0.996919 0.393103,1.814864 0.990546,2.345923 0.597443,0.531056 1.372952,0.784688 2.140067,0.784688 0.767113,0 1.542625,-0.253632 2.140067,-0.784688 0.597439,-0.531059 0.990546,-1.349004 0.990546,-2.345923 0,-0.99692 -0.393107,-1.814864 -0.990546,-2.345922 -0.597442,-0.531058 -1.372954,-0.784692 -2.140067,-0.784692 z"
     id="path24" />
  <path
     d="m 17.764309,20.634475 c -0.613693,0 -1.2341,0.202907 -1.712054,0.627752 -0.477952,0.424847 -0.792436,1.079202 -0.792436,1.87674 0,0.797531 0.314484,1.45189 0.792436,1.876736 0.477954,0.424846 1.098361,0.627754 1.712054,0.627754 0.613693,0 1.234101,-0.202908 1.712054,-0.627754 0.477953,-0.424846 0.792435,-1.079205 0.792435,-1.876736 0,-0.797538 -0.314482,-1.451893 -0.792435,-1.87674 -0.477953,-0.424845 -1.098361,-0.627752 -1.712054,-0.627752 z"
     style="color:#000000;font-style:normal;font-variant:normal;font-weight:normal;font-stretch:normal;font-size:medium;line-height:normal;font-family:sans-serif;text-indent:0;text-align:start;text-decoration:none;text-decoration-line:none;text-decoration-style:solid;text-decoration-color:#000000;letter-spacing:normal;word-spacing:normal;text-transform:none;writing-mode:lr-tb;direction:ltr;baseline-shift:baseline;text-anchor:start;white-space:normal;clip-rule:nonzero;display:inline;overflow:visible;visibility:visible;opacity:1;isolation:auto;mix-blend-mode:normal;color-interpolation:sRGB;color-interpolation-filters:linearRGB;solid-color:#000000;solid-opacity:1;fill:url(#radialGradient4290);fill-opacity:1;fill-rule:evenodd;stroke:none;stroke-width:1.3426;stroke-linecap:butt;stroke-linejoin:miter;stroke-miterlimit:10;stroke-dasharray:none;stroke-dashoffset:0;stroke-opacity:1;marker:none;color-rendering:auto;image-rendering:auto;shape-rendering:auto;text-rendering:auto;enable-background:accumulate"
     id="path25" />
</svg>
