<?xml version="1.0" encoding="UTF-8" standalone="no"?>
<svg
   height="231.72127"
   viewBox="0 0 231.68134 231.72127"
   width="231.68134"
   version="1.1"
   id="svg2"
   sodipodi:docname="vinegar.svg"
   inkscape:version="1.4.2 (ebf0e940d0, 2025-05-08)"
   xmlns:inkscape="http://www.inkscape.org/namespaces/inkscape"
   xmlns:sodipodi="http://sodipodi.sourceforge.net/DTD/sodipodi-0.dtd"
   xmlns:xlink="http://www.w3.org/1999/xlink"
   xmlns="http://www.w3.org/2000/svg"
   xmlns:svg="http://www.w3.org/2000/svg">
  <defs
     id="defs2">
    <linearGradient
       id="linearGradient96"
       gradientUnits="userSpaceOnUse"
       x1="70.134674"
       x2="82.848145"
       y1="46.271187"
       y2="8.4226913"
       spreadMethod="pad">
      <stop
         offset="0"
         stop-color="#518630"
         id="stop95"
         style="stop-color:#00bfe9;stop-opacity:1;" />
      <stop
         offset="1"
         stop-color="#b6db3f"
         id="stop96"
         style="stop-color:#012cab;stop-opacity:1;" />
    </linearGradient>
    <linearGradient
       id="linearGradient94"
       gradientUnits="userSpaceOnUse"
       x1="70.134674"
       x2="82.848145"
       y1="46.271187"
       y2="8.4226913"
       spreadMethod="pad">
      <stop
         offset="0"
         stop-color="#518630"
         id="stop93"
         style="stop-color:#00bfe9;stop-opacity:1;" />
      <stop
         offset="1"
         stop-color="#b6db3f"
         id="stop94"
         style="stop-color:#7d01ab;stop-opacity:1;" />
    </linearGradient>
    <linearGradient
       id="linearGradient92"
       gradientUnits="userSpaceOnUse"
       x1="70.134674"
       x2="82.848145"
       y1="46.271187"
       y2="8.4226913"
       spreadMethod="pad">
      <stop
         offset="0"
         stop-color="#518630"
         id="stop91"
         style="stop-color:#00bfe9;stop-opacity:1;" />
      <stop
         offset="1"
         stop-color="#b6db3f"
         id="stop92"
         style="stop-color:#7f01ab;stop-opacity:1;" />
    </linearGradient>
    <linearGradient
       id="linearGradient90"
       gradientUnits="userSpaceOnUse"
       x1="70.134674"
       x2="82.848145"
       y1="46.271187"
       y2="8.4226913"
       spreadMethod="pad">
      <stop
         offset="0"
         stop-color="#518630"
         id="stop89"
         style="stop-color:#00bfe9;stop-opacity:1;" />
      <stop
         offset="1"
         stop-color="#b6db3f"
         id="stop90"
         style="stop-color:#7501ab;stop-opacity:1;" />
    </linearGradient>
    <linearGradient
       id="linearGradient88"
       gradientUnits="userSpaceOnUse"
       x1="70.134674"
       x2="82.848145"
       y1="46.271187"
       y2="8.4226913"
       spreadMethod="pad">
      <stop
         offset="0"
         stop-color="#518630"
         id="stop87"
         style="stop-color:#00bfe9;stop-opacity:1;" />
      <stop
         offset="1"
         stop-color="#b6db3f"
         id="stop88"
         style="stop-color:#4801ab;stop-opacity:1;" />
    </linearGradient>
    <linearGradient
       id="linearGradient86"
       gradientUnits="userSpaceOnUse"
       x1="70.134674"
       x2="82.848145"
       y1="46.271187"
       y2="8.4226913"
       spreadMethod="pad">
      <stop
         offset="0"
         stop-color="#518630"
         id="stop85"
         style="stop-color:#00bfe9;stop-opacity:1;" />
      <stop
         offset="1"
         stop-color="#b6db3f"
         id="stop86"
         style="stop-color:#2601ab;stop-opacity:1;" />
    </linearGradient>
    <linearGradient
       id="linearGradient84"
       gradientUnits="userSpaceOnUse"
       x1="70.134674"
       x2="82.848145"
       y1="46.271187"
       y2="8.4226913"
       spreadMethod="pad">
      <stop
         offset="0"
         stop-color="#518630"
         id="stop83"
         style="stop-color:#00bfe9;stop-opacity:1;" />
      <stop
         offset="1"
         stop-color="#b6db3f"
         id="stop84"
         style="stop-color:#0140ab;stop-opacity:1;" />
    </linearGradient>
    <linearGradient
       id="linearGradient82"
       gradientUnits="userSpaceOnUse"
       x1="70.134674"
       x2="82.848145"
       y1="46.271187"
       y2="8.4226913"
       spreadMethod="pad">
      <stop
         offset="0"
         stop-color="#518630"
         id="stop81"
         style="stop-color:#00bfe9;stop-opacity:1;" />
      <stop
         offset="1"
         stop-color="#b6db3f"
         id="stop82"
         style="stop-color:#0142ab;stop-opacity:1;" />
    </linearGradient>
    <linearGradient
       id="linearGradient80"
       gradientUnits="userSpaceOnUse"
       x1="70.134674"
       x2="82.848145"
       y1="46.271187"
       y2="8.4226913"
       spreadMethod="pad">
      <stop
         offset="0"
         stop-color="#518630"
         id="stop79"
         style="stop-color:#0068e9;stop-opacity:1;" />
      <stop
         offset="1"
         stop-color="#b6db3f"
         id="stop80"
         style="stop-color:#015eab;stop-opacity:1;" />
    </linearGradient>
    <linearGradient
       id="linearGradient78"
       gradientUnits="userSpaceOnUse"
       x1="70.134674"
       x2="82.848145"
       y1="46.271187"
       y2="8.4226913"
       spreadMethod="pad">
      <stop
         offset="0"
         stop-color="#518630"
         id="stop77"
         style="stop-color:#0065e9;stop-opacity:1;" />
      <stop
         offset="1"
         stop-color="#b6db3f"
         id="stop78"
         style="stop-color:#015eab;stop-opacity:1;" />
    </linearGradient>
    <linearGradient
       id="linearGradient76"
       gradientUnits="userSpaceOnUse"
       x1="70.134674"
       x2="82.848145"
       y1="46.271187"
       y2="8.4226913"
       spreadMethod="pad">
      <stop
         offset="0"
         stop-color="#518630"
         id="stop75"
         style="stop-color:#0063e9;stop-opacity:1;" />
      <stop
         offset="1"
         stop-color="#b6db3f"
         id="stop76"
         style="stop-color:#015eab;stop-opacity:1;" />
    </linearGradient>
    <linearGradient
       id="linearGradient74"
       gradientUnits="userSpaceOnUse"
       x1="70.134674"
       x2="82.848145"
       y1="46.271187"
       y2="8.4226913"
       spreadMethod="pad">
      <stop
         offset="0"
         stop-color="#518630"
         id="stop73"
         style="stop-color:#006ae9;stop-opacity:1;" />
      <stop
         offset="1"
         stop-color="#b6db3f"
         id="stop74"
         style="stop-color:#015eab;stop-opacity:1;" />
    </linearGradient>
    <linearGradient
       id="linearGradient72"
       gradientUnits="userSpaceOnUse"
       x1="70.134674"
       x2="82.848145"
       y1="46.271187"
       y2="8.4226913"
       spreadMethod="pad">
      <stop
         offset="0"
         stop-color="#518630"
         id="stop71"
         style="stop-color:#0071e9;stop-opacity:1;" />
      <stop
         offset="1"
         stop-color="#b6db3f"
         id="stop72"
         style="stop-color:#015eab;stop-opacity:1;" />
    </linearGradient>
    <linearGradient
       id="linearGradient70"
       gradientUnits="userSpaceOnUse"
       x1="70.134674"
       x2="82.848145"
       y1="46.271187"
       y2="8.4226913"
       spreadMethod="pad">
      <stop
         offset="0"
         stop-color="#518630"
         id="stop69"
         style="stop-color:#0078e9;stop-opacity:1;" />
      <stop
         offset="1"
         stop-color="#b6db3f"
         id="stop70"
         style="stop-color:#015eab;stop-opacity:1;" />
    </linearGradient>
    <linearGradient
       id="linearGradient68"
       gradientUnits="userSpaceOnUse"
       x1="70.134674"
       x2="82.848145"
       y1="46.271187"
       y2="8.4226913"
       spreadMethod="pad">
      <stop
         offset="0"
         stop-color="#518630"
         id="stop67"
         style="stop-color:#0094e9;stop-opacity:1;" />
      <stop
         offset="1"
         stop-color="#b6db3f"
         id="stop68"
         style="stop-color:#015eab;stop-opacity:1;" />
    </linearGradient>
    <linearGradient
       id="linearGradient66"
       gradientUnits="userSpaceOnUse"
       x1="70.134674"
       x2="82.848145"
       y1="46.271187"
       y2="8.4226913"
       spreadMethod="pad">
      <stop
         offset="0"
         stop-color="#518630"
         id="stop65"
         style="stop-color:#00b1e9;stop-opacity:1;" />
      <stop
         offset="1"
         stop-color="#b6db3f"
         id="stop66"
         style="stop-color:#015eab;stop-opacity:1;" />
    </linearGradient>
    <linearGradient
       id="linearGradient64"
       gradientUnits="userSpaceOnUse"
       x1="70.134674"
       x2="82.848145"
       y1="46.271187"
       y2="8.4226913"
       spreadMethod="pad">
      <stop
         offset="0"
         stop-color="#518630"
         id="stop63"
         style="stop-color:#00b6e9;stop-opacity:1;" />
      <stop
         offset="1"
         stop-color="#b6db3f"
         id="stop64"
         style="stop-color:#015eab;stop-opacity:1;" />
    </linearGradient>
    <linearGradient
       id="linearGradient62"
       gradientUnits="userSpaceOnUse"
       x1="70.134674"
       x2="82.848145"
       y1="46.271187"
       y2="8.4226913"
       spreadMethod="pad">
      <stop
         offset="0"
         stop-color="#518630"
         id="stop61"
         style="stop-color:#00bce9;stop-opacity:1;" />
      <stop
         offset="1"
         stop-color="#b6db3f"
         id="stop62"
         style="stop-color:#015eab;stop-opacity:1;" />
    </linearGradient>
    <linearGradient
       id="linearGradient60"
       gradientUnits="userSpaceOnUse"
       x1="70.134674"
       x2="82.848145"
       y1="46.271187"
       y2="8.4226913"
       spreadMethod="pad">
      <stop
         offset="0"
         stop-color="#518630"
         id="stop59"
         style="stop-color:#00e9cf;stop-opacity:1;" />
      <stop
         offset="1"
         stop-color="#b6db3f"
         id="stop60"
         style="stop-color:#015eab;stop-opacity:1;" />
    </linearGradient>
    <linearGradient
       id="linearGradient58"
       gradientUnits="userSpaceOnUse"
       x1="70.134674"
       x2="82.848145"
       y1="46.271187"
       y2="8.4226913"
       spreadMethod="pad">
      <stop
         offset="0"
         stop-color="#518630"
         id="stop57"
         style="stop-color:#00e9b4;stop-opacity:1;" />
      <stop
         offset="1"
         stop-color="#b6db3f"
         id="stop58"
         style="stop-color:#015eab;stop-opacity:1;" />
    </linearGradient>
    <linearGradient
       id="linearGradient56"
       gradientUnits="userSpaceOnUse"
       x1="70.134674"
       x2="82.848145"
       y1="46.271187"
       y2="8.4226913"
       spreadMethod="pad">
      <stop
         offset="0"
         stop-color="#518630"
         id="stop55"
         style="stop-color:#00e924;stop-opacity:1;" />
      <stop
         offset="1"
         stop-color="#b6db3f"
         id="stop56"
         style="stop-color:#015eab;stop-opacity:1;" />
    </linearGradient>
    <linearGradient
       id="linearGradient54"
       gradientUnits="userSpaceOnUse"
       x1="70.134674"
       x2="82.848145"
       y1="46.271187"
       y2="8.4226913"
       spreadMethod="pad">
      <stop
         offset="0"
         stop-color="#518630"
         id="stop53"
         style="stop-color:#7ce900;stop-opacity:1;" />
      <stop
         offset="1"
         stop-color="#b6db3f"
         id="stop54"
         style="stop-color:#015eab;stop-opacity:1;" />
    </linearGradient>
    <linearGradient
       id="linearGradient52"
       gradientUnits="userSpaceOnUse"
       x1="70.134674"
       x2="82.848145"
       y1="46.271187"
       y2="8.4226913"
       spreadMethod="pad">
      <stop
         offset="0"
         stop-color="#518630"
         id="stop51"
         style="stop-color:#cae900;stop-opacity:1;" />
      <stop
         offset="1"
         stop-color="#b6db3f"
         id="stop52"
         style="stop-color:#015eab;stop-opacity:1;" />
    </linearGradient>
    <linearGradient
       id="linearGradient50"
       gradientUnits="userSpaceOnUse"
       x1="70.134674"
       x2="82.848145"
       y1="46.271187"
       y2="8.4226913"
       spreadMethod="pad">
      <stop
         offset="0"
         stop-color="#518630"
         id="stop49"
         style="stop-color:#e9af00;stop-opacity:1;" />
      <stop
         offset="1"
         stop-color="#b6db3f"
         id="stop50"
         style="stop-color:#015eab;stop-opacity:1;" />
    </linearGradient>
    <linearGradient
       id="linearGradient48"
       gradientUnits="userSpaceOnUse"
       x1="70.134674"
       x2="82.848145"
       y1="46.271187"
       y2="8.4226913"
       spreadMethod="pad">
      <stop
         offset="0"
         stop-color="#518630"
         id="stop47"
         style="stop-color:#e9af00;stop-opacity:1;" />
      <stop
         offset="1"
         stop-color="#b6db3f"
         id="stop48"
         style="stop-color:#015eab;stop-opacity:1;" />
    </linearGradient>
    <linearGradient
       id="linearGradient46"
       gradientUnits="userSpaceOnUse"
       x1="70.134674"
       x2="82.848145"
       y1="46.271187"
       y2="8.4226913"
       spreadMethod="pad">
      <stop
         offset="0"
         stop-color="#518630"
         id="stop45"
         style="stop-color:#e9af00;stop-opacity:1;" />
      <stop
         offset="1"
         stop-color="#b6db3f"
         id="stop46"
         style="stop-color:#015eab;stop-opacity:1;" />
    </linearGradient>
    <linearGradient
       id="linearGradient44"
       gradientUnits="userSpaceOnUse"
       x1="70.134674"
       x2="82.848145"
       y1="46.271187"
       y2="8.4226913"
       spreadMethod="pad">
      <stop
         offset="0"
         stop-color="#518630"
         id="stop43"
         style="stop-color:#e9af00;stop-opacity:1;" />
      <stop
         offset="1"
         stop-color="#b6db3f"
         id="stop44"
         style="stop-color:#015eab;stop-opacity:1;" />
    </linearGradient>
    <linearGradient
       id="linearGradient42"
       gradientUnits="userSpaceOnUse"
       x1="70.134674"
       x2="82.848145"
       y1="46.271187"
       y2="8.4226913"
       spreadMethod="pad">
      <stop
         offset="0"
         stop-color="#518630"
         id="stop41"
         style="stop-color:#e9af00;stop-opacity:1;" />
      <stop
         offset="1"
         stop-color="#b6db3f"
         id="stop42"
         style="stop-color:#015eab;stop-opacity:1;" />
    </linearGradient>
    <linearGradient
       id="linearGradient40"
       gradientUnits="userSpaceOnUse"
       x1="70.134674"
       x2="82.848145"
       y1="46.271187"
       y2="8.4226913"
       spreadMethod="pad">
      <stop
         offset="0"
         stop-color="#518630"
         id="stop39"
         style="stop-color:#e9af00;stop-opacity:1;" />
      <stop
         offset="1"
         stop-color="#b6db3f"
         id="stop40"
         style="stop-color:#015eab;stop-opacity:1;" />
    </linearGradient>
    <linearGradient
       id="linearGradient38"
       gradientUnits="userSpaceOnUse"
       x1="70.134674"
       x2="82.848145"
       y1="46.271187"
       y2="8.4226913"
       spreadMethod="pad">
      <stop
         offset="0"
         stop-color="#518630"
         id="stop37"
         style="stop-color:#d4e5e9;stop-opacity:1;" />
      <stop
         offset="1"
         stop-color="#b6db3f"
         id="stop38"
         style="stop-color:#015eab;stop-opacity:1;" />
    </linearGradient>
    <linearGradient
       id="linearGradient36"
       gradientUnits="userSpaceOnUse"
       x1="70.134674"
       x2="82.848145"
       y1="46.271187"
       y2="8.4226913"
       spreadMethod="pad">
      <stop
         offset="0"
         stop-color="#518630"
         id="stop35"
         style="stop-color:#d3e5e9;stop-opacity:1;" />
      <stop
         offset="1"
         stop-color="#b6db3f"
         id="stop36"
         style="stop-color:#015eab;stop-opacity:1;" />
    </linearGradient>
    <linearGradient
       id="linearGradient34"
       gradientUnits="userSpaceOnUse"
       x1="70.134674"
       x2="82.848145"
       y1="46.271187"
       y2="8.4226913"
       spreadMethod="pad">
      <stop
         offset="0"
         stop-color="#518630"
         id="stop33"
         style="stop-color:#cbe4e9;stop-opacity:1;" />
      <stop
         offset="1"
         stop-color="#b6db3f"
         id="stop34"
         style="stop-color:#015eab;stop-opacity:1;" />
    </linearGradient>
    <linearGradient
       id="linearGradient32"
       gradientUnits="userSpaceOnUse"
       x1="70.134674"
       x2="82.848145"
       y1="46.271187"
       y2="8.4226913"
       spreadMethod="pad">
      <stop
         offset="0"
         stop-color="#518630"
         id="stop31"
         style="stop-color:#c8e3e9;stop-opacity:1;" />
      <stop
         offset="1"
         stop-color="#b6db3f"
         id="stop32"
         style="stop-color:#015eab;stop-opacity:1;" />
    </linearGradient>
    <linearGradient
       id="linearGradient30"
       gradientUnits="userSpaceOnUse"
       x1="70.134674"
       x2="82.848145"
       y1="46.271187"
       y2="8.4226913"
       spreadMethod="pad">
      <stop
         offset="0"
         stop-color="#518630"
         id="stop29"
         style="stop-color:#c5e3e9;stop-opacity:1;" />
      <stop
         offset="1"
         stop-color="#b6db3f"
         id="stop30"
         style="stop-color:#015eab;stop-opacity:1;" />
    </linearGradient>
    <linearGradient
       id="linearGradient28"
       gradientUnits="userSpaceOnUse"
       x1="70.134674"
       x2="82.848145"
       y1="46.271187"
       y2="8.4226913"
       spreadMethod="pad">
      <stop
         offset="0"
         stop-color="#518630"
         id="stop27"
         style="stop-color:#c4e2e9;stop-opacity:1;" />
      <stop
         offset="1"
         stop-color="#b6db3f"
         id="stop28"
         style="stop-color:#015eab;stop-opacity:1;" />
    </linearGradient>
    <linearGradient
       id="linearGradient26"
       gradientUnits="userSpaceOnUse"
       x1="70.134674"
       x2="82.848145"
       y1="46.271187"
       y2="8.4226913"
       spreadMethod="pad">
      <stop
         offset="0"
         stop-color="#518630"
         id="stop25"
         style="stop-color:#e90000;stop-opacity:1;" />
      <stop
         offset="1"
         stop-color="#b6db3f"
         id="stop26"
         style="stop-color:#015eab;stop-opacity:1;" />
    </linearGradient>
    <linearGradient
       id="linearGradient24"
       gradientUnits="userSpaceOnUse"
       x1="70.134674"
       x2="82.848145"
       y1="46.271187"
       y2="8.4226913"
       spreadMethod="pad">
      <stop
         offset="0"
         stop-color="#518630"
         id="stop23"
         style="stop-color:#e90000;stop-opacity:1;" />
      <stop
         offset="1"
         stop-color="#b6db3f"
         id="stop24"
         style="stop-color:#015eab;stop-opacity:1;" />
    </linearGradient>
    <linearGradient
       id="linearGradient22"
       gradientUnits="userSpaceOnUse"
       x1="70.134674"
       x2="82.848145"
       y1="46.271187"
       y2="8.4226913"
       spreadMethod="pad">
      <stop
         offset="0"
         stop-color="#518630"
         id="stop21"
         style="stop-color:#e91000;stop-opacity:1;" />
      <stop
         offset="1"
         stop-color="#b6db3f"
         id="stop22"
         style="stop-color:#015eab;stop-opacity:1;" />
    </linearGradient>
    <linearGradient
       id="linearGradient20"
       gradientUnits="userSpaceOnUse"
       x1="70.134674"
       x2="82.848145"
       y1="46.271187"
       y2="8.4226913"
       spreadMethod="pad">
      <stop
         offset="0"
         stop-color="#518630"
         id="stop19"
         style="stop-color:#e96200;stop-opacity:1;" />
      <stop
         offset="1"
         stop-color="#b6db3f"
         id="stop20"
         style="stop-color:#015eab;stop-opacity:1;" />
    </linearGradient>
    <linearGradient
       id="linearGradient18"
       gradientUnits="userSpaceOnUse"
       x1="70.134674"
       x2="82.848145"
       y1="46.271187"
       y2="8.4226913"
       spreadMethod="pad">
      <stop
         offset="0"
         stop-color="#518630"
         id="stop17"
         style="stop-color:#e96500;stop-opacity:1;" />
      <stop
         offset="1"
         stop-color="#b6db3f"
         id="stop18"
         style="stop-color:#015eab;stop-opacity:1;" />
    </linearGradient>
    <linearGradient
       id="linearGradient16"
       gradientUnits="userSpaceOnUse"
       x1="70.134674"
       x2="82.848145"
       y1="46.271187"
       y2="8.4226913"
       spreadMethod="pad">
      <stop
         offset="0"
         stop-color="#518630"
         id="stop15"
         style="stop-color:#e90000;stop-opacity:1;" />
      <stop
         offset="1"
         stop-color="#b6db3f"
         id="stop16"
         style="stop-color:#015eab;stop-opacity:1;" />
    </linearGradient>
    <linearGradient
       id="linearGradient14"
       gradientUnits="userSpaceOnUse"
       x1="70.134674"
       x2="82.848145"
       y1="46.271187"
       y2="8.4226913"
       spreadMethod="pad">
      <stop
         offset="0"
         stop-color="#518630"
         id="stop13"
         style="stop-color:#e90000;stop-opacity:1;" />
      <stop
         offset="1"
         stop-color="#b6db3f"
         id="stop14"
         style="stop-color:#015eab;stop-opacity:1;" />
    </linearGradient>
    <linearGradient
       id="linearGradient12"
       gradientUnits="userSpaceOnUse"
       x1="70.134674"
       x2="82.848145"
       y1="46.271187"
       y2="8.4226913"
       spreadMethod="pad">
      <stop
         offset="0"
         stop-color="#518630"
         id="stop11"
         style="stop-color:#e90000;stop-opacity:1;" />
      <stop
         offset="1"
         stop-color="#b6db3f"
         id="stop12"
         style="stop-color:#015eab;stop-opacity:1;" />
    </linearGradient>
    <linearGradient
       id="linearGradient10"
       gradientUnits="userSpaceOnUse"
       x1="70.134674"
       x2="82.848145"
       y1="46.271187"
       y2="8.4226913"
       spreadMethod="pad">
      <stop
         offset="0"
         stop-color="#518630"
         id="stop9"
         style="stop-color:#e90000;stop-opacity:1;" />
      <stop
         offset="1"
         stop-color="#b6db3f"
         id="stop10"
         style="stop-color:#015eab;stop-opacity:1;" />
    </linearGradient>
    <linearGradient
       id="linearGradient8"
       gradientUnits="userSpaceOnUse"
       x1="70.134674"
       x2="82.848145"
       y1="46.271187"
       y2="8.4226913"
       spreadMethod="pad">
      <stop
         offset="0"
         stop-color="#518630"
         id="stop7"
         style="stop-color:#e90000;stop-opacity:1;" />
      <stop
         offset="1"
         stop-color="#b6db3f"
         id="stop8"
         style="stop-color:#015eab;stop-opacity:1;" />
    </linearGradient>
    <linearGradient
       id="linearGradient6"
       gradientUnits="userSpaceOnUse"
       x1="70.134674"
       x2="82.848145"
       y1="46.271187"
       y2="8.4226913"
       spreadMethod="pad">
      <stop
         offset="0"
         stop-color="#518630"
         id="stop5"
         style="stop-color:#e9b200;stop-opacity:1;" />
      <stop
         offset="1"
         stop-color="#b6db3f"
         id="stop6"
         style="stop-color:#015eab;stop-opacity:1;" />
    </linearGradient>
    <linearGradient
       id="linearGradient4"
       gradientUnits="userSpaceOnUse"
       x1="70.134674"
       x2="82.848145"
       y1="46.271187"
       y2="8.4226913">
      <stop
         offset="0"
         stop-color="#518630"
         id="stop3"
         style="stop-color:#bee900;stop-opacity:1;" />
      <stop
         offset="1"
         stop-color="#b6db3f"
         id="stop4"
         style="stop-color:#015eab;stop-opacity:1;" />
    </linearGradient>
  </defs>
  <sodipodi:namedview
     id="namedview2"
     pagecolor="#ffffff"
     bordercolor="#000000"
     borderopacity="0.25"
     inkscape:showpageshadow="2"
     inkscape:pageopacity="0.0"
     inkscape:pagecheckerboard="0"
     inkscape:deskcolor="#d1d1d1"
     inkscape:zoom="0.6125967"
     inkscape:cx="-189.35786"
     inkscape:cy="178.74729"
     inkscape:window-width="1920"
     inkscape:window-height="1012"
     inkscape:window-x="0"
     inkscape:window-y="0"
     inkscape:window-maximized="1"
     inkscape:current-layer="svg2" />
  <linearGradient
     id="a"
     gradientUnits="userSpaceOnUse"
     x1="70.134674"
     x2="82.848145"
     y1="46.271187"
     y2="8.4226913"
     xlink:href="#linearGradient96">
    <stop
       offset="0"
       stop-color="#518630"
       id="stop1"
       style="stop-color:#00bfe9;stop-opacity:1;" />
    <stop
       offset="1"
       stop-color="#b6db3f"
       id="stop2"
       style="stop-color:#015eab;stop-opacity:1;" />
  </linearGradient>
  <path
     d="M 98.068222,10.832675 59.532213,0.51702888 C 58.465281,0.23142307 57.368864,0.86495714 57.083496,1.9319531 L 52.930111,17.461502 c -0.285426,1.067211 0.348035,2.163808 1.415113,2.44973 l 11.44118,3.065655 c 1.067166,0.285947 2.16419,-0.346874 2.450934,-1.413826 l 0.04345,-0.161673 c 0.286744,-1.066952 1.383768,-1.699773 2.450934,-1.413826 l 7.966275,2.134557 c 1.066933,0.285883 1.700098,1.382558 1.414214,2.44949 l -0.04333,0.161703 c -0.285884,1.066932 0.347281,2.163607 1.414214,2.44949 l 11.395628,3.05345 c 1.066787,0.285845 2.163243,-0.347534 2.448591,-1.414454 L 99.483461,13.281935 C 99.768867,12.2148 99.135293,11.118317 98.068222,10.832675 Z M 50.93274,24.928141 46.776592,40.468004 c -0.285406,1.067135 0.348168,2.163618 1.415239,2.44926 l 38.53601,10.315646 c 1.066932,0.285606 2.163348,-0.347928 2.448717,-1.414924 l 4.153384,-15.529549 c 0.285426,-1.067211 -0.348036,-2.163808 -1.415113,-2.44973 L 80.517913,30.784912 c -1.066932,-0.285884 -2.163606,0.347282 -2.44949,1.414214 l -0.09089,0.339187 c -0.285899,1.066989 -1.382543,1.70027 -2.449584,1.414565 L 67.551837,31.817235 C 66.485165,31.531629 65.852436,30.434906 66.139108,29.36852 l 0.09174,-0.341263 c 0.286687,-1.066443 -0.345957,-2.163251 -1.412634,-2.449066 L 53.381331,23.513687 c -1.066787,-0.285845 -2.163243,0.347534 -2.448591,1.414454 z"
     fill="url(#a)"
     transform="matrix(4.39,1e-8,-1e-8,4.39,-205.34924,-1.971205)"
     id="path2"
     style="fill:url(#a)"
     sodipodi:nodetypes="ccscsssssssssssscsscssssssssssssss" />
  <path
     id="path7"
     style="fill:#ffffff;fill-opacity:0.75;stroke-width:0.471829"
     d="M 161.9043 39.212891 C 160.99088 39.198081 160.18106 39.204497 159.48242 39.216797 L 159.48047 39.216797 C 158.07824 39.243957 156.33923 39.3248 154.58398 39.537109 C 153.26197 39.68617 151.9545 39.942433 150.67383 40.302734 C 149.62216 40.613791 148.72934 40.99343 148.08008 41.455078 C 147.81091 41.639132 147.5689 41.862155 147.36328 42.115234 C 147.20166 42.31582 147.08115 42.545458 147.00977 42.792969 C 146.02722 46.29853 144.93668 50.503565 143.81836 54.994141 C 142.742 59.311907 141.67086 63.775402 140.70312 67.880859 C 139.61347 72.511728 138.54721 77.147532 137.50391 81.789062 C 142.11546 86.363574 146.43335 89.629702 150.47461 91.898438 C 154.63685 94.233837 158.51266 95.512602 162.13672 96.050781 C 165.79781 96.593895 169.23411 96.388068 172.48047 95.736328 C 175.77619 95.077176 178.89065 93.948937 181.8457 92.650391 C 184.84518 91.337041 187.72244 89.830147 190.43555 88.455078 C 193.22519 87.045447 195.87137 85.758796 198.45117 84.875 C 199.71838 84.428635 201.02068 84.093325 202.3457 83.871094 C 203.62469 83.658679 204.92592 83.611788 206.2168 83.732422 C 207.53665 83.86079 208.82956 84.192788 210.04688 84.71875 C 210.94302 85.106336 211.81328 85.605074 212.66992 86.214844 L 212.85352 85.720703 C 213.09299 85.064028 213.37737 84.306376 213.69336 83.447266 C 214.4436 81.436927 215.15457 79.412956 215.82617 77.375 C 217.3148 72.830113 218.93178 67.020306 219.80078 60.591797 C 219.82848 60.368538 219.81225 60.142529 219.75195 59.925781 C 219.67005 59.635348 219.54751 59.358136 219.38867 59.101562 C 219.02577 58.494261 218.43352 57.817705 217.60156 57.082031 C 216.76962 56.346357 215.72407 55.577095 214.49219 54.787109 C 213.12446 53.917919 211.71954 53.11007 210.2793 52.367188 C 207.09467 50.705748 203.34247 49.044706 199.30859 47.474609 C 195.00787 45.810504 190.64396 44.310628 186.22852 42.980469 C 184.24443 42.388603 182.23846 41.873576 180.21484 41.435547 L 172.56641 40.068359 C 170.59263 39.796872 168.61173 39.585287 166.625 39.435547 C 165.05409 39.315819 163.47951 39.241254 161.9043 39.212891 z M 204.14258 90.751953 L 204.14258 90.753906 C 203.63825 90.765726 203.13528 90.80975 202.63672 90.886719 C 201.51727 91.069001 200.41592 91.351358 199.34766 91.732422 C 197.0098 92.542163 194.48128 93.772258 191.80273 95.115234 C 188.97853 96.532266 186.13533 97.998417 183.03711 99.333984 C 179.77348 100.74115 176.45969 101.90126 172.99609 102.61719 C 169.25523 103.41871 165.41011 103.60492 161.60938 103.16797 C 157.1978 102.6446 152.97612 101.26471 148.91016 99.183594 C 146.5723 98.10971 141.8716 95.885057 142.24219 96.210938 C 142.3639 96.318595 142.4827 96.430115 142.59961 96.542969 C 142.87789 96.807338 143.14291 97.085408 143.39258 97.376953 C 143.49709 97.4933 143.59773 97.611798 143.69727 97.732422 C 144.01267 98.131223 144.30223 98.550343 144.56055 98.988281 C 144.61735 99.091909 144.67114 99.197359 144.72461 99.302734 C 144.92186 99.663826 145.09954 100.03542 145.25586 100.41602 C 145.31846 100.56858 145.37775 100.72177 145.43359 100.87695 C 145.57666 101.2755 145.69789 101.68157 145.79492 102.09375 C 145.82182 102.19378 145.84699 102.29379 145.87109 102.39453 C 145.97383 102.90028 146.04021 103.41265 146.07227 103.92773 C 146.07827 104.07166 146.08388 104.21727 146.08398 104.36133 C 146.09508 104.75657 146.08333 105.15073 146.05273 105.54492 C 146.04123 105.70157 146.02787 105.85765 146.00977 106.01367 C 145.95097 106.5315 145.85488 107.04617 145.72461 107.55078 L 143.71484 115.05273 C 161.99422 119.95876 180.27335 124.8635 198.55273 129.76953 C 200.60617 124.62688 202.4726 119.4577 204.14648 114.45703 C 206.1321 108.52016 207.95639 102.52994 209.61719 96.494141 C 209.94554 95.309155 210.22066 94.2972 210.44531 93.472656 C 209.7953 92.783965 209.04568 92.196974 208.22266 91.728516 C 207.40123 91.268366 206.50081 90.964446 205.56836 90.833984 C 205.09562 90.769124 204.61963 90.741333 204.14258 90.751953 z M 139.99609 128.92969 L 138.07617 136.0957 C 137.88138 136.77804 137.62354 137.43933 137.30273 138.07227 C 137.17504 138.32928 137.03573 138.58168 136.88867 138.82812 C 136.71586 139.12189 136.51442 139.39641 136.31445 139.66797 C 136.1247 139.91737 135.92484 140.15801 135.71484 140.39062 C 135.47738 140.68379 135.22481 140.96472 134.95898 141.23242 C 134.75655 141.42498 134.56439 141.62551 134.34961 141.80078 C 133.98668 142.09421 133.60567 142.36546 133.20898 142.61133 L 133.13477 142.65234 C 132.79949 142.83524 132.45573 143.00075 132.10352 143.14844 C 131.28853 143.54132 130.4284 143.83358 129.54297 144.01953 C 129.13241 144.12537 128.71678 144.20897 128.29688 144.26758 C 128.27717 144.27158 128.25603 144.275 128.23633 144.2793 C 128.35976 145.94568 128.77506 147.84577 128.98242 149.47266 C 129.55023 153.94348 130.50572 158.26287 131.97461 162.17578 C 132.4486 163.44469 132.99695 164.64377 133.58203 165.81641 L 133.4375 165.5957 C 134.6916 169.10373 135.81913 171.0713 136.85352 173.98438 C 137.86075 176.81598 138.82313 184.8239 138.61328 188.16406 C 138.16644 195.34058 138.07405 195.18689 137.20508 200.4082 C 136.48669 204.72103 135.07705 209.70184 132.79102 215.95508 C 132.16709 217.64833 131.4777 219.31714 130.72461 220.95703 L 143.60938 224.41406 C 143.81922 222.8094 144.07766 221.13949 144.47266 219.25586 C 145.56382 214.08145 146.82417 209.9791 147.84375 205.9082 C 149.01144 201.23988 151.2533 194.89697 152.5 192.24805 C 154.46015 188.08087 155.95815 185.79764 158.99219 182.85742 C 162.55206 180.28997 163.23295 179.92904 167.33594 176.80859 C 171.16243 173.90292 172.71587 172.65695 176.68555 168.88477 C 182.10189 163.73999 184.20789 159.91928 190.97461 146.64258 C 191.27774 146.0475 191.57734 145.44786 191.875 144.8457 C 180.06817 141.67689 168.26192 138.50864 156.45508 135.33984 C 153.22895 134.51182 150.036 133.53967 146.78906 132.80273 C 144.50612 131.56108 142.25654 130.23148 139.99609 128.92969 z " />
</svg>
