<?xml version="1.0" encoding="UTF-8" standalone="no"?>
<svg
   height="128px"
   viewBox="0 0 128 128"
   width="128px"
   version="1.1"
   id="svg7"
   sodipodi:docname="avinegar.svg"
   inkscape:version="1.4.2 (ebf0e940d0, 2025-05-08)"
   xml:space="preserve"
   xmlns:inkscape="http://www.inkscape.org/namespaces/inkscape"
   xmlns:sodipodi="http://sodipodi.sourceforge.net/DTD/sodipodi-0.dtd"
   xmlns:xlink="http://www.w3.org/1999/xlink"
   xmlns="http://www.w3.org/2000/svg"
   xmlns:svg="http://www.w3.org/2000/svg"><sodipodi:namedview
     id="namedview1"
     pagecolor="#ffffff"
     bordercolor="#000000"
     borderopacity="0.25"
     inkscape:showpageshadow="2"
     inkscape:pageopacity="0.0"
     inkscape:pagecheckerboard="0"
     inkscape:deskcolor="#d1d1d1"
     inkscape:zoom="8.8719804"
     inkscape:cx="75.913152"
     inkscape:cy="112.65805"
     inkscape:window-width="1920"
     inkscape:window-height="1012"
     inkscape:window-x="0"
     inkscape:window-y="0"
     inkscape:window-maximized="1"
     inkscape:current-layer="g14" /><defs
     id="defs7"><inkscape:path-effect
       effect="fillet_chamfer"
       id="path-effect20"
       is_visible="true"
       lpeversion="1"
       nodesatellites_param="F,0,0,1,0,5,0,1 @ F,0,0,1,0,5,0,1 @ F,0,0,1,0,5,0,1 @ F,0,0,1,0,5,0,1 | F,0,0,1,0,5,0,1 @ F,0,0,1,0,5,0,1 @ F,0,0,1,0,5,0,1 @ F,0,0,1,0,5,0,1"
       radius="5"
       unit="px"
       method="auto"
       mode="F"
       chamfer_steps="1"
       flexible="false"
       use_knot_distance="true"
       apply_no_radius="true"
       apply_with_radius="true"
       only_selected="false"
       hide_knots="false" /><inkscape:path-effect
       effect="fillet_chamfer"
       id="path-effect19"
       is_visible="true"
       lpeversion="1"
       nodesatellites_param="F,0,0,1,0,0,0,1 @ F,0,0,1,0,0,0,1 @ F,0,0,1,0,0,0,1 @ F,0,0,1,0,0,0,1 | F,0,0,1,0,0,0,1 @ F,0,0,1,0,0,0,1 @ F,0,0,1,0,0,0,1 @ F,0,0,1,0,0,0,1"
       radius="5"
       unit="px"
       method="auto"
       mode="F"
       chamfer_steps="1"
       flexible="false"
       use_knot_distance="true"
       apply_no_radius="true"
       apply_with_radius="true"
       only_selected="false"
       hide_knots="false" /><inkscape:path-effect
       effect="fillet_chamfer"
       id="path-effect17"
       is_visible="true"
       lpeversion="1"
       nodesatellites_param="F,0,0,1,0,5,0,1 @ F,0,0,1,0,5,0,1 @ F,0,0,1,0,5,0,1 @ F,0,0,1,0,5,0,1 | F,0,0,1,0,5,0,1 @ F,0,0,1,0,5,0,1 @ F,0,0,1,0,5,0,1 @ F,0,0,1,0,5,0,1"
       radius="5"
       unit="px"
       method="auto"
       mode="F"
       chamfer_steps="1"
       flexible="false"
       use_knot_distance="true"
       apply_no_radius="true"
       apply_with_radius="true"
       only_selected="false"
       hide_knots="false" /><inkscape:path-effect
       effect="fillet_chamfer"
       id="path-effect12"
       is_visible="true"
       lpeversion="1"
       nodesatellites_param="F,0,0,1,0,5,0,1 @ F,0,0,1,0,5,0,1 @ F,0,0,1,0,5,0,1 @ F,0,0,1,0,5,0,1 | F,0,0,1,0,5,0,1 @ F,0,0,1,0,5,0,1 @ F,0,0,1,0,5,0,1 @ F,0,0,1,0,5,0,1"
       radius="5"
       unit="px"
       method="auto"
       mode="F"
       chamfer_steps="1"
       flexible="false"
       use_knot_distance="true"
       apply_no_radius="true"
       apply_with_radius="true"
       only_selected="false"
       hide_knots="false" /><inkscape:path-effect
       effect="fillet_chamfer"
       id="path-effect9"
       is_visible="true"
       lpeversion="1"
       nodesatellites_param="F,0,0,1,0,10,0,1 @ F,0,0,1,0,10,0,1 @ F,0,0,1,0,10,0,1 @ F,0,0,1,0,10,0,1"
       radius="10"
       unit="px"
       method="auto"
       mode="F"
       chamfer_steps="1"
       flexible="false"
       use_knot_distance="true"
       apply_no_radius="true"
       apply_with_radius="true"
       only_selected="false"
       hide_knots="false" /><inkscape:path-effect
       effect="transform_2pts"
       start="6.2963867,64"
       end="121.70361,64"
       id="path-effect8"
       is_visible="true"
       lpeversion="1"
       first_knot="1"
       last_knot="2"
       helper_size="3"
       stretch="1"
       offset="0"
       elastic="false"
       from_original_width="false"
       flip_vertical="false"
       flip_horizontal="false"
       lock_length="false"
       lock_angle="false" /><linearGradient
       xlink:href="#b"
       id="linearGradient9"
       x1="132.58655"
       y1="177.28145"
       x2="71.93898"
       y2="27.443338"
       gradientUnits="userSpaceOnUse"
       gradientTransform="translate(-290.51822,-49.363794)"
       spreadMethod="pad" /><linearGradient
       id="linearGradient24"
       gradientTransform="matrix(0.33230148,0,0,0.33238009,1.2034372,-0.823033)"
       gradientUnits="userSpaceOnUse"
       spreadMethod="reflect"
       x1="231.13"
       x2="144.06"
       y1="342.54001"
       y2="34.762001"><stop
         offset="0.2054"
         stop-color="#90a0ae"
         id="stop4-5"
         style="stop-color:#5e0317;stop-opacity:1;" /><stop
         offset="0.52424002"
         stop-color="#bbc6d1"
         id="stop5-3"
         style="stop-color:#ab0212;stop-opacity:1;" /><stop
         offset="0.95265001"
         stop-color="#eeeeee"
         id="stop6-5"
         style="stop-color:#ff043e;stop-opacity:1;" /></linearGradient><inkscape:path-effect
       effect="fillet_chamfer"
       id="path-effect17-6"
       is_visible="true"
       lpeversion="1"
       nodesatellites_param="F,0,0,1,0,0,0,1 @ F,0,0,1,0,0,0,1 @ F,0,0,1,0,0,0,1 @ F,0,0,1,0,0,0,1 | F,0,0,1,0,0,0,1 @ F,0,0,1,0,0,0,1 @ F,0,0,1,0,0,0,1 @ F,0,0,1,0,0,0,1"
       radius="5"
       unit="px"
       method="auto"
       mode="F"
       chamfer_steps="1"
       flexible="false"
       use_knot_distance="true"
       apply_no_radius="true"
       apply_with_radius="true"
       only_selected="false"
       hide_knots="false" /><linearGradient
       inkscape:collect="always"
       xlink:href="#linearGradient24"
       id="linearGradient14"
       gradientUnits="userSpaceOnUse"
       gradientTransform="matrix(0.87292815,0,0,0.87292815,5.5583808,8.3413173)"
       x1="108.30676"
       y1="169.96921"
       x2="7.0136986"
       y2="-12.114571"
       spreadMethod="pad" /><inkscape:path-effect
       effect="fillet_chamfer"
       id="path-effect17-2"
       is_visible="true"
       lpeversion="1"
       nodesatellites_param="F,0,0,1,0,5,0,1 @ F,0,0,1,0,5,0,1 @ F,0,0,1,0,5,0,1 @ F,0,0,1,0,5,0,1 | F,0,0,1,0,5,0,1 @ F,0,0,1,0,5,0,1 @ F,0,0,1,0,5,0,1 @ F,0,0,1,0,5,0,1"
       radius="5"
       unit="px"
       method="auto"
       mode="F"
       chamfer_steps="1"
       flexible="false"
       use_knot_distance="true"
       apply_no_radius="true"
       apply_with_radius="true"
       only_selected="false"
       hide_knots="false" /></defs><linearGradient
     id="a"
     gradientTransform="matrix(0.99602477,0,0,0.99661201,-141.20207,3.6400646)"
     gradientUnits="userSpaceOnUse"
     x1="9.2404"
     x2="118.75"
     y1="60.522999"
     y2="60.522999"><stop
       offset="0"
       stop-color="#5b6d7d"
       id="stop1" /><stop
       offset="0.03319412"
       stop-color="#5b6d7d"
       id="stop10"
       style="stop-color:#b7c1ca;stop-opacity:1;" /><stop
       offset="0.07319438"
       stop-color="#5b6d7d"
       id="stop11"
       style="stop-color:#5b6d7d;stop-opacity:1;" /><stop
       offset="0.73161501"
       stop-color="#5b6d7d"
       id="stop9"
       style="stop-color:#5b6d7d;stop-opacity:1;" /><stop
       offset="0.77063"
       stop-color="#b7c1ca"
       id="stop2" /><stop
       offset="0.81257331"
       stop-color="#5b6d7d"
       id="stop3" /></linearGradient><linearGradient
     id="b"
     gradientTransform="matrix(0.33230148,0,0,0.33238009,1.2034372,-0.823033)"
     gradientUnits="userSpaceOnUse"
     spreadMethod="reflect"
     x1="231.130005"
     x2="144.059998"
     y1="342.540009"
     y2="34.762001"><stop
       offset="0.2054"
       stop-color="#90a0ae"
       id="stop4" /><stop
       offset="0.52424"
       stop-color="#bbc6d1"
       id="stop5" /><stop
       offset="0.95265"
       stop-color="#eeeeee"
       id="stop6" /></linearGradient><g
     id="g14"
     inkscape:label="backup"
     transform="matrix(0.97314784,0,0,0.97314784,1.7185392,1.7185392)"><path
       id="rect13"
       style="fill:url(#linearGradient14);fill-opacity:1;stroke-width:0.48273;stroke-miterlimit:2"
       d="m 13.629874,18.629874 0,90.740246 a 5,5 45 0 0 5,5 h 90.740246 a 5,5 135 0 0 5,-5 V 18.629874 a 5,5 45 0 0 -5,-5 l -90.740246,0 a 5,5 135 0 0 -5,5 z m 41.343078,31.343078 h 18.054094 a 5,5 45 0 1 5,5 v 18.054094 a 5,5 135 0 1 -5,5 H 54.972952 a 5,5 45 0 1 -5,-5 V 54.972952 a 5,5 135 0 1 5,-5 z"
       inkscape:original-d="M 13.629874,13.629874 V 114.37012 H 114.37012 V 13.629874 Z M 49.972952,49.972952 H 78.027046 V 78.027046 H 49.972952 Z"
       inkscape:path-effect="#path-effect17-2"
       transform="rotate(15,63.999997,63.999997)" /><path
       id="path7"
       style="display:inline;fill:#ddc0c3;fill-opacity:1;stroke-width:0.157227"
       d="M 103.94466,31.746338 C 101.92684,31.10991 99.693736,30.526289 97.314614,30.023844 92.03666,28.91025 86.818818,28.848755 83.120135,29.856626 c -1.667193,0.453702 -2.458761,1.046202 -2.856093,2.129112 -0.862495,2.352869 -2.003926,7.186031 -3.981037,16.966664 0.03637,0.04078 0.07739,0.08581 0.117624,0.127097 0.145063,0.148849 0.357567,0.358682 0.601872,0.599691 0.4886,0.482012 1.133373,1.091033 1.817324,1.739875 1.367891,1.297679 2.942229,2.738224 3.485987,3.142787 0.828045,0.61431 2.251611,1.464537 3.577674,2.149225 1.326056,0.684675 2.739291,1.207653 2.953812,1.236123 1.800661,0.236049 6.376404,-0.64518 8.993054,-1.916334 0.675855,-0.328562 2.353488,-1.256766 3.584578,-1.994173 1.30412,-0.780398 2.69956,-1.550359 3.55662,-1.866605 2.00724,-0.740987 4.20585,-0.630009 5.90327,0.387031 0.24248,0.145279 0.47521,0.309355 0.69521,0.49172 0.0727,0.06108 0.81476,0.618376 1.50411,1.171819 0.20258,0.162645 0.40644,0.333975 0.60302,0.502341 2.39215,-7.942897 3.70902,-13.191988 3.56021,-14.263981 -0.18176,-1.309028 -1.50952,-2.597091 -5.33357,-5.196208 -0.73355,-0.498047 -1.61538,-0.990328 -2.62515,-1.470124 -1.51467,-0.719696 -3.31616,-1.409921 -5.33399,-2.046348 z m 4.86639,22.549628 c -0.88676,-0.251932 -1.96373,-0.233593 -2.99167,0.145873 -0.31903,0.117718 -1.95048,0.936647 -3.16568,1.663838 -1.2888,0.771983 -2.910357,1.689299 -3.763634,2.104109 -3.015997,1.465158 -6.837268,2.529989 -9.678025,2.26264 -0.103379,-0.0097 -0.602626,-0.08787 -0.702276,-0.100906 -1.1238,-0.149154 -2.322657,-0.784479 -3.744558,-1.51865 C 83.343276,58.11875 81.877443,57.266489 80.860674,56.512173 80.508627,56.250245 80.054267,55.865235 79.5433,55.41117 a 5,5 0 0 1 0.342291,3.499337 l -4.673012,17.439919 a 5,5 0 0 1 -3.444045,3.509156 c 0.153399,4.102524 0.752561,7.742285 1.733677,10.271837 0.250097,0.645943 1.143549,2.444238 1.985795,3.995813 2.602218,4.79511 3.2923,6.850388 3.351113,9.973838 0.04066,2.16699 -1.467281,8.56379 -3.340562,15.12695 l 4.014903,1.07579 c 1.041502,-4.36421 2.075068,-8.33068 2.711302,-10.45217 0.645632,-2.16754 2.574239,-5.85153 3.69316,-7.05989 1.202339,-1.29916 2.931892,-2.63172 5.949945,-4.587219 1.485835,-0.962772 3.114077,-2.10021 3.622838,-2.532464 4.208811,-3.569982 9.276105,-12.321876 11.997745,-20.721674 0.25394,-0.783887 1.06561,-3.444227 1.80437,-5.912043 0.73843,-2.468007 2.10331,-6.925021 3.03218,-9.904913 0.19497,-0.625241 0.38511,-1.239569 0.56989,-1.839927 -0.0494,-0.05412 -0.21249,-0.236623 -0.41463,-0.414461 -0.25889,-0.227729 -0.59445,-0.50072 -0.92334,-0.764784 -0.65774,-0.52809 -1.25643,-0.972612 -1.54283,-1.21336 -0.11841,-0.09702 -0.24826,-0.185709 -0.38793,-0.266016 -0.24441,-0.140537 -0.51952,-0.254942 -0.81511,-0.338923 z" /></g></svg>
