<?xml version="1.0" encoding="UTF-8" standalone="no"?>
<svg
   width="64"
   height="64"
   version="1"
   id="svg10"
   sodipodi:docname="papirus_krename.svg"
   inkscape:version="1.4.4 (dcaf3e7d9e, 2026-05-05)"
   xmlns:inkscape="http://www.inkscape.org/namespaces/inkscape"
   xmlns:sodipodi="http://sodipodi.sourceforge.net/DTD/sodipodi-0.dtd"
   xmlns:xlink="http://www.w3.org/1999/xlink"
   xmlns="http://www.w3.org/2000/svg"
   xmlns:svg="http://www.w3.org/2000/svg">
  <defs
     id="defs10">
    <linearGradient
       id="linearGradient14"
       inkscape:collect="always">
      <stop
         style="stop-color:#d8241e;stop-opacity:1;"
         offset="0"
         id="stop14" />
      <stop
         style="stop-color:#ff5c58;stop-opacity:1;"
         offset="1"
         id="stop15" />
    </linearGradient>
    <linearGradient
       id="linearGradient11"
       inkscape:collect="always">
      <stop
         style="stop-color:#1365f4;stop-opacity:1;"
         offset="0"
         id="stop11" />
      <stop
         style="stop-color:#05b2fc;stop-opacity:1;"
         offset="1"
         id="stop12" />
    </linearGradient>
    <linearGradient
       inkscape:collect="always"
       xlink:href="#linearGradient11"
       id="linearGradient12"
       x1="41"
       y1="44"
       x2="41"
       y2="2"
       gradientUnits="userSpaceOnUse" />
    <linearGradient
       inkscape:collect="always"
       xlink:href="#linearGradient14"
       id="linearGradient15"
       x1="23"
       y1="62"
       x2="23"
       y2="20"
       gradientUnits="userSpaceOnUse" />
  </defs>
  <sodipodi:namedview
     id="namedview10"
     pagecolor="#ffffff"
     bordercolor="#999999"
     borderopacity="1"
     inkscape:showpageshadow="2"
     inkscape:pageopacity="0"
     inkscape:pagecheckerboard="0"
     inkscape:deskcolor="#d1d1d1"
     inkscape:zoom="6.28125"
     inkscape:cx="11.303483"
     inkscape:cy="31.522388"
     inkscape:window-width="1920"
     inkscape:window-height="1012"
     inkscape:window-x="0"
     inkscape:window-y="0"
     inkscape:window-maximized="1"
     inkscape:current-layer="svg10" />
  <path
     style="fill:url(#linearGradient15)"
     d="m 5,20 36,0 c 1.662,0 3,1.338 3,3 l 0,36 c 0,1.662 -1.338,3 -3,3 L 5,62 C 3.338,62 2,60.662 2,59 L 2,23 c 0,-1.662 1.338,-3 3,-3 z"
     id="path2" />
  <path
     d="m 4.4117,-11.192652 -11.758,0 -1.8555,4.861152 -7.5586,0 10.1886585,-29.16 10.1887465,0 10.189395,29.16 -7.5586,0 -1.8359,-4.861152 z m -9.8828,-6.075039 7.9883,0 -3.9844,-11.388509 z"
     id="path4"
     style="fill:#ffffff;fill-opacity:0.85000002"
     transform="matrix(0.78518,0,0,0.82304,23.16,59.212)" />
  <path
     style="fill:url(#linearGradient12)"
     d="m 23,2 36,0 c 1.662,0 3,1.338 3,3 l 0,36 c 0,1.662 -1.338,3 -3,3 l -36,0 c -1.662,0 -3,-1.338 -3,-3 L 20,5 c 0,-1.662 1.338,-3 3,-3 z"
     id="path7" />
  <path
     style="fill:#ffffff;fill-opacity:0.85084158"
     d="M 32 12 L 32 36 L 42.398438 36 C 45.631421 36 48.041031 35.432835 49.625 34.296875 C 51.208969 33.160915 52 31.435921 52 29.121094 C 52 27.610047 51.632247 26.334421 50.894531 25.294922 C 50.156816 24.255378 49.114816 23.542047 47.769531 23.15625 C 48.821868 22.759764 49.624439 22.154324 50.177734 21.339844 C 50.731029 20.514664 51.007812 19.517723 51.007812 18.349609 C 51.007813 16.131242 50.249337 14.519065 48.730469 13.511719 C 47.222433 12.504373 44.780266 12 41.40625 12 L 32 12 z M 38 16 L 41.875 16 C 42.899932 16 43.675712 16.215953 44.205078 16.648438 C 44.734444 17.070403 45 17.687774 45 18.5 C 45 19.322784 44.734444 19.94525 44.205078 20.367188 C 43.675695 20.789124 42.899915 21 41.875 21 L 38 21 L 38 16 z M 38 26 L 42.078125 26 C 43.390868 26 44.372667 26.250592 45.023438 26.751953 C 45.674208 27.242994 46 27.984265 46 28.976562 C 46 29.989323 45.669785 30.746776 45.007812 31.248047 C 44.357042 31.749318 43.379666 32 42.078125 32 L 38 32 L 38 26 z"
     id="path9" />
</svg>
