<?xml version="1.0" encoding="UTF-8" standalone="no"?>
<svg
   width="32"
   height="32"
   version="1.1"
   viewBox="0 0 24 24"
   id="svg44"
   sodipodi:docname="marwaita_krita.svg"
   inkscape:version="1.4.2 (ebf0e940d0, 2025-05-08)"
   xmlns:inkscape="http://www.inkscape.org/namespaces/inkscape"
   xmlns:sodipodi="http://sodipodi.sourceforge.net/DTD/sodipodi-0.dtd"
   xmlns:xlink="http://www.w3.org/1999/xlink"
   xmlns="http://www.w3.org/2000/svg"
   xmlns:svg="http://www.w3.org/2000/svg"
   xmlns:rdf="http://www.w3.org/1999/02/22-rdf-syntax-ns#"
   xmlns:cc="http://creativecommons.org/ns#"
   xmlns:dc="http://purl.org/dc/elements/1.1/">
  <metadata
     id="metadata48">
    <rdf:RDF>
      <cc:Work
         rdf:about="">
        <dc:format>image/svg+xml</dc:format>
        <dc:type
           rdf:resource="http://purl.org/dc/dcmitype/StillImage" />
      </cc:Work>
    </rdf:RDF>
  </metadata>
  <sodipodi:namedview
     pagecolor="#ffffff"
     bordercolor="#666666"
     borderopacity="1"
     objecttolerance="10"
     gridtolerance="10"
     guidetolerance="10"
     inkscape:pageopacity="0"
     inkscape:pageshadow="2"
     inkscape:window-width="1920"
     inkscape:window-height="1012"
     id="namedview46"
     showgrid="false"
     inkscape:zoom="16.875"
     inkscape:cx="21.451852"
     inkscape:cy="14.844444"
     inkscape:window-x="0"
     inkscape:window-y="0"
     inkscape:window-maximized="1"
     inkscape:current-layer="svg44"
     inkscape:showpageshadow="2"
     inkscape:pagecheckerboard="0"
     inkscape:deskcolor="#d1d1d1" />
  <defs
     id="defs30">
    <clipPath
       id="f">
      <path
         d="m 111,119 h 177 v 23 H 111 Z"
         id="path2"
         inkscape:connector-curvature="0" />
    </clipPath>
    <clipPath
       id="d">
      <path
         d="m 177,130 h 45 v 89 h -45 z"
         id="path5"
         inkscape:connector-curvature="0" />
    </clipPath>
    <clipPath
       id="b">
      <path
         d="m 111,207 h 177 v 89 H 111 Z"
         id="path8"
         inkscape:connector-curvature="0" />
    </clipPath>
    <clipPath
       id="h">
      <rect
         width="384"
         height="384"
         id="rect11"
         x="0"
         y="0" />
    </clipPath>
    <g
       clip-path="url(#h)"
       id="g14" />
    <clipPath
       id="e">
      <path
         d="m 111,119 h 177 v 23 H 111 Z"
         id="path16"
         inkscape:connector-curvature="0" />
    </clipPath>
    <clipPath
       id="c">
      <path
         d="m 177,130 h 45 v 89 h -45 z"
         id="path19"
         inkscape:connector-curvature="0" />
    </clipPath>
    <clipPath
       id="a">
      <path
         d="m 111,207 h 177 v 89 H 111 Z"
         id="path22"
         inkscape:connector-curvature="0" />
    </clipPath>
    <clipPath
       id="g">
      <rect
         width="384"
         height="384"
         id="rect25"
         x="0"
         y="0" />
    </clipPath>
    <g
       clip-path="url(#g)"
       id="g28" />
    <linearGradient
       id="a-3"
       x2="1"
       gradientTransform="matrix(0,-21.486959,21.486959,0,-20.043667,30.788701)"
       gradientUnits="userSpaceOnUse">
      <stop
         stop-color="#0613a5"
         offset="0"
         id="stop1"
         style="stop-color:#14ff6e;stop-opacity:1;" />
      <stop
         stop-color="#5865f2"
         offset="1"
         id="stop2"
         style="stop-color:#a0ff22;stop-opacity:1;" />
    </linearGradient>
    <linearGradient
       gradientUnits="userSpaceOnUse"
       y2="-24.719217"
       x2="-66.387848"
       y1="-50.296486"
       x1="-52.783886"
       id="linearGradient2452"
       xlink:href="#linearGradient2450"
       inkscape:collect="always" />
    <linearGradient
       id="linearGradient2450"
       inkscape:collect="always">
      <stop
         id="stop2446"
         offset="0"
         style="stop-color:#e040fb;stop-opacity:1;" />
      <stop
         id="stop2448"
         offset="1"
         style="stop-color:#18ffff;stop-opacity:1" />
    </linearGradient>
    <linearGradient
       inkscape:collect="always"
       xlink:href="#linearGradient2488"
       id="linearGradient2452-7"
       x1="-54.169292"
       y1="-35.932907"
       x2="-42.321514"
       y2="-27.87788"
       gradientUnits="userSpaceOnUse" />
    <linearGradient
       inkscape:collect="always"
       id="linearGradient2488">
      <stop
         style="stop-color:#ffffff;stop-opacity:0"
         offset="0"
         id="stop2482" />
      <stop
         style="stop-color:#fdfd4b;stop-opacity:1"
         offset="1"
         id="stop2486" />
    </linearGradient>
  </defs>
  <g
     id="g3"
     transform="matrix(0.71393238,0,0,0.71393238,-20.48392,-7.2761749)">
    <g
       transform="matrix(1.0504695,0,0,1.0504695,102.227,65.64635)"
       id="g2492">
      <circle
         style="opacity:1;fill:url(#linearGradient2452);fill-opacity:1;stroke:none;stroke-width:0.460513"
         id="path2444"
         cx="-54.001572"
         cy="-36.789597"
         r="14" />
      <circle
         r="14"
         cy="-36.789597"
         cx="-54.001572"
         id="path2444-7"
         style="opacity:1;fill:url(#linearGradient2452-7);fill-opacity:1;stroke:none;stroke-width:0.460513" />
    </g>
    <g
       id="g4">
      <path
         id="path14"
         d="m 48.758192,29.36596 c -2.16228,1.991312 -6.322227,-1.167312 -8.07809,-3.151079 -1.80596,-2.040375 -8.549367,-8.922008 -9.042259,-9.368322 -0.492869,-0.446296 -0.885401,-0.997453 -0.449579,-1.545817 0.453703,-0.534043 1.081123,-0.268713 1.625283,0.11517 0.544195,0.383897 8.758173,5.476074 11.153675,6.799082 2.329025,1.286306 6.318931,4.651859 4.79097,7.150966 z"
         style="opacity:0.1" />
      <path
         id="path16-6"
         d="m 48.758192,28.36596 c -2.16228,1.991312 -6.322227,-1.167312 -8.07809,-3.151079 -1.80596,-2.040375 -8.549367,-8.922008 -9.042259,-9.368321 -0.492869,-0.446297 -0.885401,-0.997453 -0.449579,-1.545818 0.453703,-0.534043 1.081123,-0.268713 1.625283,0.11517 0.544195,0.383898 8.758173,5.476074 11.153675,6.799082 2.329025,1.286306 6.318931,4.651859 4.79097,7.150966 z"
         style="fill:#4f4f4f" />
      <path
         id="path20"
         d="m 51.9,29.839784 c -7.9,6.882926 -15.12956,0.735399 -16.178072,-1.67362 0.620039,4.181376 3.486043,7.923213 7.815673,9.363251 3.269936,1.087561 10.000682,0.366725 10.507083,-2.967973 z"
         style="opacity:0.2;fill:#000000;fill-opacity:1" />
      <path
         id="path24"
         d="m 51.777206,30.821229 c -0.675854,0.304304 -0.602764,0.52425 -1.202862,0.42937 -0.413897,-0.06544 -3.999484,-2.737446 -3.999484,-2.737446 -0.181741,-0.428776 0.03627,-1.018226 0.445784,-1.484758 0.379819,-0.490204 0.921508,-0.821553 1.385773,-0.735217 0,0 3.399362,2.89772 3.549911,3.282359 0.218275,0.557686 -0.01572,0.532766 -0.179122,1.245692 z"
         style="fill:#9b9b9b" />
      <path
         id="path26"
         d="m 52.443279,37.683961 c 2.541652,-1.409784 3.139221,-3.950175 2.135626,-5.746974 -0.779889,-1.396277 -2.060423,-1.660264 -2.944883,-0.985123 -0.877402,0.669754 -0.95475,1.467826 -0.693026,2.260451 0.533746,1.616596 2.822577,2.804345 1.502283,4.471646 z"
         style="opacity:0.1" />
      <path
         id="path28"
         d="m 52.443279,36.683961 c 2.541652,-1.409784 3.139221,-3.950175 2.135626,-5.746974 -0.779889,-1.396277 -2.060423,-1.660264 -2.944883,-0.985123 -0.877402,0.669754 -0.95475,1.467826 -0.693026,2.260451 0.533746,1.616596 2.822577,2.804345 1.502283,4.471646 z"
         style="fill:#3f3f3f" />
    </g>
  </g>
</svg>
