<?xml version="1.0" encoding="UTF-8" standalone="no"?>
<svg
   clip-rule="evenodd"
   fill-rule="evenodd"
   stroke-linejoin="round"
   stroke-miterlimit="2"
   viewBox="0 0 48 48"
   version="1.1"
   id="svg6"
   sodipodi:docname="kora_kvantum.svg"
   inkscape:version="1.4.2 (ebf0e940d0, 2025-05-08)"
   xmlns:inkscape="http://www.inkscape.org/namespaces/inkscape"
   xmlns:sodipodi="http://sodipodi.sourceforge.net/DTD/sodipodi-0.dtd"
   xmlns="http://www.w3.org/2000/svg"
   xmlns:svg="http://www.w3.org/2000/svg">
  <defs
     id="defs6" />
  <sodipodi:namedview
     id="namedview6"
     pagecolor="#ffffff"
     bordercolor="#000000"
     borderopacity="0.25"
     inkscape:showpageshadow="2"
     inkscape:pageopacity="0.0"
     inkscape:pagecheckerboard="0"
     inkscape:deskcolor="#d1d1d1"
     inkscape:zoom="11.313709"
     inkscape:cx="34.20629"
     inkscape:cy="33.189824"
     inkscape:window-width="1920"
     inkscape:window-height="1012"
     inkscape:window-x="0"
     inkscape:window-y="0"
     inkscape:window-maximized="1"
     inkscape:current-layer="g6" />
  <g
     fill-rule="nonzero"
     id="g6">
    <path
       d="m8.56 2.332h10.654l-16.882 19.545v-13.317c0-3.438 2.79-6.228 6.228-6.228z"
       fill="#e52672"
       id="path1"
       style="fill:#e53626;fill-opacity:1" />
    <path
       d="m2.359 40.022c-.018-.192-.027-.386-.027-.582v-17.563l16.882-19.545h15.697z"
       fill="#ffae1a"
       id="path2" />
    <path
       transform="translate(-.004081)"
       d="m39.44 2.332c3.274 0 5.961 2.531 6.209 5.742l-32.47 37.594h-4.619c-3.242 0-5.908-2.481-6.201-5.646l32.552-37.69z"
       fill="#9dac2d"
       id="path3"
       style="fill:#2dac43;fill-opacity:1" />
    <path
       d="m45.649 8.074c.013.16.019.322.019.486v17.667l-16.792 19.441h-15.697z"
       fill="#17b69f"
       id="path4"
       style="fill:#2f66dd;fill-opacity:1" />
    <path
       d="m45.668 39.44c0 3.438-2.79 6.228-6.228 6.228h-10.564l16.792-19.441z"
       fill="#7855d5"
       id="path5"
       style="fill:#82248f;fill-opacity:1" />
    <path
       d="m14 15v1.947l1.495.126.268.379-2.666 13.106-.41.395-1.687.127v1.92h7v-1.92l-1.258-.11-.284-.411 1.089-5.551h1.672l2.398 5.051c.98 2.014 1.667 2.878 3.786 2.905.609.007.854.052 2.497 0 5.668-4.735 8.561-8.744 9.018-10.376.277-.988-.163-1.594-1.104-1.594-.46 0-.986.193-1.578.584l-.426 3.793c-1.16 1.517-2.706 3.169-4.59 4.893l1.646-6.919c.259-1.333.344-2.045-.521-2.321l-3.864.853-.205.726 1.782.284c.124.46-.413 1.859-.684 3.399l-.867 4.783c-.014.049-.023.103-.032.158-.562-.303-.917-.841-1.325-1.657l-3.392-6.788 6.2-5.582 2.042-.206v-1.994h-7v1.995l2.087.126.158.426-6.542 5.451h-.788l1.209-5.546.347-.379 1.529-.126v-1.947z"
       fill="#fff"
       id="path6" />
  </g>
</svg>
