<?xml version="1.0" encoding="UTF-8" standalone="no"?>
<svg
   width="64"
   height="64"
   version="1"
   id="svg6"
   sodipodi:docname="papirus_internet-mail.svg"
   inkscape:version="1.4.2 (ebf0e940d0, 2025-05-08)"
   xmlns:inkscape="http://www.inkscape.org/namespaces/inkscape"
   xmlns:sodipodi="http://sodipodi.sourceforge.net/DTD/sodipodi-0.dtd"
   xmlns:xlink="http://www.w3.org/1999/xlink"
   xmlns="http://www.w3.org/2000/svg"
   xmlns:svg="http://www.w3.org/2000/svg">
  <defs
     id="defs6">
    <linearGradient
       id="linearGradient12"
       inkscape:collect="always">
      <stop
         style="stop-color:#cfdaf0;stop-opacity:1;"
         offset="0"
         id="stop12" />
      <stop
         style="stop-color:#fdfdfe;stop-opacity:1;"
         offset="1"
         id="stop13" />
    </linearGradient>
    <linearGradient
       id="linearGradient10"
       inkscape:collect="always">
      <stop
         style="stop-color:#12c5ff;stop-opacity:1;"
         offset="0"
         id="stop10" />
      <stop
         style="stop-color:#0c57bf;stop-opacity:1;"
         offset="1"
         id="stop11" />
    </linearGradient>
    <linearGradient
       id="linearGradient8"
       inkscape:collect="always">
      <stop
         style="stop-color:#12c5ff;stop-opacity:1;"
         offset="0"
         id="stop8" />
      <stop
         style="stop-color:#1075f6;stop-opacity:1;"
         offset="1"
         id="stop9" />
    </linearGradient>
    <linearGradient
       id="linearGradient6"
       inkscape:collect="always">
      <stop
         style="stop-color:#c9dee5;stop-opacity:1;"
         offset="0"
         id="stop6" />
      <stop
         style="stop-color:#7eb6eb;stop-opacity:1;"
         offset="1"
         id="stop7" />
    </linearGradient>
    <linearGradient
       inkscape:collect="always"
       xlink:href="#linearGradient6"
       id="linearGradient7"
       x1="31.999096"
       y1="3.0040286"
       x2="31.999096"
       y2="44.999001"
       gradientUnits="userSpaceOnUse" />
    <linearGradient
       inkscape:collect="always"
       xlink:href="#linearGradient8"
       id="linearGradient9"
       x1="33.999256"
       y1="17.000713"
       x2="33.999256"
       y2="68.999008"
       gradientUnits="userSpaceOnUse" />
    <linearGradient
       inkscape:collect="always"
       xlink:href="#linearGradient10"
       id="linearGradient11"
       x1="29.999386"
       y1="17.000713"
       x2="29.999386"
       y2="68.999008"
       gradientUnits="userSpaceOnUse" />
    <linearGradient
       inkscape:collect="always"
       xlink:href="#linearGradient12"
       id="linearGradient13"
       x1="31.9995"
       y1="44.384552"
       x2="31.9995"
       y2="9"
       gradientUnits="userSpaceOnUse" />
  </defs>
  <sodipodi:namedview
     id="namedview6"
     pagecolor="#ffffff"
     bordercolor="#000000"
     borderopacity="0.25"
     inkscape:showpageshadow="2"
     inkscape:pageopacity="0.0"
     inkscape:pagecheckerboard="0"
     inkscape:deskcolor="#d1d1d1"
     inkscape:zoom="4.4359902"
     inkscape:cx="16.456303"
     inkscape:cy="40.013614"
     inkscape:window-width="1920"
     inkscape:window-height="1012"
     inkscape:window-x="0"
     inkscape:window-y="0"
     inkscape:window-maximized="1"
     inkscape:current-layer="svg6" />
  <path
     style="fill:url(#linearGradient7);fill-opacity:1"
     d="m 5.274198,22.654525 c -0.057498,0.0374 -0.1096164,0.0816 -0.1640746,0.122996 l -0.032799,0.0246 0,0.004 c -0.6517785,0.511784 -1.0773246,1.298978 -1.0773246,2.195728 l 3e-5,24.397199 c 4e-6,3.999868 3.1540964,3.999868 3.9998686,3.999868 l 47.9984236,0 c 0,0 3.999868,0 3.999868,-3.999868 l -4e-5,-24.397199 c 0,-0.91699 -0.443745,-1.721063 -1.121043,-2.231126 l 0.012,-0.016 L 31.99999,3.0033709 c 0,0 -26.8891167,19.7765501 -26.7251221,19.6535541 z"
     id="path2" />
  <rect
     style="fill:url(#linearGradient13)"
     width="43.999"
     height="35.999"
     x="10"
     y="9"
     rx="3"
     ry="2.998"
     id="rect3" />
  <path
     style="fill:url(#linearGradient11);fill-opacity:1"
     d="m 4.0002398,25.000448 51.9982922,35.998818 -47.9984236,0 C 6.0001741,60.99925 4.0002398,60.010298 4.0002398,57.043396 Z"
     id="path4" />
  <path
     style="fill:url(#linearGradient9);fill-opacity:1"
     d="m 55.998532,60.999266 c 3.999868,0 3.999868,-3.95587 3.999868,-3.95587 l 0,-32.042948 -51.9982916,35.998818 z"
     id="path5" />
  <path
     d="m 43.03209,24.966317 c 0,1.805 -0.376,3.234 -1.128,4.287 -0.752,1.053 -1.787,1.58 -3.103,1.58 -1.41,0 -2.463,-0.686 -3.159,-2.059 -0.921,1.373 -2.237,2.059 -3.948,2.059 -1.58,0 -2.887,-0.545 -3.921,-1.636 -1.034,-1.091 -1.551,-2.463 -1.551,-4.118 0,-1.636 0.517,-2.999 1.551,-4.09 1.053,-1.109 2.322,-1.664 3.808,-1.664 1.448,0 2.651,0.555 3.61,1.664 h 0.113 v -1.269 h 2.031 v 7.023 c 0,1.504 0.554,2.257 1.664,2.257 1.335,0 2.002,-1.345 2.002,-4.034 0,-2.444 -0.865,-4.531 -2.595,-6.261 -1.73,-1.73 -3.836,-2.595 -6.318,-2.595 -2.482,0 -4.588,0.865 -6.318,2.595 -1.729,1.73 -2.594,3.817 -2.594,6.261 0,2.463 0.865,4.56 2.594,6.29 1.712,1.711 3.818,2.567 6.318,2.567 1.354,0 2.548,-0.264 3.582,-0.79 l 0.79,1.918 c -1.354,0.602 -2.811,0.902 -4.372,0.902 -2.012,0 -3.873,-0.479 -5.584,-1.438 -1.674,-0.959 -3.009,-2.285 -4.005,-3.977 -0.489,-0.865 -0.856,-1.758 -1.1,-2.68 -0.245,-0.921 -0.367,-1.861 -0.367,-2.82 0,-0.94 0.113,-1.862 0.338,-2.764 0.245,-0.921 0.612,-1.805 1.1,-2.651 0.489,-0.847 1.072,-1.608 1.749,-2.285 0.696,-0.677 1.457,-1.241 2.285,-1.692 0.846,-0.47 1.739,-0.828 2.679,-1.072 0.94,-0.263 1.909,-0.395 2.905,-0.395 1.994,0 3.827,0.479 5.5,1.438 1.693,0.959 3.018,2.285 3.977,3.977 0.978,1.674 1.467,3.498 1.467,5.472 z m -14.554,0.113 c 0,0.526 0.085,1.015 0.254,1.467 0.169,0.432 0.404,0.808 0.705,1.128 0.32,0.32 0.686,0.573 1.1,0.761 0.414,0.17 0.865,0.254 1.354,0.254 0.489,0 0.94,-0.084 1.354,-0.254 0.413,-0.188 0.771,-0.432 1.072,-0.733 0.319,-0.32 0.564,-0.696 0.733,-1.128 0.169,-0.451 0.254,-0.95 0.254,-1.495 0,-0.526 -0.085,-1.015 -0.254,-1.467 -0.169,-0.451 -0.414,-0.827 -0.733,-1.128 -0.301,-0.32 -0.659,-0.564 -1.072,-0.733 -0.414,-0.188 -0.865,-0.282 -1.354,-0.282 -0.489,0 -0.94,0.094 -1.354,0.282 -0.414,0.169 -0.78,0.413 -1.1,0.733 -0.301,0.32 -0.536,0.705 -0.705,1.157 -0.169,0.432 -0.254,0.912 -0.254,1.438 z"
     style="clip-rule:evenodd;fill:#b8cbdf;fill-opacity:1;fill-rule:nonzero;stroke-linejoin:round;stroke-miterlimit:2"
     id="path5-6" />
</svg>
