<?xml version="1.0" encoding="UTF-8" standalone="no"?>
<svg
   clip-rule="evenodd"
   fill-rule="evenodd"
   stroke-linejoin="round"
   stroke-miterlimit="2"
   viewBox="0 0 48 48"
   version="1.1"
   id="svg7"
   sodipodi:docname="kora_obs.svg"
   inkscape:version="1.4.2 (ebf0e940d0, 2025-05-08)"
   xmlns:inkscape="http://www.inkscape.org/namespaces/inkscape"
   xmlns:sodipodi="http://sodipodi.sourceforge.net/DTD/sodipodi-0.dtd"
   xmlns="http://www.w3.org/2000/svg"
   xmlns:svg="http://www.w3.org/2000/svg">
  <defs
     id="defs7" />
  <sodipodi:namedview
     id="namedview7"
     pagecolor="#a9a9a9"
     bordercolor="#000000"
     borderopacity="0.25"
     inkscape:showpageshadow="2"
     inkscape:pageopacity="0.0"
     inkscape:pagecheckerboard="true"
     inkscape:deskcolor="#d1d1d1"
     inkscape:zoom="11.829307"
     inkscape:cx="17.752519"
     inkscape:cy="18.555609"
     inkscape:window-width="1920"
     inkscape:window-height="1012"
     inkscape:window-x="0"
     inkscape:window-y="0"
     inkscape:window-maximized="1"
     inkscape:current-layer="svg7" />
  <linearGradient
     id="a"
     x2="1"
     gradientTransform="matrix(-0.66979382,-43.242487,43.242487,-0.66979382,78.117488,44.549756)"
     gradientUnits="userSpaceOnUse">
    <stop
       stop-color="#2f2f2f"
       offset="0.19635226"
       id="stop1"
       style="stop-color:#1c1c1c;stop-opacity:1;" />
    <stop
       stop-color="#4f4f4f"
       offset="1"
       id="stop2"
       style="stop-color:#36383a;stop-opacity:1;" />
  </linearGradient>
  <linearGradient
     id="b"
     x2="1"
     gradientTransform="matrix(0 -27.5528 27.5528 0 92.1932 37.8331)"
     gradientUnits="userSpaceOnUse">
    <stop
       stop-color="#b8b8b8"
       stop-opacity=".5"
       offset="0"
       id="stop3"
       style="stop-color:#414141;stop-opacity:1;" />
    <stop
       stop-color="#fff"
       stop-opacity=".5"
       offset="1"
       id="stop4"
       style="stop-color:#7f7f7f;stop-opacity:1;" />
  </linearGradient>
  <linearGradient
     id="c"
     x2="1"
     gradientTransform="matrix(0 -42.3632 42.3632 0 303.732 45.2688)"
     gradientUnits="userSpaceOnUse">
    <stop
       stop-color="#b8b8b8"
       offset="0"
       id="stop5"
       style="stop-color:#c8c8c8;stop-opacity:1;" />
    <stop
       stop-color="#fff"
       offset="1"
       id="stop6" />
  </linearGradient>
  <circle
     cx="24"
     cy="24"
     r="21.864874"
     fill="url(#a)"
     id="circle6"
     style="fill:url(#a);stroke-width:0.960502" />
  <path
     d="m 24.000048,2.1511139 c -12.053709,0 -21.8489341,9.7952251 -21.8489341,21.8489341 0,12.052694 9.7962401,21.848935 21.8489341,21.848935 12.052694,0 21.848935,-9.796241 21.848935,-21.848935 0,-12.053709 -9.796241,-21.8489341 -21.848935,-21.8489341 z m 0,1.3672713 c 11.326934,0 20.481663,9.1537138 20.481663,20.4816628 0,11.326934 -9.154729,20.481663 -20.481663,20.481663 -11.326934,0 -20.4816628,-9.154729 -20.4816628,-20.481663 0,-11.299527 9.1080358,-20.4359856 20.4816628,-20.4816628 z"
     fill="url(#b)"
     id="path6"
     style="fill:#ffffff;fill-opacity:1;stroke-width:1.01505" />
  <path
     d="m 17.801054,5.0118587 c -0.05852,0.01877 -0.166725,0.076185 -0.311366,0.1589955 -0.974953,0.5586927 -3.257201,3.0385818 -3.905329,4.244298 -0.7475,1.3890028 -1.35367,3.8468088 -1.350358,5.4709928 0.0033,1.396732 0.368782,3.252784 0.905391,4.595413 0.313575,0.781729 0.352219,0.807123 1.512666,0.938515 0.654753,0.07398 1.690432,0.303638 2.301019,0.513424 5.394808,1.856052 7.939841,8.078961 5.414682,13.23638 -1.722452,3.515568 -5.708382,5.780151 -9.433736,5.358371 -1.515978,-0.172245 -1.352566,0.03202 0.327929,0.41405 1.490583,0.338971 4.206756,0.249535 5.624467,-0.185495 2.260166,-0.693397 4.971924,-2.594718 6.242784,-4.380106 l 0.417363,-0.590712 -0.52336,-1.59106 c -1.918989,-5.804443 1.563457,-11.655257 7.536831,-12.663334 4.340358,-0.732042 8.897126,1.923405 10.467207,6.101455 0.374302,0.994826 0.384239,1.005867 0.262785,0.241805 -0.359949,-2.259062 -1.478438,-4.34367 -3.295846,-6.140099 -1.898009,-1.875926 -4.101864,-2.937001 -6.854475,-3.305782 -0.844663,-0.113727 -0.931891,-0.0806 -1.249882,0.457112 -0.489132,0.829206 -1.913467,2.214896 -2.966813,2.888419 -2.837628,1.811887 -7.213319,1.8152 -10.056468,0.0033 -3.213035,-2.047068 -5.029339,-5.965646 -4.43973,-9.57617 0.321304,-1.9708822 1.189154,-3.7209375 2.572636,-5.1850215 0.751916,-0.7971861 0.980473,-1.0621787 0.802707,-1.0047636 z"
     fill="url(#c)"
     id="path7"
     style="fill:#ffffff;fill-opacity:1;stroke-width:1.10414" />
</svg>
