<?xml version="1.0" encoding="UTF-8" standalone="no"?>
<svg
   clip-rule="evenodd"
   fill-rule="evenodd"
   stroke-linejoin="round"
   stroke-miterlimit="2"
   viewBox="0 0 48 48"
   version="1.1"
   id="svg5"
   sodipodi:docname="picard.svg"
   inkscape:version="1.4.3 (0d15f75042, 2025-12-25)"
   xmlns:inkscape="http://www.inkscape.org/namespaces/inkscape"
   xmlns:sodipodi="http://sodipodi.sourceforge.net/DTD/sodipodi-0.dtd"
   xmlns:xlink="http://www.w3.org/1999/xlink"
   xmlns="http://www.w3.org/2000/svg"
   xmlns:svg="http://www.w3.org/2000/svg">
  <defs
     id="defs5">
    <linearGradient
       id="linearGradient10"
       inkscape:collect="always">
      <stop
         style="stop-color:#c74ddd;stop-opacity:1;"
         offset="0"
         id="stop10" />
      <stop
         style="stop-color:#ff79f0;stop-opacity:1;"
         offset="1"
         id="stop11" />
    </linearGradient>
    <linearGradient
       id="linearGradient7"
       inkscape:collect="always">
      <stop
         style="stop-color:#8d259c;stop-opacity:1;"
         offset="0"
         id="stop7" />
      <stop
         style="stop-color:#d328ef;stop-opacity:1;"
         offset="1"
         id="stop8" />
    </linearGradient>
    <linearGradient
       id="linearGradient5"
       inkscape:collect="always">
      <stop
         style="stop-color:#f68048;stop-opacity:1;"
         offset="0"
         id="stop5" />
      <stop
         style="stop-color:#ffad00;stop-opacity:1;"
         offset="1"
         id="stop6" />
    </linearGradient>
    <linearGradient
       inkscape:collect="always"
       xlink:href="#linearGradient5"
       id="linearGradient6"
       x1="23.985979"
       y1="43.997787"
       x2="23.985979"
       y2="4.0003729"
       gradientUnits="userSpaceOnUse" />
    <linearGradient
       inkscape:collect="always"
       xlink:href="#linearGradient7"
       id="linearGradient8"
       x1="23.985979"
       y1="43.997787"
       x2="23.985979"
       y2="4.0003729"
       gradientUnits="userSpaceOnUse" />
    <linearGradient
       inkscape:collect="always"
       xlink:href="#linearGradient10"
       id="linearGradient11"
       x1="14.006234"
       y1="34.587143"
       x2="14.963419"
       y2="13.753647"
       gradientUnits="userSpaceOnUse" />
  </defs>
  <sodipodi:namedview
     id="namedview5"
     pagecolor="#ffffff"
     bordercolor="#999999"
     borderopacity="1"
     inkscape:showpageshadow="2"
     inkscape:pageopacity="0"
     inkscape:pagecheckerboard="0"
     inkscape:deskcolor="#d1d1d1"
     inkscape:zoom="11.844039"
     inkscape:cx="23.59837"
     inkscape:cy="23.387293"
     inkscape:window-width="1920"
     inkscape:window-height="1012"
     inkscape:window-x="0"
     inkscape:window-y="0"
     inkscape:window-maximized="1"
     inkscape:current-layer="g5" />
  <linearGradient
     id="a"
     x2="1"
     gradientTransform="matrix(-7.8e-7 -39.9987 39.9987 -7.8e-7 24 43.9992)"
     gradientUnits="userSpaceOnUse">
    <stop
       stop-color="#2f2f2f"
       offset="0"
       id="stop1" />
    <stop
       stop-color="#4f4f4f"
       offset="1"
       id="stop2" />
  </linearGradient>
  <linearGradient
     id="b"
     x2="1"
     gradientTransform="matrix(0 -29.2477 29.2477 0 24 39.0144)"
     gradientUnits="userSpaceOnUse">
    <stop
       stop-color="#32a5e8"
       offset="0"
       id="stop3" />
    <stop
       stop-color="#00b4ff"
       offset="1"
       id="stop4" />
  </linearGradient>
  <g
     fill-rule="nonzero"
     id="g5">
    <path
       id="path4"
       d="M 23.98598 43.997786 L 24.106828 4.0021241 C 23.269828 3.9811241 22.442126 4.1903676 21.716126 4.6063676 L 8.2826556 12.333678 C 6.8716556 13.144678 6.000542 14.649645 6.000542 16.272645 L 6.000542 31.725514 C 6.000542 33.348514 6.8726556 34.853481 8.2826556 35.664481 L 21.716126 43.39004 C 22.417423 43.793621 23.201932 43.995382 23.98598 43.997786 z "
       transform="matrix(1.11516 0 0 1.11516 -2.76383 -2.76379)"
       style="fill:url(#linearGradient8);fill-opacity:1" />
    <path
       id="path5"
       d="M 24.106828 4.0003727 L 24.106828 4.0021241 L 23.98598 43.997786 C 24.779426 44.000219 25.574153 43.798459 26.283856 43.39004 L 39.717326 35.664481 C 41.127326 34.853481 41.99944 33.348514 41.99944 31.725514 L 41.99944 16.272645 C 41.99944 14.649645 41.128326 13.144678 39.717326 12.333678 L 26.283856 4.6063676 C 25.621856 4.2263676 24.871828 4.0183727 24.106828 4.0003727 z "
       transform="matrix(1.11516 0 0 1.11516 -2.76383 -2.76379)"
       style="fill:url(#linearGradient6);fill-opacity:1" />
    <path
       style="fill:url(#linearGradient11);stroke-width:1.60131;fill-opacity:1"
       d="m 16.168706,13.690093 -5.525549,2.703845 -2.9976693,16.357252 5.2789723,-1.358787 4.443623,3.19474 2.998898,-16.357251 z m -1.094532,5.775626 C 14.144743,19.29002 13.531373,18.383122 13.70447,17.43971 c 0.173094,-0.943723 1.066555,-1.566318 1.995987,-1.39062 0.930045,0.175701 1.543415,1.082913 1.370319,2.026322 -0.17279,0.943412 -1.06717,1.566008 -1.996602,1.390307 z"
       id="path6" />
    <path
       style="fill:#ffffff;stroke-width:1.60131"
       d="m 31.812088,9.4028497 c -0.636538,0 -1.214203,0.3215058 -1.551266,0.8600773 -0.203559,0.322662 -0.295036,0.683349 -0.284609,1.038347 0,0 0,0.0031 0,0.0031 0.0053,0.176736 0.03278,0.351462 0.08757,0.519174 0,0 0,0.0031 0,0.0031 0.05502,0.167726 0.135711,0.328049 0.237695,0.475388 -0.137041,0.155598 -0.278068,0.292128 -0.425349,0.412836 0,0 -0.0031,0.0031 -0.0031,0.0031 -0.146471,0.119826 -0.296745,0.223067 -0.447239,0.312755 0,0 -0.0031,0.003 -0.0031,0.003 -0.90731,0.539684 -1.351002,0.570581 -1.629455,0.566086 -0.832584,-0.363114 -1.639988,-0.551066 -2.342536,-0.641148 -1.058487,-0.127415 -3.72932,-0.805944 -5.282439,-0.753739 -1.491505,0.09176 -3.150776,0.75993 -4.50993,2.986812 -0.131997,-0.02354 -0.267129,-0.03441 -0.400328,-0.03441 -1.094778,0 -2.033119,0.782542 -2.233071,1.864022 -0.11156,0.600053 0.01569,1.210736 0.359667,1.713899 0.34368,0.502858 0.862818,0.839396 1.460568,0.950777 0.138017,0.02595 0.279277,0.04066 0.419091,0.04066 1.094777,0 2.035948,-0.785369 2.236201,-1.86715 0.152749,-0.824016 -0.161579,-1.628043 -0.750612,-2.142373 1.060997,-1.676097 2.301741,-2.216836 3.471584,-2.301878 2.061777,-0.158051 3.908085,0.566037 5.792227,0.863204 0.445479,0.101394 0.920807,0.253351 1.401144,0.472259 0.0014,6.04e-4 0.0048,0.002 0.0062,0.0031 0.258961,0.117936 0.506578,0.249253 0.744359,0.397199 0.237783,0.147945 0.462639,0.310456 0.678678,0.4879 0.432801,0.355557 1.485589,0.947647 1.485589,0.947647 -0.04087,0.05216 -0.08056,0.102993 -0.115727,0.159506 -0.135005,0.215357 -0.221016,0.448067 -0.259586,0.684934 0,0 0,0.0031 0,0.0031 -0.019,0.117696 -0.02554,0.235528 -0.0219,0.353413 0,0 0,0.0031 0,0.0031 0.0038,0.117873 0.01808,0.23562 0.04378,0.350288 0.02609,0.116382 0.06158,0.228216 0.109466,0.337774 0.0945,0.216313 0.231707,0.415669 0.406581,0.584851 0.08814,0.08543 0.186555,0.163206 0.293991,0.231441 0.294667,0.187767 0.633562,0.287734 0.982052,0.287734 0.635336,0 1.220278,-0.320898 1.560647,-0.860077 0.135759,-0.215139 0.220761,-0.448153 0.259588,-0.684935 0.05824,-0.355173 0.01125,-0.718103 -0.131355,-1.044602 -0.142485,-0.326498 -0.381333,-0.617567 -0.703699,-0.822546 -0.10466,-0.06613 -0.213436,-0.11736 -0.328395,-0.159506 -0.113388,-0.04187 -0.231226,-0.07187 -0.350287,-0.09071 0,0 -0.0031,0 -0.0031,0 -0.119809,-0.01879 -0.238423,-0.02924 -0.359668,-0.02504 -0.12141,0.0044 -0.244405,0.02297 -0.362796,0.05004 -0.462447,-0.650148 -1.318598,-0.921083 -1.926573,-1.388632 0.188564,-0.05848 0.508755,-0.449672 0.706828,-0.537938 0.200807,-0.124517 0.397025,-0.26845 0.591107,-0.434731 0.193579,-0.165998 0.381003,-0.352761 0.559833,-0.566085 0.17199,0.05172 0.353202,0.08132 0.534811,0.08132 0.158304,0 0.314137,-0.02119 0.462876,-0.05942 0.149291,-0.03862 0.29179,-0.095 0.425349,-0.168889 0.267413,-0.147656 0.497635,-0.363045 0.666169,-0.631765 0.06571,-0.103781 0.119297,-0.213113 0.162633,-0.325266 0.130026,-0.336456 0.15848,-0.702272 0.0782,-1.063368 -0.05343,-0.241506 -0.152476,-0.466523 -0.290627,-0.66323 -0.06877,-0.09788 -0.1474,-0.1888357 -0.234566,-0.2720977 C 32.997146,9.8313984 32.902452,9.75386 32.797394,9.6871406 32.65065,9.5942774 32.489783,9.5225758 32.325132,9.4744663 c -0.16536,-0.048277 -0.335997,-0.072095 -0.50979,-0.072095 z m 0,1.2103643 c 0.119378,0 0.239573,0.03662 0.340905,0.100078 0.07201,0.04586 0.133469,0.104119 0.181398,0.172014 0.04717,0.06755 0.08158,0.142116 0.100077,0.225184 0,0 0,0.0031 0,0.0031 3.38e-4,0.0014 -3.27e-4,0.0048 0,0.0062 0.03468,0.162941 0.0061,0.327138 -0.08444,0.469132 -0.0902,0.143526 -0.237463,0.241641 -0.397198,0.278352 -0.159346,0.03565 -0.332995,0.01474 -0.478517,-0.0782 l -0.02814,-0.01876 c -0.138066,-0.09805 -0.226767,-0.241891 -0.25646,-0.397199 -0.02942,-0.153823 -0.0026,-0.319593 0.08757,-0.462878 0.116063,-0.185159 0.315013,-0.297118 0.534813,-0.297118 z m 6.508437,2.508296 c -0.635638,0 -1.220155,0.321461 -1.557519,0.860077 -0.481991,0.764243 -0.335331,1.750633 0.309627,2.342537 0.0064,0.0042 0.01489,0.01441 0.0219,0.01876 -0.405619,1.363666 -0.415024,3.768642 -0.08131,5.004085 -0.043,0.03913 -0.08856,0.07494 -0.128232,0.118849 -0.06886,0.07695 -0.133966,0.160227 -0.190782,0.250205 -0.09562,0.151691 -0.167994,0.310741 -0.215801,0.475389 -1.269351,-0.04618 -1.882622,0.130521 -2.842945,0.666167 -0.44489,0.164138 -1.034514,0.279004 -1.945338,0.293992 -0.590535,-0.06953 -1.760832,-0.0531 -2.283114,-0.03441 -0.43027,0.01739 -0.87755,0.02956 -1.460568,0 -0.401403,-0.02173 -0.631221,-0.266641 -1.038342,-0.731844 -0.542123,-0.620273 -1.300704,-1.400813 -2.849205,-1.513735 v 1.207236 c 0.990741,0.0904 1.473149,0.567064 1.942211,1.104026 0.44711,0.511321 0.956391,1.091139 1.882786,1.141557 0.63684,0.03476 1.128391,0.0202 1.563776,0.0031 0.748993,-0.02608 2.035832,-0.04871 3.058748,0.206417 0.783874,0.193853 3.477601,3.55708 4.281619,4.960298 -0.03248,0.04346 -0.06839,0.08571 -0.09696,0.131357 -0.524085,0.831567 -0.307399,1.929444 0.487897,2.492659 0.02164,0.01739 0.04476,0.02892 0.08443,0.0563 0.294966,0.187334 0.633864,0.287735 0.982051,0.287735 0.63624,0 1.220461,-0.322635 1.557522,-0.860076 0.263093,-0.414657 0.347565,-0.910605 0.240822,-1.391762 -0.107653,-0.482937 -0.39492,-0.894709 -0.813165,-1.160322 -0.294666,-0.186031 -0.634163,-0.284608 -0.982051,-0.284608 -0.158753,0 -0.316868,0.02248 -0.466006,0.05943 -0.77004,-1.263781 -2.43892,-3.79671 -3.803105,-4.803923 0.964875,-0.654273 1.81221,-0.68876 2.567723,-0.616126 v 0.0031 c 0.127784,0.312512 0.339201,0.590155 0.631765,0.797527 0.02164,0.01739 0.04789,0.03204 0.08757,0.05941 0.294964,0.187332 0.633862,0.284609 0.98205,0.284609 0.63624,0 1.217331,-0.322638 1.554395,-0.860078 0.263093,-0.415088 0.347564,-0.907522 0.240822,-1.388634 -0.107642,-0.482329 -0.394919,-0.894709 -0.813165,-1.160323 -0.294657,-0.18619 -0.634155,-0.284766 -0.982042,-0.284766 -0.03759,0 -0.075,0.0012 -0.112588,0.0031 -0.213482,-0.95288 -0.205531,-2.998114 0.08132,-4.053308 0.03368,0.0031 0.06641,0.0094 0.100078,0.0094 0.636241,0 1.220459,-0.322243 1.557523,-0.860076 0.263095,-0.415088 0.347564,-0.907219 0.240822,-1.388633 C 40.008091,14.0835 39.720813,13.671421 39.302566,13.40581 39.007901,13.219779 38.668403,13.121203 38.320515,13.121203 Z m 0,1.210364 c 0.119971,0 0.237053,0.0335 0.337778,0.09696 0.144326,0.09173 0.244194,0.235681 0.281478,0.403455 0.03668,0.164731 0.0068,0.331085 -0.08443,0.475387 -0.179803,0.286869 -0.582852,0.383936 -0.875714,0.197036 l -0.02814,-0.0157 C 37.675462,15.293904 37.601291,14.916638 37.7826,14.628987 v -0.0031 c 0.116671,-0.185159 0.318744,-0.29399 0.537938,-0.29399 z M 15.333011,16.34289 c 0.04146,0.01137 0.09217,0.03149 0.12511,0.03754 0.581517,0.108666 0.964592,0.673523 0.856949,1.257275 -0.106741,0.574697 -0.673112,0.966626 -1.251021,0.860079 -0.582117,-0.108666 -0.964893,-0.670399 -0.856948,-1.254149 0.09472,-0.509801 0.535189,-0.881971 1.050857,-0.881971 0,-0.03335 0.0336,-0.03014 0.07505,-0.01877 z m 16.438419,0.75374 v 0.0031 c 0.120274,0 0.241078,0.03073 0.340904,0.09381 0.07419,0.0473 0.131115,0.109984 0.17827,0.17827 0.04715,0.06828 0.08211,0.142308 0.100078,0.222056 0.03546,0.159794 0.0093,0.333299 -0.08444,0.481644 -0.117872,0.186466 -0.317841,0.297118 -0.537938,0.297118 -0.119362,0 -0.235848,-0.03307 -0.337776,-0.09696 -0.07397,-0.0471 -0.134413,-0.109982 -0.1814,-0.17827 -0.04656,-0.06772 -0.07899,-0.142852 -0.09696,-0.222057 0,0 0,-0.0031 0,-0.0031 -0.01788,-0.07993 -0.02263,-0.161958 -0.0094,-0.243949 0.01329,-0.08198 0.04402,-0.160084 0.09071,-0.234566 0.0508,-0.08041 0.119698,-0.148442 0.203291,-0.200163 0.100743,-0.06248 0.214676,-0.09696 0.334647,-0.09696 z m 6.477163,4.969681 c 0.119969,0 0.237051,0.0335 0.337776,0.09696 0.144326,0.09173 0.244194,0.236115 0.28148,0.403452 0.03668,0.164734 0.0068,0.331216 -0.08445,0.475389 -0.179803,0.286867 -0.58285,0.383936 -0.875714,0.197035 l -0.02814,-0.01569 C 37.603512,23.028304 37.532472,22.651035 37.71378,22.363384 v -0.0031 c 0.11667,-0.18516 0.315615,-0.293991 0.534811,-0.293991 z m -7.87518,5.426305 c -0.64526,0 -1.248665,0.344561 -1.579414,0.900735 -0.251971,0.424219 -0.326991,0.922423 -0.206419,1.401144 0.10555,0.420305 0.350941,0.781995 0.694317,1.035221 -1.218656,2.782356 -3.306817,3.628578 -4.312895,4.112733 -0.03849,0.01296 -0.07579,0.0296 -0.109466,0.05004 -0.356907,0.160379 -0.647607,0.212655 -0.800654,0.24395 v 1.207234 c 0.08269,-0.0086 0.600241,-0.03454 1.310445,-0.359667 1.608037,-0.409438 2.055597,-0.108092 2.527064,0.212672 0.306992,0.208634 0.689355,0.469593 1.282297,0.500408 0.03004,0.0014 0.05913,0.0031 0.09071,0.0031 0.634135,0 2.393324,-0.176363 2.949283,-0.387817 0.343978,0.336853 0.804758,0.528556 1.288553,0.528556 0.439292,0 0.861869,-0.159939 1.194724,-0.44724 0.372845,-0.320769 0.600435,-0.768425 0.638022,-1.260403 0.03759,-0.492284 -0.117633,-0.968055 -0.43786,-1.341721 -0.350291,-0.410309 -0.859797,-0.647403 -1.398013,-0.647403 -0.438695,0 -0.8647,0.160113 -1.197854,0.447238 -0.484696,0.417263 -0.697372,1.035466 -0.62551,1.629456 -0.585725,0.211239 -2.117765,0.278966 -2.439492,0.26897 -0.246857,-0.01296 -0.392071,-0.104918 -0.669298,-0.293991 -0.352395,-0.239926 -0.264535,-0.455604 -0.785015,-0.556703 0.882799,-0.833394 1.877914,-1.743805 2.652165,-3.556027 0.619703,-0.02174 1.19754,-0.357733 1.516864,-0.894482 0.518674,-0.87412 0.233048,-2.009655 -0.638022,-2.533318 -0.285344,-0.17038 -0.613171,-0.262715 -0.94452,-0.262715 z m 0,1.210364 c 0.113662,0 0.227242,0.03159 0.325266,0.09071 0.300681,0.181249 0.401266,0.574204 0.222057,0.875715 -0.115759,0.195159 -0.320908,0.309629 -0.547323,0.309629 -0.113965,0 -0.226341,-0.03027 -0.325265,-0.09071 -0.145222,-0.08693 -0.249368,-0.225777 -0.290861,-0.390944 -0.04149,-0.165168 -0.0178,-0.334949 0.06881,-0.481643 0.116063,-0.194721 0.320911,-0.312754 0.547323,-0.312754 z m 7.87518,1.27604 c 0.119969,0 0.237051,0.0335 0.337776,0.09696 0.144326,0.09173 0.244194,0.232555 0.28148,0.400327 0.03668,0.165169 0.0068,0.334213 -0.08445,0.478517 -0.179803,0.286867 -0.582851,0.383931 -0.875714,0.197036 l -0.02814,-0.01569 c -0.276024,-0.195159 -0.350194,-0.572124 -0.168886,-0.860079 v -0.0031 c 0.116671,-0.185161 0.318743,-0.293989 0.537939,-0.293989 z m -4.744497,4.47553 c 0.185521,0 0.360167,0.07993 0.481643,0.222055 0.110646,0.129962 0.166174,0.296448 0.153244,0.466006 -0.01296,0.169514 -0.08964,0.323458 -0.218929,0.434729 -0.147337,0.126919 -0.306097,0.153245 -0.412836,0.153245 -0.186723,0 -0.364199,-0.08166 -0.484772,-0.222055 -0.227913,-0.266873 -0.197302,-0.671631 0.06881,-0.900734 0.147929,-0.127786 0.306097,-0.153246 0.412839,-0.153246 z"
       id="path7" />
  </g>
</svg>
