<?xml version="1.0" encoding="UTF-8" standalone="no"?>
<svg
   clip-rule="evenodd"
   fill-rule="evenodd"
   stroke-linejoin="round"
   stroke-miterlimit="2"
   viewBox="0 0 48 48"
   version="1.1"
   id="svg12"
   sodipodi:docname="kora_protoncalendar.svg"
   inkscape:version="1.4.2 (ebf0e940d0, 2025-05-08)"
   xmlns:inkscape="http://www.inkscape.org/namespaces/inkscape"
   xmlns:sodipodi="http://sodipodi.sourceforge.net/DTD/sodipodi-0.dtd"
   xmlns="http://www.w3.org/2000/svg"
   xmlns:svg="http://www.w3.org/2000/svg">
  <defs
     id="defs12">
    <linearGradient
       id="a-3"
       x2="1"
       gradientTransform="matrix(30.5752,32.5644,-32.5644,30.5752,-1024.107,984.181)"
       gradientUnits="userSpaceOnUse">
      <stop
         stop-color="#855dff"
         offset="0"
         id="stop1-6" />
      <stop
         stop-color="#cd7eff"
         offset="1"
         id="stop2-7" />
    </linearGradient>
    <linearGradient
       id="b-5"
       x2="1"
       gradientTransform="matrix(-9.1165,24.621,-24.621,-9.1165,-1093.937,-394.192)"
       gradientUnits="userSpaceOnUse">
      <stop
         stop-color="#5229ff"
         offset="0"
         id="stop3-3" />
      <stop
         stop-color="#d660ef"
         offset="1"
         id="stop4-5" />
    </linearGradient>
  </defs>
  <sodipodi:namedview
     id="namedview12"
     pagecolor="#ffffff"
     bordercolor="#000000"
     borderopacity="0.25"
     inkscape:showpageshadow="2"
     inkscape:pageopacity="0.0"
     inkscape:pagecheckerboard="0"
     inkscape:deskcolor="#d1d1d1"
     inkscape:zoom="11.829307"
     inkscape:cx="20.288593"
     inkscape:cy="23.881365"
     inkscape:window-width="1920"
     inkscape:window-height="1012"
     inkscape:window-x="0"
     inkscape:window-y="0"
     inkscape:window-maximized="1"
     inkscape:current-layer="svg12" />
  <linearGradient
     id="a"
     x2="1"
     gradientTransform="matrix(0,-33.6872,33.6872,0,1141.9691,51.568506)"
     gradientUnits="userSpaceOnUse">
    <stop
       stop-color="#171717"
       offset="0"
       id="stop1" />
    <stop
       stop-color="#484848"
       offset="1"
       id="stop2" />
  </linearGradient>
  <linearGradient
     id="b"
     x2="1"
     gradientTransform="matrix(15.9484,14.961,-12.2794,13.0899,21.6444,11.3705)"
     gradientUnits="userSpaceOnUse">
    <stop
       stop-color="#6644fd"
       offset="0"
       id="stop3" />
    <stop
       stop-color="#8568fe"
       offset=".41"
       id="stop4" />
    <stop
       stop-color="#8dbdff"
       offset="1"
       id="stop5" />
  </linearGradient>
  <linearGradient
     id="c"
     x2="1"
     gradientTransform="matrix(-14.6893,20.7607,-18.5416,-13.1192,25.7833,15.0475)"
     gradientUnits="userSpaceOnUse">
    <stop
       stop-color="#4e00ff"
       offset="0"
       id="stop6" />
    <stop
       stop-color="#1f79fd"
       offset="1"
       id="stop7" />
  </linearGradient>
  <g
     id="g13"
     transform="matrix(1.3681314,0,0,1.3681314,-8.8358384,-7.5556544)">
    <path
       d="m 39.388,14.981 c 0,-0.957 -0.381,-1.876 -1.058,-2.553 C 37.653,11.75 36.734,11.37 35.776,11.37 H 12.225 c -0.958,0 -1.877,0.38 -2.554,1.058 -0.677,0.677 -1.058,1.596 -1.058,2.553 v 18.037 c 0,0.957 0.381,1.877 1.058,2.554 0.677,0.677 1.596,1.058 2.554,1.058 h 23.551 c 0.958,0 1.877,-0.381 2.554,-1.058 0.677,-0.677 1.058,-1.596 1.058,-2.554 z"
       fill="url(#b)"
       id="path8"
       style="fill:url(#b)" />
    <path
       d="m 8.613,15.047 v 17.97 c 0,0.958 0.381,1.877 1.058,2.554 0.677,0.677 1.596,1.058 2.554,1.058 h 20.553 v -17.97 c 0,-0.958 -0.381,-1.877 -1.058,-2.554 -0.677,-0.677 -1.596,-1.058 -2.554,-1.058 z"
       fill="url(#c)"
       id="path9"
       style="fill:url(#c)" />
    <path
       d="m 29.034,26.331 c 0,0 -4.367,5.341 -5.693,6.954 -0.477,0.58 -0.767,1.134 -0.767,2.054 0,0.71 0.016,1.29 0.016,1.29 H 32.778 V 26.347 Z"
       fill="#bfd8ff"
       id="path10" />
    <path
       d="m 31.048,36.63 c -1.534,0 -2.779,-1.246 -2.779,-2.78 v -5.604 c 0,-1.535 1.245,-2.78 2.779,-2.78 h 5.56 c 1.534,0 2.78,1.245 2.78,2.78 v 4.772 c 0,0.958 -0.381,1.877 -1.058,2.554 -0.677,0.677 -1.596,1.058 -2.554,1.058 z"
       fill="#ffffff"
       id="path11" />
    <path
       d="m 32.013,31.392 c -0.034,0 -0.051,-0.017 -0.051,-0.052 v -0.771 c 0,-0.034 0.017,-0.051 0.051,-0.051 h 0.302 c 0.278,0 0.498,-0.078 0.659,-0.233 0.158,-0.149 0.237,-0.346 0.237,-0.59 0,-0.23 -0.082,-0.426 -0.246,-0.59 -0.163,-0.164 -0.363,-0.246 -0.598,-0.246 -0.173,0 -0.338,0.059 -0.496,0.177 -0.158,0.115 -0.258,0.289 -0.301,0.521 -0.003,0.012 -0.009,0.022 -0.02,0.03 -0.01,0.01 -0.019,0.014 -0.028,0.014 H 30.64 c -0.015,0 -0.027,-0.006 -0.037,-0.017 -0.01,-0.012 -0.014,-0.024 -0.011,-0.039 0.029,-0.439 0.216,-0.828 0.56,-1.168 0.339,-0.332 0.732,-0.5 1.18,-0.5 0.279,0 0.531,0.048 0.756,0.143 0.225,0.095 0.424,0.235 0.597,0.418 0.163,0.181 0.289,0.377 0.376,0.588 0.088,0.211 0.132,0.429 0.132,0.653 0,0.244 -0.048,0.482 -0.142,0.715 -0.046,0.103 -0.109,0.201 -0.19,0.292 -0.08,0.092 -0.175,0.179 -0.284,0.258 0.23,0.165 0.4,0.36 0.512,0.59 0.115,0.247 0.173,0.499 0.173,0.755 0,0.583 -0.186,1.052 -0.556,1.408 -0.365,0.347 -0.817,0.521 -1.357,0.521 -0.215,0 -0.418,-0.034 -0.609,-0.103 -0.191,-0.07 -0.374,-0.172 -0.549,-0.31 -0.172,-0.141 -0.311,-0.311 -0.416,-0.509 -0.105,-0.199 -0.177,-0.43 -0.217,-0.698 -0.006,-0.038 0.011,-0.056 0.051,-0.056 h 0.879 c 0.02,0 0.036,0.012 0.047,0.034 0.038,0.101 0.082,0.191 0.132,0.272 0.05,0.08 0.11,0.15 0.178,0.208 0.069,0.059 0.149,0.105 0.24,0.136 0.09,0.032 0.195,0.049 0.316,0.049 0.227,0 0.431,-0.083 0.612,-0.247 0.178,-0.158 0.267,-0.383 0.267,-0.676 0,-0.293 -0.089,-0.518 -0.267,-0.676 -0.181,-0.167 -0.391,-0.25 -0.629,-0.25 z m 4.152,2.786 c -0.034,0 -0.051,-0.017 -0.051,-0.051 V 29.01 l -0.793,0.586 c -0.02,0.014 -0.039,0.016 -0.056,0.006 -0.017,-0.01 -0.026,-0.026 -0.026,-0.049 v -0.935 c 0,-0.005 0.002,-0.013 0.007,-0.021 0.004,-0.009 0.009,-0.016 0.015,-0.022 l 0.887,-0.642 h 0.9 c 0.034,0 0.052,0.018 0.052,0.052 v 6.142 c 0,0.034 -0.018,0.051 -0.052,0.051 z"
       fill="#4114ff"
       fill-rule="nonzero"
       id="path12" />
  </g>
</svg>
