<?xml version="1.0" encoding="UTF-8" standalone="no"?>
<svg
   clip-rule="evenodd"
   fill-rule="evenodd"
   stroke-linejoin="round"
   stroke-miterlimit="2"
   viewBox="0 0 48 48"
   version="1.1"
   id="svg3"
   sodipodi:docname="kora_qbittorrent.svg"
   inkscape:version="1.4.3 (0d15f75042, 2025-12-25)"
   xmlns:inkscape="http://www.inkscape.org/namespaces/inkscape"
   xmlns:sodipodi="http://sodipodi.sourceforge.net/DTD/sodipodi-0.dtd"
   xmlns="http://www.w3.org/2000/svg"
   xmlns:svg="http://www.w3.org/2000/svg">
  <defs
     id="defs3">
    <rect
       x="2.0263359"
       y="1.6886132"
       width="44.737664"
       height="45.075387"
       id="rect3" />
  </defs>
  <sodipodi:namedview
     id="namedview3"
     pagecolor="#ffffff"
     bordercolor="#999999"
     borderopacity="1"
     inkscape:showpageshadow="2"
     inkscape:pageopacity="0"
     inkscape:pagecheckerboard="0"
     inkscape:deskcolor="#d1d1d1"
     inkscape:zoom="2.09375"
     inkscape:cx="-42.746269"
     inkscape:cy="29.134328"
     inkscape:window-width="1920"
     inkscape:window-height="1012"
     inkscape:window-x="0"
     inkscape:window-y="0"
     inkscape:window-maximized="1"
     inkscape:current-layer="g3" />
  <linearGradient
     id="a"
     x2="1"
     gradientTransform="matrix(0 -45.528 45.528 0 24 46.764)"
     gradientUnits="userSpaceOnUse">
    <stop
       stop-color="#0b378c"
       offset="0"
       id="stop1"
       style="stop-color:#326ec0;stop-opacity:1;" />
    <stop
       stop-color="#2f67ba"
       offset="1"
       id="stop2"
       style="stop-color:#6db1f1;stop-opacity:1;" />
  </linearGradient>
  <circle
     cx="24"
     cy="24"
     r="22.764"
     fill="url(#a)"
     id="circle2" />
  <g
     fill-rule="nonzero"
     id="g3">
    <path
       d="m 14.471206,15.529754 c -4.6778902,0 -8.4693154,3.792356 -8.4693154,8.470246 0,4.67789 3.7914252,8.470246 8.4693154,8.470246 1.487363,-0.0028 2.948679,-0.397188 4.235123,-1.144126 v 7.496345 h 4.235123 V 15.529754 H 18.706329 V 16.6776 c -1.286444,-0.747867 -2.74683,-1.143195 -4.235123,-1.147846 z m 0,4.235123 c 2.33941,0 4.235123,1.896643 4.235123,4.235123 0,2.33848 -1.895713,4.235123 -4.235123,4.235123 -2.33848,0 -4.235122,-1.896643 -4.235122,-4.235123 0,-2.33848 1.896642,-4.235123 4.235122,-4.235123 z"
       fill="#64d4f9"
       id="path2"
       style="fill:#c9e9ff;fill-opacity:1;stroke-width:0.930183"
       sodipodi:nodetypes="csccccccccsssss" />
    <path
       d="M 25.058548,9.1775347 V 32.470246 h 4.235123 V 31.3224 c 1.286443,0.747867 2.74683,1.143195 4.235123,1.147846 4.67789,0 8.469316,-3.792356 8.469316,-8.470246 0,-4.67789 -3.791426,-8.470246 -8.469316,-8.470246 -1.487363,0.0028 -2.94868,0.397188 -4.235123,1.144126 V 9.1775347 Z m 8.470246,10.5873423 c 2.33848,0 4.235122,1.896643 4.235122,4.235123 0,2.33848 -1.896642,4.235123 -4.235122,4.235123 -2.33941,0 -4.235123,-1.896643 -4.235123,-4.235123 0,-2.33848 1.895713,-4.235123 4.235123,-4.235123 z"
       fill="#ffffff"
       id="path3"
       sodipodi:nodetypes="cccccsccccsssss"
       style="stroke-width:0.93;stroke-dasharray:none" />
  </g>
</svg>
