<?xml version="1.0" encoding="UTF-8" standalone="no"?>
<!-- Uploaded to: SVG Repo, www.svgrepo.com, Generator: SVG Repo Mixer Tools -->

<svg
   width="800px"
   height="800px"
   viewBox="0 0 32 32"
   version="1.1"
   id="svg1"
   sodipodi:docname="sqlitebrowser.svg"
   inkscape:version="1.4.2 (ebf0e940d0, 2025-05-08)"
   xmlns:inkscape="http://www.inkscape.org/namespaces/inkscape"
   xmlns:sodipodi="http://sodipodi.sourceforge.net/DTD/sodipodi-0.dtd"
   xmlns:xlink="http://www.w3.org/1999/xlink"
   xmlns="http://www.w3.org/2000/svg"
   xmlns:svg="http://www.w3.org/2000/svg">
  <defs
     id="defs1">
    <linearGradient
       id="linearGradient22"
       inkscape:collect="always">
      <stop
         style="stop-color:#bebebe;stop-opacity:1;"
         offset="0"
         id="stop21" />
      <stop
         style="stop-color:#7e7e7e;stop-opacity:1;"
         offset="1"
         id="stop22" />
    </linearGradient>
    <linearGradient
       inkscape:collect="always"
       xlink:href="#linearGradient22"
       id="linearGradient19"
       x1="16"
       y1="19.499001"
       x2="16"
       y2="0.21699958"
       gradientUnits="userSpaceOnUse" />
    <linearGradient
       inkscape:collect="always"
       xlink:href="#linearGradient22"
       id="linearGradient21"
       x1="16"
       y1="27.534"
       x2="16"
       y2="17.892"
       gradientUnits="userSpaceOnUse" />
    <linearGradient
       inkscape:collect="always"
       xlink:href="#linearGradient22"
       id="linearGradient23"
       gradientUnits="userSpaceOnUse"
       x1="16"
       y1="6.6439996"
       x2="16"
       y2="25.926001" />
  </defs>
  <sodipodi:namedview
     id="namedview1"
     pagecolor="#ffffff"
     bordercolor="#000000"
     borderopacity="0.25"
     inkscape:showpageshadow="2"
     inkscape:pageopacity="0.0"
     inkscape:pagecheckerboard="0"
     inkscape:deskcolor="#d1d1d1"
     inkscape:zoom="0.34167829"
     inkscape:cx="16.097013"
     inkscape:cy="525.34798"
     inkscape:window-width="1920"
     inkscape:window-height="1012"
     inkscape:window-x="0"
     inkscape:window-y="0"
     inkscape:window-maximized="1"
     inkscape:current-layer="svg1"
     inkscape:lockguides="false" />
  <path
     style="fill:#c3c3c3;stroke-width:0.306;stroke-linecap:round;stroke-miterlimit:2"
     d="M 8.0498132,7.81071 8.52802,22.713 22.635118,23.790784 24.308842,22.03736 23.830635,8.9265256 23.711084,6.973848 15.302615,5.4595268 Z"
     id="path6" />
  <path
     d="m 16,27.534 c -5.323,0 -9.641,-1.44 -9.641,-3.214 v -1.607 -1.607 c 0,-1.774 4.318,-3.214 9.641,-3.214 5.323,0 9.641,1.44 9.641,3.214 v 1.607 1.607 c 0,1.774 -4.318,3.214 -9.641,3.214 z M 16,19.5 c -3.55,0 -7.227,0.718 -7.227,1.607 0,0.889 3.678,1.607 7.227,1.607 3.55,0 7.227,-0.718 7.227,-1.607 C 23.227,20.218 19.549,19.5 16,19.5 Z"
     id="path5"
     style="fill:url(#linearGradient21);fill-opacity:1" />
  <path
     d="m 16,21.106 c -5.323,0 -9.641,-1.44 -9.641,-3.214 v -1.607 -1.607 c 0,-1.774 4.318,-3.214 9.641,-3.214 5.323,0 9.641,1.44 9.641,3.214 v 1.607 1.607 c 0,1.774 -4.318,3.214 -9.641,3.214 z m 0,-8.034 c -3.55,0 -7.227,0.718 -7.227,1.607 0,0.889 3.678,1.607 7.227,1.607 3.55,0 7.227,-0.718 7.227,-1.607 0,-0.889 -3.678,-1.607 -7.227,-1.607 z"
     id="path4"
     style="display:inline;fill:url(#linearGradient23);fill-opacity:1" />
  <path
     d="m 16,14.679 c -5.323,0 -9.641,-1.44 -9.641,-3.214 V 9.858 8.251 c 0,-1.774 4.318,-3.214 9.641,-3.214 5.323,0 9.641,1.44 9.641,3.214 v 1.607 1.607 c 0,1.774 -4.318,3.214 -9.641,3.214 z m 0,-8.034 c -3.55,0 -7.227,0.718 -7.227,1.607 0,0.889 3.678,1.607 7.227,1.607 3.55,0 7.227,-0.718 7.227,-1.607 0,-0.889 -3.678,-1.607 -7.227,-1.607 z"
     id="path3"
     style="display:inline;fill:url(#linearGradient19);fill-opacity:1" />
</svg>
