<?xml version="1.0" encoding="UTF-8" standalone="no"?>
<svg
   clip-rule="evenodd"
   fill-rule="evenodd"
   stroke-linejoin="round"
   stroke-miterlimit="2"
   viewBox="0 0 48 48"
   version="1.1"
   id="svg3"
   sodipodi:docname="steamlink.svg"
   xml:space="preserve"
   inkscape:version="1.4.3 (0d15f75042, 2025-12-25)"
   xmlns:inkscape="http://www.inkscape.org/namespaces/inkscape"
   xmlns:sodipodi="http://sodipodi.sourceforge.net/DTD/sodipodi-0.dtd"
   xmlns:xlink="http://www.w3.org/1999/xlink"
   xmlns="http://www.w3.org/2000/svg"
   xmlns:svg="http://www.w3.org/2000/svg"><defs
     id="defs3"><clipPath
       id="clipPath4"><rect
         width="384"
         height="384"
         id="rect2"
         x="0"
         y="0" /></clipPath><clipPath
       id="clipPath8"><rect
         width="384"
         height="384"
         id="rect6"
         x="0"
         y="0" /></clipPath><linearGradient
       gradientUnits="userSpaceOnUse"
       y1="2.1683273"
       gradientTransform="matrix(0.04465688,0,0,0.04470484,0.56170237,0.56170319)"
       id="a-367"
       x2="231.73351"
       x1="257.78137"
       y2="499.57922"><stop
         stop-color="#111D2E"
         offset="0"
         id="stop905" /><stop
         stop-color="#0A1B48"
         offset=".40695"
         id="stop909" /><stop
         stop-color="#132E62"
         offset=".58110"
         id="stop911" /><stop
         stop-color="#144B7E"
         offset=".73760"
         id="stop913" /><stop
         stop-color="#136497"
         offset=".87279"
         id="stop915" /><stop
         stop-color="#1387B8"
         offset="1"
         id="stop917" /></linearGradient><linearGradient
       gradientUnits="userSpaceOnUse"
       y1="2.1683273"
       gradientTransform="matrix(0.74959755,0,0,0.75040267,-5.9322034e-6,4.2372881e-7)"
       id="a-3"
       x2="231.73351"
       x1="257.78137"
       y2="499.57922"><stop
         stop-color="#111D2E"
         offset="0"
         id="stop905-6" /><stop
         stop-color="#051839"
         offset=".21248"
         id="stop907-7" /><stop
         stop-color="#0A1B48"
         offset=".40695"
         id="stop909-5" /><stop
         stop-color="#132E62"
         offset=".58110"
         id="stop911-3" /><stop
         stop-color="#144B7E"
         offset=".73760"
         id="stop913-5" /><stop
         stop-color="#136497"
         offset=".87279"
         id="stop915-6" /><stop
         stop-color="#1387B8"
         offset="1"
         id="stop917-2" /></linearGradient><linearGradient
       gradientUnits="userSpaceOnUse"
       y1="2.1683273"
       gradientTransform="matrix(0.74959755,0,0,0.75040267,-159.53373,196.88136)"
       id="a-4"
       x2="231.73351"
       x1="257.78137"
       y2="499.57922"><stop
         stop-color="#111D2E"
         offset="0"
         id="stop905-0" /><stop
         stop-color="#051839"
         offset=".21248"
         id="stop907-5" /><stop
         stop-color="#0A1B48"
         offset=".40695"
         id="stop909-7" /><stop
         stop-color="#132E62"
         offset=".58110"
         id="stop911-7" /><stop
         stop-color="#144B7E"
         offset=".73760"
         id="stop913-3" /><stop
         stop-color="#136497"
         offset=".87279"
         id="stop915-2" /><stop
         stop-color="#1387B8"
         offset="1"
         id="stop917-8" /></linearGradient><linearGradient
       gradientUnits="userSpaceOnUse"
       y1="2.1683273"
       gradientTransform="matrix(0.04465688,0,0,0.04470484,0.5617029,0.5617032)"
       id="a-36"
       x2="231.73351"
       x1="257.78137"
       y2="499.57922"><stop
         stop-color="#1387B8"
         offset="0"
         id="stop917-1" /><stop
         stop-color="#136497"
         offset="0.12721"
         id="stop915-29" /><stop
         stop-color="#144B7E"
         offset="0.2624"
         id="stop913-6" /><stop
         stop-color="#132E62"
         offset="0.4189"
         id="stop911-5" /><stop
         stop-color="#0A1B48"
         offset="0.59305"
         id="stop909-53" /><stop
         stop-color="#051839"
         offset="0.78752"
         id="stop907" /><stop
         stop-color="#111D2E"
         offset="1"
         id="stop905-7" /></linearGradient><linearGradient
       inkscape:collect="always"
       xlink:href="#a-36"
       id="linearGradient4"
       x1="24"
       y1="2.332"
       x2="24"
       y2="45.667999"
       gradientUnits="userSpaceOnUse" /></defs><sodipodi:namedview
     id="namedview3"
     pagecolor="#ffffff"
     bordercolor="#999999"
     borderopacity="1"
     inkscape:showpageshadow="2"
     inkscape:pageopacity="0"
     inkscape:pagecheckerboard="0"
     inkscape:deskcolor="#d1d1d1"
     inkscape:zoom="8.375"
     inkscape:cx="-10.089552"
     inkscape:cy="38.686567"
     inkscape:window-width="1920"
     inkscape:window-height="1012"
     inkscape:window-x="0"
     inkscape:window-y="0"
     inkscape:window-maximized="1"
     inkscape:current-layer="svg3" /><linearGradient
     id="a"
     x2="0.94463098"
     gradientTransform="matrix(0,-43.2357,43.2357,0,23.9997,45.6179)"
     gradientUnits="userSpaceOnUse"
     x1="0.022231249"
     y1="-0.50115299"
     y2="1.148864"
     spreadMethod="pad"
     xlink:href="#a-36"><stop
       stop-color="#06315b"
       offset="0"
       id="stop1" /><stop
       stop-color="#204e7b"
       offset="1"
       id="stop2" /></linearGradient><path
     d="m39.44 45.668h-30.88c-3.438 0-6.228-2.79-6.228-6.228v-30.88c0-3.438 2.79-6.228 6.228-6.228h30.88c3.438 0 6.228 2.79 6.228 6.228v30.88c0 3.438-2.79 6.228-6.228 6.228z"
     fill="url(#a)"
     id="path2"
     style="fill-opacity:1;fill:url(#linearGradient4)" /><path
     transform="matrix(1.2 0 0 1.2 -4.8 -4.8)"
     d="m24 10c-7.68 0-14 6.32-14 14s6.32 14 14 14 14-6.32 14-14-6.32-14-14-14zm-.029 7c2.991 0 5.981.034 6.381.105.949.17 1.233.522 1.988 2.459.767 1.969 1.415 4.68 1.613 6.737.115 1.191.019 2.009-.326 2.797-.52 1.185-1.963 2.077-3.029 1.873-.549-.106-.888-.523-1.787-2.194-.459-.851-.931-1.634-1.069-1.777h-7.537l-.029.033c-.133.152-.558.872-.946 1.6-.387.728-.803 1.477-.923 1.664-.397.618-1.239.865-2.002.586-.947-.346-1.723-1.088-2.057-1.965-.652-1.713.023-5.97 1.557-9.801.597-1.492.923-1.861 1.773-2.01.407-.071 3.401-.107 6.393-.107zm-4.471 2c-1.371 0-2.5 1.129-2.5 2.5s1.129 2.5 2.5 2.5 2.5-1.129 2.5-2.5-1.129-2.5-2.5-2.5zm9 0c-1.371 0-2.5 1.129-2.5 2.5s1.129 2.5 2.5 2.5 2.5-1.129 2.5-2.5-1.129-2.5-2.5-2.5z"
     fill="#fff"
     fill-rule="nonzero"
     id="path3" /></svg>
