<?xml version="1.0" encoding="UTF-8" standalone="no"?>
<svg
   style="clip-rule:evenodd;fill-rule:evenodd;stroke-linejoin:round;stroke-miterlimit:2"
   viewBox="0 0 64 64"
   version="1.1"
   id="svg4"
   sodipodi:docname="android.svg"
   xml:space="preserve"
   inkscape:version="1.4.3 (0d15f75042, 2025-12-25)"
   xmlns:inkscape="http://www.inkscape.org/namespaces/inkscape"
   xmlns:sodipodi="http://sodipodi.sourceforge.net/DTD/sodipodi-0.dtd"
   xmlns:xlink="http://www.w3.org/1999/xlink"
   xmlns="http://www.w3.org/2000/svg"
   xmlns:svg="http://www.w3.org/2000/svg"><sodipodi:namedview
     id="namedview4"
     pagecolor="#ffffff"
     bordercolor="#000000"
     borderopacity="0.25"
     inkscape:showpageshadow="2"
     inkscape:pageopacity="0.0"
     inkscape:pagecheckerboard="0"
     inkscape:deskcolor="#d1d1d1"
     inkscape:zoom="6.2734375"
     inkscape:cx="31.003736"
     inkscape:cy="26.938979"
     inkscape:window-width="1920"
     inkscape:window-height="1012"
     inkscape:window-x="0"
     inkscape:window-y="0"
     inkscape:window-maximized="1"
     inkscape:current-layer="svg4"
     showguides="false" /><defs
     id="defs4"><linearGradient
       id="linearGradient22"
       inkscape:collect="always"><stop
         style="stop-color:#0c8e57;stop-opacity:1;"
         offset="0"
         id="stop22" /><stop
         style="stop-color:#42e990;stop-opacity:1;"
         offset="1"
         id="stop23" /></linearGradient><linearGradient
       id="_Linear1"
       x2="1"
       gradientTransform="matrix(3.03829e-15,-49.619,49.619,3.03829e-15,104.99,51.088)"
       gradientUnits="userSpaceOnUse"><stop
         style="stop-color:#c15721"
         offset="0"
         id="stop3" /><stop
         style="stop-color:#fc9f47"
         offset="1"
         id="stop4" /></linearGradient><linearGradient
       id="_Linear1-3"
       x2="1"
       gradientTransform="matrix(0,-49.619,49.619,0,104.99,51.3535)"
       gradientUnits="userSpaceOnUse"><stop
         style="stop-color:#c15721"
         offset="0"
         id="stop3-6" /><stop
         style="stop-color:#fc9f47"
         offset="1"
         id="stop4-7" /></linearGradient><linearGradient
       inkscape:collect="always"
       xlink:href="#linearGradient22"
       id="linearGradient23"
       x1="32"
       y1="62"
       x2="32"
       y2="1.46875"
       gradientUnits="userSpaceOnUse" /></defs><g
     id="g16"
     inkscape:label="base"
     style="clip-rule:evenodd;fill-rule:evenodd;stroke-linejoin:round;stroke-miterlimit:2"><path
       d="m 15,1.46875 c -2.77,0 -5,2.23 -5,5 V 57 c 0,2.77 2.23,5 5,5 h 34 c 2.77,0 5,-2.23 5,-5 V 16.130859 L 39.337891,1.46875 Z"
       style="display:inline;fill:url(#linearGradient23);stroke-width:2.226;stroke-linecap:round;stroke-miterlimit:40;fill-opacity:1"
       id="path18" /><path
       d="M 54,16.130859 39.337891,1.46875 v 9.662109 c 0,2.77 2.23,5 5,5 z"
       style="clip-rule:evenodd;fill-rule:evenodd;stroke-linejoin:round;stroke-miterlimit:40;display:inline;fill:#000000;stroke-width:2.226;stroke-linecap:round;fill-opacity:0.30000001;opacity:1"
       id="path19" /></g><g
     id="g1"
     inkscape:label="glyph"><path
       d="m 38.43,28.805007 2.175,-3.357 c 0.14,-0.211 0.078,-0.501 -0.136,-0.639 -0.212,-0.14 -0.501,-0.082 -0.639,0.136 l -2.254,3.473 c -1.692,-0.693 -3.581,-1.083 -5.576,-1.083 -1.997,0 -3.882,0.39 -5.577,1.083 l -2.251,-3.473 c -0.138,-0.218 -0.429,-0.276 -0.643,-0.136 -0.214,0.138 -0.276,0.428 -0.136,0.639 l 2.177,3.357 c -3.924,1.923 -6.57,5.548 -6.57,9.705 0,0.256 0.016,0.507 0.038,0.757 h 25.926 c 0.022,-0.25 0.036,-0.501 0.036,-0.757 0,-4.157 -2.648,-7.782 -6.57,-9.705 z m -12.441,6.011 c -0.689,0 -1.248,-0.555 -1.248,-1.246 0,-0.691 0.559,-1.244 1.248,-1.244 0.693,0 1.248,0.553 1.248,1.244 0,0.691 -0.559,1.246 -1.248,1.246 z m 12.02,0 c -0.689,0 -1.248,-0.555 -1.248,-1.246 0,-0.691 0.559,-1.244 1.248,-1.244 0.691,0 1.246,0.553 1.246,1.244 0,0.691 -0.555,1.246 -1.246,1.246 z"
       style="clip-rule:evenodd;fill-rule:nonzero;stroke-linejoin:round;stroke-miterlimit:2;fill:#000000;fill-opacity:0.5"
       id="path5" /></g></svg>
