<?xml version="1.0" encoding="UTF-8" standalone="no"?>
<svg
   style="clip-rule:evenodd;fill-rule:evenodd;stroke-linejoin:round;stroke-miterlimit:2"
   viewBox="0 0 64 64"
   version="1.1"
   id="svg4"
   sodipodi:docname="executable.svg"
   xml:space="preserve"
   inkscape:version="1.4.4 (dcaf3e7d9e, 2026-05-05)"
   xmlns:inkscape="http://www.inkscape.org/namespaces/inkscape"
   xmlns:sodipodi="http://sodipodi.sourceforge.net/DTD/sodipodi-0.dtd"
   xmlns:xlink="http://www.w3.org/1999/xlink"
   xmlns="http://www.w3.org/2000/svg"
   xmlns:svg="http://www.w3.org/2000/svg"><sodipodi:namedview
     id="namedview4"
     pagecolor="#ffffff"
     bordercolor="#000000"
     borderopacity="0.25"
     inkscape:showpageshadow="2"
     inkscape:pageopacity="0.0"
     inkscape:pagecheckerboard="0"
     inkscape:deskcolor="#d1d1d1"
     inkscape:zoom="8.8719804"
     inkscape:cx="29.136674"
     inkscape:cy="39.450042"
     inkscape:window-width="1920"
     inkscape:window-height="1012"
     inkscape:window-x="0"
     inkscape:window-y="0"
     inkscape:window-maximized="1"
     inkscape:current-layer="g16"
     showguides="false" /><defs
     id="defs4"><linearGradient
       id="_Linear1"
       x2="1"
       gradientTransform="matrix(3.03829e-15,-49.619,49.619,3.03829e-15,104.99,51.088)"
       gradientUnits="userSpaceOnUse"><stop
         style="stop-color:#c15721"
         offset="0"
         id="stop3" /><stop
         style="stop-color:#fc9f47"
         offset="1"
         id="stop4" /></linearGradient><linearGradient
       id="_Linear1-3"
       x2="1"
       gradientTransform="matrix(0,-49.619,49.619,0,104.99,51.3535)"
       gradientUnits="userSpaceOnUse"><stop
         style="stop-color:#c15721"
         offset="0"
         id="stop3-6" /><stop
         style="stop-color:#fc9f47"
         offset="1"
         id="stop4-7" /></linearGradient><linearGradient
       inkscape:collect="always"
       xlink:href="#_Linear1-36"
       id="linearGradient2"
       x1="32"
       y1="62"
       x2="32"
       y2="1.46875"
       gradientUnits="userSpaceOnUse" /><linearGradient
       id="_Linear1-6"
       x2="1"
       gradientTransform="matrix(3.03829e-15,-49.619,49.619,3.03829e-15,104.99,51.088)"
       gradientUnits="userSpaceOnUse"><stop
         style="stop-color:#c15721"
         offset="0"
         id="stop3-2" /><stop
         style="stop-color:#fc9f47"
         offset="1"
         id="stop4-9" /></linearGradient><linearGradient
       id="_Linear1-3-1"
       x2="1"
       gradientTransform="matrix(0,-49.619,49.619,0,104.99,51.3535)"
       gradientUnits="userSpaceOnUse"><stop
         style="stop-color:#c15721"
         offset="0"
         id="stop3-6-2" /><stop
         style="stop-color:#fc9f47"
         offset="1"
         id="stop4-7-7" /></linearGradient><linearGradient
       id="_Linear1-36"
       x2="1"
       gradientTransform="matrix(3.03829e-15,-49.619,49.619,3.03829e-15,104.99,51.088)"
       gradientUnits="userSpaceOnUse"><stop
         style="stop-color:#758b9a"
         offset="0"
         id="stop2-7" /><stop
         style="stop-color:#b5bdc2"
         offset="1"
         id="stop3-5" /></linearGradient></defs><g
     id="g16"
     inkscape:label="rect v2"
     style="clip-rule:evenodd;fill-rule:evenodd;stroke-linejoin:round;stroke-miterlimit:2"><path
       d="m 15,1.46875 c -2.77,0 -5,2.23 -5,5 V 57 c 0,2.77 2.23,5 5,5 h 34 c 2.77,0 5,-2.23 5,-5 V 16.130859 L 39.337891,1.46875 Z"
       style="display:inline;fill:url(#linearGradient2);stroke-width:2.226;stroke-linecap:round;stroke-miterlimit:40;fill-opacity:1"
       id="path18" /><path
       d="M 54,16.130859 39.337891,1.46875 v 9.662109 c 0,2.77 2.23,5 5,5 z"
       style="clip-rule:evenodd;fill-rule:evenodd;stroke-linejoin:round;stroke-miterlimit:40;display:inline;fill:#7f909c;stroke-width:2.226;stroke-linecap:round;fill-opacity:1;opacity:1"
       id="path19" /><path
       d="m 43,26.3915 c 0,-0.714 -0.284,-1.399 -0.789,-1.903 -0.504,-0.505 -1.189,-0.789 -1.903,-0.789 H 23.692 c -0.714,0 -1.399,0.284 -1.903,0.789 -0.505,0.504 -0.789,1.189 -0.789,1.903 v 11.217 c 0,0.714 0.284,1.399 0.789,1.903 0.504,0.505 1.189,0.789 1.903,0.789 h 16.616 c 0.714,0 1.399,-0.284 1.903,-0.789 0.505,-0.504 0.789,-1.189 0.789,-1.903 z"
       style="clip-rule:evenodd;fill:#373e44;fill-rule:evenodd;stroke-linejoin:round;stroke-miterlimit:2"
       id="path5" /><path
       d="m 34.472,31.51 -3.55,-3.544 c -0.13,-0.138 -0.294,-0.207 -0.49,-0.207 -0.196,0 -0.359,0.069 -0.49,0.207 l -0.413,0.409 c -0.135,0.134 -0.202,0.297 -0.202,0.489 0,0.189 0.067,0.354 0.202,0.496 l 2.645,2.64 -2.646,2.646 c -0.134,0.134 -0.201,0.298 -0.201,0.49 0,0.189 0.067,0.354 0.201,0.495 l 0.414,0.409 c 0.134,0.134 0.298,0.201 0.49,0.201 0.193,0 0.356,-0.067 0.49,-0.201 l 3.55,-3.544 c 0.134,-0.142 0.201,-0.307 0.201,-0.496 0,-0.192 -0.067,-0.355 -0.201,-0.49 z"
       style="clip-rule:evenodd;fill:#9ba8b4;fill-rule:nonzero;stroke-linejoin:round;stroke-miterlimit:2"
       id="path6" /></g></svg>
