<?xml version="1.0" encoding="UTF-8" standalone="no"?>
<svg
   style="clip-rule:evenodd;fill-rule:evenodd;stroke-linejoin:round;stroke-miterlimit:2"
   viewBox="0 0 64 64"
   version="1.1"
   id="svg4"
   sodipodi:docname="svg.svg"
   xml:space="preserve"
   inkscape:version="1.4.3 (0d15f75042, 2025-12-25)"
   xmlns:inkscape="http://www.inkscape.org/namespaces/inkscape"
   xmlns:sodipodi="http://sodipodi.sourceforge.net/DTD/sodipodi-0.dtd"
   xmlns:xlink="http://www.w3.org/1999/xlink"
   xmlns="http://www.w3.org/2000/svg"
   xmlns:svg="http://www.w3.org/2000/svg"><sodipodi:namedview
     id="namedview4"
     pagecolor="#ffffff"
     bordercolor="#000000"
     borderopacity="0.25"
     inkscape:showpageshadow="2"
     inkscape:pageopacity="0.0"
     inkscape:pagecheckerboard="0"
     inkscape:deskcolor="#d1d1d1"
     inkscape:zoom="6.2734375"
     inkscape:cx="29.648817"
     inkscape:cy="54.03736"
     inkscape:window-width="1920"
     inkscape:window-height="1012"
     inkscape:window-x="0"
     inkscape:window-y="0"
     inkscape:window-maximized="1"
     inkscape:current-layer="g3"
     showguides="false" /><defs
     id="defs4"><linearGradient
       id="linearGradient4"
       inkscape:collect="always"><stop
         style="stop-color:#f28e00;stop-opacity:1;"
         offset="0"
         id="stop5" /><stop
         style="stop-color:#ffbb57;stop-opacity:1;"
         offset="1"
         id="stop6" /></linearGradient><linearGradient
       id="_Linear1"
       x2="1"
       gradientTransform="matrix(3.03829e-15,-49.619,49.619,3.03829e-15,104.99,51.088)"
       gradientUnits="userSpaceOnUse"><stop
         style="stop-color:#c15721"
         offset="0"
         id="stop3" /><stop
         style="stop-color:#fc9f47"
         offset="1"
         id="stop4" /></linearGradient><linearGradient
       id="_Linear1-3"
       x2="1"
       gradientTransform="matrix(0,-49.619,49.619,0,104.99,51.3535)"
       gradientUnits="userSpaceOnUse"><stop
         style="stop-color:#c15721"
         offset="0"
         id="stop3-6" /><stop
         style="stop-color:#fc9f47"
         offset="1"
         id="stop4-7" /></linearGradient><linearGradient
       inkscape:collect="always"
       xlink:href="#linearGradient4"
       id="linearGradient6"
       x1="32"
       y1="62"
       x2="32"
       y2="1.46875"
       gradientUnits="userSpaceOnUse" /></defs><g
     id="g16"
     inkscape:label="rect v2"
     style="clip-rule:evenodd;fill-rule:evenodd;stroke-linejoin:round;stroke-miterlimit:2"><path
       d="m 15,1.46875 c -2.77,0 -5,2.23 -5,5 V 57 c 0,2.77 2.23,5 5,5 h 34 c 2.77,0 5,-2.23 5,-5 V 16.130859 L 39.337891,1.46875 Z"
       style="display:inline;fill:url(#linearGradient6);stroke-width:2.226;stroke-linecap:round;stroke-miterlimit:40;fill-opacity:1"
       id="path18" /><path
       d="M 54,16.130859 39.337891,1.46875 v 9.662109 c 0,2.77 2.23,5 5,5 z"
       style="clip-rule:evenodd;fill-rule:evenodd;stroke-linejoin:round;stroke-miterlimit:40;display:inline;fill:#000000;stroke-width:2.226;stroke-linecap:round;fill-opacity:0.30000001;opacity:1"
       id="path19" /></g><g
     id="g3"
     transform="matrix(3.779602,0,0,3.779602,4.605649,1.9049194)"
     style="clip-rule:evenodd;fill:#ca1f55;fill-opacity:1;fill-rule:evenodd;stroke-linejoin:round;stroke-miterlimit:2"
     inkscape:label="glyph"><path
       id="path3-5"
       style="color:#000000;clip-rule:evenodd;fill:#ffffff;fill-rule:evenodd;stroke-width:0.199053;stroke-linejoin:round;stroke-miterlimit:2;-inkscape-stroke:none"
       d="m 4.1626159,6.1794761 a 0.99526785,0.99526785 0 0 0 -0.995268,0.995268 0.99526785,0.99526785 0 0 0 0.995268,0.9952677 0.99526785,0.99526785 0 0 0 0.424155,-0.095639 l 1.10257,1.1947102 a 0.99526785,0.99526785 0 0 0 -0.13335,0.4933573 0.99526785,0.99526785 0 0 0 0.995267,0.9952677 0.99526785,0.99526785 0 0 0 0.988271,-0.8984621 L 9.4682489,9.453363 A 0.99526785,0.99526785 0 0 0 10.333276,9.961494 0.99526785,0.99526785 0 0 0 11.328544,8.966226 0.99526785,0.99526785 0 0 0 10.333276,7.9709583 0.99526785,0.99526785 0 0 0 9.3450069,8.8694208 l -1.926388,0.405494 a 0.99526785,0.99526785 0 0 0 -0.867361,-0.5077422 0.99526785,0.99526785 0 0 0 -0.424155,0.095639 l -1.10257,-1.1947102 a 0.99526785,0.99526785 0 0 0 0.13335,-0.4933575 0.99526785,0.99526785 0 0 0 -0.995267,-0.9952678 z" /></g></svg>
