<?xml version="1.0" encoding="UTF-8" standalone="no"?>
<svg
   style="clip-rule:evenodd;fill-rule:evenodd;stroke-linejoin:round;stroke-miterlimit:2"
   viewBox="0 0 64 64"
   version="1.1"
   id="svg4"
   sodipodi:docname="rss.svg"
   xml:space="preserve"
   inkscape:version="1.4.3 (0d15f75042, 2025-12-25)"
   xmlns:inkscape="http://www.inkscape.org/namespaces/inkscape"
   xmlns:sodipodi="http://sodipodi.sourceforge.net/DTD/sodipodi-0.dtd"
   xmlns:xlink="http://www.w3.org/1999/xlink"
   xmlns="http://www.w3.org/2000/svg"
   xmlns:svg="http://www.w3.org/2000/svg"><sodipodi:namedview
     id="namedview4"
     pagecolor="#ffffff"
     bordercolor="#000000"
     borderopacity="0.25"
     inkscape:showpageshadow="2"
     inkscape:pageopacity="0.0"
     inkscape:pagecheckerboard="0"
     inkscape:deskcolor="#d1d1d1"
     inkscape:zoom="2.2179951"
     inkscape:cx="3.1560034"
     inkscape:cy="4.0577186"
     inkscape:window-width="1920"
     inkscape:window-height="1012"
     inkscape:window-x="0"
     inkscape:window-y="0"
     inkscape:window-maximized="1"
     inkscape:current-layer="g16"
     showguides="false" /><defs
     id="defs4"><linearGradient
       id="_Linear1"
       x2="1"
       gradientTransform="matrix(3.03829e-15,-49.619,49.619,3.03829e-15,104.99,51.088)"
       gradientUnits="userSpaceOnUse"><stop
         style="stop-color:#c15721"
         offset="0"
         id="stop3" /><stop
         style="stop-color:#fc9f47"
         offset="1"
         id="stop4" /></linearGradient><linearGradient
       id="_Linear1-3"
       x2="1"
       gradientTransform="matrix(0,-49.619,49.619,0,104.99,51.3535)"
       gradientUnits="userSpaceOnUse"><stop
         style="stop-color:#c15721"
         offset="0"
         id="stop3-6" /><stop
         style="stop-color:#fc9f47"
         offset="1"
         id="stop4-7" /></linearGradient><linearGradient
       inkscape:collect="always"
       xlink:href="#_Linear1-36"
       id="linearGradient23"
       x1="32"
       y1="62"
       x2="32"
       y2="1.46875"
       gradientUnits="userSpaceOnUse" /><linearGradient
       id="_Linear1-36"
       x2="1"
       gradientTransform="matrix(3.03829e-15,-49.619,49.619,3.03829e-15,104.99,51.088)"
       gradientUnits="userSpaceOnUse"><stop
         style="stop-color:#ff781b"
         offset="0"
         id="stop4-75" /><stop
         style="stop-color:#fbb221"
         offset="1"
         id="stop5" /></linearGradient></defs><g
     id="g16"
     inkscape:label="rect v2"
     style="clip-rule:evenodd;fill-rule:evenodd;stroke-linejoin:round;stroke-miterlimit:2"><path
       d="m 15,1.46875 c -2.77,0 -5,2.23 -5,5 V 57 c 0,2.77 2.23,5 5,5 h 34 c 2.77,0 5,-2.23 5,-5 V 16.130859 L 39.337891,1.46875 Z"
       style="display:inline;fill:url(#linearGradient23);stroke-width:2.226;stroke-linecap:round;stroke-miterlimit:40;fill-opacity:1"
       id="path18" /><path
       d="M 54,16.130859 39.337891,1.46875 v 9.662109 c 0,2.77 2.23,5 5,5 z"
       style="clip-rule:evenodd;fill-rule:evenodd;stroke-linejoin:round;stroke-miterlimit:40;display:inline;fill:#000000;stroke-width:2.226;stroke-linecap:round;fill-opacity:0.30000001;opacity:1"
       id="path19" /></g><g
     id="g1"
     inkscape:label="glyph"><path
       d="m 14.330509,54.099189 c 0,-0.764395 0.26183,-1.407181 0.791695,-1.922155 0.506287,-0.517455 1.204914,-0.802862 1.928358,-0.787971 0.745781,0 1.373677,0.26183 1.889891,0.787971 0.524901,0.514974 0.787971,1.15776 0.787971,1.922155 0.01117,0.715999 -0.274238,1.405939 -0.787971,1.904781 -0.49636,0.507528 -1.180096,0.787972 -1.889891,0.773081 -0.720963,0.01613 -1.418348,-0.264312 -1.928358,-0.773081 -0.517456,-0.49636 -0.805344,-1.187541 -0.791695,-1.904781 M 14.175397,41.85771 v 4.511912 c 5.759017,0 10.434728,4.685639 10.434728,10.454583 h 4.521844 c 0,-8.263153 -6.707069,-14.961531 -14.961536,-14.961531 z M 14.180397,32 v 4.984696 c 10.872729,0.01365 19.813412,8.965502 19.810932,19.839509 h 4.99959 C 38.988429,43.212773 27.791793,32.009928 14.180361,32 Z"
       fill="#ffffff"
       fill-opacity="0.7"
       fill-rule="nonzero"
       id="path3-5"
       style="clip-rule:evenodd;fill-rule:evenodd;stroke-width:1.2409;stroke-linejoin:round;stroke-miterlimit:2" /></g></svg>
