<?xml version="1.0" encoding="UTF-8" standalone="no"?>
<svg
   style="clip-rule:evenodd;fill-rule:evenodd;stroke-linejoin:round;stroke-miterlimit:2"
   viewBox="0 0 64 64"
   version="1.1"
   id="svg4"
   sodipodi:docname="text-3-kora.svg"
   xml:space="preserve"
   inkscape:version="1.4.4 (dcaf3e7d9e, 2026-05-05)"
   xmlns:inkscape="http://www.inkscape.org/namespaces/inkscape"
   xmlns:sodipodi="http://sodipodi.sourceforge.net/DTD/sodipodi-0.dtd"
   xmlns:xlink="http://www.w3.org/1999/xlink"
   xmlns="http://www.w3.org/2000/svg"
   xmlns:svg="http://www.w3.org/2000/svg"><sodipodi:namedview
     id="namedview4"
     pagecolor="#ffffff"
     bordercolor="#000000"
     borderopacity="0.25"
     inkscape:showpageshadow="2"
     inkscape:pageopacity="0.0"
     inkscape:pagecheckerboard="0"
     inkscape:deskcolor="#d1d1d1"
     inkscape:zoom="2.2179951"
     inkscape:cx="-60.865779"
     inkscape:cy="-32.010891"
     inkscape:window-width="1920"
     inkscape:window-height="1012"
     inkscape:window-x="0"
     inkscape:window-y="0"
     inkscape:window-maximized="1"
     inkscape:current-layer="g16"
     showguides="false" /><defs
     id="defs4"><linearGradient
       id="_Linear1"
       x2="1"
       gradientTransform="matrix(3.03829e-15,-49.619,49.619,3.03829e-15,104.99,51.088)"
       gradientUnits="userSpaceOnUse"><stop
         style="stop-color:#c15721"
         offset="0"
         id="stop3" /><stop
         style="stop-color:#fc9f47"
         offset="1"
         id="stop4" /></linearGradient><linearGradient
       id="_Linear1-3"
       x2="1"
       gradientTransform="matrix(0,-49.619,49.619,0,104.99,51.3535)"
       gradientUnits="userSpaceOnUse"><stop
         style="stop-color:#c15721"
         offset="0"
         id="stop3-6" /><stop
         style="stop-color:#fc9f47"
         offset="1"
         id="stop4-7" /></linearGradient><linearGradient
       inkscape:collect="always"
       xlink:href="#_Linear1-36"
       id="linearGradient2"
       x1="32"
       y1="62"
       x2="32"
       y2="1.46875"
       gradientUnits="userSpaceOnUse" /><linearGradient
       id="_Linear1-6"
       x2="1"
       gradientTransform="matrix(3.03829e-15,-49.619,49.619,3.03829e-15,104.99,51.088)"
       gradientUnits="userSpaceOnUse"><stop
         style="stop-color:#c15721"
         offset="0"
         id="stop3-2" /><stop
         style="stop-color:#fc9f47"
         offset="1"
         id="stop4-9" /></linearGradient><linearGradient
       id="_Linear1-3-1"
       x2="1"
       gradientTransform="matrix(0,-49.619,49.619,0,104.99,51.3535)"
       gradientUnits="userSpaceOnUse"><stop
         style="stop-color:#c15721"
         offset="0"
         id="stop3-6-2" /><stop
         style="stop-color:#fc9f47"
         offset="1"
         id="stop4-7-7" /></linearGradient><linearGradient
       id="_Linear1-36"
       x2="1"
       gradientTransform="matrix(3.03829e-15,-49.619,49.619,3.03829e-15,104.99,51.088)"
       gradientUnits="userSpaceOnUse"><stop
         style="stop-color:#758b9a"
         offset="0"
         id="stop2-7" /><stop
         style="stop-color:#b5bdc2"
         offset="1"
         id="stop3-5" /></linearGradient></defs><g
     id="g16"
     inkscape:label="rect v2"
     style="clip-rule:evenodd;fill-rule:evenodd;stroke-linejoin:round;stroke-miterlimit:2"><path
       d="m 15,1.46875 c -2.77,0 -5,2.23 -5,5 V 57 c 0,2.77 2.23,5 5,5 h 34 c 2.77,0 5,-2.23 5,-5 V 16.130859 L 39.337891,1.46875 Z"
       style="display:inline;fill:url(#linearGradient2);stroke-width:2.226;stroke-linecap:round;stroke-miterlimit:40;fill-opacity:1"
       id="path18" /><path
       d="M 54,16.130859 39.337891,1.46875 v 9.662109 c 0,2.77 2.23,5 5,5 z"
       style="clip-rule:evenodd;fill-rule:evenodd;stroke-linejoin:round;stroke-miterlimit:40;display:inline;fill:#7f909c;stroke-width:2.226;stroke-linecap:round;fill-opacity:1;opacity:1"
       id="path19" /><path
       d="m 31.772434,27.988364 -9.634,12.331 c -1.806,2.312 -1.301,6.431 1.011,8.237 2.312,1.807 6.431,1.301 8.237,-1.011 l 9.634,-12.331 1.204,-1.542 c 1.204,-1.54 0.868,-4.286 -0.674,-5.491 -1.541,-1.204 -4.287,-0.867 -5.491,0.675 l -1.204,1.541 -7.226,9.248 -1.204,1.542 c -0.602,0.77 -0.433,2.143 0.337,2.745 0.771,0.602 2.144,0.434 2.746,-0.336 l 8.429,-10.791 1.542,1.205 -8.43,10.79 c -1.204,1.541 -3.949,1.878 -5.491,0.674 -1.542,-1.205 -1.878,-3.951 -0.674,-5.491 l 1.204,-1.542 8.429,-10.789 c 1.807,-2.312 5.925,-2.818 8.238,-1.011 2.312,1.806 2.817,5.924 1.011,8.236 l -1.204,1.541 -9.635,12.331 c -2.408,3.083 -7.9,3.758 -10.982,1.349 -3.083,-2.409 -3.756,-7.9 -1.349,-10.982 l 9.635,-12.332 z"
       style="clip-rule:evenodd;fill:#464d55;fill-rule:nonzero;stroke-linejoin:round;stroke-miterlimit:2"
       id="path2" /></g></svg>
