<?xml version="1.0" encoding="UTF-8" standalone="no"?>
<svg
   style="clip-rule:evenodd;fill-rule:evenodd;stroke-linejoin:round;stroke-miterlimit:2"
   viewBox="0 0 64 64"
   version="1.1"
   id="svg4"
   sodipodi:docname="json.svg"
   xml:space="preserve"
   inkscape:version="1.4.3 (0d15f75042, 2025-12-25)"
   xmlns:inkscape="http://www.inkscape.org/namespaces/inkscape"
   xmlns:sodipodi="http://sodipodi.sourceforge.net/DTD/sodipodi-0.dtd"
   xmlns:xlink="http://www.w3.org/1999/xlink"
   xmlns="http://www.w3.org/2000/svg"
   xmlns:svg="http://www.w3.org/2000/svg"><sodipodi:namedview
     id="namedview4"
     pagecolor="#ffffff"
     bordercolor="#000000"
     borderopacity="0.25"
     inkscape:showpageshadow="2"
     inkscape:pageopacity="0.0"
     inkscape:pagecheckerboard="0"
     inkscape:deskcolor="#d1d1d1"
     inkscape:zoom="6.2734375"
     inkscape:cx="30.924035"
     inkscape:cy="32.836862"
     inkscape:window-width="1920"
     inkscape:window-height="1012"
     inkscape:window-x="0"
     inkscape:window-y="0"
     inkscape:window-maximized="1"
     inkscape:current-layer="g16"
     showguides="false" /><defs
     id="defs4"><linearGradient
       id="linearGradient1"
       inkscape:collect="always"><stop
         style="stop-color:#cccccc;stop-opacity:1;"
         offset="0"
         id="stop1" /><stop
         style="stop-color:#ffffff;stop-opacity:1;"
         offset="1"
         id="stop6" /></linearGradient><linearGradient
       id="linearGradient5"><stop
         offset="0"
         id="stop2"
         style="stop-color:#000000;stop-opacity:1;" /><stop
         stop-color="#fff"
         offset="1"
         id="stop5"
         style="stop-color:#000000;stop-opacity:0.5;" /></linearGradient><linearGradient
       id="_Linear1"
       x2="1"
       gradientTransform="matrix(3.03829e-15,-49.619,49.619,3.03829e-15,104.99,51.088)"
       gradientUnits="userSpaceOnUse"><stop
         style="stop-color:#c15721"
         offset="0"
         id="stop3" /><stop
         style="stop-color:#fc9f47"
         offset="1"
         id="stop4" /></linearGradient><linearGradient
       id="_Linear1-3"
       x2="1"
       gradientTransform="matrix(0,-49.619,49.619,0,104.99,51.3535)"
       gradientUnits="userSpaceOnUse"><stop
         style="stop-color:#c15721"
         offset="0"
         id="stop3-6" /><stop
         style="stop-color:#fc9f47"
         offset="1"
         id="stop4-7" /></linearGradient><linearGradient
       xlink:href="#linearGradient5"
       id="linearGradient6271"
       gradientUnits="userSpaceOnUse"
       gradientTransform="matrix(0.29965176,0,0,0.29960976,-85.05568,-167.51417)"
       x1="-553.27002"
       y1="525.90997"
       x2="-666.12"
       y2="413.04999" /><linearGradient
       id="linearGradient1117"><stop
         offset="0"
         id="stop1113"
         style="stop-color:#000000;stop-opacity:1;" /><stop
         stop-color="#fff"
         offset="1"
         id="stop1115"
         style="stop-color:#000000;stop-opacity:0.5;" /></linearGradient><linearGradient
       xlink:href="#linearGradient1117"
       id="linearGradient6273"
       gradientUnits="userSpaceOnUse"
       gradientTransform="matrix(0.29965176,0,0,0.29960976,-85.05568,-167.52851)"
       x1="-666.12"
       y1="413.04001"
       x2="-553.27002"
       y2="525.90997" /><linearGradient
       inkscape:collect="always"
       xlink:href="#linearGradient1"
       id="linearGradient6"
       x1="32"
       y1="62"
       x2="32"
       y2="1.46875"
       gradientUnits="userSpaceOnUse" /></defs><g
     id="g16"
     inkscape:label="rect v2"
     style="clip-rule:evenodd;fill-rule:evenodd;stroke-linejoin:round;stroke-miterlimit:2"><path
       d="m 15,1.46875 c -2.77,0 -5,2.23 -5,5 V 57 c 0,2.77 2.23,5 5,5 h 34 c 2.77,0 5,-2.23 5,-5 V 16.130859 L 39.337891,1.46875 Z"
       style="display:inline;fill:url(#linearGradient6);stroke-width:2.226;stroke-linecap:round;stroke-miterlimit:40;fill-opacity:1"
       id="path18" /><path
       d="M 54,16.130859 39.337891,1.46875 v 9.662109 c 0,2.77 2.23,5 5,5 z"
       style="clip-rule:evenodd;fill-rule:evenodd;stroke-linejoin:round;stroke-miterlimit:40;display:inline;fill:#000000;stroke-width:2.226;stroke-linecap:round;fill-opacity:0.30000001;opacity:1"
       id="path19" /></g><g
     id="g1402-9"
     transform="matrix(0.53269811,0,0,0.53268992,174.63428,46.309279)"
     inkscape:label="glyph"><path
       d="m -267.81163,-38.441976 c -7.01699,-2.418568 -15.61289,3.364797 -15.61289,14.948688 0,18.9143849 14.01629,20.6309839 15.71519,20.6309839 12.26759,0 23.95078,-10.1387919 23.95078,-24.0107809 0,-15.418788 -13.39199,-23.959481 -23.95078,-23.959481 2.92443,-0.405 15.76229,3.164997 15.76229,20.711083 0,11.442291 -9.58589,17.671486 -15.82049,15.009888 -0.14323,-0.05312 -7.05419,-2.779347 -7.05419,-11.68529 0,-8.867993 7.01009,-11.645391 7.01009,-11.645391 z"
       color="#000000"
       fill="url(#linearGradient3002)"
       id="path15-6-3"
       style="fill:url(#linearGradient6271);fill-rule:evenodd;stroke-width:0.3" /><path
       id="path13-7-6"
       style="fill:url(#linearGradient6273);fill-rule:evenodd;stroke-width:0.3"
       d="m -267.80859,-50.847656 c -12.26758,0 -23.94922,10.139743 -23.94922,24.011718 0,15.418773 13.39044,23.9589849 23.94922,23.9589849 -0.0132,-0.0019 -0.0314,-0.00583 -0.0449,-0.00781 -2.13257,-0.072455 -15.57031,-2.0825753 -15.57031,-20.6230459 0,-11.58388 8.59435,-17.367786 15.61133,-14.949219 0,0 -0.0168,0.0075 -0.0176,0.0078 0.002,6.76e-4 0.004,0.0013 0.006,0.002 0.14323,0.05312 7.05274,2.779613 7.05274,11.685547 0,8.867984 -7.02735,11.615235 -7.02735,11.615235 0.003,0.0043 0.007,0.0074 0.01,0.01172 0.002,7.48e-4 0.0204,0.0093 0.0215,0.0098 6.2346,2.661595 15.82031,-3.569439 15.82031,-15.011719 0,-14.252263 -8.46933,-19.281626 -13.21679,-20.451172 -0.001,-2.48e-4 -0.003,-0.0017 -0.004,-0.002 -0.92899,-0.16789 -1.81961,-0.257812 -2.64062,-0.257812 z" /></g></svg>
