<?xml version="1.0" encoding="UTF-8" standalone="no"?>
<svg
   style="clip-rule:evenodd;fill-rule:evenodd;stroke-linejoin:round;stroke-miterlimit:2"
   viewBox="0 0 64 64"
   version="1.1"
   id="svg4"
   sodipodi:docname="markdown-2.svg"
   xml:space="preserve"
   inkscape:version="1.4.4 (dcaf3e7d9e, 2026-05-05)"
   xmlns:inkscape="http://www.inkscape.org/namespaces/inkscape"
   xmlns:sodipodi="http://sodipodi.sourceforge.net/DTD/sodipodi-0.dtd"
   xmlns:xlink="http://www.w3.org/1999/xlink"
   xmlns="http://www.w3.org/2000/svg"
   xmlns:svg="http://www.w3.org/2000/svg"><sodipodi:namedview
     id="namedview4"
     pagecolor="#ffffff"
     bordercolor="#000000"
     borderopacity="0.25"
     inkscape:showpageshadow="2"
     inkscape:pageopacity="0.0"
     inkscape:pagecheckerboard="0"
     inkscape:deskcolor="#d1d1d1"
     inkscape:zoom="6.2734375"
     inkscape:cx="19.686177"
     inkscape:cy="39.212951"
     inkscape:window-width="1920"
     inkscape:window-height="1012"
     inkscape:window-x="0"
     inkscape:window-y="0"
     inkscape:window-maximized="1"
     inkscape:current-layer="g1"
     showguides="false" /><defs
     id="defs4"><linearGradient
       id="_Linear1"
       x2="1"
       gradientTransform="matrix(3.03829e-15,-49.619,49.619,3.03829e-15,104.99,51.088)"
       gradientUnits="userSpaceOnUse"><stop
         style="stop-color:#c15721"
         offset="0"
         id="stop3" /><stop
         style="stop-color:#fc9f47"
         offset="1"
         id="stop4" /></linearGradient><linearGradient
       id="_Linear1-3"
       x2="1"
       gradientTransform="matrix(0,-49.619,49.619,0,104.99,51.3535)"
       gradientUnits="userSpaceOnUse"><stop
         style="stop-color:#c15721"
         offset="0"
         id="stop3-6" /><stop
         style="stop-color:#fc9f47"
         offset="1"
         id="stop4-7" /></linearGradient><linearGradient
       inkscape:collect="always"
       xlink:href="#_Linear1-36"
       id="linearGradient2"
       x1="32"
       y1="62"
       x2="32"
       y2="1.46875"
       gradientUnits="userSpaceOnUse" /><linearGradient
       id="_Linear1-36"
       x2="1"
       gradientTransform="matrix(0,-49.619,49.619,0,104.99,51.088)"
       gradientUnits="userSpaceOnUse"><stop
         style="stop-color:#758b9a"
         offset="0"
         id="stop2-7" /><stop
         style="stop-color:#b5bdc2"
         offset="1"
         id="stop3-5" /></linearGradient></defs><g
     id="g16"
     inkscape:label="rect v2"
     style="clip-rule:evenodd;fill-rule:evenodd;stroke-linejoin:round;stroke-miterlimit:2"><path
       d="m 15,1.46875 c -2.77,0 -5,2.23 -5,5 V 57 c 0,2.77 2.23,5 5,5 h 34 c 2.77,0 5,-2.23 5,-5 V 16.130859 L 39.337891,1.46875 Z"
       style="display:inline;fill:url(#linearGradient2);stroke-width:2.226;stroke-linecap:round;stroke-miterlimit:40;fill-opacity:1"
       id="path18" /><path
       d="M 54,16.130859 39.337891,1.46875 v 9.662109 c 0,2.77 2.23,5 5,5 z"
       style="clip-rule:evenodd;fill-rule:evenodd;stroke-linejoin:round;stroke-miterlimit:40;display:inline;fill:#000000;stroke-width:2.226;stroke-linecap:round;fill-opacity:0.30000001;opacity:1"
       id="path19" /></g><g
     id="g1"
     transform="matrix(0.56250003,0,0,0.56250003,3.8749974,11.74626)"
     inkscape:label="glyph"><path
       id="rect2801-6-3-0"
       style="display:inline;fill:#464d55;fill-opacity:0.30000001;stroke-width:2;stroke-linecap:round;paint-order:markers stroke fill;enable-background:new;stop-color:#000000"
       d="m 20,6 35.990519,0.01859 c 1.108,5.72e-4 2,0.892 2,2 0,1.108 -0.892,2.000572 -2,2 L 20,10 C 18.892001,9.999428 18,9.108 18,8 18,6.892 18.892,5.999428 20,6 Z" /><path
       id="rect2801-6-3-0-6"
       style="display:inline;fill:#464d55;fill-opacity:0.30000001;stroke-width:2;stroke-linecap:round;paint-order:markers stroke fill;enable-background:new;stop-color:#000000"
       d="m 20,-2 35.990519,0.01859 c 1.108,5.72e-4 2,0.892 2,2 0,1.108 -0.892,2.000572 -2,2 L 20,2 c -1.107999,-5.72e-4 -2,-0.892 -2,-2 0,-1.108 0.892,-2.000572 2,-2 z" /><rect
       style="display:inline;fill:#464d55;fill-opacity:0.30000001;stroke-width:2;stroke-linecap:round;paint-order:markers stroke fill;enable-background:new;stop-color:#000000"
       id="rect2795"
       width="64"
       height="4"
       x="18"
       y="46.009296"
       rx="2"
       ry="2" /><rect
       style="display:inline;fill:#464d55;fill-opacity:0.30000001;stroke-width:2;stroke-linecap:round;paint-order:markers stroke fill;enable-background:new;stop-color:#000000"
       id="rect2797"
       width="64"
       height="4"
       x="18"
       y="38.009296"
       rx="2"
       ry="2" /><rect
       style="display:inline;fill:#464d55;fill-opacity:0.30000001;stroke-width:2;stroke-linecap:round;paint-order:markers stroke fill;enable-background:new;stop-color:#000000"
       id="rect2799"
       width="64"
       height="4"
       x="18"
       y="30.009295"
       rx="2"
       ry="2" /><rect
       style="display:inline;fill:#464d55;fill-opacity:0.30000001;stroke-width:2;stroke-linecap:round;paint-order:markers stroke fill;enable-background:new;stop-color:#000000"
       id="rect2801"
       width="64"
       height="4"
       x="18"
       y="22.009295"
       rx="2"
       ry="2" /><rect
       style="display:inline;fill:#464d55;fill-opacity:0.30000001;stroke-width:2;stroke-linecap:round;paint-order:markers stroke fill;enable-background:new;stop-color:#000000"
       id="rect2801-3"
       width="64"
       height="4"
       x="18.000002"
       y="14.009295"
       rx="2"
       ry="2" /><path
       id="rect2801-6-3-6-2"
       style="display:inline;fill:#464d55;fill-opacity:0.30000001;stroke-width:2;stroke-linecap:round;paint-order:markers stroke fill;enable-background:new;stop-color:#000000"
       d="M 56.575804,54.013295 80,54.005295 c 1.108,-3.78e-4 2,0.892 2,2 0,1.108 -0.892,1.999622 -2,2 l -23.424196,0.008 c -1.108,3.78e-4 -2,-0.892 -2,-2 0,-1.108 0.892,-1.999622 2,-2 z" /><path
       id="rect2801-6-3-6-2-6"
       style="display:inline;fill:#464d55;fill-opacity:0.30000001;stroke-width:2;stroke-linecap:round;paint-order:markers stroke fill;enable-background:new;stop-color:#000000"
       d="m 56.575804,62.013295 23.4242,-0.008 c 1.108,-3.78e-4 2,0.892 2,2 0,1.108 -0.892,1.999622 -2,2 l -23.4242,0.008 c -1.108,3.78e-4 -2,-0.892 -2,-2 0,-1.108 0.892,-1.999622 2,-2 z" /><path
       id="rect2801-6-3-6-2-1"
       style="display:inline;fill:#464d55;fill-opacity:0.30000001;stroke-width:2;stroke-linecap:round;paint-order:markers stroke fill;enable-background:new;stop-color:#000000"
       d="m 56.575804,70.013295 23.424191,-0.008 c 1.10801,-3.78e-4 2,0.892 2,2 0,1.108 -0.89199,1.99962 -2,2 l -23.424191,0.008 c -1.108,3.7e-4 -2,-0.892 -2,-2 0,-1.108 0.892,-1.99962 2,-2 z" /><path
       id="path1568"
       style="clip-rule:evenodd;fill:#464d55;fill-opacity:1;fill-rule:evenodd;stroke-width:0.156305;stroke-linejoin:round;stroke-miterlimit:2"
       d="m 22.689069,69.323907 v -10.62875 h 3.126109 l 3.126101,3.907626 3.126101,-3.907626 h 3.126101 v 10.62875 H 32.06738 v -6.0959 l -3.126101,3.907626 -3.126101,-3.907626 v 6.0959 z m 19.538147,0 -4.689151,-5.158073 h 3.126101 v -5.470677 h 3.1261 v 5.470677 h 3.126101 z M 20.343742,54.005295 C 19.058366,54.005295 18,55.065255 18,56.350631 v 15.317324 c 0,1.28538 1.058366,2.34534 2.343742,2.34534 h 27.823129 c 1.285376,0 2.345336,-1.05996 2.345336,-2.34534 V 56.350631 c 0,-1.285376 -1.05996,-2.345336 -2.345336,-2.345336 z m 0,1.563026 h 27.823129 c 0.446483,0 0.780716,0.335827 0.780716,0.78231 v 15.317324 c 0,0.44649 -0.334233,0.78231 -0.780716,0.78231 H 20.343742 c -0.446483,0 -0.780716,-0.33582 -0.780716,-0.78231 V 56.350631 c 0,-0.446483 0.334233,-0.78231 0.780716,-0.78231 z" /></g></svg>
