<?xml version="1.0" encoding="UTF-8" standalone="no"?>
<svg
   style="clip-rule:evenodd;fill-rule:evenodd;stroke-linejoin:round;stroke-miterlimit:2"
   viewBox="0 0 64 64"
   version="1.1"
   id="svg4"
   sodipodi:docname="python.svg"
   xml:space="preserve"
   inkscape:version="1.4.3 (0d15f75042, 2025-12-25)"
   xmlns:inkscape="http://www.inkscape.org/namespaces/inkscape"
   xmlns:sodipodi="http://sodipodi.sourceforge.net/DTD/sodipodi-0.dtd"
   xmlns:xlink="http://www.w3.org/1999/xlink"
   xmlns="http://www.w3.org/2000/svg"
   xmlns:svg="http://www.w3.org/2000/svg"><sodipodi:namedview
     id="namedview4"
     pagecolor="#ffffff"
     bordercolor="#000000"
     borderopacity="0.25"
     inkscape:showpageshadow="2"
     inkscape:pageopacity="0.0"
     inkscape:pagecheckerboard="0"
     inkscape:deskcolor="#d1d1d1"
     inkscape:zoom="6.2734375"
     inkscape:cx="35.387298"
     inkscape:cy="29.808219"
     inkscape:window-width="1920"
     inkscape:window-height="1012"
     inkscape:window-x="0"
     inkscape:window-y="0"
     inkscape:window-maximized="1"
     inkscape:current-layer="g16"
     showguides="false" /><defs
     id="defs4"><linearGradient
       id="linearGradient22"
       inkscape:collect="always"><stop
         style="stop-color:#204a6a;stop-opacity:1;"
         offset="0"
         id="stop22" /><stop
         style="stop-color:#306998;stop-opacity:1;"
         offset="1"
         id="stop23" /></linearGradient><linearGradient
       id="_Linear1"
       x2="1"
       gradientTransform="matrix(3.03829e-15,-49.619,49.619,3.03829e-15,104.99,51.088)"
       gradientUnits="userSpaceOnUse"><stop
         style="stop-color:#c15721"
         offset="0"
         id="stop3" /><stop
         style="stop-color:#fc9f47"
         offset="1"
         id="stop4" /></linearGradient><linearGradient
       id="_Linear1-3"
       x2="1"
       gradientTransform="matrix(0,-49.619,49.619,0,104.99,51.3535)"
       gradientUnits="userSpaceOnUse"><stop
         style="stop-color:#c15721"
         offset="0"
         id="stop3-6" /><stop
         style="stop-color:#fc9f47"
         offset="1"
         id="stop4-7" /></linearGradient><linearGradient
       inkscape:collect="always"
       xlink:href="#linearGradient22"
       id="linearGradient23"
       x1="32"
       y1="62"
       x2="32"
       y2="1.46875"
       gradientUnits="userSpaceOnUse" /></defs><g
     id="g16"
     inkscape:label="rect v2"
     style="clip-rule:evenodd;fill-rule:evenodd;stroke-linejoin:round;stroke-miterlimit:2"><path
       d="m 15,1.46875 c -2.77,0 -5,2.23 -5,5 V 57 c 0,2.77 2.23,5 5,5 h 34 c 2.77,0 5,-2.23 5,-5 V 16.130859 L 39.337891,1.46875 Z"
       style="display:inline;fill:url(#linearGradient23);stroke-width:2.226;stroke-linecap:round;stroke-miterlimit:40;fill-opacity:1"
       id="path18" /><path
       d="M 54,16.130859 39.337891,1.46875 v 9.662109 c 0,2.77 2.23,5 5,5 z"
       style="clip-rule:evenodd;fill-rule:evenodd;stroke-linejoin:round;stroke-miterlimit:40;display:inline;fill:#000000;stroke-width:2.226;stroke-linecap:round;fill-opacity:0.30000001;opacity:1"
       id="path19" /></g><g
     id="g1"
     inkscape:label="glyph"
     transform="translate(0.4405729,-1.3188611)"><path
       style="fill:#ffffff;fill-opacity:1;stroke-width:0.234165"
       d="m 31.404434,20.160308 c -1.073329,0.005 -2.098334,0.09652 -3.000233,0.256117 -2.656884,0.469384 -3.13927,1.451845 -3.13927,3.263671 v 2.392871 h 6.278538 v 0.797623 h -6.278538 -2.356283 c -1.824719,0 -3.422495,1.096761 -3.922258,3.183176 -0.576472,2.391516 -0.602043,3.883861 0,6.380988 0.446299,1.858765 1.512128,3.183177 3.336846,3.183177 h 2.158707 v -2.868517 c 0,-2.072336 1.793031,-3.900306 3.922258,-3.900307 h 6.271221 c 1.745689,0 3.139273,-1.437341 3.139272,-3.190493 v -5.978518 c 0,-1.701521 -1.435427,-2.979693 -3.139272,-3.263671 -1.078558,-0.17954 -2.197656,-0.261105 -3.270988,-0.256117 z m -3.395385,1.924541 c 0.648527,0 1.178141,0.538262 1.178141,1.200094 -3e-6,0.659486 -0.529614,1.192777 -1.178141,1.192777 -0.650857,-1e-6 -1.178142,-0.533291 -1.178142,-1.192777 -3e-6,-0.661832 0.527285,-1.200094 1.178142,-1.200094 z"
       id="path1948" /><path
       style="fill:#ffffff;fill-opacity:0.69999999;stroke-width:0.234165"
       d="m 38.597682,26.87059 v 2.788024 c 0,2.161517 -1.832548,3.980799 -3.92226,3.980799 h -6.271221 c -1.717795,0 -3.13927,1.4702 -3.13927,3.190494 v 5.978517 c 0,1.701521 1.479589,2.702337 3.13927,3.190497 1.987434,0.584379 3.893277,0.689996 6.271221,0 1.58065,-0.457652 3.139273,-1.378672 3.139272,-3.190497 v -2.39287 h -6.271225 v -0.797623 h 6.271225 3.139272 c 1.824719,0 2.504684,-1.272781 3.139268,-3.183177 0.655504,-1.966722 0.627612,-3.858045 0,-6.380988 -0.450949,-1.816518 -1.312229,-3.183176 -3.139268,-3.183176 z m -3.527106,15.140211 c 0.650855,10e-7 1.17814,0.533291 1.17814,1.192776 0,0.661832 -0.527285,1.200095 -1.17814,1.200095 -0.648531,0 -1.178142,-0.538263 -1.178142,-1.200095 3e-6,-0.659485 0.529611,-1.192776 1.178142,-1.192776 z"
       id="path1950" /></g></svg>
