<?xml version="1.0" encoding="UTF-8" standalone="no"?>
<svg
   style="clip-rule:evenodd;fill-rule:evenodd;stroke-linejoin:round;stroke-miterlimit:2"
   viewBox="0 0 64 64"
   version="1.1"
   id="svg4"
   sodipodi:docname="xml.svg"
   xml:space="preserve"
   inkscape:version="1.4.4 (dcaf3e7d9e, 2026-05-05)"
   xmlns:inkscape="http://www.inkscape.org/namespaces/inkscape"
   xmlns:sodipodi="http://sodipodi.sourceforge.net/DTD/sodipodi-0.dtd"
   xmlns:xlink="http://www.w3.org/1999/xlink"
   xmlns="http://www.w3.org/2000/svg"
   xmlns:svg="http://www.w3.org/2000/svg"><sodipodi:namedview
     id="namedview4"
     pagecolor="#ffffff"
     bordercolor="#000000"
     borderopacity="0.25"
     inkscape:showpageshadow="2"
     inkscape:pageopacity="0.0"
     inkscape:pagecheckerboard="0"
     inkscape:deskcolor="#d1d1d1"
     inkscape:zoom="6.2734375"
     inkscape:cx="23.272727"
     inkscape:cy="28.373599"
     inkscape:window-width="1920"
     inkscape:window-height="1012"
     inkscape:window-x="0"
     inkscape:window-y="0"
     inkscape:window-maximized="1"
     inkscape:current-layer="g16"
     showguides="false" /><defs
     id="defs4"><inkscape:path-effect
       effect="fillet_chamfer"
       id="path-effect9"
       is_visible="true"
       lpeversion="1"
       nodesatellites_param="F,0,0,1,0,3,0,1 @ F,0,0,1,0,3,0,1 @ F,0,0,1,0,3,0,1"
       radius="3"
       unit="px"
       method="auto"
       mode="F"
       chamfer_steps="1"
       flexible="false"
       use_knot_distance="true"
       apply_no_radius="true"
       apply_with_radius="true"
       only_selected="false"
       hide_knots="false" /><linearGradient
       id="linearGradient3"
       inkscape:collect="always"><stop
         style="stop-color:#b65ac8;stop-opacity:1;"
         offset="0"
         id="stop5" /><stop
         style="stop-color:#ea87ff;stop-opacity:1;"
         offset="1"
         id="stop6" /></linearGradient><linearGradient
       id="_Linear1"
       x2="1"
       gradientTransform="matrix(3.03829e-15,-49.619,49.619,3.03829e-15,104.99,51.088)"
       gradientUnits="userSpaceOnUse"><stop
         style="stop-color:#c15721"
         offset="0"
         id="stop3" /><stop
         style="stop-color:#fc9f47"
         offset="1"
         id="stop4" /></linearGradient><linearGradient
       id="_Linear1-3"
       x2="1"
       gradientTransform="matrix(0,-49.619,49.619,0,104.99,51.3535)"
       gradientUnits="userSpaceOnUse"><stop
         style="stop-color:#c15721"
         offset="0"
         id="stop3-6" /><stop
         style="stop-color:#fc9f47"
         offset="1"
         id="stop4-7" /></linearGradient><linearGradient
       inkscape:collect="always"
       xlink:href="#linearGradient3"
       id="linearGradient6"
       x1="32"
       y1="62"
       x2="32"
       y2="1.46875"
       gradientUnits="userSpaceOnUse" /><linearGradient
       id="a"
       x2="0"
       y1="392.36"
       y2="336.36"
       gradientTransform="translate(15,-372.48633)"
       gradientUnits="userSpaceOnUse"><stop
         stop-color="#fff"
         stop-opacity="0"
         offset="0"
         id="stop1" /><stop
         stop-color="#fff"
         stop-opacity=".2"
         offset="1"
         id="stop2" /></linearGradient><linearGradient
       id="a-9"
       x2="0"
       y1="392.36"
       y2="336.36"
       gradientTransform="translate(-6,-332.36)"
       gradientUnits="userSpaceOnUse"><stop
         stop-color="#fff"
         stop-opacity="0"
         offset="0"
         id="stop1-1" /><stop
         stop-color="#fff"
         stop-opacity=".2"
         offset="1"
         id="stop2-2" /></linearGradient><inkscape:path-effect
       effect="fillet_chamfer"
       id="path-effect1"
       is_visible="true"
       lpeversion="1"
       nodesatellites_param="F,0,0,1,0,3,0,1 @ F,0,0,1,0,3,0,1 @ F,0,0,1,0,3,0,1"
       radius="3"
       unit="px"
       method="auto"
       mode="F"
       chamfer_steps="1"
       flexible="false"
       use_knot_distance="true"
       apply_no_radius="true"
       apply_with_radius="true"
       only_selected="false"
       hide_knots="false" /><linearGradient
       id="_Linear1-6"
       x2="1"
       gradientTransform="matrix(0,-49.619,49.619,0,348.28932,51.087875)"
       gradientUnits="userSpaceOnUse"><stop
         style="stop-color:#348692"
         offset="0"
         id="stop3-7" /><stop
         style="stop-color:#69b9cd"
         offset="1"
         id="stop4-5" /></linearGradient><linearGradient
       id="a-6"
       y1="17"
       y2="31"
       x1="40"
       x2="54"
       gradientUnits="userSpaceOnUse"
       gradientTransform="translate(432,1154.36)"><stop
         stop-color="#060606"
         id="stop1-2" /><stop
         offset="1"
         stop-opacity="0"
         id="stop2-9" /></linearGradient><linearGradient
       id="b"
       y1="392.36"
       y2="336.36"
       x2="0"
       gradientUnits="userSpaceOnUse"
       gradientTransform="translate(384,822)"><stop
         stop-color="#ffffff"
         stop-opacity="0"
         id="stop3-1" /><stop
         offset="1"
         stop-color="#ffffff"
         stop-opacity=".2"
         id="stop4-2" /></linearGradient><path
       id="c"
       d="m442 1215.36v-58h30l14 14v44h-14z" /></defs><g
     id="g16"
     inkscape:label="rect v2"
     style="clip-rule:evenodd;fill-rule:evenodd;stroke-linejoin:round;stroke-miterlimit:2"><path
       d="m 15,1.46875 c -2.77,0 -5,2.23 -5,5 V 57 c 0,2.77 2.23,5 5,5 h 34 c 2.77,0 5,-2.23 5,-5 V 16.130859 L 39.337891,1.46875 Z"
       style="display:inline;fill:url(#linearGradient6);stroke-width:2.226;stroke-linecap:round;stroke-miterlimit:40;fill-opacity:1"
       id="path18" /><path
       d="M 54,16.130859 39.337891,1.46875 v 9.662109 c 0,2.77 2.23,5 5,5 z"
       style="clip-rule:evenodd;fill-rule:evenodd;stroke-linejoin:round;stroke-miterlimit:40;display:inline;fill:#000000;stroke-width:2.226;stroke-linecap:round;fill-opacity:0.30000001;opacity:1"
       id="path19" /><path
       d="m 37.2225,32.038051 c 0.278,0.117 0.408,0.438 0.291,0.716 l -8.583,20.3 c -0.057,0.133 -0.164,0.238 -0.298,0.293 -0.066,0.027 -0.135,0.04 -0.205,0.04 -0.073,0 -0.145,-0.014 -0.213,-0.043 l -1.437,-0.608 c -0.278,-0.117 -0.408,-0.438 -0.291,-0.716 l 8.583,-20.3 c 0.057,-0.133 0.164,-0.239 0.298,-0.293 0.134,-0.054 0.285,-0.053 0.418,0.003 z m 9.91,9.335 -8.139,-6.086 c -0.241,-0.181 -0.583,-0.131 -0.764,0.11 l -0.935,1.25 c -0.087,0.116 -0.124,0.261 -0.103,0.405 0.021,0.143 0.097,0.273 0.213,0.359 l 5.883,4.4 -5.883,4.399 c -0.116,0.087 -0.192,0.217 -0.213,0.36 -0.021,0.143 0.016,0.289 0.103,0.405 l 0.935,1.25 c 0.107,0.143 0.271,0.219 0.438,0.219 0.113,0 0.228,-0.036 0.326,-0.109 l 8.139,-6.087 c 0.138,-0.103 0.219,-0.265 0.219,-0.437 0,-0.172 -0.081,-0.335 -0.219,-0.438 z m -20.323,5.197 c 0.02,0.143 -0.017,0.289 -0.104,0.405 l -0.934,1.25 c -0.107,0.143 -0.272,0.219 -0.438,0.219 -0.114,0 -0.229,-0.036 -0.327,-0.109 l -8.139,-6.087 c -0.138,-0.103 -0.219,-0.265 -0.219,-0.437 0,-0.172 0.081,-0.335 0.219,-0.438 l 8.139,-6.086 c 0.241999,-0.181 0.584,-0.132 0.765,0.11 l 0.934,1.25 c 0.087,0.116 0.124,0.261 0.103999,0.405 -0.021,0.143 -0.098,0.273 -0.213999,0.359 l -5.883001,4.4 5.883001,4.399 c 0.116,0.087 0.192999,0.216 0.214,0.36 z"
       style="clip-rule:evenodd;opacity:0.6;fill:#ffffff;fill-opacity:1;fill-rule:nonzero;stroke-linejoin:round;stroke-miterlimit:2"
       id="path3" /></g></svg>
