<?xml version="1.0" encoding="UTF-8" standalone="no"?>
<svg
   style="clip-rule:evenodd;fill-rule:evenodd;stroke-linejoin:round;stroke-miterlimit:2"
   viewBox="0 0 64 64"
   version="1.1"
   id="svg4"
   sodipodi:docname="scss.svg"
   xml:space="preserve"
   inkscape:version="1.4.3 (0d15f75042, 2025-12-25)"
   xmlns:inkscape="http://www.inkscape.org/namespaces/inkscape"
   xmlns:sodipodi="http://sodipodi.sourceforge.net/DTD/sodipodi-0.dtd"
   xmlns:xlink="http://www.w3.org/1999/xlink"
   xmlns="http://www.w3.org/2000/svg"
   xmlns:svg="http://www.w3.org/2000/svg"><sodipodi:namedview
     id="namedview4"
     pagecolor="#ffffff"
     bordercolor="#000000"
     borderopacity="0.25"
     inkscape:showpageshadow="2"
     inkscape:pageopacity="0.0"
     inkscape:pagecheckerboard="0"
     inkscape:deskcolor="#d1d1d1"
     inkscape:zoom="4.4359902"
     inkscape:cx="29.080317"
     inkscape:cy="42.380617"
     inkscape:window-width="1920"
     inkscape:window-height="1012"
     inkscape:window-x="0"
     inkscape:window-y="0"
     inkscape:window-maximized="1"
     inkscape:current-layer="g16"
     showguides="false" /><defs
     id="defs4"><linearGradient
       id="_Linear1"
       x2="1"
       gradientTransform="matrix(3.03829e-15,-49.619,49.619,3.03829e-15,104.99,51.088)"
       gradientUnits="userSpaceOnUse"><stop
         style="stop-color:#c15721"
         offset="0"
         id="stop3" /><stop
         style="stop-color:#fc9f47"
         offset="1"
         id="stop4" /></linearGradient><linearGradient
       id="_Linear1-3"
       x2="1"
       gradientTransform="matrix(0,-49.619,49.619,0,104.99,51.3535)"
       gradientUnits="userSpaceOnUse"><stop
         style="stop-color:#c15721"
         offset="0"
         id="stop3-6" /><stop
         style="stop-color:#fc9f47"
         offset="1"
         id="stop4-7" /></linearGradient><linearGradient
       inkscape:collect="always"
       xlink:href="#_Linear1-3675"
       id="linearGradient23"
       x1="32"
       y1="62"
       x2="32"
       y2="1.46875"
       gradientUnits="userSpaceOnUse" /><linearGradient
       id="_Linear1-36"
       x2="1"
       gradientTransform="matrix(0,-49.619,49.619,0,177.88,51.088)"
       gradientUnits="userSpaceOnUse"><stop
         style="stop-color:#941917"
         offset="0"
         id="stop6" /><stop
         style="stop-color:#f3201b"
         offset="1"
         id="stop7" /></linearGradient><linearGradient
       id="_Linear1-367"
       x2="1"
       gradientTransform="matrix(0,-49.619,49.619,0,177.88,51.088)"
       gradientUnits="userSpaceOnUse"><stop
         style="stop-color:#9f0400"
         offset="0"
         id="stop5" /><stop
         style="stop-color:#e42f3b"
         offset="1"
         id="stop6-5" /></linearGradient><linearGradient
       id="_Linear1-3675"
       x2="1"
       gradientTransform="matrix(0,-49.619,49.619,0,140.45337,83.3535)"
       gradientUnits="userSpaceOnUse"><stop
         style="stop-color:#b0378c;stop-opacity:1;"
         offset="0"
         id="stop6-3" /><stop
         style="stop-color:#f27ad5;stop-opacity:1;"
         offset="1"
         id="stop7-5" /></linearGradient></defs><g
     id="g16"
     inkscape:label="rect v2"
     style="clip-rule:evenodd;fill-rule:evenodd;stroke-linejoin:round;stroke-miterlimit:2"><path
       d="m 15,1.46875 c -2.77,0 -5,2.23 -5,5 V 57 c 0,2.77 2.23,5 5,5 h 34 c 2.77,0 5,-2.23 5,-5 V 16.130859 L 39.337891,1.46875 Z"
       style="display:inline;fill:url(#linearGradient23);stroke-width:2.226;stroke-linecap:round;stroke-miterlimit:40;fill-opacity:1"
       id="path18" /><path
       d="M 54,16.130859 39.337891,1.46875 v 9.662109 c 0,2.77 2.23,5 5,5 z"
       style="clip-rule:evenodd;fill-rule:evenodd;stroke-linejoin:round;stroke-miterlimit:40;display:inline;fill:#000000;stroke-width:2.226;stroke-linecap:round;fill-opacity:0.30000001;opacity:1"
       id="path19" /></g><g
     id="g1"
     inkscape:label="glyph"><path
       d="m 29.111839,36.862109 c 0.212,0.783 0.189,1.513 -0.03,2.174 -0.024,0.074 -0.051,0.147 -0.08,0.218 -0.029,0.072 -0.061,0.143 -0.094,0.213 -0.169,0.35 -0.395,0.677 -0.672,0.98 -0.846,0.922 -2.027,1.271 -2.534,0.977 -0.547,-0.317 -0.273,-1.618 0.708,-2.654 1.054,-1.114 2.572,-1.831 2.572,-1.831 l -0.003,-0.005 c 0.043,-0.023 0.088,-0.048 0.133,-0.072 z m 12.02,-13.171 c -0.659,-2.584 -4.944,-3.434 -9,-1.993 -2.414,0.858 -5.027,2.203 -6.905,3.961 -2.234,2.089 -2.59,3.908 -2.444,4.668 0.518,2.681 4.192,4.434 5.702,5.734 v 0.008 c -0.445,0.219 -3.704,1.869 -4.467,3.555 -0.805,1.779 0.128,3.056 0.746,3.228 1.913,0.532 3.877,-0.425 4.933,-2 1.018,-1.519 0.933,-3.481 0.491,-4.456 0.61,-0.162 1.322,-0.234 2.227,-0.128 2.552,0.298 3.053,1.892 2.957,2.559 -0.095,0.667 -0.631,1.034 -0.81,1.144 -0.179,0.111 -0.233,0.15 -0.218,0.232 0.021,0.12 0.104,0.115 0.257,0.089 0.21,-0.035 1.34,-0.542 1.389,-1.774 0.061,-1.563 -1.437,-3.312 -4.09,-3.266 -1.092,0.019 -1.779,0.123 -2.275,0.308 -0.037,-0.042 -0.074,-0.084 -0.113,-0.125 -1.64,-1.75 -4.671,-2.987 -4.543,-5.339 0.047,-0.856 0.344,-3.107 5.826,-5.839 4.49,-2.237 8.084,-1.621 8.705,-0.257 0.888,1.95 -1.921,5.573 -6.584,6.096 -1.776,0.199 -2.712,-0.49 -2.944,-0.746 -0.245,-0.27 -0.282,-0.282 -0.373,-0.232 -0.149,0.083 -0.055,0.321 0,0.463 0.139,0.363 0.71,1.005 1.684,1.325 0.857,0.281 2.943,0.435 5.465,-0.54 2.826,-1.093 5.032,-4.133 4.384,-6.674"
       style="clip-rule:evenodd;fill:#ffffff;fill-rule:nonzero;stroke-linejoin:round;stroke-miterlimit:2"
       id="path6" /></g></svg>
