<?xml version="1.0" encoding="UTF-8" standalone="no"?>
<svg
   style="clip-rule:evenodd;fill-rule:evenodd;stroke-linejoin:round;stroke-miterlimit:2"
   viewBox="0 0 64 64"
   version="1.1"
   id="svg4"
   sodipodi:docname="script.svg"
   xml:space="preserve"
   inkscape:version="1.4.3 (0d15f75042, 2025-12-25)"
   xmlns:inkscape="http://www.inkscape.org/namespaces/inkscape"
   xmlns:sodipodi="http://sodipodi.sourceforge.net/DTD/sodipodi-0.dtd"
   xmlns:xlink="http://www.w3.org/1999/xlink"
   xmlns="http://www.w3.org/2000/svg"
   xmlns:svg="http://www.w3.org/2000/svg"><sodipodi:namedview
     id="namedview4"
     pagecolor="#ffffff"
     bordercolor="#000000"
     borderopacity="0.25"
     inkscape:showpageshadow="2"
     inkscape:pageopacity="0.0"
     inkscape:pagecheckerboard="0"
     inkscape:deskcolor="#d1d1d1"
     inkscape:zoom="4.4359903"
     inkscape:cx="17.92159"
     inkscape:cy="31.109176"
     inkscape:window-width="1920"
     inkscape:window-height="1012"
     inkscape:window-x="0"
     inkscape:window-y="0"
     inkscape:window-maximized="1"
     inkscape:current-layer="svg4"
     showguides="false" /><defs
     id="defs4"><linearGradient
       id="linearGradient22"
       inkscape:collect="always"><stop
         style="stop-color:#32363a;stop-opacity:1;"
         offset="0"
         id="stop22" /><stop
         style="stop-color:#62666c;stop-opacity:1;"
         offset="1"
         id="stop23" /></linearGradient><linearGradient
       id="_Linear1"
       x2="1"
       gradientTransform="matrix(3.03829e-15,-49.619,49.619,3.03829e-15,104.99,51.088)"
       gradientUnits="userSpaceOnUse"><stop
         style="stop-color:#c15721"
         offset="0"
         id="stop3" /><stop
         style="stop-color:#fc9f47"
         offset="1"
         id="stop4" /></linearGradient><linearGradient
       id="_Linear1-3"
       x2="1"
       gradientTransform="matrix(0,-49.619,49.619,0,104.99,51.3535)"
       gradientUnits="userSpaceOnUse"><stop
         style="stop-color:#c15721"
         offset="0"
         id="stop3-6" /><stop
         style="stop-color:#fc9f47"
         offset="1"
         id="stop4-7" /></linearGradient><linearGradient
       inkscape:collect="always"
       xlink:href="#linearGradient22"
       id="linearGradient23"
       x1="32"
       y1="62"
       x2="32"
       y2="1.46875"
       gradientUnits="userSpaceOnUse" /></defs><g
     id="g16"
     inkscape:label="rect v2"
     style="clip-rule:evenodd;fill-rule:evenodd;stroke-linejoin:round;stroke-miterlimit:2"><path
       d="m 15,1.46875 c -2.77,0 -5,2.23 -5,5 V 57 c 0,2.77 2.23,5 5,5 h 34 c 2.77,0 5,-2.23 5,-5 V 16.130859 L 39.337891,1.46875 Z"
       style="display:inline;fill:url(#linearGradient23);stroke-width:2.226;stroke-linecap:round;stroke-miterlimit:40;fill-opacity:1"
       id="path18" /><path
       d="M 54,16.130859 39.337891,1.46875 v 9.662109 c 0,2.77 2.23,5 5,5 z"
       style="clip-rule:evenodd;fill-rule:evenodd;stroke-linejoin:round;stroke-miterlimit:40;display:inline;fill:#000000;stroke-width:2.226;stroke-linecap:round;fill-opacity:0.30000001;opacity:1"
       id="path19" /></g><g
     id="g4"
     transform="translate(-8,6.1845)"
     inkscape:label="glyph"><path
       d="M 50.88,31.122 C 50.8,31.046 50.698,31.008 50.574,31.008 H 37.781 c -0.124,0 -0.226,0.038 -0.306,0.114 -0.08,0.076 -0.12,0.173 -0.12,0.291 v 0.812 c 0,0.118 0.04,0.215 0.12,0.291 0.08,0.076 0.182,0.115 0.306,0.115 h 12.793 c 0.124,0 0.226,-0.039 0.306,-0.115 C 50.96,32.44 51,32.343 51,32.225 v -0.812 c 0,-0.118 -0.04,-0.215 -0.12,-0.291 z"
       style="clip-rule:evenodd;fill:#ffffff;fill-rule:nonzero;stroke-linejoin:round;stroke-miterlimit:2"
       id="path2" /><path
       d="M 30.412,19.127 C 30.324,19.043 30.221,19 30.106,19 c -0.116,0 -0.218,0.043 -0.307,0.127 l -0.666,0.634 C 29.044,19.846 29,19.943 29,20.053 c 0,0.11 0.044,0.207 0.133,0.292 l 5.237,4.982 -5.237,4.983 C 29.044,30.395 29,30.492 29,30.602 c 0,0.11 0.044,0.207 0.133,0.291 l 0.666,0.634 c 0.089,0.085 0.191,0.127 0.307,0.127 0.115,0 0.218,-0.042 0.306,-0.127 l 6.21,-5.908 c 0.089,-0.084 0.133,-0.182 0.133,-0.292 0,-0.11 -0.044,-0.207 -0.133,-0.291 z"
       style="clip-rule:evenodd;fill:#ffffff;fill-rule:nonzero;stroke-linejoin:round;stroke-miterlimit:2"
       id="path3" /></g></svg>
