<?xml version="1.0" encoding="UTF-8" standalone="no"?>
<svg
   clip-rule="evenodd"
   fill-rule="evenodd"
   stroke-linejoin="round"
   stroke-miterlimit="2"
   viewBox="0 0 64 64"
   version="1.1"
   id="svg5"
   sodipodi:docname="kora_zip-2.svg"
   xml:space="preserve"
   inkscape:version="1.4.2 (ebf0e940d0, 2025-05-08)"
   xmlns:inkscape="http://www.inkscape.org/namespaces/inkscape"
   xmlns:sodipodi="http://sodipodi.sourceforge.net/DTD/sodipodi-0.dtd"
   xmlns:xlink="http://www.w3.org/1999/xlink"
   xmlns="http://www.w3.org/2000/svg"
   xmlns:svg="http://www.w3.org/2000/svg"><defs
     id="defs5"><linearGradient
       id="linearGradient6"
       inkscape:collect="always"><stop
         style="stop-color:#02352b;stop-opacity:1;"
         offset="0"
         id="stop6" /><stop
         style="stop-color:#024840;stop-opacity:1;"
         offset="1"
         id="stop7" /></linearGradient><linearGradient
       id="_Linear1"
       x2="1"
       gradientTransform="matrix(1.07196,-49.7469,49.7469,1.07196,251.234,55.94)"
       gradientUnits="userSpaceOnUse"><stop
         style="stop-color:#088769;stop-opacity:1;"
         offset="0"
         id="stop9" /><stop
         style="stop-color:#0edb8e;stop-opacity:1;"
         offset="1"
         id="stop10" /></linearGradient><linearGradient
       inkscape:collect="always"
       xlink:href="#linearGradient6"
       id="linearGradient7"
       x1="31.840601"
       y1="21.791792"
       x2="31.840601"
       y2="13.555649"
       gradientUnits="userSpaceOnUse" /></defs><sodipodi:namedview
     id="namedview5"
     pagecolor="#ffffff"
     bordercolor="#000000"
     borderopacity="0.25"
     inkscape:showpageshadow="2"
     inkscape:pageopacity="0.0"
     inkscape:pagecheckerboard="0"
     inkscape:deskcolor="#d1d1d1"
     inkscape:zoom="6.2734375"
     inkscape:cx="21.041096"
     inkscape:cy="34.351183"
     inkscape:window-width="1920"
     inkscape:window-height="1012"
     inkscape:window-x="0"
     inkscape:window-y="0"
     inkscape:window-maximized="1"
     inkscape:current-layer="g6"
     showguides="false" /><linearGradient
     id="a"
     x2="1"
     gradientTransform="matrix(0 -49.619 49.619 0 177.88 51.088)"
     gradientUnits="userSpaceOnUse"><stop
       stop-color="#e9883d"
       offset="0"
       id="stop1" /><stop
       stop-color="#e09e6b"
       offset="1"
       id="stop2" /></linearGradient><g
     fill="#ffffff"
     fill-rule="nonzero"
     id="g5"><g
       style="clip-rule:evenodd;fill-rule:evenodd;stroke-linejoin:round;stroke-miterlimit:2"
       id="g6"
       transform="translate(0.15940224,0.2655)"><path
         d="M 54,3.146 C 54,2.22 53.249,1.469 52.323,1.469 H 17.618 C 15.598,1.469 13.66,2.272 12.231,3.7 10.803,5.129 10,7.067 10,9.087 v 45.295 c 0,2.02 0.803,3.958 2.231,5.387 C 13.66,61.197 15.598,62 17.618,62 h 28.764 c 2.02,0 3.958,-0.803 5.387,-2.231 C 53.197,58.34 54,56.402 54,54.382 Z"
         style="fill:url(#_Linear1)"
         id="path1" /><path
         id="path2"
         style="fill:url(#linearGradient7);fill-opacity:1"
         d="m 27.722528,1.468875 0,30.203709 c 0,1.262 1.023454,2.312587 2.285156,2.285156 l 3.665827,-0.0797 c 1.261702,-0.02743 2.285156,-1.023156 2.285156,-2.285156 l 0,-30.2037101 z"
         sodipodi:nodetypes="csssscc" /></g><path
       d="m30.002 25v6.5c0 .277.223.5.5.5h3.001c.277 0 .5-.223.5-.5v-6.5zm1 4h2.001v2h-2.001z"
       id="path4" /><path
       d="m32.002 4h-2v2h2zm0 2v2h2v-2zm0 2h-2v2h2zm0 2v2h2v-2zm0 2h-2v2h2zm0 2v2h2v-2zm0 2h-2v2h2zm0 2v2h2v-2zm0 2h-2v2h2zm0 2v2h2v-2z"
       id="path5" /></g></svg>
