<?xml version="1.0" encoding="UTF-8" standalone="no"?>
<svg
   id="Layer_1"
   data-name="Layer 1"
   viewBox="0 0 453.24613 406.0263"
   version="1.1"
   sodipodi:docname="v6_blender.svg"
   inkscape:version="1.4.2 (ebf0e940d0, 2025-05-08)"
   width="453.24612"
   height="406.02631"
   xmlns:inkscape="http://www.inkscape.org/namespaces/inkscape"
   xmlns:sodipodi="http://sodipodi.sourceforge.net/DTD/sodipodi-0.dtd"
   xmlns:xlink="http://www.w3.org/1999/xlink"
   xmlns="http://www.w3.org/2000/svg"
   xmlns:svg="http://www.w3.org/2000/svg"
   xmlns:rdf="http://www.w3.org/1999/02/22-rdf-syntax-ns#"
   xmlns:cc="http://creativecommons.org/ns#"
   xmlns:dc="http://purl.org/dc/elements/1.1/">
  <sodipodi:namedview
     id="namedview3"
     pagecolor="#ffffff"
     bordercolor="#000000"
     borderopacity="0.25"
     inkscape:showpageshadow="2"
     inkscape:pageopacity="0.0"
     inkscape:pagecheckerboard="0"
     inkscape:deskcolor="#d1d1d1"
     inkscape:zoom="0.69930382"
     inkscape:cx="121.54946"
     inkscape:cy="230.94397"
     inkscape:window-width="1920"
     inkscape:window-height="1012"
     inkscape:window-x="0"
     inkscape:window-y="0"
     inkscape:window-maximized="1"
     inkscape:current-layer="Layer_1" />
  <defs
     id="defs1">
    <linearGradient
       id="linearGradient5"
       inkscape:collect="always">
      <stop
         style="stop-color:#ea7600;stop-opacity:1;"
         offset="0"
         id="stop5" />
      <stop
         style="stop-color:#ff9321;stop-opacity:1;"
         offset="1"
         id="stop6" />
    </linearGradient>
    <linearGradient
       id="linearGradient3"
       inkscape:collect="always">
      <stop
         style="stop-color:#215688;stop-opacity:1;"
         offset="0"
         id="stop3" />
      <stop
         style="stop-color:#3078be;stop-opacity:1;"
         offset="1"
         id="stop4" />
    </linearGradient>
    <style
       id="style1">.cls-1{fill:#fff;}.cls-2{fill:#265787;}.cls-3{fill:#ea7600;}</style>
    <linearGradient
       inkscape:collect="always"
       xlink:href="#linearGradient3"
       id="linearGradient4"
       x1="293.20819"
       y1="289.22891"
       x2="362.79938"
       y2="173.40968"
       gradientUnits="userSpaceOnUse"
       gradientTransform="matrix(0.90679834,0,0,1,-0.50551722,11.126495)" />
    <linearGradient
       inkscape:collect="always"
       xlink:href="#linearGradient5"
       id="linearGradient6"
       x1="23.415077"
       y1="97.390488"
       x2="476.41605"
       y2="308.6283"
       gradientUnits="userSpaceOnUse"
       gradientTransform="matrix(0.90679834,0,0,1,6.1871937e-5,0.00375538)" />
  </defs>
  <title
     id="title1">blender</title>
  <path
     class="cls-1"
     d="m 178.17686,225.35376 c 1.65037,-32.49 16.07753,-61.11 37.84069,-81.4 21.34602,-19.92 50.07339,-32.1 81.41235,-32.1 31.33894,0 60.03911,12.15 81.40328,32.15 21.76315,20.29 36.17218,48.91 37.84069,81.37 1.65037,33.38 -10.51887,64.39 -31.86489,87.37 -21.76317,23.38 -52.7122,38.06 -87.37908,38.06 -34.6669,0 -65.67941,-14.68 -87.42444,-38.06 -21.39136,-23.03 -33.48805,-54.04 -31.8286,-87.39 z"
     id="path1"
     style="stroke-width:0.952259" />
  <path
     class="cls-2"
     d="m 235.74264,239.3965 c 0.84332,-16.67 8.25186,-31.36 19.41455,-41.77 a 65.878894,72.65 0 0 1 83.54333,0 c 11.15361,10.41 18.56215,25.1 19.41455,41.75 0.84332,17.13 -5.4408,33 -16.32238,44.83 -11.16268,12 -27.04978,19.53 -44.8321,19.53 -17.78232,0 -33.69663,-7.53 -44.85931,-19.53 -10.9904,-11.79 -17.21104,-27.7 -16.35864,-44.81 z"
     id="path2"
     style="fill:url(#linearGradient4);stroke-width:0.952259" />
  <path
     class="cls-3"
     d="m 138.81274,262.00376 c 0.0998,6.52 1.98589,19.2 4.8151,29.1 6.11218,21.32623 16.37447,40.9229 30.06943,57.42 14.6827,17.80974 32.60336,32.00813 52.5943,41.67 44.09272,21.21744 94.22729,21.10502 138.2414,-0.31 19.99061,-9.75745 37.9066,-24.02367 52.5943,-41.88 13.67567,-16.55305 23.93171,-36.18123 30.06037,-57.53 2.97544,-10.43453 4.87358,-21.20601 5.65841,-32.11 0.74941,-10.63809 0.44535,-21.33456 -0.90679,-31.9 -2.65364,-20.55657 -9.1872,-40.2709 -19.17879,-57.87 -9.26393,-16.36753 -21.11263,-30.77185 -34.98428,-42.53 v 0 L 256.17058,6.2037554 c -0.12696,-0.11 -0.23577,-0.22 -0.37179,-0.32 -9.28561,-7.86 -24.90975,-7.83 -35.1203,0 -10.21055,7.8299996 -11.50727,21.1399996 -2.3214,29.4599996 v 0 l 59.04164,53 -179.963193,0.21 H 97.1907 c -14.907762,0.06 -29.180766,10.82 -32.037181,24.450005 -2.910823,13.86 7.19091,25.36 22.669956,25.42 v 0.06 l 91.223915,-0.19 -162.815638,137.71 -0.625691,0.51 c -15.35209496,13.01 -20.3213494,34.57 -10.6458119,48.22 9.8115569,13.87 30.6860539,13.9 46.2467119,0.08 l 88.866229,-80.18 c -0.72071,5.75869 -1.14155,11.5582 -1.26045,17.37 z m 228.2774,45.806 c -18.2992,20.56 -43.92531,32.22 -71.63706,32.28 -27.71175,0.06 -53.40136,-11.5 -71.70054,-32 -8.65121,-9.57587 -15.32612,-21.09826 -19.56872,-33.78 -3.9992,-12.06206 -5.547,-24.94564 -4.53398,-37.74 0.96905,-12.48629 4.31543,-24.60677 9.82062,-35.57 5.53018,-10.9653 12.91835,-20.65746 21.76316,-28.55 17.79139,-16 40.44321,-24.65 64.13783,-24.68 23.69466,-0.03 46.35554,8.54 64.16506,24.48 8.84465,7.85711 16.23371,17.51989 21.76316,28.46 5.50661,10.94668 8.86197,23.04908 9.84783,35.52 1.00678,12.78766 -0.54088,25.66323 -4.53399,37.72 -4.23051,12.7001 -10.88892,24.24799 -19.52337,33.86 z"
     id="path3"
     style="fill:url(#linearGradient6);stroke-width:0.952259"
     sodipodi:nodetypes="ccccccccccscccsscccccccccccccccscccccsccccc" />
  <metadata
     id="metadata1">
    <rdf:RDF>
      <cc:Work
         rdf:about="">
        <dc:title>blender</dc:title>
      </cc:Work>
    </rdf:RDF>
  </metadata>
</svg>
