<?xml version="1.0" encoding="UTF-8" standalone="no"?>
<svg
   id="svg1328"
   width="155.961"
   height="155.964"
   version="1.1"
   viewBox="0 0 38.99 38.991"
   sodipodi:docname="sqlitebrowser.svg"
   inkscape:version="1.4.2 (ebf0e940d0, 2025-05-08)"
   xmlns:inkscape="http://www.inkscape.org/namespaces/inkscape"
   xmlns:sodipodi="http://sodipodi.sourceforge.net/DTD/sodipodi-0.dtd"
   xmlns:xlink="http://www.w3.org/1999/xlink"
   xmlns="http://www.w3.org/2000/svg"
   xmlns:svg="http://www.w3.org/2000/svg">
  <sodipodi:namedview
     id="namedview1"
     pagecolor="#ffffff"
     bordercolor="#000000"
     borderopacity="0.25"
     inkscape:showpageshadow="2"
     inkscape:pageopacity="0.0"
     inkscape:pagecheckerboard="0"
     inkscape:deskcolor="#d1d1d1"
     inkscape:zoom="2.8284271"
     inkscape:cx="27.930718"
     inkscape:cy="67.705475"
     inkscape:window-width="1920"
     inkscape:window-height="1012"
     inkscape:window-x="0"
     inkscape:window-y="0"
     inkscape:window-maximized="1"
     inkscape:current-layer="g12" />
  <defs
     id="defs3">
    <linearGradient
       id="linearGradient25"
       inkscape:collect="always">
      <stop
         style="stop-color:#eeeeee;stop-opacity:1;"
         offset="0"
         id="stop25" />
      <stop
         style="stop-color:#b8b8b8;stop-opacity:1;"
         offset="1"
         id="stop26" />
    </linearGradient>
    <linearGradient
       id="linearGradient14"
       inkscape:collect="always">
      <stop
         style="stop-color:#eeeeee;stop-opacity:1;"
         offset="0"
         id="stop13" />
      <stop
         style="stop-color:#b8b8b8;stop-opacity:1;"
         offset="1"
         id="stop14" />
    </linearGradient>
    <linearGradient
       id="linearGradient2"
       inkscape:collect="always">
      <stop
         style="stop-color:#cacaca;stop-opacity:1;"
         offset="0.28218865"
         id="stop2" />
      <stop
         style="stop-color:#d8d8d8;stop-opacity:1;"
         offset="0.35988766"
         id="stop4" />
      <stop
         style="stop-color:#c2c2c2;stop-opacity:1;"
         offset="0.43924013"
         id="stop1" />
      <stop
         style="stop-color:#969696;stop-opacity:1;"
         offset="0.98057705"
         id="stop3" />
    </linearGradient>
    <linearGradient
       id="linearGradient6932">
      <stop
         id="stop6934"
         offset="0"
         stop-color="#a2a2a2"
         stop-opacity="1" />
      <stop
         id="stop6936"
         offset="1"
         stop-color="#4e4e4e"
         stop-opacity="1" />
    </linearGradient>
    <linearGradient
       id="linearGradient6924">
      <stop
         id="stop6926"
         offset="0"
         stop-color="#fff"
         stop-opacity="1" />
      <stop
         id="stop6928"
         offset="1"
         stop-color="#fff"
         stop-opacity="0" />
    </linearGradient>
    <linearGradient
       id="linearGradient4206">
      <stop
         id="stop4208"
         offset="0"
         stop-color="#7d4b01"
         stop-opacity="1" />
      <stop
         id="stop4210"
         offset="1"
         stop-color="#535353"
         stop-opacity="1" />
    </linearGradient>
    <linearGradient
       id="linearGradient4176">
      <stop
         id="stop4178"
         offset="0"
         stop-color="#fff"
         stop-opacity="1" />
      <stop
         id="stop4180"
         offset="1"
         stop-color="#fff"
         stop-opacity="0" />
    </linearGradient>
    <linearGradient
       id="linearGradient4162">
      <stop
         id="stop4164"
         offset="0"
         stop-color="#ababab"
         stop-opacity="1" />
      <stop
         id="stop4170"
         offset=".194"
         stop-color="#f6f6f6"
         stop-opacity="1" />
      <stop
         id="stop4172"
         offset=".397"
         stop-color="#b0b0b0"
         stop-opacity="1" />
      <stop
         id="stop4166"
         offset="1"
         stop-color="#585858"
         stop-opacity="1" />
    </linearGradient>
    <linearGradient
       id="linearGradient4134">
      <stop
         id="stop4136"
         offset="0"
         stop-color="#7e807a"
         stop-opacity="1" />
      <stop
         id="stop4148"
         offset=".25"
         stop-color="#babbb8"
         stop-opacity="1" />
      <stop
         id="stop4142"
         offset=".5"
         stop-color="#a5a6a3"
         stop-opacity="1" />
      <stop
         id="stop4138"
         offset="1"
         stop-color="#333432"
         stop-opacity="1" />
    </linearGradient>
    <linearGradient
       id="linearGradient4126">
      <stop
         id="stop4128"
         offset="0"
         stop-color="#000"
         stop-opacity="1" />
      <stop
         id="stop4130"
         offset="1"
         stop-color="#000"
         stop-opacity="0" />
    </linearGradient>
    <radialGradient
       id="radialGradient4132"
       cx="23.857"
       cy="40"
       r="17.143"
       fx="23.857"
       fy="40"
       gradientTransform="matrix(1,0,0,0.5,0,20)"
       gradientUnits="userSpaceOnUse"
       xlink:href="#linearGradient4126" />
    <linearGradient
       id="linearGradient4140"
       x1="9.303"
       x2="38.826"
       y1="26.719"
       y2="26.719"
       gradientTransform="translate(-1.142857e-6,-1.714284)"
       gradientUnits="userSpaceOnUse"
       xlink:href="#linearGradient4134" />
    <linearGradient
       id="linearGradient4160"
       x1="24"
       x2="24"
       y1="15.149"
       y2="13.285"
       gradientUnits="userSpaceOnUse"
       xlink:href="#linearGradient6932" />
    <linearGradient
       id="linearGradient4168"
       x1="10.116"
       x2="38.013"
       y1="17.512"
       y2="17.512"
       gradientTransform="translate(-1.142857e-6,-1.714284)"
       gradientUnits="userSpaceOnUse"
       xlink:href="#linearGradient4162" />
    <linearGradient
       id="linearGradient4182"
       x1="17.16"
       x2="37.969"
       y1="14.004"
       y2="56.576"
       gradientTransform="translate(-1.142857e-6,-1.714284)"
       gradientUnits="userSpaceOnUse"
       xlink:href="#linearGradient4176" />
    <linearGradient
       id="linearGradient4198"
       x1="25.065"
       x2="25.208"
       y1="21.857"
       y2="25.429"
       gradientTransform="translate(-1.142857e-6,-1.714284)"
       gradientUnits="userSpaceOnUse"
       xlink:href="#linearGradient4206" />
    <linearGradient
       id="linearGradient6930"
       x1="16.071"
       x2="16.19"
       y1="19.5"
       y2="24.04"
       gradientTransform="translate(-0.142857,0.928571)"
       gradientUnits="userSpaceOnUse"
       xlink:href="#linearGradient6924" />
    <linearGradient
       id="linearGradient6942"
       x1="24"
       x2="24"
       y1="16.525"
       y2="13.285"
       gradientUnits="userSpaceOnUse"
       xlink:href="#linearGradient6932" />
    <radialGradient
       id="radialGradient6946"
       cx="23.857"
       cy="40"
       r="17.143"
       fx="23.857"
       fy="40"
       gradientTransform="matrix(1,0,0,0.5,0,20)"
       gradientUnits="userSpaceOnUse"
       xlink:href="#linearGradient4126" />
    <linearGradient
       id="linearGradient4168-5"
       x1="10.116"
       x2="38.013"
       y1="17.512"
       y2="17.512"
       gradientTransform="translate(-1.142857e-6,-1.714284)"
       gradientUnits="userSpaceOnUse"
       xlink:href="#linearGradient4162-2" />
    <linearGradient
       id="linearGradient4162-2">
      <stop
         id="stop4164-3"
         offset="0"
         stop-color="#ababab"
         stop-opacity="1" />
      <stop
         id="stop4170-1"
         offset=".194"
         stop-color="#f6f6f6"
         stop-opacity="1" />
      <stop
         id="stop4172-6"
         offset=".397"
         stop-color="#b0b0b0"
         stop-opacity="1" />
      <stop
         id="stop4166-8"
         offset="1"
         stop-color="#585858"
         stop-opacity="1" />
    </linearGradient>
    <linearGradient
       id="linearGradient4160-8"
       x1="24"
       x2="24"
       y1="15.149"
       y2="13.285"
       gradientUnits="userSpaceOnUse"
       xlink:href="#linearGradient6932-2" />
    <linearGradient
       id="linearGradient6932-2">
      <stop
         id="stop6934-7"
         offset="0"
         stop-color="#a2a2a2"
         stop-opacity="1" />
      <stop
         id="stop6936-7"
         offset="1"
         stop-color="#4e4e4e"
         stop-opacity="1" />
    </linearGradient>
    <linearGradient
       id="linearGradient6930-1"
       x1="16.071"
       x2="16.19"
       y1="19.5"
       y2="24.04"
       gradientTransform="translate(-0.142857,0.928571)"
       gradientUnits="userSpaceOnUse"
       xlink:href="#linearGradient6924-2" />
    <linearGradient
       id="linearGradient6924-2">
      <stop
         id="stop6926-6"
         offset="0"
         stop-color="#fff"
         stop-opacity="1" />
      <stop
         id="stop6928-0"
         offset="1"
         stop-color="#fff"
         stop-opacity="0" />
    </linearGradient>
    <linearGradient
       id="linearGradient3828"
       x1="16.071"
       x2="16.19"
       y1="19.5"
       y2="24.04"
       gradientTransform="translate(-0.142857,0.928571)"
       gradientUnits="userSpaceOnUse"
       xlink:href="#linearGradient6924-2" />
    <linearGradient
       id="linearGradient4168-0"
       x1="10.116"
       x2="38.013"
       y1="17.512"
       y2="17.512"
       gradientTransform="translate(-1.142857e-6,-1.714284)"
       gradientUnits="userSpaceOnUse"
       xlink:href="#linearGradient4162-3" />
    <linearGradient
       id="linearGradient4162-3">
      <stop
         id="stop4164-6"
         offset="0"
         stop-color="#ababab"
         stop-opacity="1" />
      <stop
         id="stop4170-2"
         offset=".194"
         stop-color="#f6f6f6"
         stop-opacity="1" />
      <stop
         id="stop4172-4"
         offset=".397"
         stop-color="#b0b0b0"
         stop-opacity="1" />
      <stop
         id="stop4166-5"
         offset="1"
         stop-color="#585858"
         stop-opacity="1" />
    </linearGradient>
    <linearGradient
       id="linearGradient4160-88"
       x1="24"
       x2="24"
       y1="15.149"
       y2="13.285"
       gradientUnits="userSpaceOnUse"
       xlink:href="#linearGradient6932-1" />
    <linearGradient
       id="linearGradient6932-1">
      <stop
         id="stop6934-2"
         offset="0"
         stop-color="#a2a2a2"
         stop-opacity="1" />
      <stop
         id="stop6936-1"
         offset="1"
         stop-color="#4e4e4e"
         stop-opacity="1" />
    </linearGradient>
    <linearGradient
       id="linearGradient6930-4"
       x1="16.071"
       x2="16.19"
       y1="19.5"
       y2="24.04"
       gradientTransform="translate(-0.142857,0.928571)"
       gradientUnits="userSpaceOnUse"
       xlink:href="#linearGradient6924-9" />
    <linearGradient
       id="linearGradient6924-9">
      <stop
         id="stop6926-8"
         offset="0"
         stop-color="#fff"
         stop-opacity="1" />
      <stop
         id="stop6928-2"
         offset="1"
         stop-color="#fff"
         stop-opacity="0" />
    </linearGradient>
    <linearGradient
       id="linearGradient3828-4"
       x1="16.071"
       x2="16.19"
       y1="19.5"
       y2="24.04"
       gradientTransform="translate(-0.142857,0.928571)"
       gradientUnits="userSpaceOnUse"
       xlink:href="#linearGradient6924-9" />
    <linearGradient
       id="linearGradient3931"
       x1="17.16"
       x2="37.969"
       y1="14.004"
       y2="56.576"
       gradientTransform="translate(-1.142857e-6,-1.714284)"
       gradientUnits="userSpaceOnUse"
       xlink:href="#linearGradient4176" />
    <linearGradient
       id="linearGradient3933"
       x1="10.116"
       x2="38.013"
       y1="17.512"
       y2="17.512"
       gradientTransform="translate(-1.142857e-6,-1.714284)"
       gradientUnits="userSpaceOnUse"
       xlink:href="#linearGradient4162-3" />
    <linearGradient
       id="linearGradient3935"
       x1="24"
       x2="24"
       y1="15.149"
       y2="13.285"
       gradientUnits="userSpaceOnUse"
       xlink:href="#linearGradient6932-1" />
    <linearGradient
       id="linearGradient3937"
       x1="16.071"
       x2="16.19"
       y1="19.5"
       y2="24.04"
       gradientTransform="translate(-0.142857,0.928571)"
       gradientUnits="userSpaceOnUse"
       xlink:href="#linearGradient6924-9" />
    <linearGradient
       id="linearGradient3939"
       x1="10.116"
       x2="38.013"
       y1="17.512"
       y2="17.512"
       gradientTransform="translate(-1.142857e-6,-1.714284)"
       gradientUnits="userSpaceOnUse"
       xlink:href="#linearGradient4162-2" />
    <linearGradient
       id="linearGradient3941"
       x1="24"
       x2="24"
       y1="15.149"
       y2="13.285"
       gradientUnits="userSpaceOnUse"
       xlink:href="#linearGradient6932-2" />
    <linearGradient
       id="linearGradient3943"
       x1="16.071"
       x2="16.19"
       y1="19.5"
       y2="24.04"
       gradientTransform="translate(-0.142857,0.928571)"
       gradientUnits="userSpaceOnUse"
       xlink:href="#linearGradient6924-2" />
    <linearGradient
       id="linearGradient3945"
       x1="10.116"
       x2="38.013"
       y1="17.512"
       y2="17.512"
       gradientTransform="translate(-1.142857e-6,-1.714284)"
       gradientUnits="userSpaceOnUse"
       xlink:href="#linearGradient4162" />
    <linearGradient
       id="linearGradient3947"
       x1="24"
       x2="24"
       y1="15.149"
       y2="13.285"
       gradientUnits="userSpaceOnUse"
       xlink:href="#linearGradient6932" />
    <linearGradient
       id="linearGradient3949"
       x1="16.071"
       x2="16.19"
       y1="19.5"
       y2="24.04"
       gradientTransform="translate(-0.142857,0.928571)"
       gradientUnits="userSpaceOnUse"
       xlink:href="#linearGradient6924" />
    <linearGradient
       inkscape:collect="always"
       xlink:href="#linearGradient14"
       id="linearGradient11"
       gradientUnits="userSpaceOnUse"
       x1="6.8044002"
       y1="15.15727"
       x2="33.956939"
       y2="15.15727" />
    <linearGradient
       inkscape:collect="always"
       xlink:href="#linearGradient2"
       id="linearGradient12"
       gradientUnits="userSpaceOnUse"
       x1="6.8670001"
       y1="20.008547"
       x2="33.353893"
       y2="20.008547" />
    <linearGradient
       inkscape:collect="always"
       xlink:href="#linearGradient25"
       id="linearGradient26"
       x1="9.4945126"
       y1="8.0349503"
       x2="29.473986"
       y2="8.0349503"
       gradientUnits="userSpaceOnUse"
       gradientTransform="matrix(0.96460834,0,0,0.95667369,0.70033086,0.89499973)" />
  </defs>
  <metadata
     id="metadata4" />
  <g
     id="g12"
     transform="translate(0,-0.51304348)">
    <path
       style="fill:url(#linearGradient11);fill-opacity:1;stroke-width:0.605905;stroke-linecap:round;stroke-miterlimit:2"
       d="m 20.446204,3.7204241 c -3.231918,-3.54e-5 -6.157925,0.4403437 -8.275996,1.1523729 -2.118071,0.7120292 -3.4282067,1.6957087 -3.4283853,2.782274 4.85e-5,0.1296791 0.019165,0.2591985 0.05721,0.3880865 0.038045,0.1288879 0.095019,0.2571443 0.1707815,0.3842972 H 8.0699017 7.1699895 c -0.1012229,0 -0.1926202,0.034124 -0.2587118,0.089429 -0.066092,0.055305 -0.1068775,0.1317919 -0.1068775,0.2165181 V 26.288168 c 0,0.169452 0.1631436,0.305947 0.3655893,0.305947 H 33.59135 c 0.202445,0 0.365589,-0.136495 0.365589,-0.305947 V 8.7334016 c 0,-0.084726 -0.04079,-0.1612129 -0.106878,-0.2165181 -0.06609,-0.055305 -0.157488,-0.089429 -0.258711,-0.089429 h -0.834377 -0.834378 c 0.07568,-0.1271558 0.132568,-0.2554136 0.170529,-0.3843015 0.03796,-0.1288879 0.05699,-0.2584059 0.05696,-0.3880822 C 32.149906,6.5685386 30.839846,5.5848824 28.721876,4.8728566 26.603905,4.1608307 23.678025,3.7204352 20.446204,3.7204241 Z"
       id="rect1"
       transform="matrix(0.97231712,0,0,1.2017636,-0.32147397,-0.58191019)" />
    <path
       style="fill:url(#linearGradient12);fill-opacity:1;stroke:none;stroke-width:0.9985;stroke-linecap:round;stroke-miterlimit:2;stroke-dasharray:none;stroke-opacity:1"
       d="m 33.810098,21.184991 c -0.56718,2.852871 -6.419593,5.050422 -13.449874,5.050357 -7.028322,4.5e-5 -12.8797562,-2.196335 -13.4493766,-5.048326 -0.027042,0.139501 -0.040982,0.279372 -0.04179,0.419306 h -0.00199 v 0.01219 c -8.07e-5,0.01097 -8.07e-5,0.02194 0,0.03291 v 4.182898 h 4.975e-4 c -3.9e-4,0.01828 -5.559e-4,0.03657 -4.975e-4,0.05485 -1.026e-4,3.033975 6.0409556,5.493546 13.4931566,5.493635 7.452396,2.2e-5 13.493757,-2.45958 13.493654,-5.493635 5.8e-5,-0.01828 -1.08e-4,-0.03657 -4.98e-4,-0.05485 V 21.67093 c 3.71e-4,-0.01747 5.37e-4,-0.03494 4.98e-4,-0.05241 l -4.98e-4,-0.0028 v -0.0093 h -0.0015 c -6.8e-4,-0.140612 -0.01462,-0.281161 -0.04179,-0.421337 z"
       transform="matrix(0.98147265,0,0,1.2017636,-0.48822299,-0.58191019)"
       id="path23" />
    <path
       style="fill:url(#linearGradient12);fill-opacity:1;stroke:none;stroke-width:0.9985;stroke-linecap:round;stroke-miterlimit:2;stroke-dasharray:none;stroke-opacity:1"
       d="m 33.810098,13.87274 c -0.567671,2.852711 -6.419947,5.050033 -13.449874,5.049951 -7.028322,4.5e-5 -12.8797562,-2.196335 -13.4493766,-5.048326 -0.027068,0.139636 -0.041008,0.279642 -0.04179,0.419712 h -0.00199 v 0.01219 c -7.87e-5,0.01083 -7.87e-5,0.02167 0,0.0325 v 4.183305 h 4.975e-4 c -3.867e-4,0.01815 -5.525e-4,0.03629 -4.975e-4,0.05444 -1.026e-4,3.033975 6.0409556,5.493546 13.4931566,5.493635 7.452396,2.2e-5 13.493757,-2.45958 13.493654,-5.493635 5.5e-5,-0.01815 -1.11e-4,-0.03629 -4.98e-4,-0.05444 V 14.35827 c 3.68e-4,-0.01734 5.34e-4,-0.03467 4.98e-4,-0.05201 l -4.98e-4,-0.0028 v -0.0093 h -0.0015 c -6.8e-4,-0.140612 -0.01462,-0.281161 -0.04179,-0.421337 z"
       transform="matrix(0.98147265,0,0,1.2017636,-0.48822299,-0.58191019)"
       id="path22" />
    <path
       style="fill:url(#linearGradient12);fill-opacity:1;stroke:none;stroke-width:0.9985;stroke-linecap:round;stroke-miterlimit:2;stroke-dasharray:none;stroke-opacity:1"
       d="m 20.361219,4.0925984 c 3.208737,1.382e-4 6.405666,0.5830228 8.52414,1.4842282 1.059237,0.4506027 1.844673,0.9787352 2.280036,1.4257204 0.435363,0.4469851 0.502865,0.7280684 0.502971,0.9084955 -1.75e-4,0.1804969 -0.06866,0.4598202 -0.502971,0.9060577 -0.435007,0.4469576 -1.218809,0.9749573 -2.278046,1.4257208 -2.118473,0.901525 -5.316666,1.48409 -8.52613,1.484228 -3.20976,5.9e-5 -6.407267,-0.582667 -8.526131,-1.484228 C 10.775656,9.7920397 9.9901616,9.2641165 9.5550523,8.8171002 9.1206441,8.3708042 9.0527543,8.0915561 9.0525788,7.9110425 9.0526847,7.7305988 9.1215779,7.4495908 9.5570423,7.002547 9.9925067,6.5555032 10.777646,6.0274472 11.837078,5.5768266 13.955943,4.6755854 17.152185,4.0925391 20.361219,4.0925984 Z"
       id="path21"
       transform="matrix(0.98147265,0,0,1.2017636,-0.48822299,-0.58191019)" />
    <path
       style="fill:url(#linearGradient12);fill-opacity:1;stroke:none;stroke-width:0.9985;stroke-linecap:round;stroke-miterlimit:2;stroke-dasharray:none;stroke-opacity:1"
       d="M 20.360224,2.8842506 C 12.920865,2.8847786 6.8860117,5.3365509 6.8690575,8.3652902 h -0.00199 v 0.012189 c -8.07e-5,0.01097 -8.07e-5,0.021941 0,0.032911 v 2.7023268 c -7.88e-5,0.01084 -7.88e-5,0.02167 0,0.03251 -8.07e-5,0.01097 -8.07e-5,0.02194 0,0.03291 v 0.05932 h 0.00149 c 0.1235317,2.997661 6.1276255,5.401407 13.4916645,5.401405 7.364039,2e-6 13.368132,-2.403744 13.491664,-5.401405 h 0.0015 v -0.03982 c 3.71e-4,-0.01747 5.37e-4,-0.03494 4.98e-4,-0.05241 3.6e-5,-0.01734 -1.3e-4,-0.03467 -4.98e-4,-0.05201 V 8.4298926 c 3.71e-4,-0.017471 5.37e-4,-0.034942 4.98e-4,-0.052413 l -4.98e-4,-0.00325 v -0.00894 h -0.0015 C 33.834931,5.3364718 27.799776,2.8846674 20.360224,2.8842506 Z"
       id="path3"
       transform="matrix(0.98147265,0,0,1.2017636,-0.48822299,-0.58191019)" />
    <ellipse
       style="fill:url(#linearGradient26);stroke-width:0.599842;stroke-linecap:round;stroke-miterlimit:2"
       id="path24"
       ry="3.795114"
       rx="9.6361828"
       cy="8.5818253"
       cx="19.495001" />
  </g>
</svg>
