<?xml version="1.0" encoding="UTF-8" standalone="no"?>
<svg
   style="clip-rule:evenodd;fill-rule:evenodd;stroke-linejoin:round;stroke-miterlimit:2"
   viewBox="0 0 16 16"
   version="1.1"
   id="svg2"
   sodipodi:docname="kora_shutdown.svg"
   inkscape:version="1.4.2 (ebf0e940d0, 2025-05-08)"
   xmlns:inkscape="http://www.inkscape.org/namespaces/inkscape"
   xmlns:sodipodi="http://sodipodi.sourceforge.net/DTD/sodipodi-0.dtd"
   xmlns="http://www.w3.org/2000/svg"
   xmlns:svg="http://www.w3.org/2000/svg">
  <sodipodi:namedview
     id="namedview2"
     pagecolor="#ffffff"
     bordercolor="#000000"
     borderopacity="0.25"
     inkscape:showpageshadow="2"
     inkscape:pageopacity="0.0"
     inkscape:pagecheckerboard="0"
     inkscape:deskcolor="#d1d1d1"
     inkscape:zoom="22.627417"
     inkscape:cx="4.5961941"
     inkscape:cy="10.893864"
     inkscape:window-width="1920"
     inkscape:window-height="1012"
     inkscape:window-x="0"
     inkscape:window-y="0"
     inkscape:window-maximized="1"
     inkscape:current-layer="svg2" />
  <defs
     id="defs1">
    <style
       id="current-color-scheme"
       type="text/css">
   .ColorScheme-Text { color:#dfdfdf; } .ColorScheme-Highlight { color:#4285f4; } .ColorScheme-NeutralText { color:#ff9800; } .ColorScheme-PositiveText { color:#4caf50; } .ColorScheme-NegativeText { color:#f44336; }
  </style>
  </defs>
  <g
     id="g1"
     transform="translate(-0.003906,-1.0841046)">
    <path
       style="fill:currentColor"
       class="ColorScheme-Text"
       d="m 8.762,3.1682092 v 5.633873 H 7.238 v -5.633873 z"
       id="path1"
       sodipodi:nodetypes="ccccc" />
    <path
       style="fill:currentColor"
       class="ColorScheme-Text"
       d="m 2,9 c 0,3.292 2.708,6 6,6 3.292,0 6,-2.708 6,-6 C 13.999,7.41 13.365,5.884 12.24,4.76 l -0.986,0.897 c 0.864,0.863 1.35,2.034 1.352,3.254 0,2.527 -2.079,4.606 -4.606,4.606 -2.527,0 -4.606,-2.079 -4.606,-4.606 C 3.396,7.691 3.882,6.52 4.746,5.657 L 3.76,4.76 C 2.635,5.884 2.001,7.41 2,9 Z"
       id="path2" />
    <path
       id="path3"
       style="fill:currentColor"
       class="ColorScheme-Text"
       d="M 5.46875,3.4003906 C 3.4312842,4.3637154 2.0078125,6.4433118 2.0078125,8.8300781 c 10e-4,1.5900009 0.6347656,3.1162349 1.7597656,4.2402339 l 0.9863281,-0.896484 c -0.8639999,-0.863 -1.3495624,-2.033907 -1.3515624,-3.2539061 0,-1.5917105 0.8243134,-3.005359 2.0664062,-3.8339844 z m 5.1875,0.052734 v 1.7070312 c 1.180906,0.8373907 1.957031,2.2152504 1.957031,3.7597657 -0.002,1.2200005 -0.487562,2.3909055 -1.351562,3.2539065 l 0.986328,0.896484 c 1.125,-1.124 1.758766,-2.650233 1.759765,-4.2402343 0,-2.3438231 -1.372709,-4.3917657 -3.351562,-5.3769531 z" />
  </g>
</svg>
