<?xml version="1.0" encoding="UTF-8" standalone="no"?>
<svg
   viewBox="0 0 64 64"
   version="1.1"
   id="svg17"
   sodipodi:docname="v4_7d0c9e_godot.svg"
   width="64"
   height="64"
   inkscape:version="1.4.2 (ebf0e940d0, 2025-05-08)"
   xmlns:inkscape="http://www.inkscape.org/namespaces/inkscape"
   xmlns:sodipodi="http://sodipodi.sourceforge.net/DTD/sodipodi-0.dtd"
   xmlns:xlink="http://www.w3.org/1999/xlink"
   xmlns="http://www.w3.org/2000/svg"
   xmlns:svg="http://www.w3.org/2000/svg"
   xmlns:rdf="http://www.w3.org/1999/02/22-rdf-syntax-ns#"
   xmlns:cc="http://creativecommons.org/ns#"
   xmlns:dc="http://purl.org/dc/elements/1.1/">
  <metadata
     id="metadata23">
    <rdf:RDF>
      <cc:Work
         rdf:about="">
        <dc:format>image/svg+xml</dc:format>
        <dc:type
           rdf:resource="http://purl.org/dc/dcmitype/StillImage" />
      </cc:Work>
    </rdf:RDF>
  </metadata>
  <defs
     id="defs21">
    <linearGradient
       inkscape:collect="always"
       id="linearGradient921">
      <stop
         style="stop-color:#53a3da;stop-opacity:1;"
         offset="0"
         id="stop917" />
      <stop
         style="stop-color:#3179ab;stop-opacity:1;"
         offset="1"
         id="stop919" />
    </linearGradient>
    <linearGradient
       inkscape:collect="always"
       id="linearGradient913">
      <stop
         style="stop-color:#53a3da;stop-opacity:1;"
         offset="0"
         id="stop909" />
      <stop
         style="stop-color:#3179ab;stop-opacity:1;"
         offset="1"
         id="stop911" />
    </linearGradient>
    <linearGradient
       inkscape:collect="always"
       xlink:href="#linearGradient913"
       id="linearGradient915"
       x1="511.69821"
       y1="260.94846"
       x2="515.56787"
       y2="783.14679"
       gradientUnits="userSpaceOnUse"
       gradientTransform="matrix(1.1114911,0,0,1.1114911,-57.083454,-94.555286)" />
    <linearGradient
       inkscape:collect="always"
       xlink:href="#linearGradient921"
       id="linearGradient923"
       x1="520.33447"
       y1="878.47778"
       x2="525.10101"
       y2="1026.2408"
       gradientUnits="userSpaceOnUse"
       gradientTransform="matrix(1.1114911,0,0,1.1114911,-57.083454,-94.555286)" />
    <filter
       inkscape:collect="always"
       style="color-interpolation-filters:sRGB"
       id="filter977"
       x="-0.058290688"
       width="1.1165814"
       y="-0.077080935"
       height="1.1541619">
      <feGaussianBlur
         inkscape:collect="always"
         stdDeviation="22.539067"
         id="feGaussianBlur979" />
    </filter>
    <filter
       inkscape:collect="always"
       style="color-interpolation-filters:sRGB"
       id="filter981"
       x="-0.066368499"
       width="1.132737"
       y="-0.21959061"
       height="1.4391812">
      <feGaussianBlur
         inkscape:collect="always"
         stdDeviation="22.539067"
         id="feGaussianBlur983" />
    </filter>
  </defs>
  <sodipodi:namedview
     pagecolor="#ffffff"
     bordercolor="#666666"
     borderopacity="1"
     objecttolerance="10"
     gridtolerance="10"
     guidetolerance="10"
     inkscape:pageopacity="0"
     inkscape:pageshadow="2"
     inkscape:window-width="1920"
     inkscape:window-height="1012"
     id="namedview19"
     showgrid="false"
     inkscape:zoom="8.0000001"
     inkscape:cx="31.25"
     inkscape:cy="38.1875"
     inkscape:window-x="0"
     inkscape:window-y="0"
     inkscape:window-maximized="1"
     inkscape:current-layer="layer1"
     inkscape:showpageshadow="2"
     inkscape:pagecheckerboard="0"
     inkscape:deskcolor="#d1d1d1" />
  <linearGradient
     id="a">
    <stop
       offset="0"
       stop-color="#0f8"
       id="stop2" />
    <stop
       offset="1"
       stop-color="#00c3ff"
       id="stop4" />
  </linearGradient>
  <linearGradient
     id="b"
     gradientUnits="userSpaceOnUse"
     x1="2.7662098"
     x2="45.226852"
     xlink:href="#a"
     y1="18.600399"
     y2="18.600399" />
  <linearGradient
     id="c"
     gradientTransform="matrix(1.16261,0,0,0.94434,-3.932,0.738)"
     gradientUnits="userSpaceOnUse"
     x1="4.6490002"
     x2="43.349998"
     xlink:href="#a"
     y1="39.988998"
     y2="39.988998" />
  <g
     transform="matrix(0.06034483,0,0,0.06034483,1.1034487,-3.393426)"
     id="layer1"
     inkscape:label="Layer 1">
    <path
       style="fill:#ffffff;stroke-width:16.5714;fill-opacity:1"
       d="m 59.263383,758.96603 -0.194197,40.45759 151.537944,141.31026 661.8214,-11.39285 92.37277,-129.98214 -0.25893,-36.6384 -79.68526,-39.4866 L 410.49998,746.0196 81.142847,719.09103 Z"
       id="path2" />
    <path
       inkscape:connector-curvature="0"
       id="path925"
       style="opacity:0.25;fill:#0d222a;fill-opacity:1;fill-rule:nonzero;stroke:none;stroke-width:1.33333;filter:url(#filter977)"
       d="m 104.69892,525.90697 v 197.7823 25.12136 22.86106 c 0.44956,0.004 0.89912,0.0208 1.34452,0.0624 l 150.66987,14.52751 c 7.89231,0.76176 14.07795,7.1139 14.62742,15.02286 l 4.64547,66.5102 131.43028,9.37836 9.05368,-61.38602 c 1.17385,-7.95891 8.00054,-13.85733 16.05103,-13.85733 h 158.96179 c 8.04632,0 14.873,5.89842 16.04686,13.85733 l 9.05368,61.38602 131.43444,-9.37836 4.64131,-66.5102 c 0.55363,-7.90896 6.73511,-14.25694 14.62742,-15.02286 l 150.61159,-14.52751 c 0.4454,-0.0416 0.8908,-0.0583 1.34036,-0.0624 v -19.61006 l 0.0624,-0.0208 V 525.90697 h 0.55779 C 939.81859,500.43179 958.28809,473.58711 976,444.94835 952.47709,404.90403 923.65517,369.11806 892.84769,335.96287 c -28.57217,14.38182 -56.32429,30.67428 -82.53625,48.01155 -13.11639,-13.03729 -27.8895,-23.7019 -42.40036,-34.84938 -14.25694,-11.45134 -30.32462,-19.84733 -45.56394,-29.62946 4.53725,-33.78792 6.78089,-67.05134 7.68418,-101.76752 -39.32002,-19.78905 -81.25,-32.9096 -123.66285,-42.33375 -16.9335,28.45977 -32.41841,59.27974 -45.90527,89.40872 -15.99275,-2.67239 -32.06043,-3.6631 -48.14892,-3.85458 v -0.025 c -0.11239,0 -0.21646,0.025 -0.3122,0.025 -0.0999,0 -0.20397,-0.025 -0.30387,-0.025 v 0.025 c -16.11763,0.19148 -32.17282,1.18219 -48.16973,3.85458 -13.47854,-30.12898 -28.95513,-60.94895 -45.9136,-89.40872 -42.39203,9.42415 -84.32618,22.5447 -123.64204,42.33375 0.89913,34.71618 3.14277,67.9796 7.69251,101.76752 -15.26846,9.78213 -31.31533,18.17812 -45.57643,29.62946 -14.49005,11.14748 -29.28813,21.81209 -42.40868,34.84938 -26.21196,-17.33727 -53.95577,-33.62973 -82.53625,-48.01155 -30.80749,33.15519 -59.612754,68.94116 -83.143994,108.98548 17.703584,28.63876 36.185577,55.48344 56.141134,80.95862 z"
       transform="matrix(1.1114911,0,0,1.1114911,-57.083454,-94.555286)" />
    <path
       inkscape:connector-curvature="0"
       id="path927"
       style="opacity:0.25;fill:#0d222a;fill-opacity:1;fill-rule:nonzero;stroke:none;stroke-width:1.33333;filter:url(#filter981)"
       d="m 784.07144,817.24284 -4.66629,66.86402 c -0.56195,8.05882 -6.97237,14.4734 -15.03119,15.052 L 603.8845,910.6102 c -0.39129,0.0291 -0.78257,0.0416 -1.1697,0.0416 -7.97556,0 -14.85635,-5.85263 -16.03437,-13.86149 l -9.20354,-62.41419 H 446.52531 l -9.20353,62.41419 c -1.23629,8.40015 -8.74564,14.44009 -17.20407,13.81986 L 259.62824,899.15886 c -8.05881,-0.5786 -14.46923,-6.99318 -15.03119,-15.052 l -4.66628,-66.86402 -135.4805,-13.06227 c 0.0624,14.56081 0.24975,30.51194 0.24975,33.68801 0,143.08559 181.51066,211.86022 407.02427,212.65112 h 0.27473 0.2789 c 225.51361,-0.7909 406.96182,-69.56553 406.96182,-212.65112 0,-3.23435 0.19565,-19.11887 0.26225,-33.68801 z"
       transform="matrix(1.1114911,0,0,1.1114911,-57.083454,-94.555286)" />
    <path
       d="m 59.288465,489.98563 v 219.83327 27.92217 25.40987 c 0.499682,0.004 0.999364,0.0231 1.494422,0.0693 l 167.468223,16.1472 c 8.77223,0.84669 15.64752,7.90704 16.25825,16.69778 l 5.1634,73.92549 146.08358,10.42397 10.06309,-68.23002 c 1.30472,-8.84626 8.89253,-15.4023 17.84058,-15.4023 h 176.68461 c 8.94342,0 16.53121,6.55604 17.83595,15.4023 l 10.06308,68.23002 146.08821,-10.42397 5.15878,-73.92549 c 0.61535,-8.79074 7.48601,-15.84646 16.25824,-16.69778 l 167.40345,-16.1472 c 0.49506,-0.0462 0.99011,-0.0648 1.4898,-0.0693 v -21.79641 l 0.0694,-0.0231 v -251.3458 h 0.61998 c 22.1851,-28.31543 42.71369,-58.15305 62.40039,-89.98478 -26.1455,-44.50891 -58.18079,-84.2847 -92.42303,-121.13639 -31.75771,15.98526 -62.60395,34.09418 -91.73831,53.36441 -14.57875,-14.49084 -30.99893,-26.34445 -47.12762,-38.73478 -15.84646,-12.72806 -33.70555,-22.06013 -50.64392,-32.93288 5.04312,-37.55497 7.5369,-74.52697 8.5409,-113.1137 -43.70385,-21.99535 -90.30865,-36.57872 -137.45016,-47.05358 -18.82143,31.63278 -36.03277,65.8889 -51.0233,99.377 -17.7758,-2.97034 -35.63488,-4.07151 -53.51709,-4.28434 v -0.0278 c -0.12492,0 -0.2406,0.0278 -0.34701,0.0278 -0.11104,0 -0.22671,-0.0278 -0.33775,-0.0278 v 0.0278 c -17.9146,0.21283 -35.7598,1.314 -53.54023,4.28434 -14.98127,-33.4881 -32.18337,-67.74422 -51.03256,-99.377 -47.11836,10.47486 -93.7278,25.05823 -137.42702,47.05358 0.99937,38.58673 3.49316,75.55873 8.55015,113.1137 -16.97076,10.87275 -34.80671,20.20482 -50.65779,32.93288 -16.10557,12.39033 -32.5535,24.24394 -47.13688,38.73478 C 151.28592,312.95864 120.44893,294.84972 88.681976,278.86446 54.439724,315.71615 22.422929,355.49194 -3.7318351,400.00085 15.945541,431.83258 36.488112,461.6702 58.668537,489.98563 Z"
       style="fill:url(#linearGradient915);fill-opacity:1;fill-rule:nonzero;stroke:none;stroke-width:1.48199"
       id="path84-6"
       inkscape:connector-curvature="0" />
    <path
       d="m 814.40498,813.80287 -5.18653,74.31876 c -0.62461,8.95731 -7.74973,16.08706 -16.70704,16.73016 L 614.1288,917.57986 c -0.43491,0.0323 -0.86982,0.0462 -1.30011,0.0462 -8.86476,0 -16.5127,-6.50514 -17.82206,-15.40692 L 584.77698,832.84635 H 439.22546 l -10.22964,69.37282 c -1.37413,9.33669 -9.7207,16.05003 -19.12217,15.36065 L 231.49103,904.85179 c -8.9573,-0.6431 -16.08242,-7.77285 -16.70704,-16.73016 l -5.18653,-74.31876 -150.585367,-14.5186 c 0.06936,16.18421 0.277595,33.91375 0.277595,37.44392 0,159.03838 201.747482,235.48081 452.403862,236.35991 h 0.30536 0.30999 c 250.65638,-0.8791 452.33445,-77.32153 452.33445,-236.35991 0,-3.59495 0.21746,-21.25045 0.29149,-37.44392 z"
       style="fill:url(#linearGradient923);fill-opacity:1;fill-rule:nonzero;stroke:none;stroke-width:1.48199"
       id="path88-5"
       inkscape:connector-curvature="0" />
    <path
       d="m 375.52538,600.87251 c 0,55.76105 -45.17978,100.93158 -100.92231,100.93158 -55.7148,0 -100.90845,-45.17053 -100.90845,-100.93158 0,-55.72404 45.19365,-100.87143 100.90845,-100.87143 55.74253,0 100.92231,45.14739 100.92231,100.87143"
       style="fill:#ffffff;fill-opacity:1;fill-rule:nonzero;stroke:none;stroke-width:1.48199"
       id="path92-5"
       inkscape:connector-curvature="0" />
    <path
       d="m 351.24155,606.85873 c 0,36.98587 -29.97643,66.9623 -66.99006,66.9623 -36.99514,0 -66.99007,-29.97643 -66.99007,-66.9623 0,-36.98588 29.99493,-66.99006 66.99007,-66.99006 37.01363,0 66.99006,30.00418 66.99006,66.99006"
       style="fill:#414042;fill-opacity:1;fill-rule:nonzero;stroke:none;stroke-width:1.48199"
       id="path96-2"
       inkscape:connector-curvature="0" />
    <path
       d="m 511.99262,710.98627 c -17.94237,0 -32.4841,-13.22312 -32.4841,-29.52301 V 588.5544 c 0,-16.286 14.54173,-29.523 32.4841,-29.523 17.94236,0 32.51648,13.237 32.51648,29.523 v 92.90886 c 0,16.29989 -14.57412,29.52301 -32.51648,29.52301"
       style="fill:#ffffff;fill-opacity:1;fill-rule:nonzero;stroke:none;stroke-width:1.48199"
       id="path100-1"
       inkscape:connector-curvature="0" />
    <path
       d="m 648.47672,600.87251 c 0,55.76105 45.17978,100.93158 100.93158,100.93158 55.71015,0 100.89918,-45.17053 100.89918,-100.93158 0,-55.72404 -45.18903,-100.87143 -100.89918,-100.87143 -55.7518,0 -100.93158,45.14739 -100.93158,100.87143"
       style="fill:#ffffff;fill-opacity:1;fill-rule:nonzero;stroke:none;stroke-width:1.48199"
       id="path104-7"
       inkscape:connector-curvature="0" />
    <path
       d="m 672.76669,606.85873 c 0,36.98587 29.96717,66.9623 66.95305,66.9623 37.0229,0 66.99007,-29.97643 66.99007,-66.9623 0,-36.98588 -29.96717,-66.99006 -66.99007,-66.99006 -36.98588,0 -66.95305,30.00418 -66.95305,66.99006"
       style="fill:#414042;fill-opacity:1;fill-rule:nonzero;stroke:none;stroke-width:1.48199"
       id="path108-9"
       inkscape:connector-curvature="0" />
    <path
       style="fill:#000000;stroke-width:16.5714"
       d="m 59.19865,760.64906 3.819198,17.93082"
       id="path1" />
  </g>
</svg>
