<?xml version="1.0" encoding="UTF-8" standalone="no"?>
<svg
   height="231.72127"
   viewBox="0 0 231.68134 231.72127"
   width="231.68134"
   version="1.1"
   id="svg2"
   sodipodi:docname="roblox-studio.svg"
   inkscape:version="1.4.2 (ebf0e940d0, 2025-05-08)"
   xmlns:inkscape="http://www.inkscape.org/namespaces/inkscape"
   xmlns:sodipodi="http://sodipodi.sourceforge.net/DTD/sodipodi-0.dtd"
   xmlns="http://www.w3.org/2000/svg"
   xmlns:svg="http://www.w3.org/2000/svg">
  <defs
     id="defs2" />
  <sodipodi:namedview
     id="namedview2"
     pagecolor="#ffffff"
     bordercolor="#000000"
     borderopacity="0.25"
     inkscape:showpageshadow="2"
     inkscape:pageopacity="0.0"
     inkscape:pagecheckerboard="0"
     inkscape:deskcolor="#d1d1d1"
     inkscape:zoom="1.7326851"
     inkscape:cx="77.336614"
     inkscape:cy="57.425321"
     inkscape:window-width="1920"
     inkscape:window-height="1012"
     inkscape:window-x="0"
     inkscape:window-y="0"
     inkscape:window-maximized="1"
     inkscape:current-layer="svg2" />
  <linearGradient
     id="a"
     gradientUnits="userSpaceOnUse"
     x1="70.134674"
     x2="82.848145"
     y1="46.271187"
     y2="8.4226913">
    <stop
       offset="0"
       stop-color="#518630"
       id="stop1"
       style="stop-color:#00bfe9;stop-opacity:1;" />
    <stop
       offset="1"
       stop-color="#b6db3f"
       id="stop2"
       style="stop-color:#015eab;stop-opacity:1;" />
  </linearGradient>
  <path
     d="M 98.068222,10.832675 59.532213,0.51702888 C 58.465281,0.23142307 57.368864,0.86495714 57.083496,1.9319531 L 52.930111,17.461502 c -0.285426,1.067211 0.348035,2.163808 1.415113,2.44973 l 11.44118,3.065655 c 1.067166,0.285947 2.16419,-0.346874 2.450934,-1.413826 l 0.04345,-0.161673 c 0.286744,-1.066952 1.383768,-1.699773 2.450934,-1.413826 l 7.966275,2.134557 c 1.066933,0.285883 1.700098,1.382558 1.414214,2.44949 l -0.04333,0.161703 c -0.285884,1.066932 0.347281,2.163607 1.414214,2.44949 l 11.395628,3.05345 c 1.066787,0.285845 2.163243,-0.347534 2.448591,-1.414454 L 99.483461,13.281935 C 99.768867,12.2148 99.135293,11.118317 98.068222,10.832675 Z M 50.93274,24.928141 46.776592,40.468004 c -0.285406,1.067135 0.348168,2.163618 1.415239,2.44926 l 38.53601,10.315646 c 1.066932,0.285606 2.163348,-0.347928 2.448717,-1.414924 l 4.153384,-15.529549 c 0.285426,-1.067211 -0.348036,-2.163808 -1.415113,-2.44973 L 80.517913,30.784912 c -1.066932,-0.285884 -2.163606,0.347282 -2.44949,1.414214 l -0.09089,0.339187 c -0.285899,1.066989 -1.382543,1.70027 -2.449584,1.414565 L 67.551837,31.817235 C 66.485165,31.531629 65.852436,30.434906 66.139108,29.36852 l 0.09174,-0.341263 c 0.286687,-1.066443 -0.345957,-2.163251 -1.412634,-2.449066 L 53.381331,23.513687 c -1.066787,-0.285845 -2.163243,0.347534 -2.448591,1.414454 z"
     fill="url(#a)"
     transform="matrix(4.39,1e-8,-1e-8,4.39,-205.34924,-1.971205)"
     id="path2"
     style="fill:url(#a)"
     sodipodi:nodetypes="ccscsssssssssssscsscssssssssssssss" />
</svg>
