<?xml version="1.0" encoding="UTF-8" standalone="no"?>
<svg
   viewBox="0 0 64 64"
   style="clip-rule:evenodd;fill-rule:evenodd;stroke-linejoin:round;stroke-miterlimit:2"
   version="1.1"
   id="svg3"
   sodipodi:docname="folder-public.svg"
   inkscape:version="1.4.3 (0d15f75042, 2025-12-25)"
   width="64"
   height="64"
   xml:space="preserve"
   xmlns:inkscape="http://www.inkscape.org/namespaces/inkscape"
   xmlns:sodipodi="http://sodipodi.sourceforge.net/DTD/sodipodi-0.dtd"
   xmlns:xlink="http://www.w3.org/1999/xlink"
   xmlns="http://www.w3.org/2000/svg"
   xmlns:svg="http://www.w3.org/2000/svg"><sodipodi:namedview
     id="namedview3"
     pagecolor="#ffffff"
     bordercolor="#999999"
     borderopacity="1"
     inkscape:showpageshadow="2"
     inkscape:pageopacity="0"
     inkscape:pagecheckerboard="0"
     inkscape:deskcolor="#d1d1d1"
     inkscape:zoom="4.4415145"
     inkscape:cx="43.678795"
     inkscape:cy="50.658396"
     inkscape:window-width="1920"
     inkscape:window-height="1012"
     inkscape:window-x="0"
     inkscape:window-y="0"
     inkscape:window-maximized="1"
     inkscape:current-layer="svg3" /><defs
     id="defs2"><linearGradient
       id="linearGradient4"
       x1="0"
       y1="0"
       x2="1"
       y2="0"
       gradientUnits="userSpaceOnUse"
       gradientTransform="matrix(0,-41.6338,41.6338,0,445.153,52.7218)"><stop
         style="stop-color:#0b4f94;stop-opacity:1;"
         offset="0"
         id="stop3" /><stop
         style="stop-color:#126c98;stop-opacity:1;"
         offset="1"
         id="stop4" /></linearGradient><linearGradient
       id="base-gradient"
       x1="0"
       y1="0"
       x2="1"
       y2="0"
       gradientUnits="userSpaceOnUse"
       gradientTransform="matrix(0,-41.6338,41.6338,0,445.153,52.7218)"><stop
         style="stop-color:#1075f6"
         offset="0"
         id="stop1" /><stop
         style="stop-color:#12c5ff"
         offset="1"
         id="stop2" /></linearGradient><linearGradient
       id="_Linear1"
       x2="1"
       gradientTransform="matrix(3.03829e-15,-49.619,49.619,3.03829e-15,104.99,51.088)"
       gradientUnits="userSpaceOnUse"><stop
         style="stop-color:#c15721"
         offset="0"
         id="stop3-3" /><stop
         style="stop-color:#fc9f47"
         offset="1"
         id="stop4-6" /></linearGradient><linearGradient
       id="_Linear1-3"
       x2="1"
       gradientTransform="matrix(0,-49.619,49.619,0,104.99,51.3535)"
       gradientUnits="userSpaceOnUse"><stop
         style="stop-color:#c15721"
         offset="0"
         id="stop3-6" /><stop
         style="stop-color:#fc9f47"
         offset="1"
         id="stop4-7" /></linearGradient><linearGradient
       id="a"
       x2="1"
       gradientTransform="matrix(0,-33.6872,33.6872,0,923.826,47.9082)"
       gradientUnits="userSpaceOnUse"><stop
         stop-color="#3c2f4c"
         offset="0"
         id="stop1-6" /><stop
         stop-color="#593a7e"
         offset="1"
         id="stop2-1" /></linearGradient><linearGradient
       id="linearGradient974"><stop
         style="stop-color:#333333;stop-opacity:1;"
         offset="0"
         id="stop962" /><stop
         id="stop964"
         offset="0.04166667"
         style="stop-color:#666666;stop-opacity:1;" /><stop
         style="stop-color:#333333;stop-opacity:1;"
         offset="0.08333334"
         id="stop966" /><stop
         id="stop968"
         offset="0.91666669"
         style="stop-color:#333333;stop-opacity:1;" /><stop
         style="stop-color:#666666;stop-opacity:1;"
         offset="0.95833331"
         id="stop970" /><stop
         style="stop-color:#333333;stop-opacity:1;"
         offset="1"
         id="stop972" /></linearGradient><linearGradient
       y2="44"
       x2="464"
       y1="44"
       x1="48"
       gradientTransform="matrix(0.25,0,0,0.25,-184.35821,-4.5812108)"
       gradientUnits="userSpaceOnUse"
       id="linearGradient1747"
       xlink:href="#linearGradient974" /><linearGradient
       id="paint0_linear_7050_7920"
       x1="14"
       y1="14"
       x2="34.8367"
       y2="65.88"
       gradientUnits="userSpaceOnUse"
       gradientTransform="matrix(1.3888889,0,0,1.3888889,15.388889,11.999999)"><stop
         offset="0.499975"
         stop-color="white"
         id="stop1-9" /><stop
         offset="0.663679"
         stop-color="#FFEDBE"
         id="stop2-2" /><stop
         offset="0.839339"
         stop-color="#FFBCC3"
         id="stop3-0" /></linearGradient><linearGradient
       id="_Linear1-37"
       x2="1"
       gradientTransform="matrix(-32.602506,-32.319602,32.319602,-32.602506,72.456509,104.69076)"
       gradientUnits="userSpaceOnUse"><stop
         style="stop-color:#004dd4"
         offset="0"
         id="stop1-5" /><stop
         style="stop-color:#17a1e7"
         offset="1"
         id="stop2-9" /></linearGradient><linearGradient
       id="a-6"><stop
         offset="0"
         stop-color="#fce080"
         id="stop1-7" /><stop
         offset="1"
         stop-color="#fee69d"
         id="stop2-5" /></linearGradient><linearGradient
       xlink:href="#a-6"
       id="b"
       gradientUnits="userSpaceOnUse"
       gradientTransform="matrix(1.3,0,0,1.3,73.6,6.6)"
       x1="-30"
       y1="35.868"
       x2="-30"
       y2="13" /><linearGradient
       xlink:href="#a-6"
       id="b-7"
       gradientUnits="userSpaceOnUse"
       gradientTransform="matrix(1.3,0,0,1.3,73.6,6.6)"
       x1="-30"
       y1="35.868"
       x2="-30"
       y2="13" /><linearGradient
       xlink:href="#a-6"
       id="b-5"
       gradientUnits="userSpaceOnUse"
       gradientTransform="matrix(1.3,0,0,1.3,73.6,6.6)"
       x1="-30"
       y1="35.868"
       x2="-30"
       y2="13" /><linearGradient
       xlink:href="#a-6"
       id="b-8"
       gradientUnits="userSpaceOnUse"
       gradientTransform="matrix(1.3,0,0,1.3,73.6,6.6)"
       x1="-30"
       y1="35.868"
       x2="-30"
       y2="13" /><linearGradient
       id="glyph-gradient"
       x1="-0.1783312"
       y1="-20.913452"
       x2="0.62087876"
       y2="-20.913452"
       gradientUnits="userSpaceOnUse"
       gradientTransform="matrix(0,34.692174,-34.692174,0,-693.53313,26.712532)"><stop
         style="stop-color:#000000;stop-opacity:1;"
         offset="0"
         id="stop3-36" /><stop
         style="stop-color:#0b4f94"
         offset="1"
         id="stop4-75" /></linearGradient></defs><g
     id="base"
     inkscape:label="base"
     style="clip-rule:evenodd;display:inline;fill-rule:evenodd;stroke-linejoin:round;stroke-miterlimit:2"><path
       d="m 61.122,15.88 c 0,-2.762 -2.239,-5 -5,-5 H 7.878 c -2.761,0 -5,2.238 -5,5 v 32.246 c 0,2.761 2.239,5 5,5 h 48.244 c 2.761,0 5,-2.239 5,-5 z"
       style="fill:#0083d5;fill-opacity:1"
       id="path2" /><path
       d="m 61.122,20.652 c 0,-1.326 -0.527,-2.598 -1.465,-3.536 -0.938,-0.937 -2.209,-1.464 -3.535,-1.464 h -25.58 c -1.232,0 -2.42,-0.455 -3.337,-1.277 -0.768,-0.689 -1.713,-1.535 -2.481,-2.224 -0.917,-0.822 -2.105,-1.277 -3.337,-1.277 H 7.878 c -1.326,0 -2.597,0.527 -3.535,1.465 -0.938,0.937 -1.465,2.209 -1.465,3.535 v 32.252 c 0,2.761 2.239,5 5,5 h 48.244 c 2.761,0 5,-2.239 5,-5 z"
       style="display:inline;fill:url(#base-gradient);fill-opacity:1"
       id="path3" /></g><path
     d="m 61.122,20.652 c 0,-2.762 -2.239,-5 -5,-5 H 7.878 c -2.761,0 -5,2.238 -5,5 v 27.474 c 0,2.761 2.239,5 5,5 h 48.244 c 2.761,0 5,-2.239 5,-5 z"
     style="clip-rule:evenodd;display:none;fill:#0083d5;fill-opacity:1;fill-rule:evenodd;stroke-linejoin:round;stroke-miterlimit:2"
     id="path11"
     sodipodi:nodetypes="sssssssss"
     inkscape:label="center ruler" /><g
     id="g6"
     inkscape:label="glyph"><path
       d="m 34.84931,22.966597 a 2.4407632,2.4407632 0 1 0 -2.440763,2.440764 2.4394786,2.4394786 0 0 0 2.440763,-2.440764 z m -8.037819,17.033959 3.115185,-4.338136 0.376392,-6.940759 c 0.08607,-1.653296 2.341848,-1.861404 4.368966,-2.028403 1.213958,2.055378 3.185838,5.877101 4.014412,7.499567 a 0.92620542,0.92620542 0 0 1 -0.340422,1.210103 0.95061301,0.95061301 0 0 1 -1.327004,-0.339137 l -2.702823,-4.778757 -0.331431,5.572647 -4.457604,5.323434 -2.214672,6.240646 a 1.3976581,1.3976581 0 0 1 -2.673277,-0.637168 1.2242354,1.2242354 0 0 1 0.03854,-0.259492 c 0.03854,-0.145161 2.132456,-6.523261 2.132456,-6.523261 z m 7.725658,-2.800454 -2.030971,2.424063 0.430344,2.039963 4.145443,5.504564 a 1.3963735,1.3963735 0 1 0 2.32258,-1.541536 l -3.937336,-5.504563 z m -9.836275,-4.038821 a 1.1317434,1.1317434 0 0 0 1.05852,1.939763 c 0.784898,-0.475306 3.018839,-1.973163 3.018839,-1.973163 l 0.1336,-2.474164 z"
       style="clip-rule:evenodd;fill:#000000;fill-opacity:0.50263613;fill-rule:evenodd;stroke-width:1.19389;stroke-linejoin:round;stroke-miterlimit:2"
       id="path6" /></g></svg>
