<?xml version="1.0" encoding="UTF-8" standalone="no"?>
<svg
   clip-rule="evenodd"
   fill-rule="evenodd"
   stroke-linejoin="round"
   stroke-miterlimit="2"
   viewBox="0 0 48 48"
   version="1.1"
   id="svg6"
   sodipodi:docname="kora_folder-documents.svg"
   inkscape:version="1.4.2 (ebf0e940d0, 2025-05-08)"
   xmlns:inkscape="http://www.inkscape.org/namespaces/inkscape"
   xmlns:sodipodi="http://sodipodi.sourceforge.net/DTD/sodipodi-0.dtd"
   xmlns="http://www.w3.org/2000/svg"
   xmlns:svg="http://www.w3.org/2000/svg">
  <defs
     id="defs6">
    <inkscape:path-effect
       effect="powerstroke"
       message=""
       id="path-effect6"
       is_visible="true"
       lpeversion="1.3"
       scale_width="0.3"
       interpolator_type="CentripetalCatmullRom"
       interpolator_beta="0.2"
       start_linecap_type="zerowidth"
       end_linecap_type="zerowidth"
       offset_points="13.5,0.5"
       linejoin_type="round"
       miter_limit="4"
       not_jump="false"
       sort_points="true" />
    <inkscape:path-effect
       effect="fill_between_many"
       method="bsplinespiro"
       autoreverse="false"
       close="false"
       join="false"
       linkedpaths="#path2,0,1"
       id="path-effect7" />
    <linearGradient
       id="_Linear2"
       x2="1"
       gradientTransform="matrix(0,17.0238,-17.0238,0,-370.71114,13.396885)"
       gradientUnits="userSpaceOnUse">
      <stop
         style="stop-color:rgb(18,108,152)"
         offset="0"
         id="stop5" />
      <stop
         style="stop-color:rgb(11,79,148)"
         offset="1"
         id="stop6" />
    </linearGradient>
  </defs>
  <sodipodi:namedview
     id="namedview6"
     pagecolor="#ffffff"
     bordercolor="#000000"
     borderopacity="0.25"
     inkscape:showpageshadow="2"
     inkscape:pageopacity="0.0"
     inkscape:pagecheckerboard="0"
     inkscape:deskcolor="#d1d1d1"
     inkscape:zoom="5.9146535"
     inkscape:cx="20.119522"
     inkscape:cy="34.744216"
     inkscape:window-width="1920"
     inkscape:window-height="1012"
     inkscape:window-x="0"
     inkscape:window-y="0"
     inkscape:window-maximized="1"
     inkscape:current-layer="svg6" />
  <linearGradient
     id="a"
     x2="1"
     gradientTransform="matrix(0 -31.2253 31.2253 0 673.409 39.5414)"
     gradientUnits="userSpaceOnUse">
    <stop
       stop-color="#1075f6"
       offset="0"
       id="stop1"
       style="stop-color:#677b98;stop-opacity:1;" />
    <stop
       stop-color="#12c5ff"
       offset="1"
       id="stop2"
       style="stop-color:#d1e5e7;stop-opacity:1;" />
  </linearGradient>
  <linearGradient
     id="b"
     x2="1"
     gradientTransform="matrix(0 19.0219 -18.7093 0 -1290.86 15.3883)"
     gradientUnits="userSpaceOnUse">
    <stop
       stop-color="#126c98"
       offset="0"
       id="stop3" />
    <stop
       stop-color="#0b4f94"
       offset="1"
       id="stop4" />
  </linearGradient>
  <path
     d="m45.841 11.91c0-2.072-1.679-3.75-3.75-3.75h-36.183c-2.07 0-3.75 1.678-3.75 3.75v24.185c0 2.07 1.68 3.75 3.75 3.75h36.183c2.071 0 3.75-1.68 3.75-3.75z"
     fill="#0083d5"
     id="path4"
     style="fill:#839fb1;fill-opacity:1" />
  <path
     d="m45.841 15.489c0-.995-.395-1.948-1.098-2.652-.704-.703-1.657-1.098-2.652-1.098h-19.185c-.924 0-1.815-.341-2.502-.958-.576-.516-1.285-1.151-1.861-1.668-.688-.616-1.579-.957-2.503-.957h-10.131c-.995 0-1.948.395-2.652 1.098-.703.703-1.098 1.657-1.098 2.652v24.189c0 2.07 1.679 3.75 3.75 3.75h36.182c2.071 0 3.75-1.68 3.75-3.75z"
     fill="url(#a)"
     id="path5" />
  <path
     d="m 23.831554,17.605617 -7.131282,9.127657 c -1.336838,1.711389 -0.963028,4.760357 0.748362,6.097195 1.71139,1.337578 4.760356,0.963026 6.097195,-0.748363 l 7.131283,-9.127657 0.891225,-1.141419 c 0.891225,-1.13994 0.642511,-3.172584 -0.498909,-4.06455 -1.14068,-0.891225 -3.173324,-0.641771 -4.064549,0.499649 l -0.891226,1.140679 -5.348832,6.845557 -0.891225,1.14142 c -0.445612,0.56997 -0.320515,1.586292 0.249454,2.031905 0.57071,0.445612 1.587032,0.321256 2.032645,-0.248714 l 6.239317,-7.987718 1.14142,0.891966 -6.240058,7.986977 c -0.891225,1.140679 -2.92313,1.390134 -4.064549,0.498909 -1.14142,-0.891966 -1.390134,-2.924611 -0.498909,-4.06455 l 0.891225,-1.14142 6.239317,-7.986236 c 1.337579,-1.71139 4.385806,-2.085942 6.097935,-0.748364 1.71139,1.336838 2.085201,4.385066 0.748363,6.096455 l -0.891225,1.140679 -7.132023,9.127657 c -1.78245,2.282099 -5.84774,2.781748 -8.129099,0.998557 -2.282099,-1.783191 -2.780268,-5.84774 -0.998558,-8.129099 l 7.132023,-9.128397 z"
     id="path7"
     style="fill:#56727b;fill-opacity:1"
     inkscape:original-d="M 0,0"
     inkscape:path-effect="#path-effect7" />
  <path
     d="m 23.69607,17.273818 c -1.996786,2.555779 -4.475789,5.728769 -7.34967,9.407181 -0.350419,0.448599 -0.598581,0.991658 -0.736735,1.590863 -0.131113,0.56867 -0.162464,1.186493 -0.0864,1.806469 0.07268,0.592339 0.243999,1.188595 0.520572,1.7319 0.265793,0.522129 0.631138,0.999225 1.099704,1.365242 0.453473,0.354422 0.998464,0.600429 1.590844,0.737046 0.573928,0.132362 1.192112,0.161793 1.80649,0.08636 0.597083,-0.07331 1.192518,-0.246117 1.731904,-0.520758 0.525761,-0.267703 1.001367,-0.634 1.365226,-1.099803 2.355332,-3.014698 4.811971,-6.159064 7.349662,-9.407171 0.29796,-0.381607 0.604832,-0.774627 0.918545,-1.176409 0.24377,-0.311799 0.40907,-0.683185 0.500515,-1.079485 0.09053,-0.392335 0.109012,-0.810564 0.05863,-1.221434 -0.04992,-0.407141 -0.167773,-0.809188 -0.35209,-1.171312 -0.182833,-0.359205 -0.432232,-0.681233 -0.747111,-0.927297 -0.312605,-0.244241 -0.684354,-0.409246 -1.08,-0.500442 -0.393086,-0.09061 -0.811417,-0.108748 -1.221571,-0.05836 -0.407832,0.05011 -0.809722,0.168265 -1.171178,0.352369 -0.359706,0.183213 -0.681353,0.432824 -0.926864,0.747258 -0.304265,0.389429 -0.610975,0.781987 -0.918488,1.175573 -1.835952,2.349693 -3.676674,4.705491 -5.512628,7.055187 -0.30755,0.393889 -0.61426,0.786702 -0.918554,1.17642 -0.130427,0.166826 -0.216732,0.363406 -0.264126,0.569076 -0.04762,0.206669 -0.05653,0.42472 -0.03049,0.636659 0.02619,0.213153 0.08799,0.422382 0.183676,0.610393 0.09643,0.189475 0.227874,0.358709 0.393869,0.488487 0.167371,0.130684 0.364151,0.216911 0.569554,0.264295 0.207078,0.04777 0.425215,0.05666 0.636846,0.03077 0.213573,-0.02613 0.422779,-0.08794 0.610506,-0.1834 0.189634,-0.09643 0.358966,-0.228032 0.488545,-0.393773 2.163893,-2.770266 4.281253,-5.480959 6.338074,-8.114148 0.158779,0.124078 0.315502,0.246549 0.46997,0.36726 0.154481,0.120719 0.311217,0.2432 0.470008,0.367288 -2.057073,2.632957 -4.174694,5.343411 -6.338813,8.113381 -0.213195,0.272868 -0.497449,0.49664 -0.82646,0.664145 -0.32575,0.165845 -0.693104,0.275273 -1.071429,0.321713 -0.374911,0.04602 -0.758152,0.02984 -1.117587,-0.05301 -0.356271,-0.08212 -0.687624,-0.229503 -0.963028,-0.444538 -0.27349,-0.21372 -0.497198,-0.498407 -0.664427,-0.826958 -0.166163,-0.326456 -0.275367,-0.694027 -0.321682,-1.071741 -0.04605,-0.375588 -0.02959,-0.758749 0.05318,-1.11747 0.08237,-0.356976 0.229902,-0.687628 0.444597,-0.962237 0.304352,-0.389794 0.611062,-0.782608 0.918576,-1.176449 2.141587,-2.741201 4.288756,-5.489547 6.430363,-8.230774 0.32951,-0.421596 0.76636,-0.763141 1.265259,-1.017145 0.499922,-0.254523 1.060107,-0.420075 1.632398,-0.490338 0.573852,-0.07045 1.157331,-0.04481 1.702558,0.08093 0.547093,0.126162 1.053186,0.352448 1.473909,0.681131 0.422148,0.329757 0.763598,0.767011 1.017043,1.264813 0.254811,0.500486 0.42004,1.060704 0.490155,1.632068 0.07051,0.574618 0.04456,1.15794 -0.08096,1.702271 -0.126326,0.547836 -0.352795,1.053534 -0.680817,1.47346 -0.311211,0.39832 -0.617998,0.790977 -0.918508,1.175599 -2.510486,3.212953 -4.966226,6.355841 -7.35043,9.407177 -0.447371,0.572774 -1.037846,1.03128 -1.703303,1.370178 -0.677191,0.344873 -1.430765,0.565387 -2.192993,0.659034 -0.777073,0.09547 -1.560381,0.05896 -2.287192,-0.108618 -0.742284,-0.171143 -1.421749,-0.477821 -1.983984,-0.917284 -0.574788,-0.449128 -1.032535,-1.04077 -1.369972,-1.703618 -0.345977,-0.679624 -0.565541,-1.434125 -0.658686,-2.192962 -0.09584,-0.780766 -0.05802,-1.563756 0.108691,-2.287041 0.172043,-0.746442 0.479911,-1.424668 0.916674,-1.983914 2.623349,-3.357669 5.055695,-6.47087 7.258064,-9.289719 0.409707,0.320108 0.765724,0.598268 1.057411,0.826166 z m 0.210553,-0.02585 C 23.587228,16.99842 23.190701,16.688609 22.731011,16.329449 a 0.15,0.15 38.00071 0 0 -0.210552,0.02585 c -2.226661,2.849941 -4.690343,6.00325 -7.350433,9.407944 -0.467103,0.598094 -0.792002,1.317699 -0.97259,2.101212 -0.174966,0.759119 -0.213988,1.577362 -0.11412,2.390969 0.09706,0.790716 0.325824,1.578908 0.6891,2.292514 0.354103,0.695586 0.838089,1.323734 1.452592,1.803895 0.601236,0.469948 1.322181,0.793598 2.101314,0.973236 0.763089,0.175939 1.581427,0.213535 2.391169,0.11405 0.794253,-0.09758 1.581884,-0.32754 2.29256,-0.689467 0.698349,-0.355649 1.325267,-0.84044 1.803568,-1.452814 2.38419,-3.051319 4.83993,-6.194207 7.350419,-9.407164 0.300513,-0.384626 0.6073,-0.777283 0.918521,-1.175615 0.358681,-0.459175 0.601996,-1.006419 0.736736,-1.590742 0.133869,-0.580551 0.160891,-1.199162 0.0864,-1.806213 -0.07407,-0.603613 -0.248809,-1.197856 -0.520577,-1.731646 -0.270452,-0.531206 -0.638107,-1.004543 -1.099699,-1.365112 -0.460001,-0.359368 -1.007661,-0.602484 -1.591181,-0.737047 -0.581511,-0.134099 -1.200291,-0.160793 -1.806533,-0.08636 -0.604587,0.07423 -1.198781,0.249306 -1.731947,0.520755 -0.532399,0.271059 -1.005242,0.638786 -1.365537,1.09977 -2.141628,2.741254 -4.288798,5.489601 -6.430405,8.230827 -0.307545,0.393883 -0.614255,0.786696 -0.918549,1.176414 -0.245469,0.313973 -0.409782,0.686273 -0.500516,1.079489 -0.09118,0.395131 -0.108638,0.813603 -0.05863,1.221431 0.05029,0.410156 0.169062,0.81172 0.35209,1.171312 0.184224,0.36194 0.434335,0.682877 0.747111,0.927297 0.314922,0.245891 0.687633,0.409935 1.080317,0.500453 0.395887,0.09126 0.814434,0.108415 1.221528,0.05844 0.41082,-0.05043 0.812154,-0.169444 1.170987,-0.352132 0.362465,-0.184537 0.682938,-0.434733 0.926752,-0.746791 2.196515,-2.811435 4.345127,-5.561557 6.43115,-8.231567 a 0.15000004,0.15000716 38.002858 0 0 -0.02584,-0.210546 C 29.586903,21.686337 29.390713,21.533023 29.19803,21.38245 29.005346,21.231878 28.809156,21.078564 28.609843,20.92281 a 0.15000004,0.15000715 37.999922 0 0 -0.210578,0.02586 c -2.085775,2.670257 -4.234132,5.420634 -6.430385,8.232327 -0.09889,0.126482 -0.231965,0.231671 -0.388141,0.311084 -0.154636,0.07863 -0.329868,0.130876 -0.510964,0.153035 -0.179466,0.02196 -0.36232,0.01406 -0.532974,-0.02531 -0.169274,-0.03905 -0.324439,-0.108549 -0.452287,-0.208372 -0.126697,-0.09905 -0.231865,-0.232265 -0.311206,-0.38816 -0.07884,-0.154906 -0.131073,-0.330173 -0.153281,-0.510907 -0.02208,-0.17972 -0.01417,-0.362462 0.02506,-0.532707 0.03904,-0.169414 0.108561,-0.32431 0.208187,-0.451739 0.304352,-0.389793 0.611062,-0.782607 0.918576,-1.176448 1.835927,-2.349662 3.676649,-4.70546 5.512602,-7.055155 0.307517,-0.393591 0.614227,-0.786149 0.91852,-1.175614 0.214723,-0.275002 0.500308,-0.498411 0.826594,-0.664602 0.328152,-0.167141 0.696016,-0.275785 1.071599,-0.321929 0.377718,-0.04641 0.760753,-0.02933 1.117609,0.05293 0.35915,0.08278 0.689332,0.230937 0.96267,0.444499 0.275388,0.215203 0.498593,0.501107 0.664462,0.826985 0.167344,0.328776 0.275706,0.696789 0.321682,1.071744 0.04639,0.378371 0.029,0.761309 -0.05318,1.117467 -0.08301,0.359727 -0.231416,0.689564 -0.444597,0.962238 -0.313772,0.401856 -0.620644,0.794877 -0.918576,1.176448 -2.537664,3.248072 -4.994303,6.392438 -7.349643,9.407146 -0.332817,0.426065 -0.771913,0.766117 -1.264936,1.017151 -0.505774,0.257526 -1.067125,0.420939 -1.63234,0.490333 -0.581526,0.0714 -1.164441,0.04317 -1.702514,-0.08092 -0.555286,-0.128063 -1.05888,-0.357018 -1.473553,-0.681115 -0.428636,-0.334826 -0.767799,-0.775291 -1.017059,-1.264941 -0.259348,-0.509468 -0.421358,-1.071592 -0.490158,-1.63234 -0.072,-0.586814 -0.04196,-1.169402 0.08096,-1.702535 0.129489,-0.561626 0.360448,-1.063448 0.680816,-1.473575 2.873872,-3.678402 5.352876,-6.851392 7.349662,-9.407171 z"
     style="clip-rule:evenodd;fill:#56727b;fill-opacity:1;fill-rule:nonzero;stroke:none;stroke-width:1;stroke-linejoin:round;stroke-miterlimit:2;stroke-dasharray:none;stroke-opacity:1"
     id="path2"
     inkscape:path-effect="#path-effect6"
     inkscape:original-d="m 23.814272,17.366167 -7.34967,9.407181 c -1.377777,1.763799 -0.992519,4.906138 0.77128,6.283915 1.763799,1.37854 4.906137,0.992518 6.283915,-0.771281 l 7.34967,-9.407181 0.918518,-1.176374 c 0.918518,-1.174849 0.662187,-3.269741 -0.514187,-4.189022 -1.175612,-0.918518 -3.270504,-0.661425 -4.189022,0.51495 l -0.918518,1.175611 -5.512634,7.055195 -0.918518,1.176375 c -0.459259,0.587424 -0.330331,1.63487 0.257093,2.094129 0.588187,0.459259 1.635633,0.331094 2.094892,-0.25633 l 6.43039,-8.232333 1.176374,0.919281 -6.431152,8.23157 c -0.918518,1.175611 -3.012648,1.432705 -4.189022,0.514187 -1.176374,-0.919281 -1.432705,-3.014174 -0.514187,-4.189022 l 0.918518,-1.176375 6.430389,-8.230806 c 1.37854,-1.763799 4.520116,-2.149821 6.284677,-0.771281 1.763799,1.377777 2.149058,4.519353 0.771281,6.283152 l -0.918518,1.175611 -7.350433,9.407181 c -1.837036,2.351986 -6.026821,2.866936 -8.378044,1.029137 -2.351986,-1.837799 -2.86541,-6.026821 -1.029137,-8.378044 l 7.350433,-9.407944 z"
     inkscape:linked-fill="path7"
     transform="matrix(0.97028607,0,0,0.97028607,0.72489778,0.75546708)" />
  <path
     d="m 2.9726028,13.39726 v 0.8955 H 20.893102 v -0.8955 z m 0,1.79175 v 0.8955 H 14.620852 v -0.8955 z m 0,1.79175 v 0.89625 H 17.308852 v -0.89625 z m 0,1.79175 v 0.89625 H 18.441564 v -0.89625 z m 0,1.7925 v 0.8955 h 8.9602492 v -0.8955 z m 0,1.79175 v 0.89625 H 15.144667 v -0.89625 z"
     style="clip-rule:evenodd;display:none;fill:#ffffff;fill-opacity:1;fill-rule:nonzero;stroke-width:0.75;stroke-linejoin:round;stroke-miterlimit:2"
     id="path3"
     sodipodi:nodetypes="cccccccccccccccccccccccccccccc" />
</svg>
