<?xml version="1.0" encoding="UTF-8" standalone="no"?>
<svg
   style="clip-rule:evenodd;fill-rule:evenodd;stroke-linejoin:round;stroke-miterlimit:2"
   viewBox="0 0 48 48"
   version="1.1"
   id="svg6"
   sodipodi:docname="kora_folder-videos.svg"
   inkscape:version="1.4.2 (ebf0e940d0, 2025-05-08)"
   xmlns:inkscape="http://www.inkscape.org/namespaces/inkscape"
   xmlns:sodipodi="http://sodipodi.sourceforge.net/DTD/sodipodi-0.dtd"
   xmlns:xlink="http://www.w3.org/1999/xlink"
   xmlns="http://www.w3.org/2000/svg"
   xmlns:svg="http://www.w3.org/2000/svg">
  <sodipodi:namedview
     id="namedview6"
     pagecolor="#ffffff"
     bordercolor="#000000"
     borderopacity="0.25"
     inkscape:showpageshadow="2"
     inkscape:pageopacity="0.0"
     inkscape:pagecheckerboard="0"
     inkscape:deskcolor="#d1d1d1"
     inkscape:zoom="8.3645834"
     inkscape:cx="36.044832"
     inkscape:cy="21.579078"
     inkscape:window-width="1920"
     inkscape:window-height="1012"
     inkscape:window-x="0"
     inkscape:window-y="0"
     inkscape:window-maximized="1"
     inkscape:current-layer="g3" />
  <g
     transform="scale(.75)"
     id="g3">
    <path
       d="m61.122 15.88c0-2.762-2.239-5-5-5h-48.244c-2.761 0-5 2.238-5 5v32.246c0 2.761 2.239 5 5 5h48.244c2.761 0 5-2.239 5-5v-32.246z"
       style="fill:#0083d5;fill-opacity:1"
       id="path1" />
    <path
       d="m61.122 20.652c0-1.326-0.527-2.598-1.465-3.536-0.938-0.937-2.209-1.464-3.535-1.464h-25.58c-1.232 0-2.42-0.455-3.337-1.277-0.768-0.689-1.713-1.535-2.481-2.224-0.917-0.822-2.105-1.277-3.337-1.277h-13.509c-1.326 0-2.597 0.527-3.535 1.465-0.938 0.937-1.465 2.209-1.465 3.535v32.252c0 2.761 2.239 5 5 5h48.244c2.761 0 5-2.239 5-5v-27.474z"
       style="fill:url(#_Linear1)"
       id="path2" />
    <path
       sodipodi:type="star"
       style="fill:url(#linearGradient2);stroke-width:0.724;stroke-linecap:round;stroke-miterlimit:2;paint-order:stroke markers fill;fill-opacity:1"
       id="path6"
       inkscape:flatsided="true"
       sodipodi:sides="3"
       sodipodi:cx="13.788294"
       sodipodi:cy="23.591532"
       sodipodi:r1="13.559969"
       sodipodi:r2="6.7799845"
       sodipodi:arg1="2.0943951"
       sodipodi:arg2="3.1415927"
       inkscape:rounded="0"
       inkscape:randomized="2.7755576e-17"
       d="m 7.0083094,32.834809 -1e-7,-18.486555 a 1.4433757,1.4433757 150 0 1 2.1650635,-1.25 l 16.0098262,9.243278 a 1.4433757,1.4433757 90 0 1 0,2.5 L 9.1733729,34.084809 a 1.4433757,1.4433757 30 0 1 -2.1650635,-1.25 z"
       inkscape:transform-center-x="-1.7941342"
       inkscape:path-effect="#path-effect6"
       transform="matrix(0.91052792,0,0,0.91052792,18.283016,12.975909)" />
    <path
       style="clip-rule:evenodd;fill:url(#linearGradient8);fill-opacity:1;fill-rule:evenodd;stroke-width:0.724;stroke-linecap:round;stroke-linejoin:round;stroke-miterlimit:2;paint-order:stroke markers fill"
       id="path11"
       width="3.8256536"
       height="3.5068493"
       x="3.6442914"
       y="20.201143"
       sodipodi:type="rect"
       ry="0.3466619"
       inkscape:path-effect="#path-effect7;#path-effect9"
       d="m 3.9909533,20.201143 h 3.1323298 c 0.1920506,0 0.3466619,0.154611 0.3466619,0.346662 v 2.813526 c 0,0.19205 -0.1546113,0.346662 -0.3466619,0.346662 H 3.9909533 c -0.1920507,0 -0.3466619,-0.154612 -0.3466619,-0.346662 v -2.813526 c 0,-0.192051 0.1546112,-0.346662 0.3466619,-0.346662 z m 0,6.50685 h 3.1323298 c 0.1920506,0 0.3466619,0.154611 0.3466619,0.346661 v 2.813526 c 0,0.192051 -0.1546113,0.346662 -0.3466619,0.346662 H 3.9909533 c -0.1920507,0 -0.3466619,-0.154611 -0.3466619,-0.346662 v -2.813526 c 0,-0.19205 0.1546112,-0.346661 0.3466619,-0.346661 z m 0,6.506849 h 3.1323298 c 0.1920506,0 0.3466619,0.154611 0.3466619,0.346662 v 2.813525 c 0,0.192051 -0.1546113,0.346662 -0.3466619,0.346662 H 3.9909533 c -0.1920507,0 -0.3466619,-0.154611 -0.3466619,-0.346662 v -2.813525 c 0,-0.192051 0.1546112,-0.346662 0.3466619,-0.346662 z m 0,6.506849 h 3.1323298 c 0.1920506,0 0.3466619,0.154611 0.3466619,0.346662 v 2.813526 c 0,0.19205 -0.1546113,0.346661 -0.3466619,0.346661 H 3.9909533 c -0.1920507,0 -0.3466619,-0.154611 -0.3466619,-0.346661 v -2.813526 c 0,-0.192051 0.1546112,-0.346662 0.3466619,-0.346662 z m 0,6.506849 h 3.1323298 c 0.1920506,0 0.3466619,0.154612 0.3466619,0.346662 v 2.813526 c 0,0.192051 -0.1546113,0.346662 -0.3466619,0.346662 H 3.9909533 c -0.1920507,0 -0.3466619,-0.154611 -0.3466619,-0.346662 v -2.813526 c 0,-0.19205 0.1546112,-0.346662 0.3466619,-0.346662 z m 55.0975717,-26.027292 -3.13233,-1.2e-5 c -0.192051,-1e-6 -0.346663,0.15461 -0.346663,0.34666 l -1.1e-5,2.813526 c -10e-7,0.192051 0.15461,0.346662 0.346661,0.346663 l 3.132329,1.2e-5 c 0.192051,1e-6 0.346663,-0.15461 0.346664,-0.346661 l 10e-6,-2.813525 c 1e-6,-0.192051 -0.15461,-0.346663 -0.34666,-0.346663 z m -2.5e-5,6.506849 -3.13233,-1.2e-5 c -0.19205,-1e-6 -0.346662,0.15461 -0.346663,0.346661 l -1.1e-5,2.813525 c 0,0.192051 0.15461,0.346663 0.346661,0.346663 l 3.13233,1.2e-5 c 0.19205,10e-7 0.346662,-0.15461 0.346663,-0.34666 l 1.1e-5,-2.813526 c 0,-0.19205 -0.15461,-0.346662 -0.346661,-0.346663 z m -2.5e-5,6.506849 -3.132329,-1.2e-5 c -0.192051,0 -0.346663,0.15461 -0.346664,0.346661 l -1e-5,2.813526 c -10e-7,0.19205 0.15461,0.346662 0.34666,0.346663 l 3.13233,1.2e-5 c 0.192051,0 0.346663,-0.15461 0.346663,-0.346661 l 1.1e-5,-2.813525 c 10e-7,-0.192051 -0.15461,-0.346663 -0.346661,-0.346664 z m -2.4e-5,6.50685 -3.13233,-1.2e-5 c -0.192051,-10e-7 -0.346663,0.15461 -0.346663,0.34666 l -1.1e-5,2.813526 c -1e-6,0.19205 0.15461,0.346662 0.346661,0.346663 l 3.132329,1.2e-5 c 0.192051,10e-7 0.346663,-0.15461 0.346664,-0.346661 l 10e-6,-2.813525 c 10e-7,-0.192051 -0.15461,-0.346663 -0.34666,-0.346663 z m -2.5e-5,6.506849 -3.13233,-1.2e-5 c -0.19205,-1e-6 -0.346662,0.15461 -0.346663,0.346661 l -1.1e-5,2.813525 c 0,0.192051 0.15461,0.346663 0.346661,0.346663 l 3.13233,1.2e-5 c 0.19205,10e-7 0.346662,-0.15461 0.346663,-0.34666 l 1.1e-5,-2.813526 c 0,-0.192051 -0.15461,-0.346662 -0.346661,-0.346663 z"
       transform="translate(0.46026166,-0.82674499)" />
  </g>
  <defs
     id="defs6">
    <linearGradient
       id="linearGradient9"
       inkscape:collect="always">
      <stop
         style="stop-color:#126c98;stop-opacity:1;"
         offset="0"
         id="stop8" />
      <stop
         style="stop-color:#0b4f94;stop-opacity:1;"
         offset="1"
         id="stop9" />
    </linearGradient>
    <linearGradient
       id="linearGradient1"
       inkscape:collect="always">
      <stop
         style="stop-color:#126c98;stop-opacity:1;"
         offset="0"
         id="stop1" />
      <stop
         style="stop-color:#0b4f94;stop-opacity:1;"
         offset="1"
         id="stop2" />
    </linearGradient>
    <inkscape:path-effect
       effect="mirror_symmetry"
       start_point="31.539739,20.201143"
       end_point="31.539683,49.735389"
       center_point="31.539711,34.968266"
       id="path-effect9"
       is_visible="true"
       lpeversion="1.2"
       lpesatellites=""
       mode="free"
       discard_orig_path="false"
       fuse_paths="false"
       oposite_fuse="false"
       split_items="false"
       split_open="false"
       link_styles="false" />
    <inkscape:path-effect
       effect="clone_original"
       linkeditem=""
       id="path-effect8"
       is_visible="true"
       lpeversion="1"
       method="d"
       attributes=""
       css_properties=""
       allow_transforms="true" />
    <inkscape:path-effect
       effect="tiling"
       id="path-effect7"
       is_visible="true"
       lpeversion="1.3.1"
       unit="px"
       seed="1;1"
       lpesatellites=""
       num_rows="5"
       num_cols="1"
       gapx="0"
       gapy="3"
       offset="0"
       offset_type="false"
       scale="0"
       rotate="0"
       mirrorrowsx="false"
       mirrorrowsy="false"
       mirrorcolsx="false"
       mirrorcolsy="false"
       mirrortrans="false"
       shrink_interp="false"
       split_items="false"
       link_styles="false"
       interpolate_scalex="false"
       interpolate_scaley="true"
       interpolate_rotatex="false"
       interpolate_rotatey="true"
       random_scale="false"
       random_rotate="false"
       random_gap_y="false"
       random_gap_x="false"
       transformorigin="" />
    <inkscape:path-effect
       effect="fillet_chamfer"
       id="path-effect6"
       is_visible="true"
       lpeversion="1"
       nodesatellites_param="F,0,0,1,0,2.5,0,1 @ F,0,0,1,0,2.5,0,1 @ F,0,0,1,0,2.5,0,1"
       radius="2.5"
       unit="px"
       method="auto"
       mode="F"
       chamfer_steps="1"
       flexible="false"
       use_knot_distance="true"
       apply_no_radius="true"
       apply_with_radius="true"
       only_selected="false"
       hide_knots="false" />
    <linearGradient
       id="_Linear1"
       x2="1"
       gradientTransform="matrix(2.54933e-15,-41.6338,41.6338,2.54933e-15,897.879,52.7218)"
       gradientUnits="userSpaceOnUse">
      <stop
         style="stop-color:#1075f6;stop-opacity:1;"
         offset="0"
         id="stop3" />
      <stop
         style="stop-color:#12c5ff;stop-opacity:1;"
         offset="1"
         id="stop4" />
    </linearGradient>
    <linearGradient
       id="_Linear2"
       x2="1"
       gradientTransform="matrix(1.05206e-15,-17.1814,17.1814,1.05206e-15,912,42.7051)"
       gradientUnits="userSpaceOnUse">
      <stop
         style="stop-color:rgb(11,78,148)"
         offset="0"
         id="stop5" />
      <stop
         style="stop-color:rgb(19,110,152)"
         offset="1"
         id="stop6" />
    </linearGradient>
    <linearGradient
       inkscape:collect="always"
       xlink:href="#linearGradient1"
       id="linearGradient2"
       x1="16.456596"
       y1="14.143247"
       x2="16.456596"
       y2="33.039818"
       gradientUnits="userSpaceOnUse" />
    <linearGradient
       inkscape:collect="always"
       xlink:href="#linearGradient9"
       id="linearGradient8"
       x1="31.539738"
       y1="7.0728726"
       x2="31.539738"
       y2="62.863766"
       gradientUnits="userSpaceOnUse" />
  </defs>
</svg>
