<?xml version="1.0" encoding="UTF-8" standalone="no"?>
<svg
   clip-rule="evenodd"
   fill-rule="evenodd"
   stroke-linejoin="round"
   stroke-miterlimit="2"
   viewBox="0 0 48 48"
   version="1.1"
   id="svg4"
   sodipodi:docname="kora_folder-snap.svg"
   inkscape:version="1.4.2 (ebf0e940d0, 2025-05-08)"
   xmlns:inkscape="http://www.inkscape.org/namespaces/inkscape"
   xmlns:sodipodi="http://sodipodi.sourceforge.net/DTD/sodipodi-0.dtd"
   xmlns:xlink="http://www.w3.org/1999/xlink"
   xmlns="http://www.w3.org/2000/svg"
   xmlns:svg="http://www.w3.org/2000/svg">
  <defs
     id="defs4">
    <linearGradient
       id="linearGradient4"
       inkscape:collect="always">
      <stop
         style="stop-color:#126c98;stop-opacity:1;"
         offset="0"
         id="stop4" />
      <stop
         style="stop-color:#0b4f94;stop-opacity:1;"
         offset="1"
         id="stop5" />
    </linearGradient>
    <linearGradient
       inkscape:collect="always"
       xlink:href="#linearGradient4"
       id="linearGradient5"
       x1="24.000002"
       y1="15.761"
       x2="24.000002"
       y2="34.675007"
       gradientUnits="userSpaceOnUse" />
  </defs>
  <sodipodi:namedview
     id="namedview4"
     pagecolor="#ffffff"
     bordercolor="#000000"
     borderopacity="0.25"
     inkscape:showpageshadow="2"
     inkscape:pageopacity="0.0"
     inkscape:pagecheckerboard="0"
     inkscape:deskcolor="#d1d1d1"
     inkscape:zoom="5.9146536"
     inkscape:cx="22.824667"
     inkscape:cy="28.995781"
     inkscape:window-width="1920"
     inkscape:window-height="1012"
     inkscape:window-x="0"
     inkscape:window-y="0"
     inkscape:window-maximized="1"
     inkscape:current-layer="svg4" />
  <linearGradient
     id="a"
     x2="1"
     gradientTransform="matrix(0 -31.2253 31.2253 0 673.409 39.5414)"
     gradientUnits="userSpaceOnUse">
    <stop
       stop-color="#1075f6"
       offset="0"
       id="stop1" />
    <stop
       stop-color="#12c5ff"
       offset="1"
       id="stop2" />
  </linearGradient>
  <path
     d="m45.841 11.91c0-2.072-1.679-3.75-3.75-3.75h-36.183c-2.07 0-3.75 1.678-3.75 3.75v24.185c0 2.07 1.68 3.75 3.75 3.75h36.183c2.071 0 3.75-1.68 3.75-3.75z"
     fill="#0083d5"
     id="path2" />
  <path
     d="m45.841 15.489c0-.995-.395-1.948-1.098-2.652-.704-.703-1.657-1.098-2.652-1.098h-19.185c-.924 0-1.815-.341-2.502-.958-.576-.516-1.285-1.151-1.861-1.668-.688-.616-1.579-.957-2.503-.957h-10.131c-.995 0-1.948.395-2.652 1.098-.703.703-1.098 1.657-1.098 2.652v24.189c0 2.07 1.679 3.75 3.75 3.75h36.182c2.071 0 3.75-1.68 3.75-3.75z"
     fill="url(#a)"
     id="path3" />
  <path
     d="m14.543 15.761 9.457 11.821v-8.275zm10.639 3.546 8.275 4.138-2.364-4.138zm0 1.182v7.093l4.729-4.729zm-4.728 4.729-3.547 9.457 7.093-5.911z"
     fill="#18567d"
     fill-rule="nonzero"
     id="path4"
     style="fill:url(#linearGradient5)" />
</svg>
