<?xml version="1.0" encoding="UTF-8" standalone="no"?>
<svg
   style="clip-rule:evenodd;fill-rule:evenodd;stroke-linecap:round;stroke-linejoin:round"
   viewBox="0 0 48 48"
   version="1.1"
   id="svg35"
   sodipodi:docname="kora_folder-owncloud.svg"
   inkscape:version="1.4.2 (ebf0e940d0, 2025-05-08)"
   xmlns:inkscape="http://www.inkscape.org/namespaces/inkscape"
   xmlns:sodipodi="http://sodipodi.sourceforge.net/DTD/sodipodi-0.dtd"
   xmlns:xlink="http://www.w3.org/1999/xlink"
   xmlns="http://www.w3.org/2000/svg"
   xmlns:svg="http://www.w3.org/2000/svg">
  <sodipodi:namedview
     id="namedview35"
     pagecolor="#ffffff"
     bordercolor="#000000"
     borderopacity="0.25"
     inkscape:showpageshadow="2"
     inkscape:pageopacity="0.0"
     inkscape:pagecheckerboard="0"
     inkscape:deskcolor="#d1d1d1"
     inkscape:zoom="11.829307"
     inkscape:cx="24.17724"
     inkscape:cy="24.726723"
     inkscape:window-width="1920"
     inkscape:window-height="1012"
     inkscape:window-x="0"
     inkscape:window-y="0"
     inkscape:window-maximized="1"
     inkscape:current-layer="g6" />
  <g
     transform="scale(.75)"
     id="g6">
    <path
       d="m61.122 15.88c0-2.762-2.239-5-5-5h-48.244c-2.761 0-5 2.238-5 5v32.246c0 2.761 2.239 5 5 5h48.244c2.761 0 5-2.239 5-5v-32.246z"
       style="fill:rgb(0,131,213)"
       id="path1" />
    <path
       d="m61.122 20.652c0-1.326-0.527-2.598-1.465-3.536-0.938-0.937-2.209-1.464-3.535-1.464h-25.58c-1.232 0-2.42-0.455-3.337-1.277-0.768-0.689-1.713-1.535-2.481-2.224-0.917-0.822-2.105-1.277-3.337-1.277h-13.509c-1.326 0-2.597 0.527-3.535 1.465-0.938 0.937-1.465 2.209-1.465 3.535v32.252c0 2.761 2.239 5 5 5h48.244c2.761 0 5-2.239 5-5v-27.474z"
       style="fill:url(#_Linear1)"
       id="path2" />
    <path
       style="clip-rule:evenodd;fill-rule:evenodd;stroke-linecap:round;stroke-linejoin:round;fill:url(#linearGradient37);stroke-width:1.12017"
       d="m 30.319742,22.478536 c -2.790575,0 -5.040775,2.250199 -5.040775,5.040775 0,0.865135 0.217874,1.678801 0.599467,2.389116 1.437584,-1.796588 3.646168,-2.949203 6.121566,-2.949203 1.201441,0 2.337943,0.272111 3.356141,0.756992 0.0024,-0.06589 0.0044,-0.13039 0.0044,-0.196905 0,-2.790576 -2.250199,-5.040775 -5.040775,-5.040775 z m -5.600861,1.120172 c -1.553267,0 -2.80043,1.247164 -2.80043,2.800431 0,0.113697 0.0045,0.22688 0.01751,0.336926 0.736587,-0.425112 1.55964,-0.716702 2.43725,-0.835753 0.220987,-0.80919 0.608033,-1.551297 1.115796,-2.192213 -0.244837,-0.06939 -0.502223,-0.109391 -0.770124,-0.109391 z m 11.645852,2.240344 c -0.03871,5.99e-4 -0.07769,0.0024 -0.115955,0.0044 0.15147,0.532814 0.231911,1.095056 0.231911,1.67589 0,0.275844 -0.01724,0.547501 -0.0525,0.813874 0.869489,0.597212 1.612414,1.365771 2.181273,2.255659 a 6.160947,6.160947 0 0 1 1.791832,-0.269103 6.160947,6.160947 0 0 1 0.560085,0.02625 c 5.1e-5,-0.0087 0,-0.01747 0,-0.02625 0,-2.481248 -1.99944,-4.480689 -4.480688,-4.480689 -0.03877,0 -0.07723,-5.98e-4 -0.115955,0 z m -12.188436,1.229564 c -2.56842,0.511025 -4.49819,2.769841 -4.49819,5.49147 0,1.918247 0.959461,3.607482 2.424122,4.616335 0.523007,-0.647753 1.283039,-1.098657 2.14408,-1.220814 -0.05605,-0.377368 -0.08751,-0.762308 -0.08751,-1.155178 0,-1.409777 0.374154,-2.73337 1.028284,-3.876846 -0.649241,-0.975787 -1.028284,-2.147471 -1.028284,-3.404272 0,-0.152097 0.0067,-0.301479 0.01751,-0.450695 z M 32,28.079396 c -3.718554,0 -6.721033,3.002479 -6.721033,6.721033 0,3.718556 3.002479,6.721034 6.721033,6.721034 3.718555,0 6.721033,-3.002478 6.721033,-6.721034 0,-3.718554 -3.002478,-6.721033 -6.721033,-6.721033 z m 8.401292,3.360517 A 5.0407747,5.0407747 0 0 0 39.1586,31.604 a 7.8412052,7.8412052 0 0 1 0.682605,3.196429 7.8412052,7.8412052 0 0 1 -2.472255,5.69275 5.0407747,5.0407747 0 0 0 3.032342,1.028284 5.0407747,5.0407747 0 0 0 5.040774,-5.040775 5.0407747,5.0407747 0 0 0 -5.040774,-5.040775 z m -21.843357,1.260194 c -1.935253,0.495934 -3.360517,2.247115 -3.360517,4.340667 0,2.481248 1.99944,4.480689 4.480689,4.480689 0.77752,0 1.507878,-0.196612 2.144079,-0.542584 -0.294615,-0.498988 -0.463821,-1.078731 -0.463821,-1.69776 0,-0.39604 0.06987,-0.775574 0.196905,-1.128924 -1.769191,-1.182021 -2.946014,-3.18089 -2.99296,-5.452088 z m 27.973674,4.340667 c -0.129447,1.426445 -0.742432,2.713298 -1.680258,3.693068 0.409855,0.482281 1.023392,0.787621 1.710887,0.787621 1.24394,0 2.240344,-0.996404 2.240344,-2.240344 0,-1.243941 -0.996405,-2.240345 -2.240344,-2.240345 -0.01053,0 -0.02016,-1.41e-4 -0.03062,0 z m -22.044639,0.01313 c -1.134442,0.113943 -2.008433,1.061023 -2.008433,2.227216 0,1.24394 0.996405,2.240344 2.240344,2.240344 0.797982,0 1.49373,-0.410273 1.890291,-1.032659 -0.807998,-0.766614 -1.452585,-1.703413 -1.877164,-2.752297 -0.02386,-0.05894 -0.04756,-0.119766 -0.07001,-0.179402 -0.06214,-0.165136 -0.119572,-0.333024 -0.170652,-0.503203 z"
       id="path5" />
  </g>
  <defs
     id="defs35">
    <linearGradient
       id="linearGradient35"
       inkscape:collect="always">
      <stop
         style="stop-color:#0b4f94;stop-opacity:1;"
         offset="0"
         id="stop36" />
      <stop
         style="stop-color:#126c98;stop-opacity:1;"
         offset="1"
         id="stop37" />
    </linearGradient>
    <linearGradient
       id="_Linear1"
       x2="1"
       gradientTransform="matrix(2.54933e-15,-41.6338,41.6338,2.54933e-15,445.153,52.7218)"
       gradientUnits="userSpaceOnUse">
      <stop
         style="stop-color:rgb(16,117,246)"
         offset="0"
         id="stop10" />
      <stop
         style="stop-color:rgb(18,197,255)"
         offset="1"
         id="stop11" />
    </linearGradient>
    <linearGradient
       id="_Linear2"
       x2="1"
       gradientTransform="matrix(1.23613e-15,20.1876,-20.1876,1.23613e-15,-481.027,21.6917)"
       gradientUnits="userSpaceOnUse">
      <stop
         style="stop-color:rgb(18,108,152)"
         offset="0"
         id="stop12" />
      <stop
         style="stop-color:rgb(11,79,148)"
         offset="1"
         id="stop13" />
    </linearGradient>
    <linearGradient
       id="_Linear3"
       x2="1"
       gradientTransform="matrix(1.23613e-15,20.1876,-20.1876,1.23613e-15,-702.647,21.6917)"
       gradientUnits="userSpaceOnUse">
      <stop
         style="stop-color:rgb(18,108,152)"
         offset="0"
         id="stop14" />
      <stop
         style="stop-color:rgb(11,79,148)"
         offset="1"
         id="stop15" />
    </linearGradient>
    <linearGradient
       id="_Linear4"
       x2="1"
       gradientTransform="matrix(2.37595,-850.767,850.767,2.37595,-699.377,890.613)"
       gradientUnits="userSpaceOnUse">
      <stop
         style="stop-color:rgb(18,179,253)"
         offset="0"
         id="stop16" />
      <stop
         style="stop-color:rgb(17,140,249)"
         offset="1"
         id="stop17" />
    </linearGradient>
    <linearGradient
       id="_Linear5"
       x2="1"
       gradientTransform="matrix(1.23613e-15,20.1876,-20.1876,1.23613e-15,-591.857,21.6917)"
       gradientUnits="userSpaceOnUse">
      <stop
         style="stop-color:rgb(18,108,152)"
         offset="0"
         id="stop18" />
      <stop
         style="stop-color:rgb(11,79,148)"
         offset="1"
         id="stop19" />
    </linearGradient>
    <linearGradient
       id="_Linear6"
       x2="1"
       gradientTransform="matrix(1.23613e-15,20.1876,-20.1876,1.23613e-15,-614.003,21.6917)"
       gradientUnits="userSpaceOnUse">
      <stop
         style="stop-color:rgb(18,108,152)"
         offset="0"
         id="stop20" />
      <stop
         style="stop-color:rgb(11,79,148)"
         offset="1"
         id="stop21" />
    </linearGradient>
    <linearGradient
       id="_Linear7"
       x2="1"
       gradientTransform="matrix(.78135 -279.781 279.781 .78135 -609.937 319.873)"
       gradientUnits="userSpaceOnUse">
      <stop
         style="stop-color:rgb(18,179,253)"
         offset="0"
         id="stop22" />
      <stop
         style="stop-color:rgb(17,140,249)"
         offset="1"
         id="stop23" />
    </linearGradient>
    <linearGradient
       id="_Linear8"
       x2="1"
       gradientTransform="matrix(1.23613e-15,20.1876,-20.1876,1.23613e-15,-436.736,21.6917)"
       gradientUnits="userSpaceOnUse">
      <stop
         style="stop-color:rgb(18,108,152)"
         offset="0"
         id="stop24" />
      <stop
         style="stop-color:rgb(11,79,148)"
         offset="1"
         id="stop25" />
    </linearGradient>
    <linearGradient
       id="_Linear9"
       x2="1"
       gradientTransform="matrix(1.23613e-15,20.1876,-20.1876,1.23613e-15,-503.214,21.6917)"
       gradientUnits="userSpaceOnUse">
      <stop
         style="stop-color:rgb(18,108,152)"
         offset="0"
         id="stop26" />
      <stop
         style="stop-color:rgb(11,79,148)"
         offset="1"
         id="stop27" />
    </linearGradient>
    <linearGradient
       id="_Linear11"
       x2="1"
       gradientTransform="matrix(1.18004,-422.543,422.543,1.18004,-698.181,462.389)"
       gradientUnits="userSpaceOnUse">
      <stop
         style="stop-color:rgb(18,179,253)"
         offset="0"
         id="stop28" />
      <stop
         style="stop-color:rgb(17,140,249)"
         offset="1"
         id="stop29" />
    </linearGradient>
    <linearGradient
       id="_Linear12"
       x2="1"
       gradientTransform="matrix(1.23613e-15,20.1876,-20.1876,1.23613e-15,-414.57,21.6917)"
       gradientUnits="userSpaceOnUse">
      <stop
         style="stop-color:rgb(18,108,152)"
         offset="0"
         id="stop30" />
      <stop
         style="stop-color:rgb(11,79,148)"
         offset="1"
         id="stop31" />
    </linearGradient>
    <linearGradient
       id="_Linear13"
       x2="1"
       gradientTransform="matrix(1.23613e-15,20.1876,-20.1876,1.23613e-15,-525.359,21.6917)"
       gradientUnits="userSpaceOnUse">
      <stop
         style="stop-color:rgb(18,108,152)"
         offset="0"
         id="stop32" />
      <stop
         style="stop-color:rgb(11,79,148)"
         offset="1"
         id="stop33" />
    </linearGradient>
    <linearGradient
       id="_Linear14"
       x2="1"
       gradientTransform="matrix(1.33335,-477.438,477.438,1.33335,-522.643,517.775)"
       gradientUnits="userSpaceOnUse">
      <stop
         style="stop-color:rgb(18,179,253)"
         offset="0"
         id="stop34" />
      <stop
         style="stop-color:rgb(17,140,249)"
         offset="1"
         id="stop35" />
    </linearGradient>
    <linearGradient
       inkscape:collect="always"
       xlink:href="#linearGradient35"
       id="linearGradient37"
       x1="32.000004"
       y1="48.802586"
       x2="32.000004"
       y2="15.197419"
       gradientUnits="userSpaceOnUse" />
  </defs>
</svg>
