<?xml version="1.0" encoding="UTF-8" standalone="no"?>
<svg
   style="clip-rule:evenodd;fill-rule:evenodd;stroke-linejoin:round;stroke-miterlimit:2"
   viewBox="0 0 48 48"
   version="1.1"
   id="svg6"
   sodipodi:docname="kora_folder-script.svg"
   inkscape:version="1.4.2 (ebf0e940d0, 2025-05-08)"
   xmlns:inkscape="http://www.inkscape.org/namespaces/inkscape"
   xmlns:sodipodi="http://sodipodi.sourceforge.net/DTD/sodipodi-0.dtd"
   xmlns:xlink="http://www.w3.org/1999/xlink"
   xmlns="http://www.w3.org/2000/svg"
   xmlns:svg="http://www.w3.org/2000/svg">
  <sodipodi:namedview
     id="namedview6"
     pagecolor="#ffffff"
     bordercolor="#000000"
     borderopacity="0.25"
     inkscape:showpageshadow="2"
     inkscape:pageopacity="0.0"
     inkscape:pagecheckerboard="0"
     inkscape:deskcolor="#d1d1d1"
     inkscape:zoom="8.3645833"
     inkscape:cx="19.785803"
     inkscape:cy="29.230386"
     inkscape:window-width="1920"
     inkscape:window-height="1012"
     inkscape:window-x="0"
     inkscape:window-y="0"
     inkscape:window-maximized="1"
     inkscape:current-layer="g3" />
  <g
     transform="scale(.75)"
     id="g3">
    <path
       d="m61.122 15.88c0-2.762-2.239-5-5-5h-48.244c-2.761 0-5 2.238-5 5v32.246c0 2.761 2.239 5 5 5h48.244c2.761 0 5-2.239 5-5v-32.246z"
       style="fill:rgb(0,131,213)"
       id="path1" />
    <path
       d="m61.122 20.652c0-1.326-0.527-2.598-1.465-3.536-0.938-0.937-2.209-1.464-3.535-1.464h-25.58c-1.232 0-2.42-0.455-3.337-1.277-0.768-0.689-1.713-1.535-2.481-2.224-0.917-0.822-2.105-1.277-3.337-1.277h-13.509c-1.326 0-2.597 0.527-3.535 1.465-0.938 0.937-1.465 2.209-1.465 3.535v32.252c0 2.761 2.239 5 5 5h48.244c2.761 0 5-2.239 5-5v-27.474z"
       style="fill:url(#_Linear1)"
       id="path2" />
    <path
       d="m46.937 39.238v2.896h-11.11v-2.896h11.11zm-23.607-14.476h1.388v-2.896h2.778v2.896h1.388c1.806 0 3.333 1.216 3.916 2.895h-5.304v2.895h1.388c2.306 0 4.166 1.94 4.166 4.343s-1.86 4.343-4.166 4.343h-1.388v2.896h-2.778v-2.896h-1.388c-1.805 0-3.333-1.216-3.916-2.895h5.304v-2.895h-1.388c-2.305 0-4.166-1.94-4.166-4.343s1.861-4.343 4.166-4.343zm5.554 8.686h-1.388v2.895h1.388c0.778 0.029 1.389-0.637 1.389-1.448 0-0.81-0.611-1.447-1.389-1.447zm-4.166-2.896v-2.895h-1.388c-0.778 0-1.389 0.637-1.389 1.448 0 0.81 0.611 1.447 1.389 1.447h1.388z"
       style="fill:url(#linearGradient1);fill-opacity:1"
       id="path3" />
  </g>
  <defs
     id="defs6">
    <linearGradient
       id="_Linear1"
       x2="1"
       gradientTransform="matrix(2.54933e-15,-41.6338,41.6338,2.54933e-15,445.153,52.7218)"
       gradientUnits="userSpaceOnUse">
      <stop
         style="stop-color:rgb(16,117,246)"
         offset="0"
         id="stop3" />
      <stop
         style="stop-color:rgb(18,197,255)"
         offset="1"
         id="stop4" />
    </linearGradient>
    <linearGradient
       id="_Linear2"
       x2="0.51527297"
       gradientTransform="matrix(27.7726,0,0,27.7726,19.164,9214.98)"
       gradientUnits="userSpaceOnUse"
       x1="0.51527297"
       y1="-331.01379"
       y2="-329.99588"
       spreadMethod="pad">
      <stop
         style="stop-color:rgb(17,103,151)"
         offset="0"
         id="stop5" />
      <stop
         style="stop-color:#0b4f94;stop-opacity:1;"
         offset="1"
         id="stop6" />
    </linearGradient>
    <linearGradient
       inkscape:collect="always"
       xlink:href="#_Linear2"
       id="linearGradient1"
       x1="33.050499"
       y1="18.113499"
       x2="33.050499"
       y2="45.886497"
       gradientUnits="userSpaceOnUse" />
  </defs>
</svg>
