<?xml version="1.0" encoding="UTF-8" standalone="no"?>
<svg
   style="clip-rule:evenodd;fill-rule:evenodd;stroke-linejoin:round;stroke-miterlimit:2"
   viewBox="0 0 48 48"
   version="1.1"
   id="svg7"
   sodipodi:docname="kora_folder-wine.svg"
   inkscape:version="1.4.2 (ebf0e940d0, 2025-05-08)"
   xmlns:inkscape="http://www.inkscape.org/namespaces/inkscape"
   xmlns:sodipodi="http://sodipodi.sourceforge.net/DTD/sodipodi-0.dtd"
   xmlns:xlink="http://www.w3.org/1999/xlink"
   xmlns="http://www.w3.org/2000/svg"
   xmlns:svg="http://www.w3.org/2000/svg">
  <sodipodi:namedview
     id="namedview7"
     pagecolor="#ffffff"
     bordercolor="#000000"
     borderopacity="0.25"
     inkscape:showpageshadow="2"
     inkscape:pageopacity="0.0"
     inkscape:pagecheckerboard="0"
     inkscape:deskcolor="#d1d1d1"
     inkscape:zoom="11.829307"
     inkscape:cx="27.727744"
     inkscape:cy="15.343249"
     inkscape:window-width="1920"
     inkscape:window-height="1012"
     inkscape:window-x="0"
     inkscape:window-y="0"
     inkscape:window-maximized="1"
     inkscape:current-layer="g3" />
  <g
     transform="scale(.75)"
     id="g3">
    <path
       d="m61.122 15.88c0-2.762-2.239-5-5-5h-48.244c-2.761 0-5 2.238-5 5v32.246c0 2.761 2.239 5 5 5h48.244c2.761 0 5-2.239 5-5v-32.246z"
       style="fill:rgb(0,131,213)"
       id="path1" />
    <path
       d="m61.122 20.652c0-1.326-0.527-2.598-1.465-3.536-0.938-0.937-2.209-1.464-3.535-1.464h-25.58c-1.232 0-2.42-0.455-3.337-1.277-0.768-0.689-1.713-1.535-2.481-2.224-0.917-0.822-2.105-1.277-3.337-1.277h-13.509c-1.326 0-2.597 0.527-3.535 1.465-0.938 0.937-1.465 2.209-1.465 3.535v32.252c0 2.761 2.239 5 5 5h48.244c2.761 0 5-2.239 5-5v-27.474z"
       style="fill:url(#_Linear1)"
       id="path2" />
    <path
       d="m31.04 32.897v8.489h-6.219c-1.254 0-2.27-1.016-2.27-2.27v-6.219h8.489zm10.355 0v6.219c0 1.254-1.017 2.27-2.27 2.27h-6.22v-8.489h8.49zm-10.3-10.283v8.489h-8.49v-6.219c0-1.254 1.017-2.27 2.27-2.27h6.22zm8.084 0c1.254 0 2.27 1.016 2.27 2.27v6.219h-8.489v-8.489h6.219z"
       style="fill:url(#linearGradient9)"
       id="path3" />
  </g>
  <defs
     id="defs7">
    <linearGradient
       id="linearGradient7"
       inkscape:collect="always">
      <stop
         style="stop-color:#126c98;stop-opacity:1;"
         offset="0"
         id="stop8" />
      <stop
         style="stop-color:#0b4f94;stop-opacity:1;"
         offset="1"
         id="stop9" />
    </linearGradient>
    <linearGradient
       id="_Linear1"
       x2="1"
       gradientTransform="matrix(2.54933e-15,-41.6338,41.6338,2.54933e-15,445.153,52.7218)"
       gradientUnits="userSpaceOnUse">
      <stop
         style="stop-color:rgb(16,117,246)"
         offset="0"
         id="stop3" />
      <stop
         style="stop-color:rgb(18,197,255)"
         offset="1"
         id="stop4" />
    </linearGradient>
    <linearGradient
       id="_Linear2"
       x2="1"
       gradientTransform="matrix(1.13825e-15,-18.5891,18.5891,1.13825e-15,448.419,41.2029)"
       gradientUnits="userSpaceOnUse">
      <stop
         style="stop-color:rgb(11,78,148)"
         offset="0"
         id="stop5" />
      <stop
         style="stop-color:rgb(19,112,152)"
         offset=".5"
         id="stop6" />
      <stop
         style="stop-color:rgb(19,112,152)"
         offset="1"
         id="stop7" />
    </linearGradient>
    <linearGradient
       inkscape:collect="always"
       xlink:href="#linearGradient7"
       id="linearGradient9"
       x1="31.999996"
       y1="22.55101"
       x2="31.999996"
       y2="41.449017"
       gradientUnits="userSpaceOnUse" />
  </defs>
</svg>
