<?xml version="1.0" encoding="UTF-8" standalone="no"?>
<svg
   clip-rule="evenodd"
   fill-rule="evenodd"
   stroke-linejoin="round"
   stroke-miterlimit="2"
   viewBox="0 0 48 48"
   version="1.1"
   id="svg6"
   sodipodi:docname="kora_folder-documents.svg"
   inkscape:version="1.4.2 (ebf0e940d0, 2025-05-08)"
   xmlns:inkscape="http://www.inkscape.org/namespaces/inkscape"
   xmlns:sodipodi="http://sodipodi.sourceforge.net/DTD/sodipodi-0.dtd"
   xmlns="http://www.w3.org/2000/svg"
   xmlns:svg="http://www.w3.org/2000/svg">
  <defs
     id="defs6">
    <inkscape:path-effect
       effect="powerstroke"
       message=""
       id="path-effect6"
       is_visible="true"
       lpeversion="1.3"
       scale_width="0"
       interpolator_type="CentripetalCatmullRom"
       interpolator_beta="0.2"
       start_linecap_type="zerowidth"
       end_linecap_type="zerowidth"
       offset_points="13.5,0.5"
       linejoin_type="round"
       miter_limit="4"
       not_jump="false"
       sort_points="true" />
    <inkscape:path-effect
       effect="fill_between_many"
       method="bsplinespiro"
       autoreverse="false"
       close="false"
       join="false"
       linkedpaths="#path2,0,1"
       id="path-effect7" />
    <linearGradient
       id="_Linear2"
       x2="1"
       gradientTransform="matrix(0,17.0238,-17.0238,0,-370.71114,13.396885)"
       gradientUnits="userSpaceOnUse">
      <stop
         style="stop-color:rgb(18,108,152)"
         offset="0"
         id="stop5" />
      <stop
         style="stop-color:rgb(11,79,148)"
         offset="1"
         id="stop6" />
    </linearGradient>
  </defs>
  <sodipodi:namedview
     id="namedview6"
     pagecolor="#ffffff"
     bordercolor="#000000"
     borderopacity="0.25"
     inkscape:showpageshadow="2"
     inkscape:pageopacity="0.0"
     inkscape:pagecheckerboard="0"
     inkscape:deskcolor="#d1d1d1"
     inkscape:zoom="11.829307"
     inkscape:cx="23.881365"
     inkscape:cy="27.516405"
     inkscape:window-width="1920"
     inkscape:window-height="1012"
     inkscape:window-x="0"
     inkscape:window-y="0"
     inkscape:window-maximized="1"
     inkscape:current-layer="svg6" />
  <linearGradient
     id="a"
     x2="1"
     gradientTransform="matrix(0 -31.2253 31.2253 0 673.409 39.5414)"
     gradientUnits="userSpaceOnUse">
    <stop
       stop-color="#1075f6"
       offset="0"
       id="stop1"
       style="stop-color:#758b9a;stop-opacity:1;" />
    <stop
       stop-color="#12c5ff"
       offset="1"
       id="stop2"
       style="stop-color:#b5bdc2;stop-opacity:1;" />
  </linearGradient>
  <linearGradient
     id="b"
     x2="1"
     gradientTransform="matrix(0 19.0219 -18.7093 0 -1290.86 15.3883)"
     gradientUnits="userSpaceOnUse">
    <stop
       stop-color="#126c98"
       offset="0"
       id="stop3" />
    <stop
       stop-color="#0b4f94"
       offset="1"
       id="stop4" />
  </linearGradient>
  <path
     d="m45.841 11.91c0-2.072-1.679-3.75-3.75-3.75h-36.183c-2.07 0-3.75 1.678-3.75 3.75v24.185c0 2.07 1.68 3.75 3.75 3.75h36.183c2.071 0 3.75-1.68 3.75-3.75z"
     fill="#0083d5"
     id="path4"
     style="fill:#6f8493;fill-opacity:1" />
  <path
     d="m45.841 15.489c0-.995-.395-1.948-1.098-2.652-.704-.703-1.657-1.098-2.652-1.098h-19.185c-.924 0-1.815-.341-2.502-.958-.576-.516-1.285-1.151-1.861-1.668-.688-.616-1.579-.957-2.503-.957h-10.131c-.995 0-1.948.395-2.652 1.098-.703.703-1.098 1.657-1.098 2.652v24.189c0 2.07 1.679 3.75 3.75 3.75h36.182c2.071 0 3.75-1.68 3.75-3.75z"
     fill="url(#a)"
     id="path5" />
  <path
     d="m 23.814272,17.366167 -7.34967,9.407181 c -1.377777,1.763799 -0.992519,4.906138 0.77128,6.283915 1.763799,1.37854 4.906137,0.992518 6.283915,-0.771281 l 7.34967,-9.407181 0.918518,-1.176374 c 0.918518,-1.174849 0.662187,-3.269741 -0.514187,-4.189022 -1.175612,-0.918518 -3.270504,-0.661425 -4.189022,0.51495 l -0.918518,1.175611 -5.512634,7.055195 -0.918518,1.176375 c -0.459259,0.587424 -0.330331,1.63487 0.257093,2.094129 0.588187,0.459259 1.635633,0.331094 2.094892,-0.25633 l 6.43039,-8.232333 1.176374,0.919281 -6.431152,8.23157 c -0.918518,1.175611 -3.012648,1.432705 -4.189022,0.514187 -1.176374,-0.919281 -1.432705,-3.014174 -0.514187,-4.189022 l 0.918518,-1.176375 6.430389,-8.230806 c 1.37854,-1.763799 4.520116,-2.149821 6.284677,-0.771281 1.763799,1.377777 2.149058,4.519353 0.771281,6.283152 l -0.918518,1.175611 -7.350433,9.407181 c -1.837036,2.351986 -6.026821,2.866936 -8.378044,1.029137 -2.351986,-1.837799 -2.86541,-6.026821 -1.029137,-8.378044 l 7.350433,-9.407944 z"
     style="clip-rule:evenodd;fill:#464d55;fill-opacity:1;fill-rule:nonzero;stroke:none;stroke-width:1;stroke-linejoin:round;stroke-miterlimit:2;stroke-dasharray:none;stroke-opacity:1"
     id="path2"
     inkscape:linked-fill="path7"
     transform="matrix(0.97028607,0,0,0.97028607,0.72489778,0.75546708)" />
  <path
     d="m 2.9726028,13.39726 v 0.8955 H 20.893102 v -0.8955 z m 0,1.79175 v 0.8955 H 14.620852 v -0.8955 z m 0,1.79175 v 0.89625 H 17.308852 v -0.89625 z m 0,1.79175 v 0.89625 H 18.441564 v -0.89625 z m 0,1.7925 v 0.8955 h 8.9602492 v -0.8955 z m 0,1.79175 v 0.89625 H 15.144667 v -0.89625 z"
     style="clip-rule:evenodd;display:none;fill:#ffffff;fill-opacity:1;fill-rule:nonzero;stroke-width:0.75;stroke-linejoin:round;stroke-miterlimit:2"
     id="path3"
     sodipodi:nodetypes="cccccccccccccccccccccccccccccc" />
</svg>
