<?xml version="1.0" encoding="UTF-8" standalone="no"?>
<svg
   clip-rule="evenodd"
   fill-rule="evenodd"
   stroke-linejoin="round"
   stroke-miterlimit="2"
   viewBox="0 0 48 48"
   version="1.1"
   id="svg8"
   sodipodi:docname="kora_folder-pictures.svg"
   inkscape:version="1.4.2 (ebf0e940d0, 2025-05-08)"
   xmlns:inkscape="http://www.inkscape.org/namespaces/inkscape"
   xmlns:sodipodi="http://sodipodi.sourceforge.net/DTD/sodipodi-0.dtd"
   xmlns="http://www.w3.org/2000/svg"
   xmlns:svg="http://www.w3.org/2000/svg">
  <defs
     id="defs8">
    <linearGradient
       id="linearGradient223"
       x2="1"
       gradientTransform="matrix(0,-41.6338,41.6338,0,445.153,52.7218)"
       gradientUnits="userSpaceOnUse"
       x1="0"
       y1="0"
       y2="0"
       spreadMethod="pad">
      <stop
         style="stop-color:#9000ff;stop-opacity:1;"
         offset="0"
         id="stop222" />
      <stop
         style="stop-color:#f6f6f6;stop-opacity:0;"
         offset="1"
         id="stop223" />
    </linearGradient>
  </defs>
  <sodipodi:namedview
     id="namedview8"
     pagecolor="#ffffff"
     bordercolor="#000000"
     borderopacity="0.25"
     inkscape:showpageshadow="2"
     inkscape:pageopacity="0.0"
     inkscape:pagecheckerboard="0"
     inkscape:deskcolor="#d1d1d1"
     inkscape:zoom="11.829307"
     inkscape:cx="31.024641"
     inkscape:cy="33.433911"
     inkscape:window-width="1920"
     inkscape:window-height="1012"
     inkscape:window-x="0"
     inkscape:window-y="0"
     inkscape:window-maximized="1"
     inkscape:current-layer="g7" />
  <linearGradient
     id="a"
     x2="1"
     gradientTransform="matrix(0 -41.6338 41.6338 0 897.879 52.7218)"
     gradientUnits="userSpaceOnUse">
    <stop
       stop-color="#1075f6"
       offset="0"
       id="stop1"
       style="stop-color:#b60d60;stop-opacity:1;" />
    <stop
       stop-color="#12c5ff"
       offset="1"
       id="stop2"
       style="stop-color:#ff12b0;stop-opacity:1;" />
  </linearGradient>
  <linearGradient
     id="b"
     x2="1"
     gradientTransform="matrix(0 18.9433 -18.9433 0 -862.958 23.6224)"
     gradientUnits="userSpaceOnUse">
    <stop
       stop-color="#137098"
       offset="0"
       id="stop3" />
    <stop
       stop-color="#106597"
       offset=".42"
       id="stop4" />
    <stop
       stop-color="#0b4e94"
       offset="1"
       id="stop5" />
  </linearGradient>
  <g
     transform="scale(.75)"
     id="g7">
    <path
       d="m 61.122,15.88 c 0,-2.762 -2.239,-5 -5,-5 H 7.878 c -2.761,0 -5,2.238 -5,5 v 32.246 c 0,2.761 2.239,5 5,5 h 48.244 c 2.761,0 5,-2.239 5,-5 z"
       fill="#0083d5"
       id="path5"
       style="display:inline;fill:#c71f73;fill-opacity:1" />
    <path
       d="m61.122 20.652c0-1.326-.527-2.598-1.465-3.536-.938-.937-2.209-1.464-3.535-1.464h-25.58c-1.232 0-2.42-.455-3.337-1.277-.768-.689-1.713-1.535-2.481-2.224-.917-.822-2.105-1.277-3.337-1.277h-13.509c-1.326 0-2.597.527-3.535 1.465-.938.937-1.465 2.209-1.465 3.535v32.252c0 2.761 2.239 5 5 5h48.244c2.761 0 5-2.239 5-5z"
       fill="url(#a)"
       id="path6" />
    <path
       d="m29.046 24.449c.379-.519.983-.827 1.626-.827h5.826c.621 0 1.208.287 1.589.778.323.416.722.928 1.053 1.353.415.534 1.054.845 1.73.842 1.046-.004 1.233-.011 2.414-.016.406-.001.797.159 1.085.446s.45.677.45 1.083v12.929c0 .405-.161.794-.448 1.081s-.676.448-1.081.448h-22.58c-.405 0-.794-.161-1.081-.448s-.448-.676-.448-1.081v-12.935c0-.406.161-.795.448-1.081.287-.287.676-.448 1.081-.448h5.677c.697 0 1.351-.333 1.762-.895.285-.391.617-.846.897-1.229zm2.954 4.347c-3.031 0-5.492 2.461-5.492 5.492s2.461 5.492 5.492 5.492 5.492-2.461 5.492-5.492-2.461-5.492-5.492-5.492zm6.537-.757c-.701 0-1.269.568-1.269 1.269s.568 1.268 1.269 1.268c.7 0 1.268-.567 1.268-1.268s-.568-1.269-1.268-1.269z"
       fill="url(#b)"
       id="path7"
       style="fill:#6c1b46;fill-opacity:1" />
    <path
       transform="translate(0.30157467,0.01507867)"
       d="m 25.831,24.451 c 0,-0.233 -0.189,-0.42 -0.42,-0.42 h -3.445 c -0.232,0 -0.42,0.187 -0.42,0.42 v 0.841 c 0,0.232 0.188,0.42 0.42,0.42 h 3.445 c 0.231,0 0.42,-0.188 0.42,-0.42 z"
       fill="#126c97"
       id="path8"
       style="display:inline;fill:#6c1b46;fill-opacity:1" />
  </g>
</svg>
