<?xml version="1.0" encoding="UTF-8" standalone="no"?>
<svg
   style="clip-rule:evenodd;fill-rule:evenodd;stroke-linejoin:round;stroke-miterlimit:2"
   viewBox="0 0 48 48"
   version="1.1"
   id="svg6"
   sodipodi:docname="kora_folder-download.svg"
   inkscape:version="1.4.2 (ebf0e940d0, 2025-05-08)"
   xmlns:inkscape="http://www.inkscape.org/namespaces/inkscape"
   xmlns:sodipodi="http://sodipodi.sourceforge.net/DTD/sodipodi-0.dtd"
   xmlns="http://www.w3.org/2000/svg"
   xmlns:svg="http://www.w3.org/2000/svg">
  <sodipodi:namedview
     id="namedview6"
     pagecolor="#ffffff"
     bordercolor="#000000"
     borderopacity="0.25"
     inkscape:showpageshadow="2"
     inkscape:pageopacity="0.0"
     inkscape:pagecheckerboard="0"
     inkscape:deskcolor="#d1d1d1"
     inkscape:zoom="8.3645833"
     inkscape:cx="34.729764"
     inkscape:cy="26.600249"
     inkscape:window-width="1920"
     inkscape:window-height="1012"
     inkscape:window-x="0"
     inkscape:window-y="0"
     inkscape:window-maximized="1"
     inkscape:current-layer="g3" />
  <g
     transform="scale(.75)"
     id="g3">
    <path
       d="m61.122 15.88c0-2.762-2.239-5-5-5h-48.244c-2.761 0-5 2.238-5 5v32.246c0 2.761 2.239 5 5 5h48.244c2.761 0 5-2.239 5-5v-32.246z"
       style="fill:#00be83;fill-opacity:1"
       id="path1" />
    <path
       d="m61.122 20.652c0-1.326-0.527-2.598-1.465-3.536-0.938-0.937-2.209-1.464-3.535-1.464h-25.58c-1.232 0-2.42-0.455-3.337-1.277-0.768-0.689-1.713-1.535-2.481-2.224-0.917-0.822-2.105-1.277-3.337-1.277h-13.509c-1.326 0-2.597 0.527-3.535 1.465-0.938 0.937-1.465 2.209-1.465 3.535v32.252c0 2.761 2.239 5 5 5h48.244c2.761 0 5-2.239 5-5v-27.474z"
       style="fill:url(#_Linear1)"
       id="path2" />
    <path
       d="m 32,41.414061 6.3,-7.948 c 0.614,-0.773 1.742,-0.904 2.515,-0.29 0.775,0.614 0.905,1.741 0.291,2.515 l -7.694,9.705 c -0.354,0.448 -0.881,0.68 -1.412,0.677 -0.531,0.003 -1.057,-0.229 -1.412,-0.677 l -7.693,-9.704 c -0.614,-0.774 -0.484,-1.902 0.291,-2.515 0.773,-0.614 1.901,-0.483 2.515,0.29 z"
       style="fill:#236d4c;fill-opacity:1"
       id="path3"
       sodipodi:nodetypes="ccccccccccc" />
    <rect
       style="fill:#236d4c;fill-opacity:1;stroke-width:0.724;stroke-linecap:round;stroke-miterlimit:2;paint-order:stroke markers fill"
       id="rect6"
       width="3.381434"
       height="20.119522"
       x="30.309282"
       y="22.373581"
       ry="1.7470733"
       rx="1.690717" />
  </g>
  <defs
     id="defs6">
    <linearGradient
       id="_Linear1"
       x2="1"
       gradientTransform="matrix(2.54933e-15,-41.6338,41.6338,2.54933e-15,1350.6,52.7218)"
       gradientUnits="userSpaceOnUse">
      <stop
         style="stop-color:#0a916a;stop-opacity:1;"
         offset="0"
         id="stop3" />
      <stop
         style="stop-color:#12ffa8;stop-opacity:1;"
         offset="1"
         id="stop4" />
    </linearGradient>
    <linearGradient
       id="_Linear2"
       x2="1"
       gradientTransform="matrix(-.00891646 -19.0606 19.0606 -.00891646 1452.45 43.155)"
       gradientUnits="userSpaceOnUse">
      <stop
         style="stop-color:rgb(11,79,148)"
         offset="0"
         id="stop5" />
      <stop
         style="stop-color:rgb(18,109,152)"
         offset="1"
         id="stop6" />
    </linearGradient>
  </defs>
</svg>
