<?xml version="1.0" encoding="UTF-8" standalone="no"?>
<svg
   clip-rule="evenodd"
   fill-rule="evenodd"
   stroke-linejoin="round"
   stroke-miterlimit="2"
   viewBox="0 0 48 48"
   version="1.1"
   id="svg3"
   sodipodi:docname="kora_folder-open.svg"
   inkscape:version="1.4.2 (ebf0e940d0, 2025-05-08)"
   xmlns:inkscape="http://www.inkscape.org/namespaces/inkscape"
   xmlns:sodipodi="http://sodipodi.sourceforge.net/DTD/sodipodi-0.dtd"
   xmlns="http://www.w3.org/2000/svg"
   xmlns:svg="http://www.w3.org/2000/svg">
  <defs
     id="defs3">
    <linearGradient
       id="a-5"
       x2="1"
       gradientTransform="matrix(0,-41.6338,41.6338,0,1399.41,52.7218)"
       gradientUnits="userSpaceOnUse">
      <stop
         stop-color="#1075f6"
         offset="0"
         id="stop1-3" />
      <stop
         stop-color="#12c5ff"
         offset="1"
         id="stop2-5" />
    </linearGradient>
  </defs>
  <sodipodi:namedview
     id="namedview3"
     pagecolor="#ffffff"
     bordercolor="#000000"
     borderopacity="0.25"
     inkscape:showpageshadow="2"
     inkscape:pageopacity="0.0"
     inkscape:pagecheckerboard="0"
     inkscape:deskcolor="#d1d1d1"
     inkscape:zoom="8.3645833"
     inkscape:cx="26.899128"
     inkscape:cy="32.577833"
     inkscape:window-width="1920"
     inkscape:window-height="1012"
     inkscape:window-x="0"
     inkscape:window-y="0"
     inkscape:window-maximized="1"
     inkscape:current-layer="g3" />
  <linearGradient
     id="a"
     x2="0.99985808"
     gradientTransform="matrix(0,-42.252,42.252,0,491.448,53.126)"
     gradientUnits="userSpaceOnUse"
     x1="1.7492587e-07"
     y1="-11.207195"
     y2="-11.207195">
    <stop
       stop-color="#1077f6"
       offset="0"
       id="stop1" />
    <stop
       stop-color="#12c2ff"
       offset="1"
       id="stop2" />
  </linearGradient>
  <g
     transform="scale(.75)"
     id="g3">
    <path
       d="m61.122 15.88c0-2.762-2.239-5-5-5h-48.244c-2.761 0-5 2.238-5 5v32.246c0 2.761 2.239 5 5 5h48.244c2.761 0 5-2.239 5-5z"
       fill="#0083d5"
       id="path2" />
    <path
       d="m 58.91,20.652 c -0.09,-1.326 -0.704,-2.598 -1.706,-3.536 -1.002,-0.937 -2.309,-1.464 -3.635,-1.464 h -25.58 c -1.232,0 -2.451,-0.455 -3.424,-1.277 C 23.751,13.686 22.748,12.84 21.933,12.151 20.96,11.329 19.741,10.874 18.509,10.874 H 5 c -1.326,0 -2.561,0.527 -3.435,1.465 -0.874,0.937 -1.315,2.209 -1.224,3.535 l 2.196,32.252 c 0.188,2.761 2.58,5 5.341,5 h 48.244 c 2.761,0 4.847,-2.239 4.659,-5 z"
       fill="url(#a)"
       id="path5"
       style="fill:url(#a-5)" />
  </g>
</svg>
