<?xml version="1.0" encoding="UTF-8" standalone="no"?>
<svg
   style="clip-rule:evenodd;fill-rule:evenodd;stroke-linecap:round;stroke-linejoin:round;stroke-miterlimit:1.5"
   viewBox="0 0 48 48"
   version="1.1"
   id="svg11"
   sodipodi:docname="kora_folder-recent.svg"
   inkscape:version="1.4.2 (ebf0e940d0, 2025-05-08)"
   xmlns:inkscape="http://www.inkscape.org/namespaces/inkscape"
   xmlns:sodipodi="http://sodipodi.sourceforge.net/DTD/sodipodi-0.dtd"
   xmlns:xlink="http://www.w3.org/1999/xlink"
   xmlns="http://www.w3.org/2000/svg"
   xmlns:svg="http://www.w3.org/2000/svg">
  <sodipodi:namedview
     id="namedview11"
     pagecolor="#ffffff"
     bordercolor="#000000"
     borderopacity="0.25"
     inkscape:showpageshadow="2"
     inkscape:pageopacity="0.0"
     inkscape:pagecheckerboard="0"
     inkscape:deskcolor="#d1d1d1"
     inkscape:zoom="16.729167"
     inkscape:cx="24"
     inkscape:cy="24"
     inkscape:window-width="1920"
     inkscape:window-height="1012"
     inkscape:window-x="0"
     inkscape:window-y="0"
     inkscape:window-maximized="1"
     inkscape:current-layer="g4" />
  <g
     transform="scale(.75)"
     id="g4">
    <path
       d="m61.122 15.88c0-2.762-2.239-5-5-5h-48.244c-2.761 0-5 2.238-5 5v32.246c0 2.761 2.239 5 5 5h48.244c2.761 0 5-2.239 5-5v-32.246z"
       style="fill:rgb(0,131,213)"
       id="path1" />
    <path
       d="m61.122 20.652c0-1.326-0.527-2.598-1.465-3.536-0.938-0.937-2.209-1.464-3.535-1.464h-25.58c-1.232 0-2.42-0.455-3.337-1.277-0.768-0.689-1.713-1.535-2.481-2.224-0.917-0.822-2.105-1.277-3.337-1.277h-13.509c-1.326 0-2.597 0.527-3.535 1.465-0.938 0.937-1.465 2.209-1.465 3.535v32.252c0 2.761 2.239 5 5 5h48.244c2.761 0 5-2.239 5-5v-27.474z"
       style="fill:url(#_Linear1)"
       id="path2" />
    <path
       id="circle2"
       style="baseline-shift:baseline;clip-rule:nonzero;display:inline;overflow:visible;vector-effect:none;fill-rule:nonzero;stroke-linecap:butt;stroke-linejoin:miter;enable-background:accumulate;stop-color:#000000;stop-opacity:1;opacity:1;fill:url(#linearGradient18)"
       d="M 32 21.231771 C 25.028186 21.231771 19.351562 26.910999 19.351562 33.882812 C 19.351562 40.854627 25.028186 46.53125 32 46.53125 C 38.971814 46.53125 44.648438 40.854626 44.648438 33.882812 C 44.648438 26.910999 38.971814 21.231771 32 21.231771 z M 32 23.604167 C 37.690971 23.604167 42.278646 28.191842 42.278646 33.882812 C 42.278646 39.573783 37.690971 44.158854 32 44.158854 C 26.309029 44.158854 21.721354 39.573784 21.721354 33.882812 C 21.721354 28.191842 26.309029 23.604167 32 23.604167 z M 31.994792 24.747396 A 0.94499999 0.94499999 0 0 0 31.054688 25.697917 L 31.101562 33.888021 A 0.94499999 0.94499999 0 0 0 32.052083 34.825521 A 0.94499999 0.94499999 0 0 0 32.992188 33.877604 L 32.945312 25.6875 A 0.94499999 0.94499999 0 0 0 31.994792 24.747396 z M 34.572917 34.104167 A 1.0650001 1.0650001 0 0 0 33.502604 34.838542 A 1.0650001 1.0650001 0 0 0 34.184896 36.182292 L 39.565104 37.934896 A 1.0650001 1.0650001 0 0 0 40.908854 37.252604 A 1.0650001 1.0650001 0 0 0 40.226562 35.911458 L 34.846354 34.15625 A 1.0650001 1.0650001 0 0 0 34.572917 34.104167 z " />
  </g>
  <defs
     id="defs11">
    <linearGradient
       id="linearGradient17"
       inkscape:collect="always">
      <stop
         style="stop-color:#126c98;stop-opacity:1;"
         offset="0"
         id="stop17" />
      <stop
         style="stop-color:#0b4f94;stop-opacity:1;"
         offset="1"
         id="stop18" />
    </linearGradient>
    <linearGradient
       id="_Linear1"
       x2="1"
       gradientTransform="matrix(2.54933e-15,-41.6338,41.6338,2.54933e-15,445.153,52.7218)"
       gradientUnits="userSpaceOnUse">
      <stop
         style="stop-color:rgb(16,117,246)"
         offset="0"
         id="stop4" />
      <stop
         style="stop-color:rgb(18,197,255)"
         offset="1"
         id="stop5" />
    </linearGradient>
    <linearGradient
       id="_Linear2"
       x2="1"
       gradientTransform="matrix(-13.1521,-477.616,477.616,-13.1521,-503.477,538.054)"
       gradientUnits="userSpaceOnUse">
      <stop
         style="stop-color:rgb(18,110,152)"
         offset="0"
         id="stop6" />
      <stop
         style="stop-color:rgb(12,82,148)"
         offset="1"
         id="stop7" />
    </linearGradient>
    <linearGradient
       id="_Linear3"
       x2="1"
       gradientTransform="matrix(-59.8805,-749.388,749.388,-59.8805,-528.059,844.361)"
       gradientUnits="userSpaceOnUse">
      <stop
         style="stop-color:rgb(18,110,152)"
         offset="0"
         id="stop8" />
      <stop
         style="stop-color:rgb(12,82,148)"
         offset="1"
         id="stop9" />
    </linearGradient>
    <linearGradient
       id="_Linear4"
       x2="1"
       gradientTransform="matrix(-111.558,-607.714,607.714,-111.558,-487.824,767.025)"
       gradientUnits="userSpaceOnUse">
      <stop
         style="stop-color:rgb(18,110,152)"
         offset="0"
         id="stop10" />
      <stop
         style="stop-color:rgb(12,82,148)"
         offset="1"
         id="stop11" />
    </linearGradient>
    <linearGradient
       inkscape:collect="always"
       xlink:href="#linearGradient17"
       id="linearGradient18"
       x1="32"
       y1="21.233398"
       x2="32"
       y2="46.530273"
       gradientUnits="userSpaceOnUse" />
  </defs>
</svg>
