<?xml version="1.0" encoding="UTF-8" standalone="no"?>
<svg
   style="clip-rule:evenodd;fill-rule:evenodd;stroke-linejoin:round;stroke-miterlimit:2"
   viewBox="0 0 48 48"
   version="1.1"
   id="svg6"
   sodipodi:docname="kora_folder-megasync.svg"
   inkscape:version="1.4.2 (ebf0e940d0, 2025-05-08)"
   xmlns:inkscape="http://www.inkscape.org/namespaces/inkscape"
   xmlns:sodipodi="http://sodipodi.sourceforge.net/DTD/sodipodi-0.dtd"
   xmlns="http://www.w3.org/2000/svg"
   xmlns:svg="http://www.w3.org/2000/svg">
  <sodipodi:namedview
     id="namedview6"
     pagecolor="#ffffff"
     bordercolor="#000000"
     borderopacity="0.25"
     inkscape:showpageshadow="2"
     inkscape:pageopacity="0.0"
     inkscape:pagecheckerboard="0"
     inkscape:deskcolor="#d1d1d1"
     inkscape:zoom="16.729167"
     inkscape:cx="24"
     inkscape:cy="24"
     inkscape:window-width="1920"
     inkscape:window-height="1012"
     inkscape:window-x="0"
     inkscape:window-y="0"
     inkscape:window-maximized="1"
     inkscape:current-layer="g3" />
  <g
     transform="scale(.75)"
     id="g3">
    <path
       d="m61.122 15.88c0-2.762-2.239-5-5-5h-48.244c-2.761 0-5 2.238-5 5v32.246c0 2.761 2.239 5 5 5h48.244c2.761 0 5-2.239 5-5v-32.246z"
       style="fill:rgb(0,131,213)"
       id="path1" />
    <path
       d="m61.122 20.652c0-1.326-0.527-2.598-1.465-3.536-0.938-0.937-2.209-1.464-3.535-1.464h-25.58c-1.232 0-2.42-0.455-3.337-1.277-0.768-0.689-1.713-1.535-2.481-2.224-0.917-0.822-2.105-1.277-3.337-1.277h-13.509c-1.326 0-2.597 0.527-3.535 1.465-0.938 0.937-1.465 2.209-1.465 3.535v32.252c0 2.761 2.239 5 5 5h48.244c2.761 0 5-2.239 5-5v-27.474z"
       style="fill:url(#_Linear1)"
       id="path2" />
    <path
       d="m32 21.649c7.09 0 12.847 5.756 12.847 12.847 0 7.09-5.757 12.846-12.847 12.846s-12.847-5.756-12.847-12.846c0-7.091 5.757-12.847 12.847-12.847zm9.082 19.918v-14.161h-4.816l-4.273 7.945-4.259-7.945h-4.816v14.161h3.154l-0.055-10.127 4.787 10.145h2.392l4.787-10.145-0.055 10.127h3.154z"
       style="fill:url(#_Linear2)"
       id="path3" />
  </g>
  <defs
     id="defs6">
    <linearGradient
       id="_Linear1"
       x2="1"
       gradientTransform="matrix(2.54933e-15,-41.6338,41.6338,2.54933e-15,445.153,52.7218)"
       gradientUnits="userSpaceOnUse">
      <stop
         style="stop-color:rgb(16,117,246)"
         offset="0"
         id="stop3" />
      <stop
         style="stop-color:rgb(18,197,255)"
         offset="1"
         id="stop4" />
    </linearGradient>
    <linearGradient
       id="_Linear2"
       x2="1"
       gradientTransform="matrix(.260338 -25.6938 25.6938 .260338 588.245 52.9785)"
       gradientUnits="userSpaceOnUse">
      <stop
         style="stop-color:#0b4f94;stop-opacity:1;"
         offset="0"
         id="stop5" />
      <stop
         style="stop-color:rgb(18,108,152)"
         offset="1"
         id="stop6" />
    </linearGradient>
  </defs>
</svg>
