<?xml version="1.0" encoding="UTF-8" standalone="no"?>
<svg
   style="clip-rule:evenodd;fill-rule:evenodd;stroke-linejoin:round;stroke-miterlimit:2"
   viewBox="0 0 48 48"
   version="1.1"
   id="svg6"
   sodipodi:docname="kora_user-share.svg"
   inkscape:version="1.4.2 (ebf0e940d0, 2025-05-08)"
   xmlns:inkscape="http://www.inkscape.org/namespaces/inkscape"
   xmlns:sodipodi="http://sodipodi.sourceforge.net/DTD/sodipodi-0.dtd"
   xmlns:xlink="http://www.w3.org/1999/xlink"
   xmlns="http://www.w3.org/2000/svg"
   xmlns:svg="http://www.w3.org/2000/svg">
  <sodipodi:namedview
     id="namedview6"
     pagecolor="#ffffff"
     bordercolor="#000000"
     borderopacity="0.25"
     inkscape:showpageshadow="2"
     inkscape:pageopacity="0.0"
     inkscape:pagecheckerboard="0"
     inkscape:deskcolor="#d1d1d1"
     inkscape:zoom="11.829307"
     inkscape:cx="27.558672"
     inkscape:cy="21.598898"
     inkscape:window-width="1920"
     inkscape:window-height="1012"
     inkscape:window-x="0"
     inkscape:window-y="0"
     inkscape:window-maximized="1"
     inkscape:current-layer="svg6" />
  <g
     transform="scale(.75)"
     id="g3">
    <path
       d="m61.122 15.88c0-2.762-2.239-5-5-5h-48.244c-2.761 0-5 2.238-5 5v32.246c0 2.761 2.239 5 5 5h48.244c2.761 0 5-2.239 5-5v-32.246z"
       style="fill:rgb(0,131,213)"
       id="path1" />
    <path
       d="m61.122 20.652c0-1.326-0.527-2.598-1.465-3.536-0.938-0.937-2.209-1.464-3.535-1.464h-25.58c-1.232 0-2.42-0.455-3.337-1.277-0.768-0.689-1.713-1.535-2.481-2.224-0.917-0.822-2.105-1.277-3.337-1.277h-13.509c-1.326 0-2.597 0.527-3.535 1.465-0.938 0.937-1.465 2.209-1.465 3.535v32.252c0 2.761 2.239 5 5 5h48.244c2.761 0 5-2.239 5-5v-27.474z"
       style="fill:url(#_Linear1)"
       id="path2" />
  </g>
  <g
     id="g6"
     transform="matrix(0.87501672,0,0,0.87501672,-2.4790606,5.4965316)"
     style="fill:url(#linearGradient13);fill-opacity:1">
    <path
       d="m 18.095079,16.5305 c 0.0315,-0.0034 0.06338,-0.0053 0.09525,-0.0053 h 3.442125 c 0.045,0 0.08925,0.0034 0.133125,0.01012 0.09525,-0.01087 0.192375,-0.0034 0.28575,0.02363 0.186,0.05363 0.343125,0.178875 0.4365,0.348375 0.757125,1.372125 2.5365,4.59675 3.349125,6.06825 0.11025,0.201 0.13725,0.43725 0.07388,0.657375 -0.06375,0.21975 -0.21225,0.406125 -0.412875,0.51675 0,0 -3.75e-4,3.75e-4 -7.5e-4,3.75e-4 -0.20025,0.11025 -0.436875,0.13725 -0.657,0.07313 -0.2205,-0.06338 -0.40575,-0.2115 -0.51675,-0.4125 -0.430125,-0.779625 -1.132125,-2.052 -1.80975,-3.27975 v 13.63275 c 0,0.540375 -0.438,0.97875 -0.978375,0.97875 h -0.05513 c -0.540375,0 -0.97875,-0.438375 -0.97875,-0.97875 v -8.60208 H 19.322079 V 34.148 c 0,0.264 -0.10425,0.51675 -0.291,0.7035 -0.186375,0.186 -0.4395,0.291 -0.703125,0.291 h -0.02362 c -0.263625,0 -0.51675,-0.105 -0.7035,-0.291 -0.186,-0.18675 -0.290625,-0.4395 -0.290625,-0.7035 v -8.929875 h 3.75e-4 v -4.46925 c -0.639375,1.158375 -1.28475,2.328 -1.689375,3.061875 -0.111,0.201 -0.29625,0.349125 -0.51675,0.4125 -0.2205,0.06413 -0.45675,0.03712 -0.657375,-0.07313 l -3.75e-4,-3.75e-4 c -0.200625,-0.110625 -0.3495,-0.297 -0.412875,-0.51675 -0.06338,-0.220125 -0.03713,-0.456375 0.07387,-0.657375 0.81225,-1.4715 2.591625,-4.696125 3.349125,-6.06825 0.09338,-0.1695 0.250125,-0.29475 0.4365,-0.348375 0.066,-0.01913 0.133875,-0.0285 0.20175,-0.0285 z M 19.911954,11 c 1.299375,0 2.353875,1.0545 2.353875,2.353875 0,1.299 -1.0545,2.353875 -2.353875,2.353875 -1.299,0 -2.3535,-1.054875 -2.3535,-2.353875 0,-1.299375 1.0545,-2.353875 2.3535,-2.353875 z"
       style="clip-rule:evenodd;fill:url(#linearGradient13);fill-rule:evenodd;stroke-width:0.375;stroke-linejoin:round;stroke-miterlimit:2;fill-opacity:1"
       id="path2-6" />
    <path
       d="m 28.383954,16.5305 c 0.0315,-0.0034 0.063,-0.0053 0.09488,-0.0053 h 3.442875 c 0.04463,0 0.08925,0.0034 0.13275,0.01012 0.09525,-0.01087 0.192375,-0.0034 0.286125,0.02363 0.185625,0.05363 0.342375,0.178875 0.436125,0.348375 0.757125,1.372125 2.536875,4.59675 3.34875,6.06825 0.111,0.201 0.13725,0.43725 0.07388,0.657375 -0.06338,0.21975 -0.211875,0.406125 -0.4125,0.51675 l -7.5e-4,3.75e-4 c -0.200625,0.11025 -0.436875,0.13725 -0.656625,0.07313 -0.2205,-0.06338 -0.406125,-0.2115 -0.51675,-0.4125 -0.4305,-0.78 -1.132875,-2.052375 -1.8105,-3.280125 v 4.6875 h 7.5e-4 v 8.945625 c 0,0.540375 -0.438375,0.97875 -0.979125,0.97875 h -0.05475 c -0.540375,0 -0.978375,-0.438375 -0.978375,-0.97875 v -8.60208 H 29.611329 V 34.148 c 0,0.264 -0.105,0.51675 -0.291375,0.7035 -0.186,0.186 -0.439875,0.291 -0.703125,0.291 h -0.024 c -0.263625,0 -0.516,-0.105 -0.70275,-0.291 -0.186375,-0.18675 -0.291,-0.4395 -0.291,-0.7035 V 20.749625 c -0.639,1.158375 -1.284375,2.327625 -1.689375,3.061125 -0.111,0.201 -0.29625,0.349125 -0.51675,0.4125 -0.21975,0.06413 -0.45675,0.03712 -0.656625,-0.07313 -7.5e-4,0 -7.5e-4,-3.75e-4 -7.5e-4,-3.75e-4 -0.201,-0.110625 -0.349125,-0.297 -0.4125,-0.51675 -0.06338,-0.220125 -0.03712,-0.456375 0.0735,-0.657375 0.81225,-1.4715 2.592,-4.696125 3.34875,-6.06825 0.09375,-0.1695 0.250875,-0.29475 0.4365,-0.348375 0.06638,-0.01913 0.13425,-0.0285 0.202125,-0.0285 z M 30.200829,11 c 1.299,0 2.353875,1.0545 2.353875,2.353875 0,1.299 -1.054875,2.353875 -2.353875,2.353875 -1.299,0 -2.353875,-1.054875 -2.353875,-2.353875 C 27.846954,12.0545 28.901829,11 30.200829,11 Z"
       style="clip-rule:evenodd;fill:url(#linearGradient13);fill-rule:evenodd;stroke-width:0.375;stroke-linejoin:round;stroke-miterlimit:2;fill-opacity:1"
       id="path3-2" />
    <path
       d="m 38.672829,16.5305 c 0.0315,-0.0034 0.06338,-0.0053 0.09525,-0.0053 h 3.442125 c 0.045,0 0.08925,0.0034 0.133125,0.01012 0.09525,-0.01087 0.192375,-0.0034 0.28575,0.02363 0.186375,0.05363 0.343125,0.178875 0.4365,0.348375 0.757125,1.372125 2.536875,4.59675 3.349125,6.06825 0.111,0.201 0.13725,0.43725 0.07388,0.657375 -0.06338,0.21975 -0.21225,0.406125 -0.412875,0.51675 0,0 -3.75e-4,3.75e-4 -7.5e-4,3.75e-4 -0.20025,0.11025 -0.436875,0.13725 -0.657,0.07313 -0.2205,-0.06338 -0.40575,-0.2115 -0.51675,-0.4125 -0.430125,-0.779625 -1.132125,-2.052 -1.80975,-3.27975 v 13.63275 c 0,0.540375 -0.438,0.97875 -0.978375,0.97875 h -0.05475 c -0.54075,0 -0.979125,-0.438375 -0.979125,-0.97875 v -8.60208 h -1.17938 V 34.148 c 0,0.264 -0.10425,0.51675 -0.291,0.7035 -0.186375,0.186 -0.4395,0.291 -0.703125,0.291 h -0.02363 c -0.263625,0 -0.51675,-0.105 -0.7035,-0.291 -0.185625,-0.18675 -0.290625,-0.4395 -0.290625,-0.7035 v -8.929875 h 3.75e-4 v -4.46925 c -0.639375,1.158375 -1.28475,2.328 -1.689375,3.061875 -0.111,0.201 -0.29625,0.349125 -0.51675,0.4125 -0.2205,0.06413 -0.45675,0.03712 -0.657,-0.07313 -3.75e-4,0 -7.5e-4,-3.75e-4 -7.5e-4,-3.75e-4 -0.200625,-0.110625 -0.349125,-0.297 -0.412875,-0.51675 -0.06338,-0.220125 -0.03712,-0.456375 0.07388,-0.657375 0.812625,-1.4715 2.592,-4.696125 3.349125,-6.06825 0.09375,-0.1695 0.250125,-0.29475 0.4365,-0.348375 0.066,-0.01913 0.133875,-0.0285 0.20175,-0.0285 z M 40.490079,11 c 1.299,0 2.3535,1.0545 2.3535,2.353875 0,1.299 -1.0545,2.353875 -2.3535,2.353875 -1.299375,0 -2.353875,-1.054875 -2.353875,-2.353875 C 38.136204,12.0545 39.190704,11 40.490079,11 Z"
       style="clip-rule:evenodd;fill:url(#linearGradient13);fill-rule:evenodd;stroke-width:0.375;stroke-linejoin:round;stroke-miterlimit:2;fill-opacity:1"
       id="path4" />
  </g>
  <defs
     id="defs6">
    <linearGradient
       id="linearGradient12"
       inkscape:collect="always">
      <stop
         style="stop-color:#126c98;stop-opacity:1;"
         offset="0"
         id="stop12" />
      <stop
         style="stop-color:#0b4f94;stop-opacity:1;"
         offset="1"
         id="stop13" />
    </linearGradient>
    <linearGradient
       id="_Linear1"
       x2="1"
       gradientTransform="matrix(2.54933e-15,-41.6338,41.6338,2.54933e-15,445.153,52.7218)"
       gradientUnits="userSpaceOnUse">
      <stop
         style="stop-color:rgb(16,117,246)"
         offset="0"
         id="stop3" />
      <stop
         style="stop-color:rgb(18,197,255)"
         offset="1"
         id="stop4" />
    </linearGradient>
    <linearGradient
       id="_Linear2"
       x2="1"
       gradientTransform="matrix(1.07477e-15,17.5524,-17.5524,1.07477e-15,-396.313,24.4054)"
       gradientUnits="userSpaceOnUse">
      <stop
         style="stop-color:rgb(18,108,152)"
         offset="0"
         id="stop5" />
      <stop
         style="stop-color:rgb(11,79,148)"
         offset="1"
         id="stop6" />
    </linearGradient>
    <linearGradient
       inkscape:collect="always"
       xlink:href="#linearGradient12"
       id="linearGradient13"
       x1="30.261208"
       y1="6.8100471"
       x2="30.261208"
       y2="39.332451"
       gradientUnits="userSpaceOnUse" />
  </defs>
</svg>
