<?xml version="1.0" encoding="UTF-8" standalone="no"?>
<svg
   style="clip-rule:evenodd;fill-rule:evenodd;stroke-linejoin:round;stroke-miterlimit:2"
   viewBox="0 0 48 48"
   version="1.1"
   id="svg7"
   sodipodi:docname="kora_user-desktop.svg"
   inkscape:version="1.4.2 (ebf0e940d0, 2025-05-08)"
   xmlns:inkscape="http://www.inkscape.org/namespaces/inkscape"
   xmlns:sodipodi="http://sodipodi.sourceforge.net/DTD/sodipodi-0.dtd"
   xmlns:xlink="http://www.w3.org/1999/xlink"
   xmlns="http://www.w3.org/2000/svg"
   xmlns:svg="http://www.w3.org/2000/svg">
  <sodipodi:namedview
     id="namedview7"
     pagecolor="#ffffff"
     bordercolor="#000000"
     borderopacity="0.25"
     inkscape:showpageshadow="2"
     inkscape:pageopacity="0.0"
     inkscape:pagecheckerboard="0"
     inkscape:deskcolor="#d1d1d1"
     inkscape:zoom="4.8163266"
     inkscape:cx="43.082627"
     inkscape:cy="23.565678"
     inkscape:window-width="1920"
     inkscape:window-height="1012"
     inkscape:window-x="0"
     inkscape:window-y="0"
     inkscape:window-maximized="1"
     inkscape:current-layer="g3" />
  <g
     transform="scale(.75)"
     id="g3">
    <path
       d="m61.122 15.88c0-2.762-2.239-5-5-5h-48.244c-2.761 0-5 2.238-5 5v32.246c0 2.761 2.239 5 5 5h48.244c2.761 0 5-2.239 5-5v-32.246z"
       style="fill:rgb(0,131,213)"
       id="path1" />
    <path
       d="m61.122 20.652c0-1.326-0.527-2.598-1.465-3.536-0.938-0.937-2.209-1.464-3.535-1.464h-25.58c-1.232 0-2.42-0.455-3.337-1.277-0.768-0.689-1.713-1.535-2.481-2.224-0.917-0.822-2.105-1.277-3.337-1.277h-13.509c-1.326 0-2.597 0.527-3.535 1.465-0.938 0.937-1.465 2.209-1.465 3.535v32.252c0 2.761 2.239 5 5 5h48.244c2.761 0 5-2.239 5-5v-27.474z"
       style="fill:url(#_Linear1)"
       id="path2" />
    <path
       id="rect7"
       style="fill:url(#linearGradient2);stroke-width:0.64444;stroke-linecap:round;stroke-miterlimit:2;paint-order:stroke markers fill"
       d="M 2.8776042 46.132812 L 2.8776042 48.125 L 2.8776042 48.127604 C 2.8778544 50.888392 5.1167585 53.125 7.8776042 53.125 L 56.122396 53.125 C 58.881183 53.125 61.118811 50.890763 61.122396 48.132812 C 61.122399 48.130612 61.122396 48.1272 61.122396 48.125 L 61.122396 46.132812 L 2.8776042 46.132812 z M 5.5130208 47.742188 C 5.5247029 47.741008 5.5348718 47.742188 5.546875 47.742188 L 8.6796875 47.742188 C 8.8717382 47.742188 9.0260417 47.896491 9.0260417 48.088542 L 9.0260417 50.901042 C 9.0260417 51.093092 8.8717382 51.247396 8.6796875 51.247396 L 5.546875 51.247396 C 5.3548243 51.247396 5.2005208 51.093092 5.2005208 50.901042 L 5.2005208 48.088542 C 5.2005208 47.908494 5.3377898 47.759877 5.5130208 47.742188 z M 20.747396 47.742188 C 20.759078 47.741008 20.769247 47.742188 20.78125 47.742188 L 23.914062 47.742188 C 24.106113 47.742188 24.260417 47.896491 24.260417 48.088542 L 24.260417 50.901042 C 24.260417 51.093093 24.106113 51.247396 23.914062 51.247396 L 20.78125 51.247396 C 20.5892 51.247396 20.434896 51.093093 20.434896 50.901042 L 20.434896 48.088542 C 20.434896 47.908494 20.572165 47.759877 20.747396 47.742188 z M 25.572917 47.742188 C 25.584599 47.741008 25.597372 47.742188 25.609375 47.742188 L 28.739583 47.742188 C 28.931633 47.742188 29.085938 47.896491 29.085938 48.088542 L 29.085938 50.901042 C 29.085938 51.093093 28.931633 51.247396 28.739583 51.247396 L 25.609375 51.247396 C 25.417324 51.247396 25.260417 51.093093 25.260417 50.901042 L 25.260417 48.088542 C 25.260417 47.908494 25.397685 47.759877 25.572917 47.742188 z M 30.398438 47.742188 C 30.41012 47.741008 30.422893 47.742188 30.434896 47.742188 L 33.565104 47.742188 C 33.757155 47.742188 33.914062 47.896491 33.914062 48.088542 L 33.914062 50.901042 C 33.914062 51.093093 33.757155 51.247396 33.565104 51.247396 L 30.434896 51.247396 C 30.242846 51.247396 30.085938 51.093093 30.085938 50.901042 L 30.085938 48.088542 C 30.085938 47.908494 30.223207 47.759877 30.398438 47.742188 z M 35.223958 47.742188 C 35.23564 47.741008 35.248413 47.742188 35.260417 47.742188 L 38.390625 47.742188 C 38.582675 47.742188 38.739583 47.896491 38.739583 48.088542 L 38.739583 50.901042 C 38.739583 51.093093 38.582675 51.247396 38.390625 51.247396 L 35.260417 51.247396 C 35.068366 51.247396 34.914062 51.093093 34.914062 50.901042 L 34.914062 48.088542 C 34.914062 47.908494 35.048727 47.759877 35.223958 47.742188 z M 40.049479 47.742188 C 40.061161 47.741008 40.073934 47.742188 40.085938 47.742188 L 43.21875 47.742188 C 43.410801 47.742188 43.565104 47.896491 43.565104 48.088542 L 43.565104 50.901042 C 43.565104 51.093093 43.410801 51.247396 43.21875 51.247396 L 40.085938 51.247396 C 39.893887 51.247396 39.739583 51.093093 39.739583 50.901042 L 39.739583 48.088542 C 39.739583 47.908494 39.874248 47.759877 40.049479 47.742188 z M 55.320312 47.875 L 58.453125 47.875 C 58.645176 47.875 58.799479 48.029303 58.799479 48.221354 L 58.799479 51.036458 C 58.799479 51.228509 58.645176 51.382812 58.453125 51.382812 L 55.320312 51.382812 C 55.128262 51.382812 54.973958 51.228509 54.973958 51.036458 L 54.973958 48.221354 C 54.973958 48.029303 55.128262 47.875 55.320312 47.875 z " />
    <g
       id="g1"
       style="fill:url(#linearGradient9)">
      <rect
         style="fill:url(#linearGradient9);fill-opacity:1;stroke-width:0.724;stroke-linecap:round;stroke-miterlimit:2;paint-order:stroke markers fill"
         id="path11"
         width="3.8256536"
         height="3.5068493"
         x="5.2006841"
         y="17.161211"
         sodipodi:type="rect"
         ry="0.3466619"
         inkscape:label="desk up" />
      <use
         x="0"
         y="0"
         xlink:href="#path11"
         id="use14"
         transform="translate(-3.5795635e-8,4.9190145)"
         inkscape:label="desk down"
         style="fill:url(#linearGradient9)" />
    </g>
  </g>
  <defs
     id="defs7">
    <linearGradient
       id="linearGradient3"
       inkscape:collect="always">
      <stop
         style="stop-color:#0b4f94;stop-opacity:1;"
         offset="0"
         id="stop8" />
      <stop
         style="stop-color:#0f6c9d;stop-opacity:1;"
         offset="1"
         id="stop9" />
    </linearGradient>
    <linearGradient
       id="linearGradient1"
       inkscape:collect="always">
      <stop
         style="stop-color:#0b4f94;stop-opacity:1;"
         offset="0.46851617"
         id="stop1" />
      <stop
         style="stop-color:#126c98;stop-opacity:1;"
         offset="0.6055966"
         id="stop2" />
    </linearGradient>
    <inkscape:path-effect
       effect="tiling"
       id="path-effect15"
       is_visible="true"
       lpeversion="1.3.1"
       unit="px"
       seed="1;1"
       lpesatellites=""
       num_rows="1"
       num_cols="5"
       gapx="1"
       gapy="0"
       offset="0"
       offset_type="false"
       scale="0"
       rotate="0"
       mirrorrowsx="false"
       mirrorrowsy="false"
       mirrorcolsx="false"
       mirrorcolsy="false"
       mirrortrans="false"
       shrink_interp="false"
       split_items="false"
       link_styles="false"
       interpolate_scalex="false"
       interpolate_scaley="true"
       interpolate_rotatex="false"
       interpolate_rotatey="true"
       random_scale="false"
       random_rotate="false"
       random_gap_y="false"
       random_gap_x="false"
       transformorigin="" />
    <inkscape:path-effect
       effect="tiling"
       id="path-effect13"
       is_visible="true"
       lpeversion="1.3.1"
       unit="px"
       seed="1;1"
       lpesatellites=""
       num_rows="2"
       num_cols="1"
       gapx="1"
       gapy="1"
       offset="0"
       offset_type="false"
       scale="0"
       rotate="0"
       mirrorrowsx="false"
       mirrorrowsy="false"
       mirrorcolsx="false"
       mirrorcolsy="false"
       mirrortrans="false"
       shrink_interp="false"
       split_items="false"
       link_styles="false"
       interpolate_scalex="false"
       interpolate_scaley="true"
       interpolate_rotatex="false"
       interpolate_rotatey="true"
       random_scale="false"
       random_rotate="false"
       random_gap_y="false"
       random_gap_x="false"
       transformorigin="" />
    <inkscape:path-effect
       effect="tiling"
       id="path-effect11"
       is_visible="true"
       lpeversion="1.3.1"
       unit="px"
       seed="1;1"
       lpesatellites=""
       num_rows="1"
       num_cols="5"
       gapx="1"
       gapy="0"
       offset="0"
       offset_type="false"
       scale="0"
       rotate="0"
       mirrorrowsx="false"
       mirrorrowsy="false"
       mirrorcolsx="false"
       mirrorcolsy="false"
       mirrortrans="false"
       shrink_interp="false"
       split_items="false"
       link_styles="false"
       interpolate_scalex="false"
       interpolate_scaley="true"
       interpolate_rotatex="false"
       interpolate_rotatey="true"
       random_scale="false"
       random_rotate="false"
       random_gap_y="false"
       random_gap_x="false"
       transformorigin="" />
    <inkscape:path-effect
       effect="fillet_chamfer"
       id="path-effect10"
       is_visible="true"
       lpeversion="1"
       nodesatellites_param="IC,0,0,1,0,100,0,1 @ IC,0,0,1,0,100,0,1 @ IC,0,0,1,0,100,0,1 @ IC,0,0,1,0,100,0,1"
       radius="100"
       unit="px"
       method="auto"
       mode="F"
       chamfer_steps="1"
       flexible="false"
       use_knot_distance="true"
       apply_no_radius="true"
       apply_with_radius="true"
       only_selected="false"
       hide_knots="false" />
    <linearGradient
       id="_Linear1"
       x2="1"
       gradientTransform="matrix(2.54933e-15,-41.6338,41.6338,2.54933e-15,445.153,52.7218)"
       gradientUnits="userSpaceOnUse">
      <stop
         style="stop-color:rgb(16,117,246)"
         offset="0"
         id="stop3" />
      <stop
         style="stop-color:rgb(18,197,255)"
         offset="1"
         id="stop4" />
    </linearGradient>
    <linearGradient
       id="_Linear2"
       x2="1"
       gradientTransform="matrix(.0728947 23.5253 -23.5253 .0728947 -473.703 23.0586)"
       gradientUnits="userSpaceOnUse">
      <stop
         style="stop-color:rgb(19,112,152)"
         offset="0"
         id="stop5" />
      <stop
         style="stop-color:rgb(19,112,152)"
         offset=".5"
         id="stop6" />
      <stop
         style="stop-color:rgb(11,78,148)"
         offset="1"
         id="stop7" />
    </linearGradient>
    <linearGradient
       inkscape:collect="always"
       xlink:href="#linearGradient1"
       id="linearGradient2"
       x1="31.999996"
       y1="78.751289"
       x2="31.999998"
       y2="20.506508"
       gradientUnits="userSpaceOnUse"
       gradientTransform="translate(-3.96e-4,0.001)" />
    <linearGradient
       inkscape:collect="always"
       xlink:href="#linearGradient3"
       id="linearGradient9"
       x1="7.1135111"
       y1="23.286972"
       x2="7.1135111"
       y2="19.461315"
       gradientUnits="userSpaceOnUse" />
    <linearGradient
       id="_Linear1-6"
       x2="1"
       gradientTransform="matrix(0,-41.6338,41.6338,0,381.44763,53.62845)"
       gradientUnits="userSpaceOnUse">
      <stop
         style="stop-color:rgb(16,117,246)"
         offset="0"
         id="stop3-0" />
      <stop
         style="stop-color:rgb(18,197,255)"
         offset="1"
         id="stop4-6" />
    </linearGradient>
    <linearGradient
       id="_Linear2-2"
       x2="1"
       gradientTransform="matrix(0,21.3774,-21.3774,0,-521.82537,23.83345)"
       gradientUnits="userSpaceOnUse">
      <stop
         style="stop-color:rgb(18,108,152)"
         offset="0"
         id="stop5-6" />
      <stop
         style="stop-color:rgb(11,79,148)"
         offset="1"
         id="stop6-1" />
    </linearGradient>
  </defs>
</svg>
